<svg width="24" height="24" viewBox="0 0 24 24" fill="none" xmlns="http://www.w3.org/2000/svg">
<path d="M20.6196 13.0699C20.2396 13.0699 19.9196 12.7799 19.8696 12.3999C19.6296 10.1399 18.4096 8.08986 16.5296 6.78986C16.1896 6.54986 16.1096 6.08986 16.3396 5.74986C16.5796 5.40986 17.0496 5.32986 17.3796 5.55986C19.6196 7.10986 21.0596 9.54986 21.3496 12.2399C21.3896 12.6499 21.0996 13.0199 20.6796 13.0699C20.6696 13.0699 20.6396 13.0699 20.6196 13.0699Z" fill="#292D32"/>
<path d="M3.48991 13.1198C3.45991 13.1198 3.43991 13.1198 3.40991 13.1198C2.99991 13.0698 2.69991 12.6998 2.73991 12.2898C3.00991 9.59977 4.43991 7.16977 6.64991 5.59977C6.98991 5.35977 7.45991 5.43977 7.69991 5.77977C7.93991 6.11977 7.85991 6.58977 7.51991 6.82977C5.65991 8.13977 4.45991 10.1898 4.22991 12.4498C4.19991 12.8298 3.86991 13.1198 3.48991 13.1198Z" fill="#292D32"/>
<path d="M12.06 22.61C10.58 22.61 9.16997 22.27 7.84997 21.61C7.47997 21.42 7.32997 20.97 7.51997 20.6C7.70997 20.23 8.15997 20.08 8.52997 20.27C10.69 21.36 13.29 21.38 15.47 20.33C15.84 20.15 16.29 20.31 16.47 20.68C16.65 21.05 16.49 21.5 16.12 21.68C14.84 22.3 13.48 22.61 12.06 22.61Z" fill="#292D32"/>
<path d="M12.0593 8.43988C10.1093 8.43988 8.5293 6.85988 8.5293 4.90988C8.5293 2.95988 10.1093 1.37988 12.0593 1.37988C14.0093 1.37988 15.5893 2.95988 15.5893 4.90988C15.5893 6.85988 13.9993 8.43988 12.0593 8.43988ZM12.0593 2.88988C10.9393 2.88988 10.0293 3.79988 10.0293 4.91988C10.0293 6.03988 10.9393 6.94988 12.0593 6.94988C13.1793 6.94988 14.0893 6.03988 14.0893 4.91988C14.0893 3.79988 13.1693 2.88988 12.0593 2.88988Z" fill="#292D32"/>
<path d="M4.83078 20.6699C2.88078 20.6699 1.30078 19.0899 1.30078 17.1399C1.30078 15.1999 2.88078 13.6099 4.83078 13.6099C6.78078 13.6099 8.36078 15.1899 8.36078 17.1399C8.36078 19.0799 6.78078 20.6699 4.83078 20.6699ZM4.83078 15.1099C3.71078 15.1099 2.80078 16.0199 2.80078 17.1399C2.80078 18.2599 3.71078 19.1699 4.83078 19.1699C5.95078 19.1699 6.86078 18.2599 6.86078 17.1399C6.86078 16.0199 5.95078 15.1099 4.83078 15.1099Z" fill="#292D32"/>
<path d="M19.1706 20.6699C17.2206 20.6699 15.6406 19.0899 15.6406 17.1399C15.6406 15.1999 17.2206 13.6099 19.1706 13.6099C21.1206 13.6099 22.7006 15.1899 22.7006 17.1399C22.6906 19.0799 21.1106 20.6699 19.1706 20.6699ZM19.1706 15.1099C18.0506 15.1099 17.1406 16.0199 17.1406 17.1399C17.1406 18.2599 18.0506 19.1699 19.1706 19.1699C20.2906 19.1699 21.2006 18.2599 21.2006 17.1399C21.1906 16.0199 20.2906 15.1099 19.1706 15.1099Z" fill="#292D32"/>
</svg>
