<svg width="40" height="40" viewBox="0 0 40 40" fill="none" xmlns="http://www.w3.org/2000/svg">
<path d="M20 8C13.388 8 8 13.388 8 20C8 26.612 13.388 32 20 32C26.612 32 32 26.612 32 20C32 13.388 26.612 8 20 8ZM24.8 20.9H20.9V24.8C20.9 25.292 20.492 25.7 20 25.7C19.508 25.7 19.1 25.292 19.1 24.8V20.9H15.2C14.708 20.9 14.3 20.492 14.3 20C14.3 19.508 14.708 19.1 15.2 19.1H19.1V15.2C19.1 14.708 19.508 14.3 20 14.3C20.492 14.3 20.9 14.708 20.9 15.2V19.1H24.8C25.292 19.1 25.7 19.508 25.7 20C25.7 20.492 25.292 20.9 24.8 20.9Z" fill="#2F6D67"/>
<rect x="1" y="1" width="38" height="38" rx="19" stroke="#CCCCCC" stroke-width="2" stroke-dasharray="4 4"/>
</svg>
