<svg width="64" height="64" viewBox="0 0 64 64" fill="none" xmlns="http://www.w3.org/2000/svg">
<path d="M32.0027 12.7969C21.4235 12.7969 12.8027 21.4177 12.8027 31.9969C12.8027 42.5761 21.4235 51.1969 32.0027 51.1969C42.5819 51.1969 51.2027 42.5761 51.2027 31.9969C51.2027 21.4177 42.5819 12.7969 32.0027 12.7969ZM39.6827 33.4369H33.4427V39.6769C33.4427 40.4641 32.7899 41.1169 32.0027 41.1169C31.2155 41.1169 30.5627 40.4641 30.5627 39.6769V33.4369H24.3227C23.5355 33.4369 22.8827 32.7841 22.8827 31.9969C22.8827 31.2097 23.5355 30.5569 24.3227 30.5569H30.5627V24.3169C30.5627 23.5297 31.2155 22.8769 32.0027 22.8769C32.7899 22.8769 33.4427 23.5297 33.4427 24.3169V30.5569H39.6827C40.4699 30.5569 41.1227 31.2097 41.1227 31.9969C41.1227 32.7841 40.4699 33.4369 39.6827 33.4369Z" fill="#2F6D67"/>
<rect x="0.857143" y="0.857143" width="62.2857" height="62.2857" rx="31.1429" stroke="#CCCCCC" stroke-width="1.71429" stroke-dasharray="3.43 3.43"/>
</svg>
