<svg width="40" height="40" viewBox="0 0 40 40" fill="none" xmlns="http://www.w3.org/2000/svg">
<circle cx="20" cy="20" r="20" fill="#FCEDED"/>
<path d="M19.9993 6.66602C12.6527 6.66602 6.66602 12.6527 6.66602 19.9993C6.66602 27.346 12.6527 33.3327 19.9993 33.3327C27.346 33.3327 33.3327 27.346 33.3327 19.9993C33.3327 12.6527 27.346 6.66602 19.9993 6.66602ZM25.3327 20.9993H20.9993V25.3327C20.9993 25.8793 20.546 26.3327 19.9993 26.3327C19.4527 26.3327 18.9993 25.8793 18.9993 25.3327V20.9993H14.666C14.1193 20.9993 13.666 20.546 13.666 19.9993C13.666 19.4527 14.1193 18.9993 14.666 18.9993H18.9993V14.666C18.9993 14.1193 19.4527 13.666 19.9993 13.666C20.546 13.666 20.9993 14.1193 20.9993 14.666V18.9993H25.3327C25.8793 18.9993 26.3327 19.4527 26.3327 19.9993C26.3327 20.546 25.8793 20.9993 25.3327 20.9993Z" fill="#DD3737"/>
</svg>
