<svg width="183" height="192" viewBox="0 0 183 192" fill="none" xmlns="http://www.w3.org/2000/svg">
<rect width="183" height="192" fill="#F2F2F2"/>
<rect y="40" width="183" height="1" fill="#E6E6E6"/>
<path d="M92.0016 101.6C84.0672 101.6 77.6016 108.065 77.6016 116C77.6016 123.934 84.0672 130.4 92.0016 130.4C99.936 130.4 106.402 123.934 106.402 116C106.402 108.065 99.936 101.6 92.0016 101.6ZM97.7616 117.08H93.0816V121.76C93.0816 122.35 92.592 122.84 92.0016 122.84C91.4112 122.84 90.9216 122.35 90.9216 121.76V117.08H86.2416C85.6512 117.08 85.1616 116.59 85.1616 116C85.1616 115.409 85.6512 114.92 86.2416 114.92H90.9216V110.24C90.9216 109.649 91.4112 109.16 92.0016 109.16C92.592 109.16 93.0816 109.649 93.0816 110.24V114.92H97.7616C98.352 114.92 98.8416 115.409 98.8416 116C98.8416 116.59 98.352 117.08 97.7616 117.08Z" fill="#214660"/>
<rect x="69" y="93" width="46" height="46" rx="23" stroke="#FC8A8A" stroke-width="2" stroke-dasharray="4 4"/>
<path d="M33.0479 24H31.3604L34.4329 15.2727H36.3846L39.4613 24H37.7738L35.4428 17.0625H35.3746L33.0479 24ZM33.1033 20.5781H37.7056V21.848H33.1033V20.5781ZM42.7724 24.1151C42.2582 24.1151 41.7979 23.983 41.3917 23.7188C40.9854 23.4545 40.6644 23.071 40.4286 22.5682C40.1928 22.0653 40.0749 21.4545 40.0749 20.7358C40.0749 20.0085 40.1942 19.3949 40.4329 18.8949C40.6744 18.392 40.9996 18.0128 41.4087 17.7571C41.8178 17.4986 42.2738 17.3693 42.7766 17.3693C43.1602 17.3693 43.4755 17.4347 43.7227 17.5653C43.9698 17.6932 44.1658 17.848 44.3107 18.0298C44.4556 18.2088 44.5678 18.3778 44.6474 18.5369H44.7113V15.2727H46.2582V24H44.7411V22.9688H44.6474C44.5678 23.1278 44.4528 23.2969 44.3022 23.4759C44.1516 23.652 43.9528 23.8026 43.7056 23.9276C43.4585 24.0526 43.1474 24.1151 42.7724 24.1151ZM43.2028 22.8494C43.5295 22.8494 43.8079 22.7614 44.038 22.5852C44.2681 22.4062 44.4428 22.1577 44.5621 21.8395C44.6815 21.5213 44.7411 21.1506 44.7411 20.7273C44.7411 20.304 44.6815 19.9361 44.5621 19.6236C44.4457 19.3111 44.2724 19.0682 44.0423 18.8949C43.815 18.7216 43.5352 18.6349 43.2028 18.6349C42.859 18.6349 42.5721 18.7244 42.342 18.9034C42.1119 19.0824 41.9386 19.3295 41.8221 19.6449C41.7056 19.9602 41.6474 20.321 41.6474 20.7273C41.6474 21.1364 41.7056 21.5014 41.8221 21.8224C41.9414 22.1406 42.1161 22.392 42.3462 22.5767C42.5792 22.7585 42.8647 22.8494 43.2028 22.8494ZM50.331 24.1151C49.8168 24.1151 49.3565 23.983 48.9503 23.7188C48.544 23.4545 48.223 23.071 47.9872 22.5682C47.7514 22.0653 47.6335 21.4545 47.6335 20.7358C47.6335 20.0085 47.7528 19.3949 47.9915 18.8949C48.233 18.392 48.5582 18.0128 48.9673 17.7571C49.3764 17.4986 49.8324 17.3693 50.3352 17.3693C50.7188 17.3693 51.0341 17.4347 51.2812 17.5653C51.5284 17.6932 51.7244 17.848 51.8693 18.0298C52.0142 18.2088 52.1264 18.3778 52.206 18.5369H52.2699V15.2727H53.8168V24H52.2997V22.9688H52.206C52.1264 23.1278 52.0114 23.2969 51.8608 23.4759C51.7102 23.652 51.5114 23.8026 51.2642 23.9276C51.017 24.0526 50.706 24.1151 50.331 24.1151ZM50.7614 22.8494C51.0881 22.8494 51.3665 22.7614 51.5966 22.5852C51.8267 22.4062 52.0014 22.1577 52.1207 21.8395C52.2401 21.5213 52.2997 21.1506 52.2997 20.7273C52.2997 20.304 52.2401 19.9361 52.1207 19.6236C52.0043 19.3111 51.831 19.0682 51.6009 18.8949C51.3736 18.7216 51.0938 18.6349 50.7614 18.6349C50.4176 18.6349 50.1307 18.7244 49.9006 18.9034C49.6705 19.0824 49.4972 19.3295 49.3807 19.6449C49.2642 19.9602 49.206 20.321 49.206 20.7273C49.206 21.1364 49.2642 21.5014 49.3807 21.8224C49.5 22.1406 49.6747 22.392 49.9048 22.5767C50.1378 22.7585 50.4233 22.8494 50.7614 22.8494ZM55.4606 24V17.4545H57.0032V24H55.4606ZM56.2362 16.5256C55.9918 16.5256 55.7816 16.4446 55.6055 16.2827C55.4293 16.1179 55.3413 15.9205 55.3413 15.6903C55.3413 15.4574 55.4293 15.2599 55.6055 15.098C55.7816 14.9332 55.9918 14.8509 56.2362 14.8509C56.4833 14.8509 56.6935 14.9332 56.8668 15.098C57.043 15.2599 57.131 15.4574 57.131 15.6903C57.131 15.9205 57.043 16.1179 56.8668 16.2827C56.6935 16.4446 56.4833 16.5256 56.2362 16.5256ZM61.858 17.4545V18.6477H58.0952V17.4545H61.858ZM59.0241 15.8864H60.5668V22.0312C60.5668 22.2386 60.598 22.3977 60.6605 22.5085C60.7259 22.6165 60.8111 22.6903 60.9162 22.7301C61.0213 22.7699 61.1378 22.7898 61.2656 22.7898C61.3622 22.7898 61.4503 22.7827 61.5298 22.7685C61.6122 22.7543 61.6747 22.7415 61.7173 22.7301L61.9773 23.9361C61.8949 23.9645 61.777 23.9957 61.6236 24.0298C61.473 24.0639 61.2884 24.0838 61.0696 24.0895C60.6832 24.1009 60.3352 24.0426 60.0256 23.9148C59.7159 23.7841 59.4702 23.5824 59.2884 23.3097C59.1094 23.0369 59.0213 22.696 59.0241 22.2869V15.8864ZM63.1481 24V17.4545H64.6907V24H63.1481ZM63.9237 16.5256C63.6793 16.5256 63.4691 16.4446 63.293 16.2827C63.1168 16.1179 63.0288 15.9205 63.0288 15.6903C63.0288 15.4574 63.1168 15.2599 63.293 15.098C63.4691 14.9332 63.6793 14.8509 63.9237 14.8509C64.1708 14.8509 64.381 14.9332 64.5543 15.098C64.7305 15.2599 64.8185 15.4574 64.8185 15.6903C64.8185 15.9205 64.7305 16.1179 64.5543 16.2827C64.381 16.4446 64.1708 16.5256 63.9237 16.5256ZM69.1321 24.1278C68.4929 24.1278 67.9389 23.9872 67.4702 23.706C67.0014 23.4247 66.6378 23.0312 66.3793 22.5256C66.1236 22.0199 65.9957 21.429 65.9957 20.7528C65.9957 20.0767 66.1236 19.4844 66.3793 18.9759C66.6378 18.4673 67.0014 18.0724 67.4702 17.7912C67.9389 17.5099 68.4929 17.3693 69.1321 17.3693C69.7713 17.3693 70.3253 17.5099 70.794 17.7912C71.2628 18.0724 71.625 18.4673 71.8807 18.9759C72.1392 19.4844 72.2685 20.0767 72.2685 20.7528C72.2685 21.429 72.1392 22.0199 71.8807 22.5256C71.625 23.0312 71.2628 23.4247 70.794 23.706C70.3253 23.9872 69.7713 24.1278 69.1321 24.1278ZM69.1406 22.892C69.4872 22.892 69.777 22.7969 70.0099 22.6065C70.2429 22.4134 70.4162 22.1548 70.5298 21.831C70.6463 21.5071 70.7045 21.1463 70.7045 20.7486C70.7045 20.348 70.6463 19.9858 70.5298 19.6619C70.4162 19.3352 70.2429 19.0753 70.0099 18.8821C69.777 18.6889 69.4872 18.5923 69.1406 18.5923C68.7855 18.5923 68.4901 18.6889 68.2543 18.8821C68.0213 19.0753 67.8466 19.3352 67.7301 19.6619C67.6165 19.9858 67.5597 20.348 67.5597 20.7486C67.5597 21.1463 67.6165 21.5071 67.7301 21.831C67.8466 22.1548 68.0213 22.4134 68.2543 22.6065C68.4901 22.7969 68.7855 22.892 69.1406 22.892ZM75.1204 20.1648V24H73.5778V17.4545H75.0522V18.5668H75.1289C75.2795 18.2003 75.5195 17.9091 75.8491 17.6932C76.1815 17.4773 76.592 17.3693 77.0806 17.3693C77.5323 17.3693 77.9258 17.4659 78.261 17.6591C78.5991 17.8523 78.8604 18.1321 79.0451 18.4986C79.2326 18.8651 79.3249 19.3097 79.3221 19.8324V24H77.7795V20.071C77.7795 19.6335 77.6658 19.2912 77.4386 19.044C77.2141 18.7969 76.9031 18.6733 76.5053 18.6733C76.2354 18.6733 75.9954 18.733 75.7852 18.8523C75.5778 18.9687 75.4144 19.1378 75.2951 19.3594C75.1786 19.581 75.1204 19.8494 75.1204 20.1648ZM82.7738 24.1321C82.359 24.1321 81.9854 24.0582 81.6531 23.9105C81.3235 23.7599 81.0621 23.5384 80.869 23.2457C80.6786 22.9531 80.5835 22.5923 80.5835 22.1634C80.5835 21.794 80.6516 21.4886 80.788 21.2472C80.9244 21.0057 81.1104 20.8125 81.3462 20.6676C81.582 20.5227 81.8477 20.4134 82.1431 20.3395C82.4414 20.2628 82.7496 20.2074 83.0678 20.1733C83.4513 20.1335 83.7624 20.098 84.0011 20.0668C84.2397 20.0327 84.413 19.9815 84.521 19.9134C84.6317 19.8423 84.6871 19.733 84.6871 19.5852V19.5597C84.6871 19.2386 84.592 18.9901 84.4016 18.8139C84.2113 18.6378 83.9371 18.5497 83.5792 18.5497C83.2013 18.5497 82.9016 18.6321 82.68 18.7969C82.4613 18.9616 82.3136 19.1562 82.2369 19.3807L80.7965 19.1761C80.9102 18.7784 81.0977 18.446 81.359 18.179C81.6204 17.9091 81.94 17.7074 82.3178 17.5739C82.6957 17.4375 83.1133 17.3693 83.5707 17.3693C83.886 17.3693 84.1999 17.4062 84.5124 17.4801C84.8249 17.554 85.1104 17.6761 85.369 17.8466C85.6275 18.0142 85.8349 18.2429 85.9911 18.5327C86.1502 18.8224 86.2298 19.1847 86.2298 19.6193V24H84.7468V23.1009H84.6957C84.6019 23.2827 84.4698 23.4531 84.2994 23.6122C84.1317 23.7685 83.9201 23.8949 83.6644 23.9915C83.4116 24.0852 83.1147 24.1321 82.7738 24.1321ZM83.1744 22.9986C83.484 22.9986 83.7525 22.9375 83.9798 22.8153C84.207 22.6903 84.3817 22.5256 84.5039 22.321C84.6289 22.1165 84.6914 21.8935 84.6914 21.652V20.8807C84.6431 20.9205 84.5607 20.9574 84.4442 20.9915C84.3306 21.0256 84.2028 21.0554 84.0607 21.081C83.9187 21.1065 83.7781 21.1293 83.6388 21.1491C83.4996 21.169 83.3789 21.1861 83.2766 21.2003C83.0465 21.2315 82.8406 21.2827 82.6587 21.3537C82.4769 21.4247 82.3335 21.5241 82.2283 21.652C82.1232 21.777 82.0707 21.9389 82.0707 22.1378C82.0707 22.4219 82.1744 22.6364 82.3817 22.7812C82.5891 22.9261 82.8533 22.9986 83.1744 22.9986ZM89.3235 15.2727V24H87.7809V15.2727H89.3235ZM96.3153 24.1151C95.8011 24.1151 95.3409 23.983 94.9347 23.7188C94.5284 23.4545 94.2074 23.071 93.9716 22.5682C93.7358 22.0653 93.6179 21.4545 93.6179 20.7358C93.6179 20.0085 93.7372 19.3949 93.9759 18.8949C94.2173 18.392 94.5426 18.0128 94.9517 17.7571C95.3608 17.4986 95.8168 17.3693 96.3196 17.3693C96.7031 17.3693 97.0185 17.4347 97.2656 17.5653C97.5128 17.6932 97.7088 17.848 97.8537 18.0298C97.9986 18.2088 98.1108 18.3778 98.1903 18.5369H98.2543V15.2727H99.8011V24H98.2841V22.9688H98.1903C98.1108 23.1278 97.9957 23.2969 97.8452 23.4759C97.6946 23.652 97.4957 23.8026 97.2486 23.9276C97.0014 24.0526 96.6903 24.1151 96.3153 24.1151ZM96.7457 22.8494C97.0724 22.8494 97.3509 22.7614 97.581 22.5852C97.8111 22.4062 97.9858 22.1577 98.1051 21.8395C98.2244 21.5213 98.2841 21.1506 98.2841 20.7273C98.2841 20.304 98.2244 19.9361 98.1051 19.6236C97.9886 19.3111 97.8153 19.0682 97.5852 18.8949C97.358 18.7216 97.0781 18.6349 96.7457 18.6349C96.402 18.6349 96.1151 18.7244 95.8849 18.9034C95.6548 19.0824 95.4815 19.3295 95.3651 19.6449C95.2486 19.9602 95.1903 20.321 95.1903 20.7273C95.1903 21.1364 95.2486 21.5014 95.3651 21.8224C95.4844 22.1406 95.6591 22.392 95.8892 22.5767C96.1222 22.7585 96.4077 22.8494 96.7457 22.8494ZM104.3 24.1278C103.661 24.1278 103.107 23.9872 102.638 23.706C102.169 23.4247 101.806 23.0312 101.547 22.5256C101.292 22.0199 101.164 21.429 101.164 20.7528C101.164 20.0767 101.292 19.4844 101.547 18.9759C101.806 18.4673 102.169 18.0724 102.638 17.7912C103.107 17.5099 103.661 17.3693 104.3 17.3693C104.939 17.3693 105.493 17.5099 105.962 17.7912C106.431 18.0724 106.793 18.4673 107.049 18.9759C107.307 19.4844 107.436 20.0767 107.436 20.7528C107.436 21.429 107.307 22.0199 107.049 22.5256C106.793 23.0312 106.431 23.4247 105.962 23.706C105.493 23.9872 104.939 24.1278 104.3 24.1278ZM104.309 22.892C104.655 22.892 104.945 22.7969 105.178 22.6065C105.411 22.4134 105.584 22.1548 105.698 21.831C105.814 21.5071 105.873 21.1463 105.873 20.7486C105.873 20.348 105.814 19.9858 105.698 19.6619C105.584 19.3352 105.411 19.0753 105.178 18.8821C104.945 18.6889 104.655 18.5923 104.309 18.5923C103.953 18.5923 103.658 18.6889 103.422 18.8821C103.189 19.0753 103.015 19.3352 102.898 19.6619C102.784 19.9858 102.728 20.348 102.728 20.7486C102.728 21.1463 102.784 21.5071 102.898 21.831C103.015 22.1548 103.189 22.4134 103.422 22.6065C103.658 22.7969 103.953 22.892 104.309 22.892ZM111.601 24.1278C110.947 24.1278 110.386 23.9844 109.918 23.6974C109.452 23.4105 109.092 23.0142 108.839 22.5085C108.589 22 108.464 21.4148 108.464 20.7528C108.464 20.0881 108.592 19.5014 108.848 18.9929C109.104 18.4815 109.464 18.0838 109.93 17.7997C110.399 17.5128 110.953 17.3693 111.592 17.3693C112.124 17.3693 112.594 17.4673 113.003 17.6634C113.415 17.8565 113.743 18.1307 113.987 18.4858C114.232 18.8381 114.371 19.25 114.405 19.7216H112.93C112.871 19.4062 112.729 19.1435 112.504 18.9332C112.283 18.7202 111.986 18.6136 111.614 18.6136C111.298 18.6136 111.021 18.6989 110.783 18.8693C110.544 19.0369 110.358 19.2784 110.224 19.5938C110.094 19.9091 110.028 20.2869 110.028 20.7273C110.028 21.1733 110.094 21.5568 110.224 21.8778C110.355 22.196 110.538 22.4418 110.774 22.6151C111.013 22.7855 111.293 22.8707 111.614 22.8707C111.841 22.8707 112.044 22.8281 112.223 22.7429C112.405 22.6548 112.557 22.5284 112.679 22.3636C112.801 22.1989 112.885 21.9986 112.93 21.7628H114.405C114.368 22.2259 114.232 22.6364 113.996 22.9943C113.76 23.3494 113.439 23.6278 113.033 23.8295C112.626 24.0284 112.149 24.1278 111.601 24.1278ZM119.843 21.2472V17.4545H121.386V24H119.89V22.8366H119.822C119.674 23.2031 119.431 23.5028 119.093 23.7358C118.758 23.9687 118.345 24.0852 117.853 24.0852C117.424 24.0852 117.045 23.9901 116.716 23.7997C116.389 23.6065 116.133 23.3267 115.949 22.9602C115.764 22.5909 115.672 22.1449 115.672 21.6222V17.4545H117.214V21.3835C117.214 21.7983 117.328 22.1278 117.555 22.3722C117.782 22.6165 118.081 22.7386 118.45 22.7386C118.677 22.7386 118.897 22.6832 119.11 22.5724C119.324 22.4616 119.498 22.2969 119.635 22.0781C119.774 21.8565 119.843 21.5795 119.843 21.2472ZM122.972 24V17.4545H124.447V18.5668H124.523C124.66 18.1918 124.886 17.8991 125.201 17.6889C125.516 17.4759 125.893 17.3693 126.33 17.3693C126.773 17.3693 127.147 17.4773 127.451 17.6932C127.758 17.9062 127.974 18.1974 128.099 18.5668H128.167C128.312 18.2031 128.556 17.9134 128.9 17.6974C129.246 17.4787 129.657 17.3693 130.131 17.3693C130.734 17.3693 131.225 17.5597 131.606 17.9403C131.987 18.321 132.177 18.8764 132.177 19.6065V24H130.63V19.8452C130.63 19.4389 130.522 19.142 130.306 18.9545C130.09 18.7642 129.826 18.669 129.513 18.669C129.141 18.669 128.85 18.7855 128.64 19.0185C128.433 19.2486 128.329 19.5483 128.329 19.9176V24H126.816V19.7812C126.816 19.4432 126.714 19.1733 126.509 18.9716C126.308 18.7699 126.043 18.669 125.717 18.669C125.495 18.669 125.293 18.7259 125.112 18.8395C124.93 18.9503 124.785 19.108 124.677 19.3125C124.569 19.5142 124.515 19.75 124.515 20.0199V24H122.972ZM136.64 24.1278C135.983 24.1278 135.417 23.9915 134.939 23.7188C134.465 23.4432 134.1 23.054 133.844 22.5511C133.588 22.0455 133.461 21.4503 133.461 20.7656C133.461 20.0923 133.588 19.5014 133.844 18.9929C134.103 18.4815 134.463 18.0838 134.926 17.7997C135.39 17.5128 135.934 17.3693 136.559 17.3693C136.962 17.3693 137.343 17.4347 137.701 17.5653C138.061 17.6932 138.38 17.892 138.655 18.1619C138.934 18.4318 139.152 18.7756 139.311 19.1932C139.471 19.608 139.55 20.1023 139.55 20.6761V21.1491H134.185V20.1094H138.071C138.069 19.8139 138.005 19.5511 137.88 19.321C137.755 19.0881 137.58 18.9048 137.355 18.7713C137.134 18.6378 136.875 18.571 136.58 18.571C136.265 18.571 135.988 18.6477 135.749 18.8011C135.51 18.9517 135.324 19.1506 135.191 19.3977C135.06 19.642 134.993 19.9105 134.99 20.2031V21.1108C134.99 21.4915 135.06 21.8182 135.199 22.0909C135.338 22.3608 135.533 22.5682 135.783 22.7131C136.033 22.8551 136.326 22.9261 136.661 22.9261C136.885 22.9261 137.088 22.8949 137.27 22.8324C137.452 22.767 137.61 22.6719 137.743 22.5469C137.877 22.4219 137.978 22.267 138.046 22.0824L139.486 22.2443C139.395 22.625 139.222 22.9574 138.966 23.2415C138.713 23.5227 138.39 23.7415 137.995 23.8977C137.6 24.0511 137.148 24.1278 136.64 24.1278ZM142.398 20.1648V24H140.855V17.4545H142.33V18.5668H142.406C142.557 18.2003 142.797 17.9091 143.126 17.6932C143.459 17.4773 143.869 17.3693 144.358 17.3693C144.81 17.3693 145.203 17.4659 145.538 17.6591C145.876 17.8523 146.138 18.1321 146.322 18.4986C146.51 18.8651 146.602 19.3097 146.599 19.8324V24H145.057V20.071C145.057 19.6335 144.943 19.2912 144.716 19.044C144.491 18.7969 144.18 18.6733 143.783 18.6733C143.513 18.6733 143.273 18.733 143.062 18.8523C142.855 18.9687 142.692 19.1378 142.572 19.3594C142.456 19.581 142.398 19.8494 142.398 20.1648ZM151.436 17.4545V18.6477H147.673V17.4545H151.436ZM148.602 15.8864H150.145V22.0312C150.145 22.2386 150.176 22.3977 150.239 22.5085C150.304 22.6165 150.389 22.6903 150.494 22.7301C150.599 22.7699 150.716 22.7898 150.844 22.7898C150.94 22.7898 151.028 22.7827 151.108 22.7685C151.19 22.7543 151.253 22.7415 151.295 22.7301L151.555 23.9361C151.473 23.9645 151.355 23.9957 151.202 24.0298C151.051 24.0639 150.866 24.0838 150.648 24.0895C150.261 24.1009 149.913 24.0426 149.604 23.9148C149.294 23.7841 149.048 23.5824 148.866 23.3097C148.688 23.0369 148.599 22.696 148.602 22.2869V15.8864Z" fill="#274B73"/>
</svg>
