<svg width="56" height="56" viewBox="0 0 56 56" fill="none" xmlns="http://www.w3.org/2000/svg">
<path d="M27.9992 11.2002C18.7424 11.2002 11.1992 18.7434 11.1992 28.0002C11.1992 37.257 18.7424 44.8002 27.9992 44.8002C37.256 44.8002 44.7992 37.257 44.7992 28.0002C44.7992 18.7434 37.256 11.2002 27.9992 11.2002ZM34.7192 29.2602H29.2592V34.7202C29.2592 35.409 28.688 35.9802 27.9992 35.9802C27.3104 35.9802 26.7392 35.409 26.7392 34.7202V29.2602H21.2792C20.5904 29.2602 20.0192 28.689 20.0192 28.0002C20.0192 27.3114 20.5904 26.7402 21.2792 26.7402H26.7392V21.2802C26.7392 20.5914 27.3104 20.0202 27.9992 20.0202C28.688 20.0202 29.2592 20.5914 29.2592 21.2802V26.7402H34.7192C35.408 26.7402 35.9792 27.3114 35.9792 28.0002C35.9792 28.689 35.408 29.2602 34.7192 29.2602Z" fill="#DD3737"/>
<rect x="1" y="1" width="54" height="54" rx="27" stroke="#274B73" stroke-width="2" stroke-dasharray="4 4"/>
</svg>
