<svg width="183" height="192" viewBox="0 0 183 192" fill="none" xmlns="http://www.w3.org/2000/svg">
<rect width="183" height="192" fill="#F2F2F2"/>
<rect y="40" width="183" height="1" fill="#E6E6E6"/>
<path d="M92.0016 101.6C84.0672 101.6 77.6016 108.065 77.6016 116C77.6016 123.934 84.0672 130.4 92.0016 130.4C99.936 130.4 106.402 123.934 106.402 116C106.402 108.065 99.936 101.6 92.0016 101.6ZM97.7616 117.08H93.0816V121.76C93.0816 122.35 92.592 122.84 92.0016 122.84C91.4112 122.84 90.9216 122.35 90.9216 121.76V117.08H86.2416C85.6512 117.08 85.1616 116.59 85.1616 116C85.1616 115.409 85.6512 114.92 86.2416 114.92H90.9216V110.24C90.9216 109.649 91.4112 109.16 92.0016 109.16C92.592 109.16 93.0816 109.649 93.0816 110.24V114.92H97.7616C98.352 114.92 98.8416 115.409 98.8416 116C98.8416 116.59 98.352 117.08 97.7616 117.08Z" fill="#214660"/>
<rect x="69" y="93" width="46" height="46" rx="23" stroke="#FC8A8A" stroke-width="2" stroke-dasharray="4 4"/>
<path d="M44.1515 24H42.464L45.5364 15.2727H47.4881L50.5648 24H48.8773L46.5463 17.0625H46.4782L44.1515 24ZM44.2069 20.5781H48.8091V21.848H44.2069V20.5781ZM53.8759 24.1151C53.3617 24.1151 52.9015 23.983 52.4952 23.7188C52.089 23.4545 51.7679 23.071 51.5321 22.5682C51.2963 22.0653 51.1784 21.4545 51.1784 20.7358C51.1784 20.0085 51.2978 19.3949 51.5364 18.8949C51.7779 18.392 52.1032 18.0128 52.5123 17.7571C52.9213 17.4986 53.3773 17.3693 53.8801 17.3693C54.2637 17.3693 54.579 17.4347 54.8262 17.5653C55.0733 17.6932 55.2694 17.848 55.4142 18.0298C55.5591 18.2088 55.6713 18.3778 55.7509 18.5369H55.8148V15.2727H57.3617V24H55.8446V22.9688H55.7509C55.6713 23.1278 55.5563 23.2969 55.4057 23.4759C55.2551 23.652 55.0563 23.8026 54.8091 23.9276C54.562 24.0526 54.2509 24.1151 53.8759 24.1151ZM54.3063 22.8494C54.633 22.8494 54.9114 22.7614 55.1415 22.5852C55.3716 22.4062 55.5463 22.1577 55.6657 21.8395C55.785 21.5213 55.8446 21.1506 55.8446 20.7273C55.8446 20.304 55.785 19.9361 55.6657 19.6236C55.5492 19.3111 55.3759 19.0682 55.1458 18.8949C54.9185 18.7216 54.6387 18.6349 54.3063 18.6349C53.9625 18.6349 53.6756 18.7244 53.4455 18.9034C53.2154 19.0824 53.0421 19.3295 52.9256 19.6449C52.8091 19.9602 52.7509 20.321 52.7509 20.7273C52.7509 21.1364 52.8091 21.5014 52.9256 21.8224C53.0449 22.1406 53.2196 22.392 53.4498 22.5767C53.6827 22.7585 53.9682 22.8494 54.3063 22.8494ZM59.0055 24V17.4545H60.4799V18.5668H60.5566C60.693 18.1918 60.9189 17.8991 61.2342 17.6889C61.5495 17.4759 61.926 17.3693 62.3635 17.3693C62.8066 17.3693 63.1802 17.4773 63.4842 17.6932C63.791 17.9062 64.0069 18.1974 64.1319 18.5668H64.2001C64.345 18.2031 64.5893 17.9134 64.9331 17.6974C65.2797 17.4787 65.6902 17.3693 66.1646 17.3693C66.7669 17.3693 67.2583 17.5597 67.639 17.9403C68.0197 18.321 68.2101 18.8764 68.2101 19.6065V24H66.6632V19.8452C66.6632 19.4389 66.5552 19.142 66.3393 18.9545C66.1234 18.7642 65.8592 18.669 65.5467 18.669C65.1745 18.669 64.8833 18.7855 64.6731 19.0185C64.4657 19.2486 64.362 19.5483 64.362 19.9176V24H62.8493V19.7812C62.8493 19.4432 62.747 19.1733 62.5424 18.9716C62.3407 18.7699 62.0765 18.669 61.7498 18.669C61.5282 18.669 61.3265 18.7259 61.1447 18.8395C60.9629 18.9503 60.818 19.108 60.71 19.3125C60.6021 19.5142 60.5481 19.75 60.5481 20.0199V24H59.0055ZM69.775 24V17.4545H71.3176V24H69.775ZM70.5506 16.5256C70.3063 16.5256 70.0961 16.4446 69.9199 16.2827C69.7438 16.1179 69.6557 15.9205 69.6557 15.6903C69.6557 15.4574 69.7438 15.2599 69.9199 15.098C70.0961 14.9332 70.3063 14.8509 70.5506 14.8509C70.7978 14.8509 71.008 14.9332 71.1813 15.098C71.3574 15.2599 71.4455 15.4574 71.4455 15.6903C71.4455 15.9205 71.3574 16.1179 71.1813 16.2827C71.008 16.4446 70.7978 16.5256 70.5506 16.5256ZM78.0772 19.1847L76.671 19.3381C76.6312 19.196 76.5616 19.0625 76.4622 18.9375C76.3656 18.8125 76.2349 18.7116 76.0701 18.6349C75.9054 18.5582 75.7037 18.5199 75.465 18.5199C75.144 18.5199 74.8741 18.5895 74.6554 18.7287C74.4395 18.8679 74.3329 19.0483 74.3358 19.2699C74.3329 19.4602 74.4025 19.6151 74.5446 19.7344C74.6895 19.8537 74.9281 19.9517 75.2605 20.0284L76.377 20.267C76.9963 20.4006 77.4565 20.6122 77.7576 20.902C78.0616 21.1918 78.215 21.571 78.2179 22.0398C78.215 22.4517 78.0943 22.8153 77.8556 23.1307C77.6199 23.4432 77.2917 23.6875 76.8713 23.8636C76.4508 24.0398 75.9679 24.1278 75.4224 24.1278C74.6213 24.1278 73.9764 23.9602 73.4877 23.625C72.9991 23.2869 72.7079 22.8168 72.6142 22.2145L74.1184 22.0696C74.1866 22.3651 74.3315 22.5881 74.5531 22.7386C74.7747 22.8892 75.063 22.9645 75.4181 22.9645C75.7846 22.9645 76.0787 22.8892 76.3002 22.7386C76.5247 22.5881 76.6369 22.402 76.6369 22.1804C76.6369 21.9929 76.5645 21.8381 76.4196 21.7159C76.2775 21.5937 76.0559 21.5 75.7548 21.4347L74.6383 21.2003C74.0105 21.0696 73.546 20.8494 73.2449 20.5398C72.9437 20.2273 72.7946 19.8324 72.7974 19.3551C72.7946 18.9517 72.9039 18.6023 73.1255 18.3068C73.35 18.0085 73.661 17.7784 74.0588 17.6165C74.4593 17.4517 74.921 17.3693 75.4437 17.3693C76.2108 17.3693 76.8145 17.5327 77.2548 17.8594C77.698 18.1861 77.9721 18.6278 78.0772 19.1847ZM84.6632 19.1847L83.2569 19.3381C83.2172 19.196 83.1475 19.0625 83.0481 18.9375C82.9515 18.8125 82.8208 18.7116 82.6561 18.6349C82.4913 18.5582 82.2896 18.5199 82.051 18.5199C81.7299 18.5199 81.46 18.5895 81.2413 18.7287C81.0254 18.8679 80.9189 19.0483 80.9217 19.2699C80.9189 19.4602 80.9885 19.6151 81.1305 19.7344C81.2754 19.8537 81.514 19.9517 81.8464 20.0284L82.9629 20.267C83.5822 20.4006 84.0424 20.6122 84.3436 20.902C84.6475 21.1918 84.801 21.571 84.8038 22.0398C84.801 22.4517 84.6802 22.8153 84.4416 23.1307C84.2058 23.4432 83.8777 23.6875 83.4572 23.8636C83.0368 24.0398 82.5538 24.1278 82.0083 24.1278C81.2072 24.1278 80.5623 23.9602 80.0737 23.625C79.585 23.2869 79.2939 22.8168 79.2001 22.2145L80.7044 22.0696C80.7725 22.3651 80.9174 22.5881 81.139 22.7386C81.3606 22.8892 81.649 22.9645 82.0041 22.9645C82.3706 22.9645 82.6646 22.8892 82.8862 22.7386C83.1106 22.5881 83.2228 22.402 83.2228 22.1804C83.2228 21.9929 83.1504 21.8381 83.0055 21.7159C82.8635 21.5937 82.6419 21.5 82.3407 21.4347L81.2243 21.2003C80.5964 21.0696 80.1319 20.8494 79.8308 20.5398C79.5297 20.2273 79.3805 19.8324 79.3833 19.3551C79.3805 18.9517 79.4899 18.6023 79.7115 18.3068C79.9359 18.0085 80.247 17.7784 80.6447 17.6165C81.0453 17.4517 81.5069 17.3693 82.0297 17.3693C82.7967 17.3693 83.4004 17.5327 83.8407 17.8594C84.2839 18.1861 84.5581 18.6278 84.6632 19.1847ZM86.0758 24V17.4545H87.6184V24H86.0758ZM86.8514 16.5256C86.6071 16.5256 86.3968 16.4446 86.2207 16.2827C86.0446 16.1179 85.9565 15.9205 85.9565 15.6903C85.9565 15.4574 86.0446 15.2599 86.2207 15.098C86.3968 14.9332 86.6071 14.8509 86.8514 14.8509C87.0985 14.8509 87.3088 14.9332 87.4821 15.098C87.6582 15.2599 87.7463 15.4574 87.7463 15.6903C87.7463 15.9205 87.6582 16.1179 87.4821 16.2827C87.3088 16.4446 87.0985 16.5256 86.8514 16.5256ZM92.0598 24.1278C91.4206 24.1278 90.8667 23.9872 90.3979 23.706C89.9292 23.4247 89.5655 23.0312 89.307 22.5256C89.0513 22.0199 88.9235 21.429 88.9235 20.7528C88.9235 20.0767 89.0513 19.4844 89.307 18.9759C89.5655 18.4673 89.9292 18.0724 90.3979 17.7912C90.8667 17.5099 91.4206 17.3693 92.0598 17.3693C92.699 17.3693 93.253 17.5099 93.7218 17.7912C94.1905 18.0724 94.5527 18.4673 94.8084 18.9759C95.0669 19.4844 95.1962 20.0767 95.1962 20.7528C95.1962 21.429 95.0669 22.0199 94.8084 22.5256C94.5527 23.0312 94.1905 23.4247 93.7218 23.706C93.253 23.9872 92.699 24.1278 92.0598 24.1278ZM92.0684 22.892C92.415 22.892 92.7047 22.7969 92.9377 22.6065C93.1706 22.4134 93.3439 22.1548 93.4576 21.831C93.574 21.5071 93.6323 21.1463 93.6323 20.7486C93.6323 20.348 93.574 19.9858 93.4576 19.6619C93.3439 19.3352 93.1706 19.0753 92.9377 18.8821C92.7047 18.6889 92.415 18.5923 92.0684 18.5923C91.7132 18.5923 91.4178 18.6889 91.182 18.8821C90.949 19.0753 90.7743 19.3352 90.6578 19.6619C90.5442 19.9858 90.4874 20.348 90.4874 20.7486C90.4874 21.1463 90.5442 21.5071 90.6578 21.831C90.7743 22.1548 90.949 22.4134 91.182 22.6065C91.4178 22.7969 91.7132 22.892 92.0684 22.892ZM98.0481 20.1648V24H96.5055V17.4545H97.9799V18.5668H98.0566C98.2072 18.2003 98.4473 17.9091 98.7768 17.6932C99.1092 17.4773 99.5197 17.3693 100.008 17.3693C100.46 17.3693 100.854 17.4659 101.189 17.6591C101.527 17.8523 101.788 18.1321 101.973 18.4986C102.16 18.8651 102.253 19.3097 102.25 19.8324V24H100.707V20.071C100.707 19.6335 100.594 19.2912 100.366 19.044C100.142 18.7969 99.8308 18.6733 99.4331 18.6733C99.1632 18.6733 98.9231 18.733 98.7129 18.8523C98.5055 18.9687 98.3422 19.1378 98.2228 19.3594C98.1064 19.581 98.0481 19.8494 98.0481 20.1648ZM106.863 24V15.2727H108.444V22.6747H112.287V24H106.863ZM116.489 24.1278C115.833 24.1278 115.266 23.9915 114.789 23.7188C114.314 23.4432 113.949 23.054 113.694 22.5511C113.438 22.0455 113.31 21.4503 113.31 20.7656C113.31 20.0923 113.438 19.5014 113.694 18.9929C113.952 18.4815 114.313 18.0838 114.776 17.7997C115.239 17.5128 115.783 17.3693 116.408 17.3693C116.812 17.3693 117.192 17.4347 117.55 17.5653C117.911 17.6932 118.229 17.892 118.505 18.1619C118.783 18.4318 119.002 18.7756 119.161 19.1932C119.32 19.608 119.4 20.1023 119.4 20.6761V21.1491H114.035V20.1094H117.921C117.918 19.8139 117.854 19.5511 117.729 19.321C117.604 19.0881 117.43 18.9048 117.205 18.7713C116.983 18.6378 116.725 18.571 116.43 18.571C116.114 18.571 115.837 18.6477 115.599 18.8011C115.36 18.9517 115.174 19.1506 115.04 19.3977C114.91 19.642 114.843 19.9105 114.84 20.2031V21.1108C114.84 21.4915 114.91 21.8182 115.049 22.0909C115.188 22.3608 115.383 22.5682 115.633 22.7131C115.883 22.8551 116.175 22.9261 116.51 22.9261C116.735 22.9261 116.938 22.8949 117.12 22.8324C117.302 22.767 117.459 22.6719 117.593 22.5469C117.726 22.4219 117.827 22.267 117.895 22.0824L119.336 22.2443C119.245 22.625 119.072 22.9574 118.816 23.2415C118.563 23.5227 118.239 23.7415 117.844 23.8977C117.449 24.0511 116.998 24.1278 116.489 24.1278ZM123.973 17.4545V18.6477H120.21V17.4545H123.973ZM121.139 15.8864H122.682V22.0312C122.682 22.2386 122.713 22.3977 122.776 22.5085C122.841 22.6165 122.926 22.6903 123.031 22.7301C123.137 22.7699 123.253 22.7898 123.381 22.7898C123.477 22.7898 123.566 22.7827 123.645 22.7685C123.727 22.7543 123.79 22.7415 123.833 22.7301L124.093 23.9361C124.01 23.9645 123.892 23.9957 123.739 24.0298C123.588 24.0639 123.404 24.0838 123.185 24.0895C122.798 24.1009 122.45 24.0426 122.141 23.9148C121.831 23.7841 121.585 23.5824 121.404 23.3097C121.225 23.0369 121.137 22.696 121.139 22.2869V15.8864ZM128.532 17.4545V18.6477H124.769V17.4545H128.532ZM125.698 15.8864H127.241V22.0312C127.241 22.2386 127.272 22.3977 127.334 22.5085C127.4 22.6165 127.485 22.6903 127.59 22.7301C127.695 22.7699 127.812 22.7898 127.939 22.7898C128.036 22.7898 128.124 22.7827 128.204 22.7685C128.286 22.7543 128.349 22.7415 128.391 22.7301L128.651 23.9361C128.569 23.9645 128.451 23.9957 128.297 24.0298C128.147 24.0639 127.962 24.0838 127.743 24.0895C127.357 24.1009 127.009 24.0426 126.699 23.9148C126.39 23.7841 126.144 23.5824 125.962 23.3097C125.783 23.0369 125.695 22.696 125.698 22.2869V15.8864ZM132.649 24.1278C131.993 24.1278 131.426 23.9915 130.949 23.7188C130.475 23.4432 130.11 23.054 129.854 22.5511C129.598 22.0455 129.47 21.4503 129.47 20.7656C129.47 20.0923 129.598 19.5014 129.854 18.9929C130.112 18.4815 130.473 18.0838 130.936 17.7997C131.399 17.5128 131.943 17.3693 132.568 17.3693C132.972 17.3693 133.352 17.4347 133.71 17.5653C134.071 17.6932 134.389 17.892 134.665 18.1619C134.943 18.4318 135.162 18.7756 135.321 19.1932C135.48 19.608 135.56 20.1023 135.56 20.6761V21.1491H130.195V20.1094H134.081C134.078 19.8139 134.014 19.5511 133.889 19.321C133.764 19.0881 133.59 18.9048 133.365 18.7713C133.144 18.6378 132.885 18.571 132.59 18.571C132.274 18.571 131.997 18.6477 131.759 18.8011C131.52 18.9517 131.334 19.1506 131.2 19.3977C131.07 19.642 131.003 19.9105 131 20.2031V21.1108C131 21.4915 131.07 21.8182 131.209 22.0909C131.348 22.3608 131.543 22.5682 131.793 22.7131C132.043 22.8551 132.335 22.9261 132.671 22.9261C132.895 22.9261 133.098 22.8949 133.28 22.8324C133.462 22.767 133.619 22.6719 133.753 22.5469C133.887 22.4219 133.987 22.267 134.056 22.0824L135.496 22.2443C135.405 22.625 135.232 22.9574 134.976 23.2415C134.723 23.5227 134.399 23.7415 134.004 23.8977C133.61 24.0511 133.158 24.1278 132.649 24.1278ZM136.865 24V17.4545H138.361V18.5455H138.429C138.548 18.1676 138.753 17.8764 139.042 17.6719C139.335 17.4645 139.669 17.3608 140.044 17.3608C140.129 17.3608 140.224 17.3651 140.329 17.3736C140.437 17.3793 140.527 17.3892 140.598 17.4034V18.8224C140.532 18.7997 140.429 18.7798 140.287 18.7628C140.148 18.7429 140.013 18.733 139.882 18.733C139.601 18.733 139.348 18.794 139.123 18.9162C138.902 19.0355 138.727 19.2017 138.599 19.4148C138.471 19.6278 138.407 19.8736 138.407 20.152V24H136.865Z" fill="#274B73"/>
</svg>
