<svg width="40" height="40" viewBox="0 0 40 40" fill="none" xmlns="http://www.w3.org/2000/svg">
<path d="M18.5287 8.84345C18.5287 8.17544 19.5701 6.32378 19.6888 6.11506C19.7759 5.96165 20.0274 5.96165 20.1145 6.11506C20.2331 6.32418 21.2746 8.1755 21.2746 8.84345C21.2746 9.60064 20.6589 10.2163 19.9017 10.2163C19.1442 10.2163 18.5288 9.60061 18.5288 8.84345H18.5287ZM23.2188 9.87643C22.9871 9.94067 20.9421 10.5137 20.4691 10.9866C20.2101 11.2452 20.0669 11.59 20.0669 11.957C20.0669 12.3233 20.2101 12.6684 20.4691 12.9278C20.7281 13.1868 21.0732 13.3296 21.4395 13.3296C21.8065 13.3296 22.1513 13.1864 22.4103 12.9274C22.8825 12.4552 23.4555 10.4091 23.5198 10.1778C23.5434 10.0927 23.5188 10.0018 23.4566 9.93962C23.3944 9.87811 23.3035 9.85388 23.2188 9.87643ZM17.4202 12.9278C17.6792 13.1868 18.0243 13.3299 18.391 13.3299C18.7573 13.3299 19.1024 13.1875 19.3614 12.9281C19.8969 12.3923 19.8969 11.5214 19.3614 10.9863C18.8889 10.5137 16.8435 9.94036 16.6125 9.87616C16.5264 9.8536 16.4365 9.87752 16.3743 9.93937C16.3121 10.0016 16.2875 10.0928 16.3111 10.1775C16.3754 10.4095 16.948 12.4556 17.4202 12.9278ZM23.2044 13.5035C22.9727 13.5678 20.9277 14.1408 20.4548 14.613C19.9193 15.1478 19.9193 16.0187 20.4548 16.5549C20.7138 16.8139 21.0582 16.9567 21.4252 16.9567C21.7922 16.9567 22.1366 16.8142 22.396 16.5549C22.8682 16.0823 23.4412 14.0366 23.5055 13.8052C23.5291 13.7201 23.5045 13.6292 23.4423 13.567C23.3811 13.5049 23.2902 13.4803 23.2044 13.5035ZM17.4066 16.5545C17.6656 16.8135 18.01 16.9563 18.377 16.9563C18.744 16.9563 19.0884 16.8139 19.3474 16.5545C19.8822 16.0191 19.8822 15.1481 19.3474 14.6127C18.8749 14.1405 16.8295 13.5675 16.5985 13.5032C16.5127 13.4803 16.4225 13.5045 16.3603 13.5664C16.2981 13.6286 16.2735 13.7198 16.2971 13.8045C16.3614 14.0362 16.9336 16.0819 17.4066 16.5545ZM21.4187 20.5831C21.7857 20.5831 22.1305 20.4399 22.3895 20.1809C22.8617 19.7087 23.4347 17.663 23.499 17.432C23.5226 17.3469 23.498 17.256 23.4358 17.1938C23.374 17.132 23.2831 17.1077 23.1976 17.1306C22.966 17.1948 20.921 17.7675 20.448 18.2401C19.9126 18.7749 19.9126 19.6458 20.448 20.1819C20.7077 20.4406 21.0524 20.5831 21.4187 20.5831ZM17.4001 20.1809C17.6591 20.4399 18.0035 20.5831 18.3705 20.5831C18.7368 20.5831 19.0819 20.4406 19.341 20.1813C19.8764 19.6455 19.8764 18.7745 19.341 18.2394C18.8684 17.7669 16.823 17.1942 16.592 17.1299C16.5069 17.107 16.4157 17.1313 16.3539 17.1931C16.2917 17.2553 16.2671 17.3466 16.2906 17.4313C16.3549 17.6633 16.9275 19.7087 17.4001 20.1809ZM23.201 20.757C22.9693 20.8213 20.9243 21.3943 20.451 21.8665C19.9166 22.402 19.9166 23.2722 20.451 23.8084C20.7107 24.0674 21.0551 24.2102 21.4218 24.2102C21.7881 24.2102 22.1332 24.0677 22.3922 23.8084C22.8648 23.3358 23.4381 21.2901 23.5023 21.0587C23.5259 20.9736 23.5013 20.8827 23.4391 20.8205C23.3776 20.7587 23.2861 20.7345 23.201 20.757ZM16.5953 20.757C16.5092 20.7345 16.419 20.7584 16.3572 20.8202C16.295 20.8824 16.2704 20.9736 16.294 21.0584C16.3582 21.2901 16.9309 23.3351 17.4031 23.808C17.6628 24.067 18.0072 24.2099 18.3739 24.2099C18.7402 24.2099 19.0853 24.0674 19.344 23.808C19.8794 23.2726 19.8794 22.4016 19.344 21.8662C18.8718 21.3943 16.8271 20.8213 16.5953 20.757ZM23.1944 24.3834C22.9628 24.4476 20.9178 25.0207 20.4444 25.4935C19.9097 26.0283 19.9097 26.8992 20.4444 27.4354C20.7041 27.6944 21.0489 27.8372 21.4152 27.8372C21.7822 27.8372 22.1266 27.694 22.3857 27.435C22.8582 26.9628 23.4316 24.9167 23.4958 24.6854C23.5194 24.6003 23.4948 24.5094 23.4326 24.4472C23.3704 24.385 23.2798 24.3597 23.1944 24.3833L23.1944 24.3834ZM19.3374 25.4935C18.8652 25.021 16.8202 24.4476 16.5888 24.3834C16.503 24.3598 16.4125 24.3844 16.3506 24.4466C16.2884 24.5088 16.2638 24.6 16.2874 24.6848C16.3517 24.9164 16.9243 26.9622 17.3966 27.4344C17.6556 27.6934 18.0007 27.8366 18.3674 27.8366C18.7337 27.8366 19.0781 27.6941 19.3374 27.4348C19.5964 27.1758 19.7396 26.8307 19.7396 26.464C19.7396 26.097 19.5964 25.7522 19.3374 25.4935ZM19.8988 27.8314C19.6278 27.8314 19.4088 28.0505 19.4088 28.3214V33.51C19.4088 33.781 19.6278 34 19.8988 34C20.1698 34 20.3888 33.781 20.3888 33.51V28.3214C20.3888 28.0512 20.1698 27.8314 19.8988 27.8314ZM10.3449 17.0302C10.4375 17.0302 10.5301 17.0179 10.6207 16.994C10.894 16.9209 11.1219 16.7452 11.2637 16.5002C11.4049 16.2552 11.4421 15.9696 11.369 15.6973C11.2426 15.224 10.2345 14.1849 10.0333 13.9813C9.97141 13.9191 9.87984 13.8952 9.79579 13.9167C9.71105 13.9396 9.64441 14.0069 9.62255 14.0917C9.55045 14.3681 9.19679 15.7725 9.32322 16.245C9.44657 16.707 9.86756 17.0302 10.3449 17.0302ZM11.0813 17.3247C10.7902 17.8301 10.9648 18.479 11.4698 18.7718C11.6304 18.8641 11.8132 18.9129 11.9977 18.9129C12.3753 18.9129 12.7265 18.7107 12.9162 18.384C13.1605 17.96 13.183 16.5129 13.1851 16.2272C13.1854 16.1388 13.139 16.0574 13.0628 16.0134C12.9862 15.9689 12.8923 15.9693 12.8164 16.0137C12.5694 16.1582 11.3273 16.9011 11.0813 17.3247ZM9.34476 19.3407C9.50604 19.433 9.68816 19.4822 9.87336 19.4822C10.2509 19.4822 10.6022 19.2792 10.7915 18.9533C11.0829 18.4472 10.9087 17.7984 10.4037 17.5069C9.9803 17.2619 8.53286 17.2393 8.24726 17.2376H8.24521C8.15739 17.2376 8.07675 17.2848 8.03302 17.36C7.98894 17.4358 7.98894 17.5305 8.03336 17.6063C8.17858 17.8527 8.92103 19.0951 9.34476 19.3407ZM11.7499 19.8553C11.4581 20.3604 11.632 21.0096 12.1374 21.3024C12.298 21.3947 12.4808 21.4435 12.6653 21.4435C13.0429 21.4435 13.3948 21.2406 13.5835 20.9139C13.8284 20.4902 13.851 19.0428 13.8527 18.7572C13.853 18.6687 13.8066 18.5873 13.7304 18.5433C13.6538 18.4988 13.5595 18.4995 13.484 18.5436C13.2377 18.6885 11.9942 19.432 11.7499 19.8553ZM10.0131 21.8699C10.1737 21.9629 10.3565 22.0124 10.5417 22.0124C10.9193 22.0124 11.2706 21.8095 11.4592 21.4835C11.7506 20.9781 11.5764 20.3293 11.0717 20.0375C10.648 19.7925 9.20054 19.7699 8.91494 19.7682H8.91289C8.82507 19.7682 8.74443 19.8147 8.70069 19.8905C8.65661 19.9664 8.65661 20.061 8.70104 20.1369C8.84626 20.3832 9.58872 21.626 10.0131 21.8699ZM12.4221 22.3838C12.1306 22.8892 12.3045 23.5384 12.8099 23.8313C12.9705 23.9235 13.1533 23.9724 13.3378 23.9724C13.7154 23.9724 14.0666 23.7694 14.2559 23.4428C14.5009 23.0191 14.5228 21.5716 14.5249 21.2853C14.5252 21.1972 14.4784 21.1158 14.4025 21.0718C14.326 21.0273 14.2317 21.0277 14.1562 21.0721C13.9101 21.2173 12.668 21.9601 12.4221 22.3838ZM10.6859 24.4002C10.8465 24.4925 11.0293 24.5413 11.2138 24.5413C11.5914 24.5413 11.9426 24.339 12.1319 24.0124C12.4231 23.507 12.2491 22.8582 11.7445 22.566C11.3204 22.322 9.8727 22.2995 9.58701 22.2974H9.58496C9.49715 22.2974 9.41651 22.3446 9.37277 22.4198C9.32835 22.4963 9.32869 22.5903 9.37311 22.6661C9.51868 22.9125 10.2618 24.1542 10.6859 24.4002ZM13.102 24.911C12.8102 25.416 12.9841 26.0652 13.4895 26.3574C13.6501 26.45 13.8329 26.4995 14.0181 26.4995C14.3957 26.4995 14.7476 26.2966 14.9366 25.9699C15.1805 25.5459 15.2031 24.0988 15.2051 23.8132C15.2055 23.7247 15.159 23.6434 15.0828 23.5993C15.0063 23.5549 14.912 23.5552 14.8364 23.5996C14.5897 23.7452 13.3474 24.4873 13.102 24.911ZM11.3649 26.9274C11.5255 27.02 11.7083 27.0695 11.8935 27.0695C12.271 27.0695 12.6223 26.8666 12.8116 26.5399C13.1027 26.0345 12.9288 25.3857 12.4238 25.0939C12.0001 24.8489 10.553 24.8263 10.2674 24.8246H10.2653C10.1775 24.8246 10.0969 24.8718 10.0531 24.9469C10.0091 25.0228 10.0091 25.1174 10.0535 25.1933C10.1987 25.4397 10.9418 26.6827 11.3649 26.9274ZM15.5086 26.1292C15.2615 26.2741 14.0188 27.0172 13.7742 27.4406C13.483 27.9456 13.657 28.5948 14.162 28.888C14.3226 28.9803 14.5054 29.0291 14.6899 29.0291C15.0675 29.0291 15.4194 28.8262 15.608 28.4995C15.853 28.0758 15.8756 26.6284 15.8773 26.3428C15.8776 26.2543 15.8311 26.1729 15.7549 26.1289C15.6791 26.0838 15.5844 26.0848 15.5086 26.1292ZM13.0955 27.6224C12.6729 27.378 11.2254 27.3558 10.9391 27.3538H10.9378C10.85 27.3538 10.7693 27.4009 10.7256 27.4761C10.6815 27.552 10.6815 27.6466 10.7259 27.7225C10.8705 27.9688 11.6136 29.2106 12.0373 29.4565C12.1986 29.5488 12.3811 29.598 12.5659 29.598C12.9435 29.598 13.2948 29.395 13.484 29.0691C13.7755 28.5634 13.6016 27.9142 13.0955 27.6224ZM14.4548 29.421C14.3847 29.1592 14.1162 29.0041 13.8548 29.0745C13.5937 29.1446 13.4382 29.4131 13.5083 29.6745L14.4773 33.2907C14.5358 33.5097 14.7336 33.6536 14.9499 33.6536C14.9919 33.6536 15.0346 33.6481 15.0773 33.6368C15.3384 33.5668 15.4939 33.2982 15.4238 33.0368L14.4548 29.421ZM29.4268 17.0627C29.5173 17.0866 29.6096 17.0989 29.7025 17.0989C30.1802 17.0989 30.6005 16.776 30.7249 16.3134C30.8513 15.8412 30.4977 14.4372 30.4256 14.1604C30.4034 14.0753 30.3371 14.008 30.2523 13.9855C30.1666 13.9639 30.076 13.9878 30.0148 14.05C29.8139 14.2537 28.8053 15.2928 28.6795 15.765C28.606 16.0383 28.6433 16.324 28.7847 16.569C28.9255 16.814 29.1544 16.9893 29.4268 17.0627ZM28.0497 18.982C28.2343 18.982 28.4171 18.9331 28.5777 18.8405C29.0827 18.548 29.257 17.8995 28.9655 17.3941C28.7202 16.9704 27.4777 16.2273 27.2314 16.0827C27.1559 16.0383 27.0616 16.0376 26.9851 16.0824C26.9092 16.1265 26.862 16.2078 26.8627 16.296C26.8648 16.582 26.8866 18.029 27.1316 18.4527C27.3209 18.779 27.6722 18.982 28.0497 18.982ZM32.0147 17.429C31.971 17.3535 31.8904 17.3067 31.8026 17.3067H31.8005C31.5148 17.3087 30.0675 17.3313 29.6441 17.5756C29.3991 17.717 29.2242 17.9453 29.1504 18.2186C29.0772 18.492 29.1152 18.777 29.2566 19.0226C29.4449 19.349 29.7965 19.5516 30.1737 19.5516C30.3589 19.5516 30.5417 19.502 30.7023 19.4094C31.126 19.1651 31.8692 17.9224 32.0141 17.6757C32.0581 17.5995 32.0581 17.5052 32.0147 17.429ZM27.3817 21.5126C27.5669 21.5126 27.7497 21.463 27.9103 21.3705C28.1553 21.2293 28.3303 21.0007 28.4041 20.7277C28.4772 20.4544 28.4393 20.1687 28.2978 19.9237C28.0535 19.5004 26.8111 18.7568 26.5641 18.612C26.4886 18.5675 26.3942 18.5669 26.3177 18.6116C26.2419 18.6557 26.1947 18.737 26.1954 18.8252C26.1974 19.1112 26.219 20.5582 26.4643 20.9826C26.6519 21.3093 27.0038 21.5126 27.3817 21.5126ZM31.1349 19.8373H31.1328C30.8471 19.8394 29.4 19.8619 28.9754 20.1062C28.4714 20.3987 28.2974 21.0473 28.5882 21.5526C28.7768 21.8789 29.1284 22.0815 29.5056 22.0815C29.6908 22.0815 29.8736 22.032 30.0336 21.9394C30.4583 21.6951 31.2015 20.4523 31.346 20.2057C31.3904 20.1298 31.3904 20.0352 31.3463 19.9593C31.303 19.8838 31.222 19.8373 31.1349 19.8373ZM26.7089 24.0418C26.8934 24.0418 27.0762 23.9929 27.2375 23.9003C27.7425 23.6075 27.9164 22.9583 27.6246 22.4529C27.3793 22.0296 26.1376 21.2871 25.8909 21.1422C25.815 21.0978 25.7204 21.0971 25.6445 21.1419C25.5687 21.186 25.5215 21.2673 25.5222 21.3554C25.5242 21.6414 25.5461 23.0892 25.7911 23.5129C25.9801 23.8389 26.3317 24.0418 26.7089 24.0418ZM30.4627 22.3665H30.4607C30.175 22.3686 28.7276 22.3911 28.3032 22.6354C27.7985 22.9272 27.6243 23.5761 27.9161 24.0814C28.1047 24.4078 28.4559 24.6104 28.8331 24.6104C29.0183 24.6104 29.2011 24.5615 29.3621 24.4682C29.7854 24.2239 30.529 22.9815 30.6738 22.7352C30.7183 22.6594 30.7189 22.5654 30.6742 22.4889C30.6308 22.4133 30.5498 22.3665 30.4627 22.3665ZM26.0299 26.569C26.2144 26.569 26.3972 26.5195 26.5578 26.4269C27.0632 26.1344 27.2371 25.4855 26.9453 24.9805C26.7 24.5568 25.4575 23.8136 25.2112 23.6691C25.1357 23.6247 25.0407 23.624 24.9649 23.6687C24.8883 23.7128 24.8419 23.7941 24.8425 23.8826C24.8446 24.1683 24.8671 25.6157 25.1114 26.039C25.3001 26.3657 25.652 26.569 26.0299 26.569ZM29.7823 24.893H29.7803C29.4946 24.8951 28.0475 24.9176 27.6239 25.1623C27.1189 25.4537 26.9446 26.1023 27.2364 26.6083C27.425 26.9349 27.7766 27.1379 28.1535 27.1379H28.1538C28.3383 27.1379 28.5218 27.0884 28.6824 26.9958C29.1061 26.7515 29.8493 25.5087 29.9938 25.2617C30.0382 25.1858 30.0382 25.0912 29.9942 25.0153C29.9508 24.9395 29.8698 24.893 29.7823 24.893ZM25.886 28.9564C26.39 28.6636 26.5639 28.0143 26.2731 27.509C26.0281 27.0856 24.7861 26.3431 24.5391 26.1983C24.4636 26.1539 24.3692 26.1532 24.2927 26.1979C24.2162 26.242 24.1697 26.3233 24.1704 26.4118C24.1724 26.6975 24.195 28.1449 24.4396 28.5686C24.6282 28.8953 24.9799 29.0982 25.3578 29.0982C25.5423 29.0979 25.7247 29.0494 25.886 28.9564ZM29.1096 27.4226H29.1082C28.8222 27.4246 27.3745 27.4465 26.9518 27.6911C26.4464 27.9829 26.2718 28.6322 26.564 29.1382C26.7526 29.4645 27.1042 29.6668 27.4811 29.6668H27.4814C27.6659 29.6668 27.8487 29.6173 28.01 29.5247C28.4337 29.2804 29.1769 28.038 29.3214 27.7916C29.3658 27.7158 29.3658 27.6218 29.3218 27.5453C29.2784 27.4698 29.1974 27.4226 29.1096 27.4226ZM26.1925 29.144C25.9318 29.075 25.6625 29.2291 25.5925 29.4905L24.6235 33.1067C24.5534 33.3677 24.7085 33.6366 24.9699 33.7067C25.0126 33.718 25.055 33.7234 25.0974 33.7234C25.3133 33.7234 25.5119 33.5789 25.5699 33.3606L26.539 29.7444C26.6083 29.4827 26.4536 29.2141 26.1925 29.144Z" fill="#4D8969"/>
</svg>
