<svg width="136" height="40" viewBox="0 0 136 40" fill="none" xmlns="http://www.w3.org/2000/svg">
<rect width="136" height="40" rx="4" fill="#0D0D0D"/>
<rect x="0.921875" y="2" width="33.1034" height="36" rx="16.5517" fill="#0D0D0D"/>
<path d="M17.605 14.5585C16.7877 14.5585 15.5227 13.548 14.1905 13.5845C12.4328 13.6089 10.8207 14.6924 9.91392 16.4091C8.08911 19.8545 9.44372 24.9436 11.2237 27.7437C12.097 29.1073 13.1269 30.6413 14.4927 30.5926C15.8026 30.5317 16.2951 29.6673 17.8849 29.6673C19.4634 29.6673 19.9112 30.5926 21.2994 30.5561C22.71 30.5317 23.6056 29.1682 24.4676 27.7924C25.464 26.2097 25.8782 24.6757 25.9006 24.5905C25.867 24.5783 23.1578 23.4461 23.1242 20.0371C23.1018 17.1883 25.2625 15.8247 25.3632 15.7638C24.1317 13.8037 22.2398 13.5845 21.5793 13.5358C19.8552 13.3898 18.411 14.5585 17.605 14.5585ZM20.5157 11.6853C21.2434 10.7357 21.7248 9.40862 21.5904 8.09375C20.5493 8.14245 19.2954 8.84858 18.5454 9.79821C17.8737 10.6383 17.2915 11.9897 17.4482 13.2802C18.6013 13.3776 19.788 12.6349 20.5157 11.6853Z" fill="white"/>
<path d="M42.3339 10.42C42.3339 10.9567 42.2489 11.445 42.0789 11.885C41.9089 12.325 41.6689 12.7017 41.3589 13.015C41.0489 13.3283 40.6772 13.5717 40.2439 13.745C39.8106 13.915 39.3306 14 38.8039 14H36.1239V6.835H38.8039C39.3306 6.835 39.8106 6.92167 40.2439 7.095C40.6772 7.265 41.0489 7.50833 41.3589 7.825C41.6689 8.13833 41.9089 8.515 42.0789 8.955C42.2489 9.395 42.3339 9.88333 42.3339 10.42ZM41.3389 10.42C41.3389 9.98 41.2789 9.58667 41.1589 9.24C41.0389 8.89333 40.8689 8.6 40.6489 8.36C40.4289 8.12 40.1622 7.93667 39.8489 7.81C39.5356 7.68333 39.1872 7.62 38.8039 7.62H37.0989V13.215H38.8039C39.1872 13.215 39.5356 13.1517 39.8489 13.025C40.1622 12.8983 40.4289 12.7167 40.6489 12.48C40.8689 12.24 41.0389 11.9467 41.1589 11.6C41.2789 11.2533 41.3389 10.86 41.3389 10.42ZM45.5632 8.855C45.9332 8.855 46.2665 8.91667 46.5632 9.04C46.8632 9.16333 47.1165 9.33833 47.3232 9.565C47.5332 9.79167 47.6932 10.0667 47.8032 10.39C47.9165 10.71 47.9732 11.0683 47.9732 11.465C47.9732 11.865 47.9165 12.225 47.8032 12.545C47.6932 12.865 47.5332 13.1383 47.3232 13.365C47.1165 13.5917 46.8632 13.7667 46.5632 13.89C46.2665 14.01 45.9332 14.07 45.5632 14.07C45.1932 14.07 44.8582 14.01 44.5582 13.89C44.2615 13.7667 44.0082 13.5917 43.7982 13.365C43.5882 13.1383 43.4265 12.865 43.3132 12.545C43.1999 12.225 43.1432 11.865 43.1432 11.465C43.1432 11.0683 43.1999 10.71 43.3132 10.39C43.4265 10.0667 43.5882 9.79167 43.7982 9.565C44.0082 9.33833 44.2615 9.16333 44.5582 9.04C44.8582 8.91667 45.1932 8.855 45.5632 8.855ZM45.5632 13.375C46.0632 13.375 46.4365 13.2083 46.6832 12.875C46.9299 12.5383 47.0532 12.07 47.0532 11.47C47.0532 10.8667 46.9299 10.3967 46.6832 10.06C46.4365 9.72333 46.0632 9.555 45.5632 9.555C45.3099 9.555 45.0899 9.59833 44.9032 9.685C44.7165 9.77167 44.5599 9.89667 44.4332 10.06C44.3099 10.2233 44.2165 10.425 44.1532 10.665C44.0932 10.9017 44.0632 11.17 44.0632 11.47C44.0632 11.77 44.0932 12.0383 44.1532 12.275C44.2165 12.5117 44.3099 12.7117 44.4332 12.875C44.5599 13.035 44.7165 13.1583 44.9032 13.245C45.0899 13.3317 45.3099 13.375 45.5632 13.375ZM48.4098 8.935H49.1098C49.1832 8.935 49.2432 8.95333 49.2898 8.99C49.3365 9.02667 49.3682 9.07 49.3848 9.12L50.3548 12.38C50.3815 12.5 50.4065 12.6167 50.4298 12.73C50.4532 12.84 50.4732 12.9517 50.4898 13.065C50.5165 12.9517 50.5465 12.84 50.5798 12.73C50.6132 12.6167 50.6482 12.5 50.6848 12.38L51.7548 9.1C51.7715 9.05 51.7998 9.00833 51.8398 8.975C51.8832 8.94167 51.9365 8.925 51.9998 8.925H52.3848C52.4515 8.925 52.5065 8.94167 52.5498 8.975C52.5932 9.00833 52.6232 9.05 52.6398 9.1L53.6848 12.38C53.7215 12.4967 53.7532 12.6117 53.7798 12.725C53.8098 12.8383 53.8382 12.95 53.8648 13.06C53.8815 12.95 53.9032 12.835 53.9298 12.715C53.9565 12.595 53.9848 12.4833 54.0148 12.38L55.0048 9.12C55.0215 9.06667 55.0532 9.02333 55.0998 8.99C55.1465 8.95333 55.2015 8.935 55.2648 8.935H55.9348L54.2948 14H53.5898C53.5032 14 53.4432 13.9433 53.4098 13.83L52.2898 10.395C52.2632 10.3183 52.2415 10.2417 52.2248 10.165C52.2082 10.085 52.1915 10.0067 52.1748 9.93C52.1582 10.0067 52.1415 10.085 52.1248 10.165C52.1082 10.245 52.0865 10.3233 52.0598 10.4L50.9248 13.83C50.8882 13.9433 50.8198 14 50.7198 14H50.0498L48.4098 8.935ZM56.7261 14V8.935H57.2561C57.3828 8.935 57.4628 8.99667 57.4961 9.12L57.5661 9.67C57.7861 9.42667 58.0311 9.23 58.3011 9.08C58.5744 8.93 58.8894 8.855 59.2461 8.855C59.5228 8.855 59.7661 8.90167 59.9761 8.995C60.1894 9.085 60.3661 9.215 60.5061 9.385C60.6494 9.55167 60.7578 9.75333 60.8311 9.99C60.9044 10.2267 60.9411 10.4883 60.9411 10.775V14H60.0511V10.775C60.0511 10.3917 59.9628 10.095 59.7861 9.885C59.6128 9.67167 59.3461 9.565 58.9861 9.565C58.7228 9.565 58.4761 9.62833 58.2461 9.755C58.0194 9.88167 57.8094 10.0533 57.6161 10.27V14H56.7261ZM63.2727 6.635V14H62.3827V6.635H63.2727ZM66.8913 8.855C67.2613 8.855 67.5947 8.91667 67.8913 9.04C68.1913 9.16333 68.4447 9.33833 68.6513 9.565C68.8613 9.79167 69.0213 10.0667 69.1313 10.39C69.2447 10.71 69.3013 11.0683 69.3013 11.465C69.3013 11.865 69.2447 12.225 69.1313 12.545C69.0213 12.865 68.8613 13.1383 68.6513 13.365C68.4447 13.5917 68.1913 13.7667 67.8913 13.89C67.5947 14.01 67.2613 14.07 66.8913 14.07C66.5213 14.07 66.1863 14.01 65.8863 13.89C65.5897 13.7667 65.3363 13.5917 65.1263 13.365C64.9163 13.1383 64.7547 12.865 64.6413 12.545C64.528 12.225 64.4713 11.865 64.4713 11.465C64.4713 11.0683 64.528 10.71 64.6413 10.39C64.7547 10.0667 64.9163 9.79167 65.1263 9.565C65.3363 9.33833 65.5897 9.16333 65.8863 9.04C66.1863 8.91667 66.5213 8.855 66.8913 8.855ZM66.8913 13.375C67.3913 13.375 67.7647 13.2083 68.0113 12.875C68.258 12.5383 68.3813 12.07 68.3813 11.47C68.3813 10.8667 68.258 10.3967 68.0113 10.06C67.7647 9.72333 67.3913 9.555 66.8913 9.555C66.638 9.555 66.418 9.59833 66.2313 9.685C66.0447 9.77167 65.888 9.89667 65.7613 10.06C65.638 10.2233 65.5447 10.425 65.4813 10.665C65.4213 10.9017 65.3913 11.17 65.3913 11.47C65.3913 11.77 65.4213 12.0383 65.4813 12.275C65.5447 12.5117 65.638 12.7117 65.7613 12.875C65.888 13.035 66.0447 13.1583 66.2313 13.245C66.418 13.3317 66.638 13.375 66.8913 13.375ZM74.118 14H73.723C73.6363 14 73.5663 13.9867 73.513 13.96C73.4596 13.9333 73.4246 13.8767 73.408 13.79L73.308 13.32C73.1746 13.44 73.0446 13.5483 72.918 13.645C72.7913 13.7383 72.658 13.8183 72.518 13.885C72.378 13.9483 72.228 13.9967 72.068 14.03C71.9113 14.0633 71.7363 14.08 71.543 14.08C71.3463 14.08 71.1613 14.0533 70.988 14C70.818 13.9433 70.6696 13.86 70.543 13.75C70.4163 13.64 70.3146 13.5017 70.238 13.335C70.1646 13.165 70.128 12.965 70.128 12.735C70.128 12.535 70.183 12.3433 70.293 12.16C70.403 11.9733 70.5796 11.8083 70.823 11.665C71.0696 11.5217 71.3913 11.405 71.788 11.315C72.1846 11.2217 72.6696 11.1683 73.243 11.155V10.76C73.243 10.3667 73.158 10.07 72.988 9.87C72.8213 9.66667 72.573 9.565 72.243 9.565C72.0263 9.565 71.843 9.59333 71.693 9.65C71.5463 9.70333 71.418 9.765 71.308 9.835C71.2013 9.90167 71.108 9.96333 71.028 10.02C70.9513 10.0733 70.8746 10.1 70.798 10.1C70.738 10.1 70.6846 10.085 70.638 10.055C70.5946 10.0217 70.5596 9.98167 70.533 9.935L70.373 9.65C70.653 9.38 70.9546 9.17833 71.278 9.045C71.6013 8.91167 71.9596 8.845 72.353 8.845C72.6363 8.845 72.888 8.89167 73.108 8.985C73.328 9.07833 73.513 9.20833 73.663 9.375C73.813 9.54167 73.9263 9.74333 74.003 9.98C74.0796 10.2167 74.118 10.4767 74.118 10.76V14ZM71.808 13.455C71.9646 13.455 72.108 13.44 72.238 13.41C72.368 13.3767 72.4896 13.3317 72.603 13.275C72.7196 13.215 72.8296 13.1433 72.933 13.06C73.0396 12.9767 73.143 12.8817 73.243 12.775V11.72C72.833 11.7333 72.4846 11.7667 72.198 11.82C71.9113 11.87 71.678 11.9367 71.498 12.02C71.318 12.1033 71.1863 12.2017 71.103 12.315C71.023 12.4283 70.983 12.555 70.983 12.695C70.983 12.8283 71.0046 12.9433 71.048 13.04C71.0913 13.1367 71.1496 13.2167 71.223 13.28C71.2963 13.34 71.383 13.385 71.483 13.415C71.583 13.4417 71.6913 13.455 71.808 13.455ZM79.0313 14C78.9047 14 78.8247 13.9383 78.7913 13.815L78.7113 13.2C78.4947 13.4633 78.2463 13.675 77.9663 13.835C77.6897 13.9917 77.3713 14.07 77.0113 14.07C76.7213 14.07 76.458 14.015 76.2213 13.905C75.9847 13.7917 75.783 13.6267 75.6163 13.41C75.4497 13.1933 75.3213 12.9233 75.2313 12.6C75.1413 12.2767 75.0963 11.905 75.0963 11.485C75.0963 11.1117 75.1463 10.765 75.2463 10.445C75.3463 10.1217 75.4897 9.84167 75.6763 9.605C75.8663 9.36833 76.0963 9.18333 76.3663 9.05C76.6363 8.91333 76.943 8.845 77.2863 8.845C77.5963 8.845 77.8613 8.89833 78.0813 9.005C78.3013 9.10833 78.498 9.255 78.6713 9.445V6.635H79.5613V14H79.0313ZM77.3063 13.35C77.5963 13.35 77.8497 13.2833 78.0663 13.15C78.2863 13.0167 78.488 12.8283 78.6713 12.585V10.135C78.508 9.915 78.328 9.76167 78.1313 9.675C77.938 9.585 77.723 9.54 77.4863 9.54C77.013 9.54 76.6497 9.70833 76.3963 10.045C76.143 10.3817 76.0163 10.8617 76.0163 11.485C76.0163 11.815 76.0447 12.0983 76.1013 12.335C76.158 12.5683 76.2413 12.7617 76.3513 12.915C76.4613 13.065 76.5963 13.175 76.7563 13.245C76.9163 13.315 77.0997 13.35 77.3063 13.35ZM85.0359 8.855C85.4059 8.855 85.7392 8.91667 86.0359 9.04C86.3359 9.16333 86.5892 9.33833 86.7959 9.565C87.0059 9.79167 87.1659 10.0667 87.2759 10.39C87.3892 10.71 87.4459 11.0683 87.4459 11.465C87.4459 11.865 87.3892 12.225 87.2759 12.545C87.1659 12.865 87.0059 13.1383 86.7959 13.365C86.5892 13.5917 86.3359 13.7667 86.0359 13.89C85.7392 14.01 85.4059 14.07 85.0359 14.07C84.6659 14.07 84.3309 14.01 84.0309 13.89C83.7342 13.7667 83.4809 13.5917 83.2709 13.365C83.0609 13.1383 82.8992 12.865 82.7859 12.545C82.6725 12.225 82.6159 11.865 82.6159 11.465C82.6159 11.0683 82.6725 10.71 82.7859 10.39C82.8992 10.0667 83.0609 9.79167 83.2709 9.565C83.4809 9.33833 83.7342 9.16333 84.0309 9.04C84.3309 8.91667 84.6659 8.855 85.0359 8.855ZM85.0359 13.375C85.5359 13.375 85.9092 13.2083 86.1559 12.875C86.4025 12.5383 86.5259 12.07 86.5259 11.47C86.5259 10.8667 86.4025 10.3967 86.1559 10.06C85.9092 9.72333 85.5359 9.555 85.0359 9.555C84.7825 9.555 84.5625 9.59833 84.3759 9.685C84.1892 9.77167 84.0325 9.89667 83.9059 10.06C83.7825 10.2233 83.6892 10.425 83.6259 10.665C83.5659 10.9017 83.5359 11.17 83.5359 11.47C83.5359 11.77 83.5659 12.0383 83.6259 12.275C83.6892 12.5117 83.7825 12.7117 83.9059 12.875C84.0325 13.035 84.1892 13.1583 84.3759 13.245C84.5625 13.3317 84.7825 13.375 85.0359 13.375ZM88.5425 14V8.935H89.0725C89.1992 8.935 89.2792 8.99667 89.3125 9.12L89.3825 9.67C89.6025 9.42667 89.8475 9.23 90.1175 9.08C90.3908 8.93 90.7058 8.855 91.0625 8.855C91.3392 8.855 91.5825 8.90167 91.7925 8.995C92.0058 9.085 92.1825 9.215 92.3225 9.385C92.4658 9.55167 92.5742 9.75333 92.6475 9.99C92.7208 10.2267 92.7575 10.4883 92.7575 10.775V14H91.8675V10.775C91.8675 10.3917 91.7792 10.095 91.6025 9.885C91.4292 9.67167 91.1625 9.565 90.8025 9.565C90.5392 9.565 90.2925 9.62833 90.0625 9.755C89.8358 9.88167 89.6258 10.0533 89.4325 10.27V14H88.5425ZM97.5677 14.08C97.1677 14.08 96.8594 13.9683 96.6427 13.745C96.4294 13.5217 96.3227 13.2 96.3227 12.78V9.68H95.7127C95.6594 9.68 95.6144 9.665 95.5777 9.635C95.5411 9.60167 95.5227 9.55167 95.5227 9.485V9.13L96.3527 9.025L96.5577 7.46C96.5644 7.41 96.5861 7.37 96.6227 7.34C96.6594 7.30667 96.7061 7.29 96.7627 7.29H97.2127V9.035H98.6627V9.68H97.2127V12.72C97.2127 12.9333 97.2644 13.0917 97.3677 13.195C97.4711 13.2983 97.6044 13.35 97.7677 13.35C97.8611 13.35 97.9411 13.3383 98.0077 13.315C98.0777 13.2883 98.1377 13.26 98.1877 13.23C98.2377 13.2 98.2794 13.1733 98.3127 13.15C98.3494 13.1233 98.3811 13.11 98.4077 13.11C98.4544 13.11 98.4961 13.1383 98.5327 13.195L98.7927 13.62C98.6394 13.7633 98.4544 13.8767 98.2377 13.96C98.0211 14.04 97.7977 14.08 97.5677 14.08ZM99.7632 14V6.635H100.653V9.615C100.87 9.385 101.11 9.20167 101.373 9.065C101.637 8.925 101.94 8.855 102.283 8.855C102.56 8.855 102.803 8.90167 103.013 8.995C103.227 9.085 103.403 9.215 103.543 9.385C103.687 9.55167 103.795 9.75333 103.868 9.99C103.942 10.2267 103.978 10.4883 103.978 10.775V14H103.088V10.775C103.088 10.3917 103 10.095 102.823 9.885C102.65 9.67167 102.383 9.565 102.023 9.565C101.76 9.565 101.513 9.62833 101.283 9.755C101.057 9.88167 100.847 10.0533 100.653 10.27V14H99.7632ZM107.325 8.855C107.628 8.855 107.908 8.90667 108.165 9.01C108.422 9.11 108.643 9.25667 108.83 9.45C109.017 9.64 109.162 9.87667 109.265 10.16C109.372 10.44 109.425 10.76 109.425 11.12C109.425 11.26 109.41 11.3533 109.38 11.4C109.35 11.4467 109.293 11.47 109.21 11.47H105.84C105.847 11.79 105.89 12.0683 105.97 12.305C106.05 12.5417 106.16 12.74 106.3 12.9C106.44 13.0567 106.607 13.175 106.8 13.255C106.993 13.3317 107.21 13.37 107.45 13.37C107.673 13.37 107.865 13.345 108.025 13.295C108.188 13.2417 108.328 13.185 108.445 13.125C108.562 13.065 108.658 13.01 108.735 12.96C108.815 12.9067 108.883 12.88 108.94 12.88C109.013 12.88 109.07 12.9083 109.11 12.965L109.36 13.29C109.25 13.4233 109.118 13.54 108.965 13.64C108.812 13.7367 108.647 13.8167 108.47 13.88C108.297 13.9433 108.117 13.99 107.93 14.02C107.743 14.0533 107.558 14.07 107.375 14.07C107.025 14.07 106.702 14.0117 106.405 13.895C106.112 13.775 105.857 13.6017 105.64 13.375C105.427 13.145 105.26 12.8617 105.14 12.525C105.02 12.1883 104.96 11.8017 104.96 11.365C104.96 11.0117 105.013 10.6817 105.12 10.375C105.23 10.0683 105.387 9.80333 105.59 9.58C105.793 9.35333 106.042 9.17667 106.335 9.05C106.628 8.92 106.958 8.855 107.325 8.855ZM107.345 9.51C106.915 9.51 106.577 9.635 106.33 9.885C106.083 10.1317 105.93 10.475 105.87 10.915H108.625C108.625 10.7083 108.597 10.52 108.54 10.35C108.483 10.1767 108.4 10.0283 108.29 9.905C108.18 9.77833 108.045 9.68167 107.885 9.615C107.728 9.545 107.548 9.51 107.345 9.51ZM44.7249 30H43.6749C43.5536 30 43.4556 29.9697 43.3809 29.909C43.3062 29.8483 43.2502 29.7713 43.2129 29.678L42.2749 27.256H37.7739L36.8359 29.678C36.8032 29.762 36.7472 29.8367 36.6679 29.902C36.5886 29.9673 36.4906 30 36.3739 30H35.3239L39.3349 19.969H40.7139L44.7249 30ZM38.1519 26.276H41.8969L40.3219 22.195C40.2192 21.943 40.1189 21.628 40.0209 21.25C39.9696 21.4413 39.9182 21.6187 39.8669 21.782C39.8202 21.9407 39.7736 22.0807 39.7269 22.202L38.1519 26.276ZM45.7915 32.401V22.909H46.5335C46.7109 22.909 46.8229 22.9953 46.8695 23.168L46.9745 24.008C47.2779 23.6393 47.6232 23.343 48.0105 23.119C48.4025 22.895 48.8529 22.783 49.3615 22.783C49.7675 22.783 50.1362 22.8623 50.4675 23.021C50.7989 23.175 51.0812 23.406 51.3145 23.714C51.5479 24.0173 51.7275 24.3953 51.8535 24.848C51.9795 25.3007 52.0425 25.821 52.0425 26.409C52.0425 26.9317 51.9725 27.4193 51.8325 27.872C51.6925 28.32 51.4919 28.7097 51.2305 29.041C50.9692 29.3677 50.6472 29.6267 50.2645 29.818C49.8865 30.0047 49.4595 30.098 48.9835 30.098C48.5449 30.098 48.1692 30.0257 47.8565 29.881C47.5485 29.7363 47.2755 29.531 47.0375 29.265V32.401H45.7915ZM48.9485 23.791C48.5425 23.791 48.1855 23.8843 47.8775 24.071C47.5742 24.2577 47.2942 24.5213 47.0375 24.862V28.292C47.2662 28.6 47.5159 28.817 47.7865 28.943C48.0619 29.069 48.3675 29.132 48.7035 29.132C49.3615 29.132 49.8679 28.8963 50.2225 28.425C50.5772 27.9537 50.7545 27.2817 50.7545 26.409C50.7545 25.947 50.7125 25.5503 50.6285 25.219C50.5492 24.8877 50.4325 24.617 50.2785 24.407C50.1245 24.1923 49.9355 24.036 49.7115 23.938C49.4875 23.84 49.2332 23.791 48.9485 23.791ZM53.5161 32.401V22.909H54.2581C54.4355 22.909 54.5475 22.9953 54.5941 23.168L54.6991 24.008C55.0025 23.6393 55.3478 23.343 55.7351 23.119C56.1271 22.895 56.5775 22.783 57.0861 22.783C57.4921 22.783 57.8608 22.8623 58.1921 23.021C58.5235 23.175 58.8058 23.406 59.0391 23.714C59.2725 24.0173 59.4521 24.3953 59.5781 24.848C59.7041 25.3007 59.7671 25.821 59.7671 26.409C59.7671 26.9317 59.6971 27.4193 59.5571 27.872C59.4171 28.32 59.2165 28.7097 58.9551 29.041C58.6938 29.3677 58.3718 29.6267 57.9891 29.818C57.6111 30.0047 57.1841 30.098 56.7081 30.098C56.2695 30.098 55.8938 30.0257 55.5811 29.881C55.2731 29.7363 55.0001 29.531 54.7621 29.265V32.401H53.5161ZM56.6731 23.791C56.2671 23.791 55.9101 23.8843 55.6021 24.071C55.2988 24.2577 55.0188 24.5213 54.7621 24.862V28.292C54.9908 28.6 55.2405 28.817 55.5111 28.943C55.7865 29.069 56.0921 29.132 56.4281 29.132C57.0861 29.132 57.5925 28.8963 57.9471 28.425C58.3018 27.9537 58.4791 27.2817 58.4791 26.409C58.4791 25.947 58.4371 25.5503 58.3531 25.219C58.2738 24.8877 58.1571 24.617 58.0031 24.407C57.8491 24.1923 57.6601 24.036 57.4361 23.938C57.2121 23.84 56.9578 23.791 56.6731 23.791ZM65.3008 24.078C65.2448 24.1807 65.1584 24.232 65.0418 24.232C64.9718 24.232 64.8924 24.2063 64.8038 24.155C64.7151 24.1037 64.6054 24.0477 64.4748 23.987C64.3488 23.9217 64.1971 23.8633 64.0198 23.812C63.8424 23.756 63.6324 23.728 63.3898 23.728C63.1798 23.728 62.9908 23.756 62.8228 23.812C62.6548 23.8633 62.5101 23.9357 62.3888 24.029C62.2721 24.1223 62.1811 24.232 62.1158 24.358C62.0551 24.4793 62.0248 24.6123 62.0248 24.757C62.0248 24.939 62.0761 25.0907 62.1788 25.212C62.2861 25.3333 62.4261 25.4383 62.5988 25.527C62.7714 25.6157 62.9674 25.695 63.1868 25.765C63.4061 25.8303 63.6301 25.9027 63.8588 25.982C64.0921 26.0567 64.3184 26.1407 64.5378 26.234C64.7571 26.3273 64.9531 26.444 65.1258 26.584C65.2984 26.724 65.4361 26.8967 65.5388 27.102C65.6461 27.3027 65.6998 27.5453 65.6998 27.83C65.6998 28.1567 65.6414 28.46 65.5248 28.74C65.4081 29.0153 65.2354 29.2557 65.0068 29.461C64.7781 29.6617 64.4981 29.8203 64.1668 29.937C63.8354 30.0537 63.4528 30.112 63.0188 30.112C62.5241 30.112 62.0761 30.0327 61.6748 29.874C61.2734 29.7107 60.9328 29.503 60.6528 29.251L60.9468 28.775C60.9841 28.7143 61.0284 28.6677 61.0798 28.635C61.1311 28.6023 61.1988 28.586 61.2828 28.586C61.3668 28.586 61.4554 28.6187 61.5488 28.684C61.6421 28.7493 61.7541 28.8217 61.8848 28.901C62.0201 28.9803 62.1811 29.0527 62.3678 29.118C62.5591 29.1833 62.7971 29.216 63.0818 29.216C63.3244 29.216 63.5368 29.1857 63.7188 29.125C63.9008 29.0597 64.0524 28.9733 64.1737 28.866C64.2951 28.7587 64.3838 28.635 64.4398 28.495C64.5004 28.355 64.5308 28.2057 64.5308 28.047C64.5308 27.851 64.4771 27.69 64.3698 27.564C64.2671 27.4333 64.1294 27.3237 63.9568 27.235C63.7841 27.1417 63.5858 27.0623 63.3618 26.997C63.1424 26.927 62.9161 26.8547 62.6828 26.78C62.4541 26.7053 62.2278 26.6213 62.0038 26.528C61.7844 26.43 61.5884 26.3087 61.4158 26.164C61.2431 26.0193 61.1031 25.842 60.9958 25.632C60.8931 25.4173 60.8418 25.1583 60.8418 24.855C60.8418 24.5843 60.8978 24.3253 61.0098 24.078C61.1218 23.826 61.2851 23.6067 61.4998 23.42C61.7144 23.2287 61.9781 23.077 62.2908 22.965C62.6034 22.853 62.9604 22.797 63.3618 22.797C63.8284 22.797 64.2461 22.8717 64.6148 23.021C64.9881 23.1657 65.3101 23.3663 65.5808 23.623L65.3008 24.078ZM69.4601 30.112C68.9001 30.112 68.4684 29.9557 68.1651 29.643C67.8664 29.3303 67.7171 28.88 67.7171 28.292V23.952H66.8631C66.7884 23.952 66.7254 23.931 66.6741 23.889C66.6227 23.8423 66.5971 23.7723 66.5971 23.679V23.182L67.7591 23.035L68.0461 20.844C68.0554 20.774 68.0857 20.718 68.1371 20.676C68.1884 20.6293 68.2537 20.606 68.3331 20.606H68.9631V23.049H70.9931V23.952H68.9631V28.208C68.9631 28.5067 69.0354 28.7283 69.1801 28.873C69.3247 29.0177 69.5114 29.09 69.7401 29.09C69.8707 29.09 69.9827 29.0737 70.0761 29.041C70.1741 29.0037 70.2581 28.964 70.3281 28.922C70.3981 28.88 70.4564 28.8427 70.5031 28.81C70.5544 28.7727 70.5987 28.754 70.6361 28.754C70.7014 28.754 70.7597 28.7937 70.8111 28.873L71.1751 29.468C70.9604 29.6687 70.7014 29.8273 70.3981 29.944C70.0947 30.056 69.7821 30.112 69.4601 30.112ZM75.4037 22.797C75.9217 22.797 76.3884 22.8833 76.8037 23.056C77.2237 23.2287 77.5784 23.4737 77.8677 23.791C78.1617 24.1083 78.3857 24.4933 78.5397 24.946C78.6984 25.394 78.7777 25.8957 78.7777 26.451C78.7777 27.011 78.6984 27.515 78.5397 27.963C78.3857 28.411 78.1617 28.7937 77.8677 29.111C77.5784 29.4283 77.2237 29.6733 76.8037 29.846C76.3884 30.014 75.9217 30.098 75.4037 30.098C74.8857 30.098 74.4167 30.014 73.9967 29.846C73.5814 29.6733 73.2267 29.4283 72.9327 29.111C72.6387 28.7937 72.4124 28.411 72.2537 27.963C72.0951 27.515 72.0157 27.011 72.0157 26.451C72.0157 25.8957 72.0951 25.394 72.2537 24.946C72.4124 24.4933 72.6387 24.1083 72.9327 23.791C73.2267 23.4737 73.5814 23.2287 73.9967 23.056C74.4167 22.8833 74.8857 22.797 75.4037 22.797ZM75.4037 29.125C76.1037 29.125 76.6264 28.8917 76.9717 28.425C77.3171 27.9537 77.4897 27.298 77.4897 26.458C77.4897 25.6133 77.3171 24.9553 76.9717 24.484C76.6264 24.0127 76.1037 23.777 75.4037 23.777C75.0491 23.777 74.7411 23.8377 74.4797 23.959C74.2184 24.0803 73.9991 24.2553 73.8217 24.484C73.6491 24.7127 73.5184 24.995 73.4297 25.331C73.3457 25.6623 73.3037 26.038 73.3037 26.458C73.3037 26.878 73.3457 27.2537 73.4297 27.585C73.5184 27.9163 73.6491 28.1963 73.8217 28.425C73.9991 28.649 74.2184 28.8217 74.4797 28.943C74.7411 29.0643 75.0491 29.125 75.4037 29.125ZM80.313 30V22.909H81.027C81.1623 22.909 81.2557 22.9347 81.307 22.986C81.3583 23.0373 81.3933 23.126 81.412 23.252L81.496 24.358C81.7387 23.8633 82.0373 23.4783 82.392 23.203C82.7513 22.923 83.1713 22.783 83.652 22.783C83.848 22.783 84.0253 22.8063 84.184 22.853C84.3427 22.895 84.4897 22.9557 84.625 23.035L84.464 23.966C84.4313 24.0827 84.359 24.141 84.247 24.141C84.1817 24.141 84.0813 24.12 83.946 24.078C83.8107 24.0313 83.6217 24.008 83.379 24.008C82.945 24.008 82.581 24.134 82.287 24.386C81.9977 24.638 81.755 25.0043 81.559 25.485V30H80.313ZM88.7665 22.797C89.1912 22.797 89.5832 22.8693 89.9425 23.014C90.3018 23.154 90.6122 23.3593 90.8735 23.63C91.1348 23.896 91.3378 24.2273 91.4825 24.624C91.6318 25.016 91.7065 25.464 91.7065 25.968C91.7065 26.164 91.6855 26.2947 91.6435 26.36C91.6015 26.4253 91.5222 26.458 91.4055 26.458H86.6875C86.6968 26.906 86.7575 27.2957 86.8695 27.627C86.9815 27.9583 87.1355 28.236 87.3315 28.46C87.5275 28.6793 87.7608 28.845 88.0315 28.957C88.3022 29.0643 88.6055 29.118 88.9415 29.118C89.2542 29.118 89.5225 29.083 89.7465 29.013C89.9752 28.9383 90.1712 28.859 90.3345 28.775C90.4978 28.691 90.6332 28.614 90.7405 28.544C90.8525 28.4693 90.9482 28.432 91.0275 28.432C91.1302 28.432 91.2095 28.4717 91.2655 28.551L91.6155 29.006C91.4615 29.1927 91.2772 29.356 91.0625 29.496C90.8478 29.6313 90.6168 29.7433 90.3695 29.832C90.1268 29.9207 89.8748 29.986 89.6135 30.028C89.3522 30.0747 89.0932 30.098 88.8365 30.098C88.3465 30.098 87.8938 30.0163 87.4785 29.853C87.0678 29.685 86.7108 29.4423 86.4075 29.125C86.1088 28.803 85.8755 28.4063 85.7075 27.935C85.5395 27.4637 85.4555 26.9223 85.4555 26.311C85.4555 25.8163 85.5302 25.3543 85.6795 24.925C85.8335 24.4957 86.0528 24.1247 86.3375 23.812C86.6222 23.4947 86.9698 23.2473 87.3805 23.07C87.7912 22.888 88.2532 22.797 88.7665 22.797ZM88.7945 23.714C88.1925 23.714 87.7188 23.889 87.3735 24.239C87.0282 24.5843 86.8135 25.065 86.7295 25.681H90.5865C90.5865 25.3917 90.5468 25.128 90.4675 24.89C90.3882 24.6473 90.2715 24.4397 90.1175 24.267C89.9635 24.0897 89.7745 23.9543 89.5505 23.861C89.3312 23.763 89.0792 23.714 88.7945 23.714Z" fill="white"/>
</svg>
