<svg width="188" height="192" viewBox="0 0 188 192" fill="none" xmlns="http://www.w3.org/2000/svg">
<g clip-path="url(#clip0_1166_27375)">
<rect width="188" height="192" fill="#F4F5F7"/>
<rect width="188" height="50" fill="#BDD1EF"/>
<rect x="-26" y="50" width="240" height="1" fill="#E1E4EB"/>
<path d="M94.0016 101.6C86.0672 101.6 79.6016 108.065 79.6016 116C79.6016 123.934 86.0672 130.4 94.0016 130.4C101.936 130.4 108.402 123.934 108.402 116C108.402 108.065 101.936 101.6 94.0016 101.6ZM99.7616 117.08H95.0816V121.76C95.0816 122.35 94.592 122.84 94.0016 122.84C93.4112 122.84 92.9216 122.35 92.9216 121.76V117.08H88.2416C87.6512 117.08 87.1616 116.59 87.1616 116C87.1616 115.409 87.6512 114.92 88.2416 114.92H92.9216V110.24C92.9216 109.649 93.4112 109.16 94.0016 109.16C94.592 109.16 95.0816 109.649 95.0816 110.24V114.92H99.7616C100.352 114.92 100.842 115.409 100.842 116C100.842 116.59 100.352 117.08 99.7616 117.08Z" fill="#687181"/>
<rect x="71" y="93" width="46" height="46" rx="23" stroke="#FC8A8A" stroke-width="2" stroke-dasharray="4 4"/>
<path d="M52.4658 31V18.454H56.8758C58.1238 18.454 59.1018 18.736 59.8098 19.3C60.5178 19.852 60.8718 20.626 60.8718 21.622C60.8718 22.198 60.7518 22.714 60.5118 23.17C60.2718 23.614 59.9358 23.962 59.5038 24.214C60.1998 24.478 60.7158 24.874 61.0518 25.402C61.3878 25.918 61.5558 26.56 61.5558 27.328C61.5558 28.48 61.1898 29.38 60.4578 30.028C59.7378 30.676 58.7358 31 57.4518 31H52.4658ZM54.7878 28.858H57.2718C58.5798 28.858 59.2338 28.312 59.2338 27.22C59.2338 26.692 59.0718 26.284 58.7478 25.996C58.4358 25.708 57.9858 25.564 57.3978 25.564H54.7878V28.858ZM54.7878 23.494H56.9838C57.4638 23.494 57.8418 23.362 58.1178 23.098C58.4058 22.822 58.5498 22.45 58.5498 21.982C58.5498 21.538 58.4058 21.196 58.1178 20.956C57.8298 20.716 57.4158 20.596 56.8758 20.596H54.7878V23.494ZM69.0497 31L68.8697 29.668V25.402C68.8697 24.874 68.7017 24.484 68.3657 24.232C68.0417 23.968 67.5977 23.836 67.0337 23.836C66.5657 23.836 66.0857 23.932 65.5937 24.124C65.1137 24.304 64.6877 24.562 64.3157 24.898L63.1817 23.368C63.8057 22.864 64.4417 22.504 65.0897 22.288C65.7497 22.06 66.4577 21.946 67.2137 21.946C68.4377 21.946 69.3917 22.252 70.0757 22.864C70.7597 23.476 71.1017 24.322 71.1017 25.402V31H69.0497ZM66.3677 31.18C65.7197 31.18 65.1377 31.06 64.6217 30.82C64.1177 30.58 63.7157 30.238 63.4157 29.794C63.1277 29.35 62.9837 28.84 62.9837 28.264C62.9837 27.748 63.0857 27.31 63.2897 26.95C63.5057 26.578 63.7877 26.296 64.1357 26.104C64.4357 25.924 64.7657 25.798 65.1257 25.726C65.4977 25.654 65.8937 25.618 66.3137 25.618H69.0677V27.274H66.6377C66.4457 27.274 66.2537 27.292 66.0617 27.328C65.8817 27.352 65.7257 27.418 65.5937 27.526C65.4737 27.61 65.3837 27.718 65.3237 27.85C65.2637 27.97 65.2337 28.108 65.2337 28.264C65.2337 28.6 65.3657 28.87 65.6297 29.074C65.8937 29.278 66.2477 29.38 66.6917 29.38C67.0877 29.38 67.4477 29.296 67.7717 29.128C68.1077 28.948 68.3717 28.708 68.5637 28.408C68.7677 28.096 68.8697 27.742 68.8697 27.346L69.4637 28.534C69.3077 29.158 69.0677 29.668 68.7437 30.064C68.4317 30.448 68.0717 30.73 67.6637 30.91C67.2557 31.09 66.8237 31.18 66.3677 31.18ZM77.0938 31.18C76.3738 31.18 75.7438 31.054 75.2038 30.802C74.6758 30.538 74.2258 30.19 73.8538 29.758C73.4938 29.326 73.2238 28.834 73.0438 28.282C72.8638 27.73 72.7738 27.154 72.7738 26.554C72.7738 25.966 72.8638 25.396 73.0438 24.844C73.2238 24.292 73.4938 23.8 73.8538 23.368C74.2258 22.936 74.6758 22.594 75.2038 22.342C75.7438 22.078 76.3738 21.946 77.0938 21.946C77.9938 21.946 78.7738 22.162 79.4338 22.594C80.0938 23.026 80.5858 23.68 80.9098 24.556L78.9658 25.33C78.8218 24.91 78.5998 24.568 78.2998 24.304C78.0118 24.028 77.6098 23.89 77.0938 23.89C76.6138 23.89 76.2178 24.022 75.9058 24.286C75.5938 24.538 75.3658 24.868 75.2218 25.276C75.0778 25.684 75.0058 26.11 75.0058 26.554C75.0058 26.998 75.0778 27.43 75.2218 27.85C75.3658 28.258 75.5938 28.594 75.9058 28.858C76.2178 29.11 76.6138 29.236 77.0938 29.236C77.6098 29.236 78.0118 29.104 78.2998 28.84C78.5998 28.564 78.8218 28.21 78.9658 27.778L80.9098 28.552C80.5858 29.44 80.0938 30.1 79.4338 30.532C78.7738 30.964 77.9938 31.18 77.0938 31.18ZM88.6041 31L86.0301 26.95L84.6441 28.498V25.708L88.0461 22.126H90.8901L87.6681 25.438L91.2681 31H88.6041ZM82.5921 31V18.454H84.8421V31H82.5921ZM101.246 31.18C100.526 31.18 99.8962 31.054 99.3562 30.802C98.8282 30.538 98.3782 30.19 98.0062 29.758C97.6462 29.326 97.3762 28.834 97.1962 28.282C97.0162 27.73 96.9262 27.154 96.9262 26.554C96.9262 25.966 97.0162 25.396 97.1962 24.844C97.3762 24.292 97.6462 23.8 98.0062 23.368C98.3782 22.936 98.8282 22.594 99.3562 22.342C99.8962 22.078 100.526 21.946 101.246 21.946C102.146 21.946 102.926 22.162 103.586 22.594C104.246 23.026 104.738 23.68 105.062 24.556L103.118 25.33C102.974 24.91 102.752 24.568 102.452 24.304C102.164 24.028 101.762 23.89 101.246 23.89C100.766 23.89 100.37 24.022 100.058 24.286C99.7462 24.538 99.5182 24.868 99.3742 25.276C99.2302 25.684 99.1582 26.11 99.1582 26.554C99.1582 26.998 99.2302 27.43 99.3742 27.85C99.5182 28.258 99.7462 28.594 100.058 28.858C100.37 29.11 100.766 29.236 101.246 29.236C101.762 29.236 102.164 29.104 102.452 28.84C102.752 28.564 102.974 28.21 103.118 27.778L105.062 28.552C104.738 29.44 104.246 30.1 103.586 30.532C102.926 30.964 102.146 31.18 101.246 31.18ZM110.812 31.18C109.948 31.18 109.18 30.982 108.508 30.586C107.836 30.19 107.302 29.644 106.906 28.948C106.522 28.24 106.33 27.442 106.33 26.554C106.33 25.654 106.522 24.862 106.906 24.178C107.29 23.482 107.818 22.936 108.49 22.54C109.174 22.144 109.948 21.946 110.812 21.946C111.664 21.946 112.426 22.144 113.098 22.54C113.77 22.936 114.298 23.482 114.682 24.178C115.066 24.862 115.258 25.654 115.258 26.554C115.258 27.442 115.066 28.234 114.682 28.93C114.298 29.626 113.77 30.178 113.098 30.586C112.426 30.982 111.664 31.18 110.812 31.18ZM110.812 29.218C111.268 29.218 111.658 29.11 111.982 28.894C112.318 28.678 112.57 28.372 112.738 27.976C112.918 27.58 113.008 27.106 113.008 26.554C113.008 25.99 112.918 25.516 112.738 25.132C112.57 24.736 112.318 24.436 111.982 24.232C111.658 24.016 111.268 23.908 110.812 23.908C110.344 23.908 109.942 24.016 109.606 24.232C109.27 24.436 109.012 24.736 108.832 25.132C108.652 25.516 108.562 25.99 108.562 26.554C108.562 27.106 108.652 27.58 108.832 27.976C109.012 28.372 109.27 28.678 109.606 28.894C109.942 29.11 110.344 29.218 110.812 29.218ZM117.045 34.672V22.126H119.277V24.502L118.737 24.682C118.893 23.974 119.127 23.422 119.439 23.026C119.763 22.63 120.129 22.354 120.537 22.198C120.945 22.03 121.371 21.946 121.815 21.946C122.595 21.946 123.267 22.15 123.831 22.558C124.407 22.954 124.845 23.5 125.145 24.196C125.445 24.892 125.595 25.684 125.595 26.572C125.595 27.532 125.427 28.36 125.091 29.056C124.755 29.74 124.299 30.268 123.723 30.64C123.147 31 122.511 31.18 121.815 31.18C121.347 31.18 120.903 31.084 120.483 30.892C120.063 30.7 119.703 30.412 119.403 30.028C119.115 29.632 118.917 29.134 118.809 28.534L119.277 28.606V34.672H117.045ZM121.203 29.128C121.647 29.128 122.025 29.026 122.337 28.822C122.661 28.606 122.913 28.306 123.093 27.922C123.273 27.538 123.363 27.088 123.363 26.572C123.363 26.044 123.273 25.588 123.093 25.204C122.913 24.82 122.661 24.526 122.337 24.322C122.025 24.106 121.647 23.998 121.203 23.998C120.771 23.998 120.393 24.106 120.069 24.322C119.757 24.538 119.511 24.838 119.331 25.222C119.163 25.594 119.079 26.044 119.079 26.572C119.079 27.088 119.163 27.538 119.331 27.922C119.511 28.306 119.757 28.606 120.069 28.822C120.393 29.026 120.771 29.128 121.203 29.128ZM127.925 34.672L129.725 30.316L126.377 22.126H128.825L130.913 28.084L133.037 22.126H135.449L130.355 34.672H127.925Z" fill="#323740"/>
</g>
<defs>
<clipPath id="clip0_1166_27375">
<rect width="188" height="192" rx="16" fill="white"/>
</clipPath>
</defs>
</svg>
