<svg width="48" height="48" viewBox="0 0 48 48" fill="none" xmlns="http://www.w3.org/2000/svg">
<circle cx="24" cy="24" r="24" fill="#D4E2D0"/>
<path d="M22.7507 16.6399L18.3207 14.4499C15.9307 13.2799 13.9707 14.4699 13.9707 17.0899V31.9299C13.9707 33.0699 14.9207 33.9999 16.0807 33.9999H23.5007C24.0507 33.9999 24.5007 33.5499 24.5007 32.9999V19.4099C24.5007 18.3599 23.7107 17.1099 22.7507 16.6399ZM20.9707 25.7499H17.5007C17.0907 25.7499 16.7507 25.4099 16.7507 24.9999C16.7507 24.5899 17.0907 24.2499 17.5007 24.2499H20.9707C21.3807 24.2499 21.7207 24.5899 21.7207 24.9999C21.7207 25.4099 21.3907 25.7499 20.9707 25.7499ZM20.9707 21.7499H17.5007C17.0907 21.7499 16.7507 21.4099 16.7507 20.9999C16.7507 20.5899 17.0907 20.2499 17.5007 20.2499H20.9707C21.3807 20.2499 21.7207 20.5899 21.7207 20.9999C21.7207 21.4099 21.3907 21.7499 20.9707 21.7499Z" fill="#1A1A1A"/>
<path d="M34 30.04V31.5C34 32.88 32.88 34 31.5 34H26.97C26.43 34 26 33.57 26 33.03V30.87C27.07 31 28.2 30.69 29.01 30.04C29.69 30.59 30.56 30.92 31.51 30.92C32.44 30.92 33.31 30.59 34 30.04Z" fill="#1A1A1A"/>
<path d="M34 27.05V27.06C33.92 28.37 32.85 29.42 31.51 29.42C30.12 29.42 29.01 28.29 29.01 26.92C29.01 28.45 27.6 29.68 26 29.37V24C26 23.36 26.59 22.88 27.22 23.02L29.01 23.42L29.49 23.53L31.53 23.99C32.02 24.09 32.47 24.26 32.86 24.51C32.86 24.52 32.87 24.52 32.87 24.52C32.97 24.59 33.07 24.67 33.16 24.76C33.62 25.22 33.92 25.89 33.99 26.87C33.99 26.93 34 26.99 34 27.05Z" fill="#1A1A1A"/>
</svg>
