<svg width="183" height="192" viewBox="0 0 183 192" fill="none" xmlns="http://www.w3.org/2000/svg">
<rect width="183" height="192" fill="#F2F2F2"/>
<rect y="40" width="183" height="1" fill="#E6E6E6"/>
<path d="M92.0016 101.6C84.0672 101.6 77.6016 108.065 77.6016 116C77.6016 123.934 84.0672 130.4 92.0016 130.4C99.936 130.4 106.402 123.934 106.402 116C106.402 108.065 99.936 101.6 92.0016 101.6ZM97.7616 117.08H93.0816V121.76C93.0816 122.35 92.592 122.84 92.0016 122.84C91.4112 122.84 90.9216 122.35 90.9216 121.76V117.08H86.2416C85.6512 117.08 85.1616 116.59 85.1616 116C85.1616 115.409 85.6512 114.92 86.2416 114.92H90.9216V110.24C90.9216 109.649 91.4112 109.16 92.0016 109.16C92.592 109.16 93.0816 109.649 93.0816 110.24V114.92H97.7616C98.352 114.92 98.8416 115.409 98.8416 116C98.8416 116.59 98.352 117.08 97.7616 117.08Z" fill="#214660"/>
<rect x="69" y="93" width="46" height="46" rx="23" stroke="#FC8A8A" stroke-width="2" stroke-dasharray="4 4"/>
<path d="M54.3915 18.2173H52.7978C52.7523 17.956 52.6685 17.7244 52.5463 17.5227C52.4242 17.3182 52.2722 17.1449 52.0904 17.0028C51.9086 16.8608 51.7012 16.7543 51.4682 16.6832C51.2381 16.6094 50.9895 16.5724 50.7225 16.5724C50.248 16.5724 49.8276 16.6918 49.4611 16.9304C49.0946 17.1662 48.8077 17.5128 48.6003 17.9702C48.3929 18.4247 48.2892 18.9801 48.2892 19.6364C48.2892 20.304 48.3929 20.8665 48.6003 21.3239C48.8105 21.7784 49.0975 22.1222 49.4611 22.3551C49.8276 22.5852 50.2466 22.7003 50.7182 22.7003C50.9796 22.7003 51.2239 22.6662 51.4512 22.598C51.6813 22.527 51.8873 22.4233 52.0691 22.2869C52.2537 22.1506 52.4086 21.983 52.5336 21.7841C52.6614 21.5852 52.7495 21.358 52.7978 21.1023L54.3915 21.1108C54.3319 21.5256 54.2026 21.9148 54.0037 22.2784C53.8077 22.642 53.5506 22.9631 53.2324 23.2415C52.9142 23.517 52.5421 23.733 52.1159 23.8892C51.6898 24.0426 51.2168 24.1193 50.6969 24.1193C49.9299 24.1193 49.2452 23.9418 48.6429 23.5866C48.0407 23.2315 47.5662 22.7188 47.2196 22.0483C46.873 21.3778 46.6998 20.5739 46.6998 19.6364C46.6998 18.696 46.8745 17.892 47.2239 17.2244C47.5733 16.554 48.0492 16.0412 48.6515 15.6861C49.2537 15.331 49.9355 15.1534 50.6969 15.1534C51.1827 15.1534 51.6344 15.2216 52.052 15.358C52.4696 15.4943 52.8418 15.6946 53.1685 15.9588C53.4952 16.2202 53.7637 16.5412 53.9739 16.9219C54.187 17.2997 54.3262 17.7315 54.3915 18.2173ZM56.8546 24H55.1671L58.2395 15.2727H60.1912L63.2679 24H61.5804L59.2495 17.0625H59.1813L56.8546 24ZM56.91 20.5781H61.5123V21.848H56.91V20.5781ZM71.4775 18.2173H69.8837C69.8382 17.956 69.7544 17.7244 69.6323 17.5227C69.5101 17.3182 69.3581 17.1449 69.1763 17.0028C68.9945 16.8608 68.7871 16.7543 68.5542 16.6832C68.324 16.6094 68.0755 16.5724 67.8084 16.5724C67.334 16.5724 66.9135 16.6918 66.5471 16.9304C66.1806 17.1662 65.8936 17.5128 65.6863 17.9702C65.4789 18.4247 65.3752 18.9801 65.3752 19.6364C65.3752 20.304 65.4789 20.8665 65.6863 21.3239C65.8965 21.7784 66.1834 22.1222 66.5471 22.3551C66.9135 22.5852 67.3326 22.7003 67.8042 22.7003C68.0655 22.7003 68.3098 22.6662 68.5371 22.598C68.7672 22.527 68.9732 22.4233 69.155 22.2869C69.3397 22.1506 69.4945 21.983 69.6195 21.7841C69.7473 21.5852 69.8354 21.358 69.8837 21.1023L71.4775 21.1108C71.4178 21.5256 71.2885 21.9148 71.0897 22.2784C70.8936 22.642 70.6365 22.9631 70.3184 23.2415C70.0002 23.517 69.628 23.733 69.2019 23.8892C68.7757 24.0426 68.3027 24.1193 67.7828 24.1193C67.0158 24.1193 66.3311 23.9418 65.7289 23.5866C65.1266 23.2315 64.6522 22.7188 64.3056 22.0483C63.959 21.3778 63.7857 20.5739 63.7857 19.6364C63.7857 18.696 63.9604 17.892 64.3098 17.2244C64.6593 16.554 65.1351 16.0412 65.7374 15.6861C66.3397 15.331 67.0215 15.1534 67.7828 15.1534C68.2686 15.1534 68.7203 15.2216 69.138 15.358C69.5556 15.4943 69.9277 15.6946 70.2544 15.9588C70.5811 16.2202 70.8496 16.5412 71.0598 16.9219C71.2729 17.2997 71.4121 17.7315 71.4775 18.2173ZM83.372 18.2173H81.7782C81.7328 17.956 81.649 17.7244 81.5268 17.5227C81.4047 17.3182 81.2527 17.1449 81.0708 17.0028C80.889 16.8608 80.6816 16.7543 80.4487 16.6832C80.2186 16.6094 79.97 16.5724 79.7029 16.5724C79.2285 16.5724 78.8081 16.6918 78.4416 16.9304C78.0751 17.1662 77.7882 17.5128 77.5808 17.9702C77.3734 18.4247 77.2697 18.9801 77.2697 19.6364C77.2697 20.304 77.3734 20.8665 77.5808 21.3239C77.791 21.7784 78.0779 22.1222 78.4416 22.3551C78.8081 22.5852 79.2271 22.7003 79.6987 22.7003C79.96 22.7003 80.2044 22.6662 80.4316 22.598C80.6618 22.527 80.8677 22.4233 81.0495 22.2869C81.2342 22.1506 81.389 21.983 81.514 21.7841C81.6419 21.5852 81.7299 21.358 81.7782 21.1023L83.372 21.1108C83.3123 21.5256 83.1831 21.9148 82.9842 22.2784C82.7882 22.642 82.5311 22.9631 82.2129 23.2415C81.8947 23.517 81.5226 23.733 81.0964 23.8892C80.6703 24.0426 80.1973 24.1193 79.6774 24.1193C78.9103 24.1193 78.2257 23.9418 77.6234 23.5866C77.0211 23.2315 76.5467 22.7188 76.2001 22.0483C75.8535 21.3778 75.6802 20.5739 75.6802 19.6364C75.6802 18.696 75.8549 17.892 76.2044 17.2244C76.5538 16.554 77.0297 16.0412 77.6319 15.6861C78.2342 15.331 78.916 15.1534 79.6774 15.1534C80.1632 15.1534 80.6149 15.2216 81.0325 15.358C81.4501 15.4943 81.8223 15.6946 82.149 15.9588C82.4757 16.2202 82.7441 16.5412 82.9544 16.9219C83.1674 17.2997 83.3066 17.7315 83.372 18.2173ZM87.6493 24.1278C86.9931 24.1278 86.4263 23.9915 85.949 23.7188C85.4746 23.4432 85.1096 23.054 84.8539 22.5511C84.5982 22.0455 84.4703 21.4503 84.4703 20.7656C84.4703 20.0923 84.5982 19.5014 84.8539 18.9929C85.1124 18.4815 85.4732 18.0838 85.9363 17.7997C86.3993 17.5128 86.9434 17.3693 87.5684 17.3693C87.9718 17.3693 88.3525 17.4347 88.7104 17.5653C89.0712 17.6932 89.3894 17.892 89.665 18.1619C89.9434 18.4318 90.1621 18.7756 90.3212 19.1932C90.4803 19.608 90.5598 20.1023 90.5598 20.6761V21.1491H85.1948V20.1094H89.0811C89.0783 19.8139 89.0144 19.5511 88.8894 19.321C88.7644 19.0881 88.5897 18.9048 88.3652 18.7713C88.1436 18.6378 87.8851 18.571 87.5897 18.571C87.2743 18.571 86.9973 18.6477 86.7587 18.8011C86.5201 18.9517 86.334 19.1506 86.2005 19.3977C86.0698 19.642 86.003 19.9105 86.0002 20.2031V21.1108C86.0002 21.4915 86.0698 21.8182 86.209 22.0909C86.3482 22.3608 86.5428 22.5682 86.7928 22.7131C87.0428 22.8551 87.3354 22.9261 87.6706 22.9261C87.8951 22.9261 88.0982 22.8949 88.28 22.8324C88.4618 22.767 88.6195 22.6719 88.753 22.5469C88.8865 22.4219 88.9874 22.267 89.0556 22.0824L90.4959 22.2443C90.405 22.625 90.2317 22.9574 89.976 23.2415C89.7232 23.5227 89.3993 23.7415 89.0044 23.8977C88.6096 24.0511 88.1578 24.1278 87.6493 24.1278ZM91.8649 24V17.4545H93.3606V18.5455H93.4288C93.5481 18.1676 93.7527 17.8764 94.0424 17.6719C94.335 17.4645 94.6689 17.3608 95.0439 17.3608C95.1291 17.3608 95.2243 17.3651 95.3294 17.3736C95.4373 17.3793 95.5268 17.3892 95.5978 17.4034V18.8224C95.5325 18.7997 95.4288 18.7798 95.2868 18.7628C95.1475 18.7429 95.0126 18.733 94.8819 18.733C94.6007 18.733 94.3478 18.794 94.1234 18.9162C93.9018 19.0355 93.7271 19.2017 93.5993 19.4148C93.4714 19.6278 93.4075 19.8736 93.4075 20.152V24H91.8649ZM100.243 17.4545V18.6477H96.4799V17.4545H100.243ZM97.4089 15.8864H98.9515V22.0312C98.9515 22.2386 98.9828 22.3977 99.0453 22.5085C99.1106 22.6165 99.1958 22.6903 99.301 22.7301C99.4061 22.7699 99.5225 22.7898 99.6504 22.7898C99.747 22.7898 99.835 22.7827 99.9146 22.7685C99.997 22.7543 100.059 22.7415 100.102 22.7301L100.362 23.9361C100.28 23.9645 100.162 23.9957 100.008 24.0298C99.8578 24.0639 99.6731 24.0838 99.4544 24.0895C99.068 24.1009 98.72 24.0426 98.4103 23.9148C98.1007 23.7841 97.8549 23.5824 97.6731 23.3097C97.4941 23.0369 97.4061 22.696 97.4089 22.2869V15.8864ZM101.533 24V17.4545H103.075V24H101.533ZM102.308 16.5256C102.064 16.5256 101.854 16.4446 101.678 16.2827C101.502 16.1179 101.414 15.9205 101.414 15.6903C101.414 15.4574 101.502 15.2599 101.678 15.098C101.854 14.9332 102.064 14.8509 102.308 14.8509C102.556 14.8509 102.766 14.9332 102.939 15.098C103.115 15.2599 103.203 15.4574 103.203 15.6903C103.203 15.9205 103.115 16.1179 102.939 16.2827C102.766 16.4446 102.556 16.5256 102.308 16.5256ZM107.977 17.4545V18.6477H104.108V17.4545H107.977ZM105.075 24V16.8366C105.075 16.3963 105.166 16.0298 105.348 15.7372C105.532 15.4446 105.78 15.2259 106.089 15.081C106.399 14.9361 106.743 14.8636 107.121 14.8636C107.388 14.8636 107.625 14.8849 107.832 14.9276C108.04 14.9702 108.193 15.0085 108.292 15.0426L107.986 16.2358C107.92 16.2159 107.838 16.196 107.738 16.1761C107.639 16.1534 107.528 16.142 107.406 16.142C107.119 16.142 106.916 16.2116 106.797 16.3509C106.68 16.4872 106.622 16.6832 106.622 16.9389V24H105.075ZM109.185 24V17.4545H110.728V24H109.185ZM109.961 16.5256C109.716 16.5256 109.506 16.4446 109.33 16.2827C109.154 16.1179 109.066 15.9205 109.066 15.6903C109.066 15.4574 109.154 15.2599 109.33 15.098C109.506 14.9332 109.716 14.8509 109.961 14.8509C110.208 14.8509 110.418 14.9332 110.591 15.098C110.768 15.2599 110.856 15.4574 110.856 15.6903C110.856 15.9205 110.768 16.1179 110.591 16.2827C110.418 16.4446 110.208 16.5256 109.961 16.5256ZM115.169 24.1278C114.516 24.1278 113.955 23.9844 113.486 23.6974C113.02 23.4105 112.661 23.0142 112.408 22.5085C112.158 22 112.033 21.4148 112.033 20.7528C112.033 20.0881 112.161 19.5014 112.416 18.9929C112.672 18.4815 113.033 18.0838 113.499 17.7997C113.968 17.5128 114.521 17.3693 115.161 17.3693C115.692 17.3693 116.162 17.4673 116.571 17.6634C116.983 17.8565 117.311 18.1307 117.556 18.4858C117.8 18.8381 117.939 19.25 117.973 19.7216H116.499C116.439 19.4062 116.297 19.1435 116.073 18.9332C115.851 18.7202 115.554 18.6136 115.182 18.6136C114.867 18.6136 114.59 18.6989 114.351 18.8693C114.112 19.0369 113.926 19.2784 113.793 19.5938C113.662 19.9091 113.597 20.2869 113.597 20.7273C113.597 21.1733 113.662 21.5568 113.793 21.8778C113.923 22.196 114.107 22.4418 114.343 22.6151C114.581 22.7855 114.861 22.8707 115.182 22.8707C115.409 22.8707 115.612 22.8281 115.791 22.7429C115.973 22.6548 116.125 22.5284 116.247 22.3636C116.369 22.1989 116.453 21.9986 116.499 21.7628H117.973C117.936 22.2259 117.8 22.6364 117.564 22.9943C117.328 23.3494 117.007 23.6278 116.601 23.8295C116.195 24.0284 115.718 24.1278 115.169 24.1278ZM121.123 24.1321C120.709 24.1321 120.335 24.0582 120.003 23.9105C119.673 23.7599 119.412 23.5384 119.219 23.2457C119.028 22.9531 118.933 22.5923 118.933 22.1634C118.933 21.794 119.001 21.4886 119.138 21.2472C119.274 21.0057 119.46 20.8125 119.696 20.6676C119.932 20.5227 120.197 20.4134 120.493 20.3395C120.791 20.2628 121.099 20.2074 121.417 20.1733C121.801 20.1335 122.112 20.098 122.351 20.0668C122.589 20.0327 122.763 19.9815 122.871 19.9134C122.981 19.8423 123.037 19.733 123.037 19.5852V19.5597C123.037 19.2386 122.942 18.9901 122.751 18.8139C122.561 18.6378 122.287 18.5497 121.929 18.5497C121.551 18.5497 121.251 18.6321 121.03 18.7969C120.811 18.9616 120.663 19.1562 120.586 19.3807L119.146 19.1761C119.26 18.7784 119.447 18.446 119.709 18.179C119.97 17.9091 120.29 17.7074 120.667 17.5739C121.045 17.4375 121.463 17.3693 121.92 17.3693C122.236 17.3693 122.55 17.4062 122.862 17.4801C123.175 17.554 123.46 17.6761 123.719 17.8466C123.977 18.0142 124.184 18.2429 124.341 18.5327C124.5 18.8224 124.579 19.1847 124.579 19.6193V24H123.096V23.1009H123.045C122.952 23.2827 122.819 23.4531 122.649 23.6122C122.481 23.7685 122.27 23.8949 122.014 23.9915C121.761 24.0852 121.464 24.1321 121.123 24.1321ZM121.524 22.9986C121.834 22.9986 122.102 22.9375 122.329 22.8153C122.557 22.6903 122.731 22.5256 122.854 22.321C122.979 22.1165 123.041 21.8935 123.041 21.652V20.8807C122.993 20.9205 122.91 20.9574 122.794 20.9915C122.68 21.0256 122.552 21.0554 122.41 21.081C122.268 21.1065 122.128 21.1293 121.988 21.1491C121.849 21.169 121.729 21.1861 121.626 21.2003C121.396 21.2315 121.19 21.2827 121.008 21.3537C120.827 21.4247 120.683 21.5241 120.578 21.652C120.473 21.777 120.42 21.9389 120.42 22.1378C120.42 22.4219 120.524 22.6364 120.731 22.7812C120.939 22.9261 121.203 22.9986 121.524 22.9986ZM129.399 17.4545V18.6477H125.636V17.4545H129.399ZM126.565 15.8864H128.108V22.0312C128.108 22.2386 128.139 22.3977 128.202 22.5085C128.267 22.6165 128.352 22.6903 128.457 22.7301C128.562 22.7699 128.679 22.7898 128.807 22.7898C128.903 22.7898 128.991 22.7827 129.071 22.7685C129.153 22.7543 129.216 22.7415 129.258 22.7301L129.518 23.9361C129.436 23.9645 129.318 23.9957 129.165 24.0298C129.014 24.0639 128.829 24.0838 128.611 24.0895C128.224 24.1009 127.876 24.0426 127.567 23.9148C127.257 23.7841 127.011 23.5824 126.829 23.3097C126.65 23.0369 126.562 22.696 126.565 22.2869V15.8864ZM133.517 24.1278C132.86 24.1278 132.294 23.9915 131.816 23.7188C131.342 23.4432 130.977 23.054 130.721 22.5511C130.465 22.0455 130.338 21.4503 130.338 20.7656C130.338 20.0923 130.465 19.5014 130.721 18.9929C130.98 18.4815 131.34 18.0838 131.803 17.7997C132.267 17.5128 132.811 17.3693 133.436 17.3693C133.839 17.3693 134.22 17.4347 134.578 17.5653C134.938 17.6932 135.257 17.892 135.532 18.1619C135.811 18.4318 136.029 18.7756 136.188 19.1932C136.347 19.608 136.427 20.1023 136.427 20.6761V21.1491H131.062V20.1094H134.948C134.945 19.8139 134.882 19.5511 134.757 19.321C134.632 19.0881 134.457 18.9048 134.232 18.7713C134.011 18.6378 133.752 18.571 133.457 18.571C133.142 18.571 132.865 18.6477 132.626 18.8011C132.387 18.9517 132.201 19.1506 132.068 19.3977C131.937 19.642 131.87 19.9105 131.867 20.2031V21.1108C131.867 21.4915 131.937 21.8182 132.076 22.0909C132.215 22.3608 132.41 22.5682 132.66 22.7131C132.91 22.8551 133.203 22.9261 133.538 22.9261C133.762 22.9261 133.965 22.8949 134.147 22.8324C134.329 22.767 134.487 22.6719 134.62 22.5469C134.754 22.4219 134.855 22.267 134.923 22.0824L136.363 22.2443C136.272 22.625 136.099 22.9574 135.843 23.2415C135.59 23.5227 135.267 23.7415 134.872 23.8977C134.477 24.0511 134.025 24.1278 133.517 24.1278Z" fill="#274B73"/>
</svg>
