<svg width="40" height="40" viewBox="0 0 40 40" fill="none" xmlns="http://www.w3.org/2000/svg">
<circle cx="20" cy="20" r="20" fill="#10A83B"/>
<path d="M10.4004 11.5984C10.4004 10.9357 10.9376 10.3984 11.6004 10.3984H14.1838C14.7704 10.3984 15.2711 10.8225 15.3675 11.4012L16.2547 16.7242C16.3413 17.2438 16.0789 17.7592 15.6077 17.9948L13.7499 18.9237C15.0895 22.2524 17.7464 24.9094 21.0751 26.2489L22.004 24.3912C22.2396 23.92 22.755 23.6575 23.2746 23.7441L28.5977 24.6313C29.1763 24.7278 29.6004 25.2284 29.6004 25.815V28.3984C29.6004 29.0612 29.0631 29.5984 28.4004 29.5984H26.0004C17.3847 29.5984 10.4004 22.6141 10.4004 13.9984V11.5984Z" fill="#EDFFF0"/>
</svg>
