<svg width="183" height="192" viewBox="0 0 183 192" fill="none" xmlns="http://www.w3.org/2000/svg">
<rect width="183" height="192" fill="#F2F2F2"/>
<rect y="40" width="183" height="1" fill="#E6E6E6"/>
<path d="M92.0016 101.6C84.0672 101.6 77.6016 108.065 77.6016 116C77.6016 123.934 84.0672 130.4 92.0016 130.4C99.936 130.4 106.402 123.934 106.402 116C106.402 108.065 99.936 101.6 92.0016 101.6ZM97.7616 117.08H93.0816V121.76C93.0816 122.35 92.592 122.84 92.0016 122.84C91.4112 122.84 90.9216 122.35 90.9216 121.76V117.08H86.2416C85.6512 117.08 85.1616 116.59 85.1616 116C85.1616 115.409 85.6512 114.92 86.2416 114.92H90.9216V110.24C90.9216 109.649 91.4112 109.16 92.0016 109.16C92.592 109.16 93.0816 109.649 93.0816 110.24V114.92H97.7616C98.352 114.92 98.8416 115.409 98.8416 116C98.8416 116.59 98.352 117.08 97.7616 117.08Z" fill="#214660"/>
<rect x="69" y="93" width="46" height="46" rx="23" stroke="#FC8A8A" stroke-width="2" stroke-dasharray="4 4"/>
<path d="M39.9897 24V15.2727H43.2624C43.9329 15.2727 44.4954 15.3977 44.9499 15.6477C45.4073 15.8977 45.7525 16.2415 45.9854 16.679C46.2212 17.1136 46.3391 17.608 46.3391 18.1619C46.3391 18.7216 46.2212 19.2187 45.9854 19.6534C45.7496 20.0881 45.4016 20.4304 44.9414 20.6804C44.4812 20.9276 43.9144 21.0511 43.2411 21.0511H41.0721V19.7514H43.0281C43.4201 19.7514 43.7411 19.6832 43.9911 19.5469C44.2411 19.4105 44.4258 19.223 44.5451 18.9844C44.6673 18.7457 44.7283 18.4716 44.7283 18.1619C44.7283 17.8523 44.6673 17.5795 44.5451 17.3438C44.4258 17.108 44.2397 16.9247 43.9869 16.794C43.7369 16.6605 43.4144 16.5938 43.0195 16.5938H41.5707V24H39.9897ZM47.6442 24V17.4545H49.1399V18.5455H49.2081C49.3274 18.1676 49.532 17.8764 49.8217 17.6719C50.1143 17.4645 50.4482 17.3608 50.8232 17.3608C50.9084 17.3608 51.0036 17.3651 51.1087 17.3736C51.2166 17.3793 51.3061 17.3892 51.3771 17.4034V18.8224C51.3118 18.7997 51.2081 18.7798 51.0661 18.7628C50.9268 18.7429 50.7919 18.733 50.6612 18.733C50.38 18.733 50.1271 18.794 49.9027 18.9162C49.6811 19.0355 49.5064 19.2017 49.3786 19.4148C49.2507 19.6278 49.1868 19.8736 49.1868 20.152V24H47.6442ZM54.9876 24.1278C54.3484 24.1278 53.7944 23.9872 53.3256 23.706C52.8569 23.4247 52.4933 23.0312 52.2347 22.5256C51.979 22.0199 51.8512 21.429 51.8512 20.7528C51.8512 20.0767 51.979 19.4844 52.2347 18.9759C52.4933 18.4673 52.8569 18.0724 53.3256 17.7912C53.7944 17.5099 54.3484 17.3693 54.9876 17.3693C55.6268 17.3693 56.1808 17.5099 56.6495 17.7912C57.1183 18.0724 57.4805 18.4673 57.7362 18.9759C57.9947 19.4844 58.1239 20.0767 58.1239 20.7528C58.1239 21.429 57.9947 22.0199 57.7362 22.5256C57.4805 23.0312 57.1183 23.4247 56.6495 23.706C56.1808 23.9872 55.6268 24.1278 54.9876 24.1278ZM54.9961 22.892C55.3427 22.892 55.6325 22.7969 55.8654 22.6065C56.0984 22.4134 56.2717 22.1548 56.3853 21.831C56.5018 21.5071 56.56 21.1463 56.56 20.7486C56.56 20.348 56.5018 19.9858 56.3853 19.6619C56.2717 19.3352 56.0984 19.0753 55.8654 18.8821C55.6325 18.6889 55.3427 18.5923 54.9961 18.5923C54.641 18.5923 54.3455 18.6889 54.1097 18.8821C53.8768 19.0753 53.7021 19.3352 53.5856 19.6619C53.4719 19.9858 53.4151 20.348 53.4151 20.7486C53.4151 21.1463 53.4719 21.5071 53.5856 21.831C53.7021 22.1548 53.8768 22.4134 54.1097 22.6065C54.3455 22.7969 54.641 22.892 54.9961 22.892ZM62.2884 24.1278C61.6491 24.1278 61.0952 23.9872 60.6264 23.706C60.1577 23.4247 59.794 23.0312 59.5355 22.5256C59.2798 22.0199 59.152 21.429 59.152 20.7528C59.152 20.0767 59.2798 19.4844 59.5355 18.9759C59.794 18.4673 60.1577 18.0724 60.6264 17.7912C61.0952 17.5099 61.6491 17.3693 62.2884 17.3693C62.9276 17.3693 63.4815 17.5099 63.9503 17.7912C64.419 18.0724 64.7813 18.4673 65.0369 18.9759C65.2955 19.4844 65.4247 20.0767 65.4247 20.7528C65.4247 21.429 65.2955 22.0199 65.0369 22.5256C64.7813 23.0312 64.419 23.4247 63.9503 23.706C63.4815 23.9872 62.9276 24.1278 62.2884 24.1278ZM62.2969 22.892C62.6435 22.892 62.9332 22.7969 63.1662 22.6065C63.3991 22.4134 63.5724 22.1548 63.6861 21.831C63.8026 21.5071 63.8608 21.1463 63.8608 20.7486C63.8608 20.348 63.8026 19.9858 63.6861 19.6619C63.5724 19.3352 63.3991 19.0753 63.1662 18.8821C62.9332 18.6889 62.6435 18.5923 62.2969 18.5923C61.9418 18.5923 61.6463 18.6889 61.4105 18.8821C61.1776 19.0753 61.0028 19.3352 60.8864 19.6619C60.7727 19.9858 60.7159 20.348 60.7159 20.7486C60.7159 21.1463 60.7727 21.5071 60.8864 21.831C61.0028 22.1548 61.1776 22.4134 61.4105 22.6065C61.6463 22.7969 61.9418 22.892 62.2969 22.892ZM70.0494 17.4545V18.6477H66.18V17.4545H70.0494ZM67.1474 24V16.8366C67.1474 16.3963 67.2383 16.0298 67.4201 15.7372C67.6048 15.4446 67.8519 15.2259 68.1616 15.081C68.4712 14.9361 68.815 14.8636 69.1928 14.8636C69.4599 14.8636 69.6971 14.8849 69.9045 14.9276C70.1119 14.9702 70.2653 15.0085 70.3647 15.0426L70.0579 16.2358C69.9925 16.2159 69.9102 16.196 69.8107 16.1761C69.7113 16.1534 69.6005 16.142 69.4783 16.142C69.1914 16.142 68.9883 16.2116 68.869 16.3509C68.7525 16.4872 68.6942 16.6832 68.6942 16.9389V24H67.1474ZM77.0891 24.1278C76.4499 24.1278 75.896 23.9872 75.4272 23.706C74.9585 23.4247 74.5948 23.0312 74.3363 22.5256C74.0806 22.0199 73.9528 21.429 73.9528 20.7528C73.9528 20.0767 74.0806 19.4844 74.3363 18.9759C74.5948 18.4673 74.9585 18.0724 75.4272 17.7912C75.896 17.5099 76.4499 17.3693 77.0891 17.3693C77.7283 17.3693 78.2823 17.5099 78.7511 17.7912C79.2198 18.0724 79.582 18.4673 79.8377 18.9759C80.0962 19.4844 80.2255 20.0767 80.2255 20.7528C80.2255 21.429 80.0962 22.0199 79.8377 22.5256C79.582 23.0312 79.2198 23.4247 78.7511 23.706C78.2823 23.9872 77.7283 24.1278 77.0891 24.1278ZM77.0977 22.892C77.4442 22.892 77.734 22.7969 77.967 22.6065C78.1999 22.4134 78.3732 22.1548 78.4869 21.831C78.6033 21.5071 78.6616 21.1463 78.6616 20.7486C78.6616 20.348 78.6033 19.9858 78.4869 19.6619C78.3732 19.3352 78.1999 19.0753 77.967 18.8821C77.734 18.6889 77.4442 18.5923 77.0977 18.5923C76.7425 18.5923 76.4471 18.6889 76.2113 18.8821C75.9783 19.0753 75.8036 19.3352 75.6871 19.6619C75.5735 19.9858 75.5167 20.348 75.5167 20.7486C75.5167 21.1463 75.5735 21.5071 75.6871 21.831C75.8036 22.1548 75.9783 22.4134 76.2113 22.6065C76.4471 22.7969 76.7425 22.892 77.0977 22.892ZM84.8501 17.4545V18.6477H80.9808V17.4545H84.8501ZM81.9482 24V16.8366C81.9482 16.3963 82.0391 16.0298 82.2209 15.7372C82.4055 15.4446 82.6527 15.2259 82.9624 15.081C83.272 14.9361 83.6158 14.8636 83.9936 14.8636C84.2607 14.8636 84.4979 14.8849 84.7053 14.9276C84.9126 14.9702 85.0661 15.0085 85.1655 15.0426L84.8587 16.2358C84.7933 16.2159 84.7109 16.196 84.6115 16.1761C84.5121 16.1534 84.4013 16.142 84.2791 16.142C83.9922 16.142 83.7891 16.2116 83.6697 16.3509C83.5533 16.4872 83.495 16.6832 83.495 16.9389V24H81.9482ZM96.5732 18.2173H94.9794C94.9339 17.956 94.8501 17.7244 94.728 17.5227C94.6058 17.3182 94.4538 17.1449 94.272 17.0028C94.0902 16.8608 93.8828 16.7543 93.6499 16.6832C93.4197 16.6094 93.1712 16.5724 92.9041 16.5724C92.4297 16.5724 92.0092 16.6918 91.6428 16.9304C91.2763 17.1662 90.9893 17.5128 90.782 17.9702C90.5746 18.4247 90.4709 18.9801 90.4709 19.6364C90.4709 20.304 90.5746 20.8665 90.782 21.3239C90.9922 21.7784 91.2791 22.1222 91.6428 22.3551C92.0092 22.5852 92.4283 22.7003 92.8999 22.7003C93.1612 22.7003 93.4055 22.6662 93.6328 22.598C93.8629 22.527 94.0689 22.4233 94.2507 22.2869C94.4354 22.1506 94.5902 21.983 94.7152 21.7841C94.843 21.5852 94.9311 21.358 94.9794 21.1023L96.5732 21.1108C96.5135 21.5256 96.3842 21.9148 96.1854 22.2784C95.9893 22.642 95.7322 22.9631 95.4141 23.2415C95.0959 23.517 94.7237 23.733 94.2976 23.8892C93.8714 24.0426 93.3984 24.1193 92.8786 24.1193C92.1115 24.1193 91.4268 23.9418 90.8246 23.5866C90.2223 23.2315 89.7479 22.7188 89.4013 22.0483C89.0547 21.3778 88.8814 20.5739 88.8814 19.6364C88.8814 18.696 89.0561 17.892 89.4055 17.2244C89.755 16.554 90.2308 16.0412 90.8331 15.6861C91.4354 15.331 92.1172 15.1534 92.8786 15.1534C93.3643 15.1534 93.8161 15.2216 94.2337 15.358C94.6513 15.4943 95.0234 15.6946 95.3501 15.9588C95.6768 16.2202 95.9453 16.5412 96.1555 16.9219C96.3686 17.2997 96.5078 17.7315 96.5732 18.2173ZM100.808 24.1278C100.169 24.1278 99.6147 23.9872 99.146 23.706C98.6772 23.4247 98.3136 23.0312 98.055 22.5256C97.7994 22.0199 97.6715 21.429 97.6715 20.7528C97.6715 20.0767 97.7994 19.4844 98.055 18.9759C98.3136 18.4673 98.6772 18.0724 99.146 17.7912C99.6147 17.5099 100.169 17.3693 100.808 17.3693C101.447 17.3693 102.001 17.5099 102.47 17.7912C102.939 18.0724 103.301 18.4673 103.556 18.9759C103.815 19.4844 103.944 20.0767 103.944 20.7528C103.944 21.429 103.815 22.0199 103.556 22.5256C103.301 23.0312 102.939 23.4247 102.47 23.706C102.001 23.9872 101.447 24.1278 100.808 24.1278ZM100.816 22.892C101.163 22.892 101.453 22.7969 101.686 22.6065C101.919 22.4134 102.092 22.1548 102.206 21.831C102.322 21.5071 102.38 21.1463 102.38 20.7486C102.38 20.348 102.322 19.9858 102.206 19.6619C102.092 19.3352 101.919 19.0753 101.686 18.8821C101.453 18.6889 101.163 18.5923 100.816 18.5923C100.461 18.5923 100.166 18.6889 99.93 18.8821C99.6971 19.0753 99.5224 19.3352 99.4059 19.6619C99.2923 19.9858 99.2354 20.348 99.2354 20.7486C99.2354 21.1463 99.2923 21.5071 99.4059 21.831C99.5224 22.1548 99.6971 22.4134 99.93 22.6065C100.166 22.7969 100.461 22.892 100.816 22.892ZM106.796 15.2727V24H105.254V15.2727H106.796ZM109.925 15.2727V24H108.382V15.2727H109.925ZM113.395 24.1321C112.98 24.1321 112.607 24.0582 112.274 23.9105C111.945 23.7599 111.683 23.5384 111.49 23.2457C111.3 22.9531 111.205 22.5923 111.205 22.1634C111.205 21.794 111.273 21.4886 111.409 21.2472C111.545 21.0057 111.732 20.8125 111.967 20.6676C112.203 20.5227 112.469 20.4134 112.764 20.3395C113.063 20.2628 113.371 20.2074 113.689 20.1733C114.072 20.1335 114.384 20.098 114.622 20.0668C114.861 20.0327 115.034 19.9815 115.142 19.9134C115.253 19.8423 115.308 19.733 115.308 19.5852V19.5597C115.308 19.2386 115.213 18.9901 115.023 18.8139C114.832 18.6378 114.558 18.5497 114.2 18.5497C113.822 18.5497 113.523 18.6321 113.301 18.7969C113.082 18.9616 112.935 19.1562 112.858 19.3807L111.418 19.1761C111.531 18.7784 111.719 18.446 111.98 18.179C112.241 17.9091 112.561 17.7074 112.939 17.5739C113.317 17.4375 113.734 17.3693 114.192 17.3693C114.507 17.3693 114.821 17.4062 115.134 17.4801C115.446 17.554 115.732 17.6761 115.99 17.8466C116.249 18.0142 116.456 18.2429 116.612 18.5327C116.771 18.8224 116.851 19.1847 116.851 19.6193V24H115.368V23.1009H115.317C115.223 23.2827 115.091 23.4531 114.92 23.6122C114.753 23.7685 114.541 23.8949 114.286 23.9915C114.033 24.0852 113.736 24.1321 113.395 24.1321ZM113.795 22.9986C114.105 22.9986 114.374 22.9375 114.601 22.8153C114.828 22.6903 115.003 22.5256 115.125 22.321C115.25 22.1165 115.312 21.8935 115.312 21.652V20.8807C115.264 20.9205 115.182 20.9574 115.065 20.9915C114.952 21.0256 114.824 21.0554 114.682 21.081C114.54 21.1065 114.399 21.1293 114.26 21.1491C114.121 21.169 114 21.1861 113.898 21.2003C113.668 21.2315 113.462 21.2827 113.28 21.3537C113.098 21.4247 112.955 21.5241 112.849 21.652C112.744 21.777 112.692 21.9389 112.692 22.1378C112.692 22.4219 112.795 22.6364 113.003 22.7812C113.21 22.9261 113.474 22.9986 113.795 22.9986ZM121.67 17.4545V18.6477H117.908V17.4545H121.67ZM118.837 15.8864H120.379V22.0312C120.379 22.2386 120.411 22.3977 120.473 22.5085C120.538 22.6165 120.624 22.6903 120.729 22.7301C120.834 22.7699 120.95 22.7898 121.078 22.7898C121.175 22.7898 121.263 22.7827 121.342 22.7685C121.425 22.7543 121.487 22.7415 121.53 22.7301L121.79 23.9361C121.707 23.9645 121.589 23.9957 121.436 24.0298C121.286 24.0639 121.101 24.0838 120.882 24.0895C120.496 24.1009 120.148 24.0426 119.838 23.9148C119.528 23.7841 119.283 23.5824 119.101 23.3097C118.922 23.0369 118.834 22.696 118.837 22.2869V15.8864ZM125.788 24.1278C125.132 24.1278 124.565 23.9915 124.088 23.7188C123.613 23.4432 123.248 23.054 122.993 22.5511C122.737 22.0455 122.609 21.4503 122.609 20.7656C122.609 20.0923 122.737 19.5014 122.993 18.9929C123.251 18.4815 123.612 18.0838 124.075 17.7997C124.538 17.5128 125.082 17.3693 125.707 17.3693C126.11 17.3693 126.491 17.4347 126.849 17.5653C127.21 17.6932 127.528 17.892 127.804 18.1619C128.082 18.4318 128.301 18.7756 128.46 19.1932C128.619 19.608 128.699 20.1023 128.699 20.6761V21.1491H123.333V20.1094H127.22C127.217 19.8139 127.153 19.5511 127.028 19.321C126.903 19.0881 126.728 18.9048 126.504 18.7713C126.282 18.6378 126.024 18.571 125.728 18.571C125.413 18.571 125.136 18.6477 124.897 18.8011C124.659 18.9517 124.473 19.1506 124.339 19.3977C124.208 19.642 124.142 19.9105 124.139 20.2031V21.1108C124.139 21.4915 124.208 21.8182 124.348 22.0909C124.487 22.3608 124.681 22.5682 124.931 22.7131C125.181 22.8551 125.474 22.9261 125.809 22.9261C126.034 22.9261 126.237 22.8949 126.419 22.8324C126.6 22.767 126.758 22.6719 126.892 22.5469C127.025 22.4219 127.126 22.267 127.194 22.0824L128.635 22.2443C128.544 22.625 128.37 22.9574 128.115 23.2415C127.862 23.5227 127.538 23.7415 127.143 23.8977C126.748 24.0511 126.297 24.1278 125.788 24.1278ZM130.004 24V17.4545H131.499V18.5455H131.567C131.687 18.1676 131.891 17.8764 132.181 17.6719C132.474 17.4645 132.808 17.3608 133.183 17.3608C133.268 17.3608 133.363 17.3651 133.468 17.3736C133.576 17.3793 133.665 17.3892 133.737 17.4034V18.8224C133.671 18.7997 133.567 18.7798 133.425 18.7628C133.286 18.7429 133.151 18.733 133.021 18.733C132.739 18.733 132.487 18.794 132.262 18.9162C132.04 19.0355 131.866 19.2017 131.738 19.4148C131.61 19.6278 131.546 19.8736 131.546 20.152V24H130.004ZM136.528 24.1321C136.113 24.1321 135.739 24.0582 135.407 23.9105C135.077 23.7599 134.816 23.5384 134.623 23.2457C134.433 22.9531 134.337 22.5923 134.337 22.1634C134.337 21.794 134.406 21.4886 134.542 21.2472C134.678 21.0057 134.864 20.8125 135.1 20.6676C135.336 20.5227 135.602 20.4134 135.897 20.3395C136.195 20.2628 136.504 20.2074 136.822 20.1733C137.205 20.1335 137.516 20.098 137.755 20.0668C137.994 20.0327 138.167 19.9815 138.275 19.9134C138.386 19.8423 138.441 19.733 138.441 19.5852V19.5597C138.441 19.2386 138.346 18.9901 138.156 18.8139C137.965 18.6378 137.691 18.5497 137.333 18.5497C136.955 18.5497 136.656 18.6321 136.434 18.7969C136.215 18.9616 136.067 19.1562 135.991 19.3807L134.55 19.1761C134.664 18.7784 134.852 18.446 135.113 18.179C135.374 17.9091 135.694 17.7074 136.072 17.5739C136.45 17.4375 136.867 17.3693 137.325 17.3693C137.64 17.3693 137.954 17.4062 138.266 17.4801C138.579 17.554 138.864 17.6761 139.123 17.8466C139.381 18.0142 139.589 18.2429 139.745 18.5327C139.904 18.8224 139.984 19.1847 139.984 19.6193V24H138.501V23.1009H138.45C138.356 23.2827 138.224 23.4531 138.053 23.6122C137.886 23.7685 137.674 23.8949 137.418 23.9915C137.165 24.0852 136.869 24.1321 136.528 24.1321ZM136.928 22.9986C137.238 22.9986 137.506 22.9375 137.734 22.8153C137.961 22.6903 138.136 22.5256 138.258 22.321C138.383 22.1165 138.445 21.8935 138.445 21.652V20.8807C138.397 20.9205 138.315 20.9574 138.198 20.9915C138.085 21.0256 137.957 21.0554 137.815 21.081C137.673 21.1065 137.532 21.1293 137.393 21.1491C137.254 21.169 137.133 21.1861 137.031 21.2003C136.8 21.2315 136.594 21.2827 136.413 21.3537C136.231 21.4247 136.087 21.5241 135.982 21.652C135.877 21.777 135.825 21.9389 135.825 22.1378C135.825 22.4219 135.928 22.6364 136.136 22.7812C136.343 22.9261 136.607 22.9986 136.928 22.9986ZM143.077 15.2727V24H141.535V15.2727H143.077Z" fill="#274B73"/>
</svg>
