<svg width="48" height="48" viewBox="0 0 48 48" fill="none" xmlns="http://www.w3.org/2000/svg">
<circle cx="24" cy="24" r="24" fill="#FADCC1"/>
<path d="M21 14C18.38 14 16.25 16.13 16.25 18.75C16.25 21.32 18.26 23.4 20.88 23.49C20.96 23.48 21.04 23.48 21.1 23.49C21.12 23.49 21.13 23.49 21.15 23.49C21.16 23.49 21.16 23.49 21.17 23.49C23.73 23.4 25.74 21.32 25.75 18.75C25.75 16.13 23.62 14 21 14Z" fill="#1A1A1A"/>
<path d="M26.0809 26.1499C23.2909 24.2899 18.7409 24.2899 15.9309 26.1499C14.6609 26.9999 13.9609 28.1499 13.9609 29.3799C13.9609 30.6099 14.6609 31.7499 15.9209 32.5899C17.3209 33.5299 19.1609 33.9999 21.0009 33.9999C22.8409 33.9999 24.6809 33.5299 26.0809 32.5899C27.3409 31.7399 28.0409 30.5999 28.0409 29.3599C28.0309 28.1299 27.3409 26.9899 26.0809 26.1499Z" fill="#1A1A1A"/>
<path d="M31.9894 19.3401C32.1494 21.2801 30.7694 22.9801 28.8594 23.2101C28.8494 23.2101 28.8494 23.2101 28.8394 23.2101H28.8094C28.7494 23.2101 28.6894 23.2101 28.6394 23.2301C27.6694 23.2801 26.7794 22.9701 26.1094 22.4001C27.1394 21.4801 27.7294 20.1001 27.6094 18.6001C27.5394 17.7901 27.2594 17.0501 26.8394 16.4201C27.2194 16.2301 27.6594 16.1101 28.1094 16.0701C30.0694 15.9001 31.8194 17.3601 31.9894 19.3401Z" fill="#1A1A1A"/>
<path d="M33.9902 28.5899C33.9102 29.5599 33.2902 30.3999 32.2502 30.9699C31.2502 31.5199 29.9902 31.7799 28.7402 31.7499C29.4602 31.0999 29.8802 30.2899 29.9602 29.4299C30.0602 28.1899 29.4702 26.9999 28.2902 26.0499C27.6202 25.5199 26.8402 25.0999 25.9902 24.7899C28.2002 24.1499 30.9802 24.5799 32.6902 25.9599C33.6102 26.6999 34.0802 27.6299 33.9902 28.5899Z" fill="#1A1A1A"/>
</svg>
