<svg width="16" height="16" viewBox="0 0 16 16" fill="none" xmlns="http://www.w3.org/2000/svg">
<path d="M5.84635 3.39897H12.2227C13.5094 3.39897 14.56 4.4496 14.56 5.73627V12.3281C14.56 13.6147 13.5094 14.6654 12.2227 14.6654H5.84635C4.55967 14.6654 3.50905 13.6147 3.50905 12.3281V5.73627C3.50905 4.4496 4.55922 3.39897 5.84635 3.39897ZM1.33398 10.2611V3.66933C1.33398 2.38411 2.3856 1.33203 3.67128 1.33203H10.0477V2.40713H3.67128C2.97669 2.40713 2.40908 2.97485 2.40908 3.66933V10.2611H1.33398ZM12.222 4.4745H5.84561C5.15247 4.4745 4.58341 5.04367 4.58341 5.7367V12.3285C4.58341 13.0216 5.15258 13.5907 5.84561 13.5907H12.222C12.9151 13.5907 13.4842 13.0215 13.4842 12.3285V5.7367C13.4842 5.04356 12.915 4.4745 12.222 4.4745Z" fill="#EAF0FA"/>
</svg>
