<svg width="32" height="32" viewBox="0 0 32 32" fill="none" xmlns="http://www.w3.org/2000/svg">
<circle cx="16" cy="16" r="16" fill="#EEEFF2"/>
<path fill-rule="evenodd" clip-rule="evenodd" d="M11.2004 11.1996C11.2004 10.316 11.9167 9.59961 12.8004 9.59961H19.2004C20.084 9.59961 20.8004 10.316 20.8004 11.1996V20.7996C21.2422 20.7996 21.6004 21.1578 21.6004 21.5996C21.6004 22.0414 21.2422 22.3996 20.8004 22.3996H18.6004C18.0481 22.3996 17.6004 21.9519 17.6004 21.3996V19.9996C17.6004 19.5578 17.2422 19.1996 16.8004 19.1996H15.2004C14.7586 19.1996 14.4004 19.5578 14.4004 19.9996V21.3996C14.4004 21.9519 13.9527 22.3996 13.4004 22.3996H11.2004C10.7586 22.3996 10.4004 22.0414 10.4004 21.5996C10.4004 21.1578 10.7586 20.7996 11.2004 20.7996V11.1996ZM13.6004 11.9996H15.2004V13.5996H13.6004V11.9996ZM15.2004 15.1996H13.6004V16.7996H15.2004V15.1996ZM16.8004 11.9996H18.4004V13.5996H16.8004V11.9996ZM18.4004 15.1996H16.8004V16.7996H18.4004V15.1996Z" fill="#434E61"/>
</svg>
