<svg width="183" height="192" viewBox="0 0 183 192" fill="none" xmlns="http://www.w3.org/2000/svg">
<rect width="183" height="192" fill="#F2F2F2"/>
<rect y="40" width="183" height="1" fill="#E6E6E6"/>
<path d="M92.0016 101.6C84.0672 101.6 77.6016 108.065 77.6016 116C77.6016 123.934 84.0672 130.4 92.0016 130.4C99.936 130.4 106.402 123.934 106.402 116C106.402 108.065 99.936 101.6 92.0016 101.6ZM97.7616 117.08H93.0816V121.76C93.0816 122.35 92.592 122.84 92.0016 122.84C91.4112 122.84 90.9216 122.35 90.9216 121.76V117.08H86.2416C85.6512 117.08 85.1616 116.59 85.1616 116C85.1616 115.409 85.6512 114.92 86.2416 114.92H90.9216V110.24C90.9216 109.649 91.4112 109.16 92.0016 109.16C92.592 109.16 93.0816 109.649 93.0816 110.24V114.92H97.7616C98.352 114.92 98.8416 115.409 98.8416 116C98.8416 116.59 98.352 117.08 97.7616 117.08Z" fill="#214660"/>
<rect x="69" y="93" width="46" height="46" rx="23" stroke="#FC8A8A" stroke-width="2" stroke-dasharray="4 4"/>
<path d="M65.3759 18.2173H63.7821C63.7367 17.956 63.6529 17.7244 63.5307 17.5227C63.4086 17.3182 63.2566 17.1449 63.0748 17.0028C62.8929 16.8608 62.6855 16.7543 62.4526 16.6832C62.2225 16.6094 61.9739 16.5724 61.7069 16.5724C61.2324 16.5724 60.812 16.6918 60.4455 16.9304C60.079 17.1662 59.7921 17.5128 59.5847 17.9702C59.3773 18.4247 59.2736 18.9801 59.2736 19.6364C59.2736 20.304 59.3773 20.8665 59.5847 21.3239C59.7949 21.7784 60.0819 22.1222 60.4455 22.3551C60.812 22.5852 61.231 22.7003 61.7026 22.7003C61.964 22.7003 62.2083 22.6662 62.4355 22.598C62.6657 22.527 62.8716 22.4233 63.0534 22.2869C63.2381 22.1506 63.3929 21.983 63.5179 21.7841C63.6458 21.5852 63.7338 21.358 63.7821 21.1023L65.3759 21.1108C65.3162 21.5256 65.187 21.9148 64.9881 22.2784C64.7921 22.642 64.535 22.9631 64.2168 23.2415C63.8986 23.517 63.5265 23.733 63.1003 23.8892C62.6742 24.0426 62.2012 24.1193 61.6813 24.1193C60.9142 24.1193 60.2296 23.9418 59.6273 23.5866C59.025 23.2315 58.5506 22.7188 58.204 22.0483C57.8574 21.3778 57.6841 20.5739 57.6841 19.6364C57.6841 18.696 57.8588 17.892 58.2083 17.2244C58.5577 16.554 59.0336 16.0412 59.6358 15.6861C60.2381 15.331 60.9199 15.1534 61.6813 15.1534C62.1671 15.1534 62.6188 15.2216 63.0364 15.358C63.454 15.4943 63.8262 15.6946 64.1529 15.9588C64.4796 16.2202 64.748 16.5412 64.9583 16.9219C65.1713 17.2997 65.3105 17.7315 65.3759 18.2173ZM66.8237 24V15.2727H70.0964C70.7669 15.2727 71.3294 15.3892 71.7839 15.6222C72.2413 15.8551 72.5865 16.1818 72.8194 16.6023C73.0552 17.0199 73.1731 17.5071 73.1731 18.0639C73.1731 18.6236 73.0538 19.1094 72.8152 19.5213C72.5794 19.9304 72.2314 20.2472 71.7711 20.4716C71.3109 20.6932 70.7456 20.804 70.0751 20.804H67.7441V19.4915H69.862C70.2541 19.4915 70.5751 19.4375 70.8251 19.3295C71.0751 19.2187 71.2598 19.0582 71.3791 18.848C71.5012 18.6349 71.5623 18.3736 71.5623 18.0639C71.5623 17.7543 71.5012 17.4901 71.3791 17.2713C71.2569 17.0497 71.0708 16.8821 70.8208 16.7685C70.5708 16.652 70.2484 16.5938 69.8535 16.5938H68.4047V24H66.8237ZM71.3322 20.0455L73.4927 24H71.7285L69.6064 20.0455H71.3322ZM82.0985 18.2173H80.5048C80.4593 17.956 80.3755 17.7244 80.2534 17.5227C80.1312 17.3182 79.9792 17.1449 79.7974 17.0028C79.6156 16.8608 79.4082 16.7543 79.1752 16.6832C78.9451 16.6094 78.6966 16.5724 78.4295 16.5724C77.9551 16.5724 77.5346 16.6918 77.1681 16.9304C76.8017 17.1662 76.5147 17.5128 76.3074 17.9702C76.1 18.4247 75.9963 18.9801 75.9963 19.6364C75.9963 20.304 76.1 20.8665 76.3074 21.3239C76.5176 21.7784 76.8045 22.1222 77.1681 22.3551C77.5346 22.5852 77.9537 22.7003 78.4252 22.7003C78.6866 22.7003 78.9309 22.6662 79.1582 22.598C79.3883 22.527 79.5943 22.4233 79.7761 22.2869C79.9608 22.1506 80.1156 21.983 80.2406 21.7841C80.3684 21.5852 80.4565 21.358 80.5048 21.1023L82.0985 21.1108C82.0389 21.5256 81.9096 21.9148 81.7108 22.2784C81.5147 22.642 81.2576 22.9631 80.9395 23.2415C80.6213 23.517 80.2491 23.733 79.823 23.8892C79.3968 24.0426 78.9238 24.1193 78.4039 24.1193C77.6369 24.1193 76.9522 23.9418 76.35 23.5866C75.7477 23.2315 75.2733 22.7188 74.9267 22.0483C74.5801 21.3778 74.4068 20.5739 74.4068 19.6364C74.4068 18.696 74.5815 17.892 74.9309 17.2244C75.2804 16.554 75.7562 16.0412 76.3585 15.6861C76.9608 15.331 77.6426 15.1534 78.4039 15.1534C78.8897 15.1534 79.3414 15.2216 79.7591 15.358C80.1767 15.4943 80.5488 15.6946 80.8755 15.9588C81.2022 16.2202 81.4707 16.5412 81.6809 16.9219C81.894 17.2997 82.0332 17.7315 82.0985 18.2173ZM86.5229 24V15.2727H89.7956C90.4661 15.2727 91.0286 15.3892 91.4831 15.6222C91.9405 15.8551 92.2857 16.1818 92.5186 16.6023C92.7544 17.0199 92.8723 17.5071 92.8723 18.0639C92.8723 18.6236 92.753 19.1094 92.5144 19.5213C92.2786 19.9304 91.9306 20.2472 91.4703 20.4716C91.0101 20.6932 90.4448 20.804 89.7743 20.804H87.4434V19.4915H89.5613C89.9533 19.4915 90.2743 19.4375 90.5243 19.3295C90.7743 19.2187 90.959 19.0582 91.0783 18.848C91.2005 18.6349 91.2615 18.3736 91.2615 18.0639C91.2615 17.7543 91.2005 17.4901 91.0783 17.2713C90.9561 17.0497 90.7701 16.8821 90.5201 16.7685C90.2701 16.652 89.9476 16.5938 89.5527 16.5938H88.1039V24H86.5229ZM91.0314 20.0455L93.1919 24H91.4277L89.3056 20.0455H91.0314ZM97.0634 24.1278C96.4071 24.1278 95.8404 23.9915 95.3631 23.7188C94.8887 23.4432 94.5236 23.054 94.2679 22.5511C94.0123 22.0455 93.8844 21.4503 93.8844 20.7656C93.8844 20.0923 94.0123 19.5014 94.2679 18.9929C94.5265 18.4815 94.8873 18.0838 95.3503 17.7997C95.8134 17.5128 96.3574 17.3693 96.9824 17.3693C97.3858 17.3693 97.7665 17.4347 98.1245 17.5653C98.4853 17.6932 98.8034 17.892 99.079 18.1619C99.3574 18.4318 99.5762 18.7756 99.7353 19.1932C99.8944 19.608 99.9739 20.1023 99.9739 20.6761V21.1491H94.6088V20.1094H98.4952C98.4924 19.8139 98.4284 19.5511 98.3034 19.321C98.1784 19.0881 98.0037 18.9048 97.7793 18.7713C97.5577 18.6378 97.2992 18.571 97.0037 18.571C96.6884 18.571 96.4114 18.6477 96.1728 18.8011C95.9341 18.9517 95.748 19.1506 95.6145 19.3977C95.4838 19.642 95.4171 19.9105 95.4142 20.2031V21.1108C95.4142 21.4915 95.4838 21.8182 95.623 22.0909C95.7623 22.3608 95.9569 22.5682 96.2069 22.7131C96.4569 22.8551 96.7495 22.9261 97.0847 22.9261C97.3091 22.9261 97.5123 22.8949 97.6941 22.8324C97.8759 22.767 98.0336 22.6719 98.1671 22.5469C98.3006 22.4219 98.4015 22.267 98.4696 22.0824L99.91 22.2443C99.8191 22.625 99.6458 22.9574 99.3901 23.2415C99.1373 23.5227 98.8134 23.7415 98.4185 23.8977C98.0236 24.0511 97.5719 24.1278 97.0634 24.1278ZM101.279 26.4545V17.4545H102.796V18.5369H102.885C102.965 18.3778 103.077 18.2088 103.222 18.0298C103.367 17.848 103.563 17.6932 103.81 17.5653C104.057 17.4347 104.373 17.3693 104.756 17.3693C105.262 17.3693 105.718 17.4986 106.124 17.7571C106.533 18.0128 106.857 18.392 107.096 18.8949C107.337 19.3949 107.458 20.0085 107.458 20.7358C107.458 21.4545 107.34 22.0653 107.104 22.5682C106.868 23.071 106.547 23.4545 106.141 23.7188C105.735 23.983 105.275 24.1151 104.76 24.1151C104.385 24.1151 104.074 24.0526 103.827 23.9276C103.58 23.8026 103.381 23.652 103.231 23.4759C103.083 23.2969 102.968 23.1278 102.885 22.9688H102.822V26.4545H101.279ZM102.792 20.7273C102.792 21.1506 102.851 21.5213 102.971 21.8395C103.093 22.1577 103.268 22.4062 103.495 22.5852C103.725 22.7614 104.003 22.8494 104.33 22.8494C104.671 22.8494 104.956 22.7585 105.187 22.5767C105.417 22.392 105.59 22.1406 105.706 21.8224C105.826 21.5014 105.885 21.1364 105.885 20.7273C105.885 20.321 105.827 19.9602 105.711 19.6449C105.594 19.3295 105.421 19.0824 105.191 18.9034C104.961 18.7244 104.674 18.6349 104.33 18.6349C104.001 18.6349 103.721 18.7216 103.491 18.8949C103.26 19.0682 103.086 19.3111 102.966 19.6236C102.85 19.9361 102.792 20.304 102.792 20.7273ZM111.634 24.1278C110.995 24.1278 110.441 23.9872 109.972 23.706C109.503 23.4247 109.14 23.0312 108.881 22.5256C108.626 22.0199 108.498 21.429 108.498 20.7528C108.498 20.0767 108.626 19.4844 108.881 18.9759C109.14 18.4673 109.503 18.0724 109.972 17.7912C110.441 17.5099 110.995 17.3693 111.634 17.3693C112.273 17.3693 112.827 17.5099 113.296 17.7912C113.765 18.0724 114.127 18.4673 114.383 18.9759C114.641 19.4844 114.77 20.0767 114.77 20.7528C114.77 21.429 114.641 22.0199 114.383 22.5256C114.127 23.0312 113.765 23.4247 113.296 23.706C112.827 23.9872 112.273 24.1278 111.634 24.1278ZM111.643 22.892C111.989 22.892 112.279 22.7969 112.512 22.6065C112.745 22.4134 112.918 22.1548 113.032 21.831C113.148 21.5071 113.206 21.1463 113.206 20.7486C113.206 20.348 113.148 19.9858 113.032 19.6619C112.918 19.3352 112.745 19.0753 112.512 18.8821C112.279 18.6889 111.989 18.5923 111.643 18.5923C111.287 18.5923 110.992 18.6889 110.756 18.8821C110.523 19.0753 110.349 19.3352 110.232 19.6619C110.118 19.9858 110.062 20.348 110.062 20.7486C110.062 21.1463 110.118 21.5071 110.232 21.831C110.349 22.1548 110.523 22.4134 110.756 22.6065C110.992 22.7969 111.287 22.892 111.643 22.892ZM116.08 24V17.4545H117.575V18.5455H117.644C117.763 18.1676 117.968 17.8764 118.257 17.6719C118.55 17.4645 118.884 17.3608 119.259 17.3608C119.344 17.3608 119.439 17.3651 119.544 17.3736C119.652 17.3793 119.742 17.3892 119.813 17.4034V18.8224C119.747 18.7997 119.644 18.7798 119.502 18.7628C119.362 18.7429 119.227 18.733 119.097 18.733C118.816 18.733 118.563 18.794 118.338 18.9162C118.117 19.0355 117.942 19.2017 117.814 19.4148C117.686 19.6278 117.622 19.8736 117.622 20.152V24H116.08ZM124.458 17.4545V18.6477H120.695V17.4545H124.458ZM121.624 15.8864H123.166V22.0312C123.166 22.2386 123.198 22.3977 123.26 22.5085C123.325 22.6165 123.411 22.6903 123.516 22.7301C123.621 22.7699 123.737 22.7898 123.865 22.7898C123.962 22.7898 124.05 22.7827 124.129 22.7685C124.212 22.7543 124.274 22.7415 124.317 22.7301L124.577 23.9361C124.494 23.9645 124.377 23.9957 124.223 24.0298C124.073 24.0639 123.888 24.0838 123.669 24.0895C123.283 24.1009 122.935 24.0426 122.625 23.9148C122.316 23.7841 122.07 23.5824 121.888 23.3097C121.709 23.0369 121.621 22.696 121.624 22.2869V15.8864Z" fill="#274B73"/>
</svg>
