<svg width="40" height="40" viewBox="0 0 40 40" fill="none" xmlns="http://www.w3.org/2000/svg">
<path d="M33.0487 19.8701L28.8487 18.4702V18.47C28.5583 18.372 28.2433 18.372 27.9529 18.47L23.7528 19.8699V19.8701C23.4746 19.9639 23.2332 20.1429 23.0624 20.3815C22.8915 20.6201 22.7999 20.9065 22.8008 21.2V24.0001C22.8008 26.0007 23.8681 27.8495 25.6006 28.8498C27.3334 29.8501 29.4681 29.8501 31.2008 28.8498C32.9333 27.8495 34.0007 26.0007 34.0007 24.0001V21.2C34.0016 20.9066 33.91 20.6201 33.7391 20.3815C33.5683 20.1429 33.3269 19.9639 33.0487 19.8701ZM31.2009 24.0001C31.2009 25.0004 30.6672 25.9248 29.8007 26.4249C28.9344 26.9251 27.8671 26.9251 27.0008 26.4249C26.1344 25.9248 25.6007 25.0004 25.6007 24.0001V22.208L28.4008 21.2701L31.2009 22.208V24.0001Z" fill="#4161AE"/>
<path d="M32.6001 10H7.39993C7.02868 10 6.67242 10.1474 6.40992 10.4099C6.14742 10.6724 6 11.0286 6 11.3999V28.2C6 28.5713 6.14742 28.9275 6.40992 29.19C6.67242 29.4525 7.02865 29.6 7.39993 29.6H21.134C21.6342 29.6 22.0964 29.3332 22.3464 28.9001C22.5965 28.467 22.5965 27.9331 22.3464 27.4999C22.0964 27.0668 21.6342 26.8001 21.134 26.8001H8.79974V21.1999H20C20.5002 21.1999 20.9623 20.9332 21.2124 20.5001C21.4625 20.0669 21.4625 19.533 21.2124 19.0999C20.9623 18.6668 20.5002 18.4001 20 18.4001H8.79974V16.9999H32.6001C32.9713 16.9999 33.3276 16.8525 33.5901 16.59C33.8526 16.3275 34 15.9712 34 15.6V11.3999C34 11.0287 33.8526 10.6724 33.5901 10.4099C33.3276 10.1474 32.9714 10 32.6001 10ZM8.79974 12.7999H31.2003V14.2H8.79974V12.7999Z" fill="#4161AE"/>
</svg>
