<svg width="183" height="192" viewBox="0 0 183 192" fill="none" xmlns="http://www.w3.org/2000/svg">
<rect width="183" height="192" fill="#F2F2F2"/>
<rect y="40" width="183" height="1" fill="#E6E6E6"/>
<path d="M92.0016 101.6C84.0672 101.6 77.6016 108.065 77.6016 116C77.6016 123.934 84.0672 130.4 92.0016 130.4C99.936 130.4 106.402 123.934 106.402 116C106.402 108.065 99.936 101.6 92.0016 101.6ZM97.7616 117.08H93.0816V121.76C93.0816 122.35 92.592 122.84 92.0016 122.84C91.4112 122.84 90.9216 122.35 90.9216 121.76V117.08H86.2416C85.6512 117.08 85.1616 116.59 85.1616 116C85.1616 115.409 85.6512 114.92 86.2416 114.92H90.9216V110.24C90.9216 109.649 91.4112 109.16 92.0016 109.16C92.592 109.16 93.0816 109.649 93.0816 110.24V114.92H97.7616C98.352 114.92 98.8416 115.409 98.8416 116C98.8416 116.59 98.352 117.08 97.7616 117.08Z" fill="#214660"/>
<rect x="69" y="93" width="46" height="46" rx="23" stroke="#FC8A8A" stroke-width="2" stroke-dasharray="4 4"/>
<path d="M41.4169 18.2173H39.8232C39.7777 17.956 39.6939 17.7244 39.5717 17.5227C39.4496 17.3182 39.2976 17.1449 39.1158 17.0028C38.9339 16.8608 38.7266 16.7543 38.4936 16.6832C38.2635 16.6094 38.0149 16.5724 37.7479 16.5724C37.2734 16.5724 36.853 16.6918 36.4865 16.9304C36.12 17.1662 35.8331 17.5128 35.6257 17.9702C35.4183 18.4247 35.3146 18.9801 35.3146 19.6364C35.3146 20.304 35.4183 20.8665 35.6257 21.3239C35.8359 21.7784 36.1229 22.1222 36.4865 22.3551C36.853 22.5852 37.272 22.7003 37.7436 22.7003C38.005 22.7003 38.2493 22.6662 38.4766 22.598C38.7067 22.527 38.9126 22.4233 39.0945 22.2869C39.2791 22.1506 39.4339 21.983 39.5589 21.7841C39.6868 21.5852 39.7749 21.358 39.8232 21.1023L41.4169 21.1108C41.3572 21.5256 41.228 21.9148 41.0291 22.2784C40.8331 22.642 40.576 22.9631 40.2578 23.2415C39.9396 23.517 39.5675 23.733 39.1413 23.8892C38.7152 24.0426 38.2422 24.1193 37.7223 24.1193C36.9553 24.1193 36.2706 23.9418 35.6683 23.5866C35.0661 23.2315 34.5916 22.7188 34.245 22.0483C33.8984 21.3778 33.7251 20.5739 33.7251 19.6364C33.7251 18.696 33.8999 17.892 34.2493 17.2244C34.5987 16.554 35.0746 16.0412 35.6768 15.6861C36.2791 15.331 36.9609 15.1534 37.7223 15.1534C38.2081 15.1534 38.6598 15.2216 39.0774 15.358C39.495 15.4943 39.8672 15.6946 40.1939 15.9588C40.5206 16.2202 40.7891 16.5412 40.9993 16.9219C41.2124 17.2997 41.3516 17.7315 41.4169 18.2173ZM44.68 24.1321C44.2653 24.1321 43.8917 24.0582 43.5593 23.9105C43.2298 23.7599 42.9684 23.5384 42.7752 23.2457C42.5849 22.9531 42.4897 22.5923 42.4897 22.1634C42.4897 21.794 42.5579 21.4886 42.6942 21.2472C42.8306 21.0057 43.0167 20.8125 43.2525 20.6676C43.4883 20.5227 43.7539 20.4134 44.0494 20.3395C44.3477 20.2628 44.6559 20.2074 44.9741 20.1733C45.3576 20.1335 45.6687 20.098 45.9073 20.0668C46.146 20.0327 46.3192 19.9815 46.4272 19.9134C46.538 19.8423 46.5934 19.733 46.5934 19.5852V19.5597C46.5934 19.2386 46.4982 18.9901 46.3079 18.8139C46.1175 18.6378 45.8434 18.5497 45.4854 18.5497C45.1076 18.5497 44.8079 18.6321 44.5863 18.7969C44.3675 18.9616 44.2198 19.1562 44.1431 19.3807L42.7028 19.1761C42.8164 18.7784 43.0039 18.446 43.2653 18.179C43.5266 17.9091 43.8462 17.7074 44.2241 17.5739C44.6019 17.4375 45.0195 17.3693 45.4769 17.3693C45.7923 17.3693 46.1062 17.4062 46.4187 17.4801C46.7312 17.554 47.0167 17.6761 47.2752 17.8466C47.5337 18.0142 47.7411 18.2429 47.8974 18.5327C48.0565 18.8224 48.136 19.1847 48.136 19.6193V24H46.6531V23.1009H46.6019C46.5082 23.2827 46.3761 23.4531 46.2056 23.6122C46.038 23.7685 45.8263 23.8949 45.5707 23.9915C45.3178 24.0852 45.021 24.1321 44.68 24.1321ZM45.0806 22.9986C45.3903 22.9986 45.6587 22.9375 45.886 22.8153C46.1133 22.6903 46.288 22.5256 46.4102 22.321C46.5352 22.1165 46.5977 21.8935 46.5977 21.652V20.8807C46.5494 20.9205 46.467 20.9574 46.3505 20.9915C46.2369 21.0256 46.109 21.0554 45.967 21.081C45.8249 21.1065 45.6843 21.1293 45.5451 21.1491C45.4059 21.169 45.2852 21.1861 45.1829 21.2003C44.9528 21.2315 44.7468 21.2827 44.565 21.3537C44.3832 21.4247 44.2397 21.5241 44.1346 21.652C44.0295 21.777 43.9769 21.9389 43.9769 22.1378C43.9769 22.4219 44.0806 22.6364 44.288 22.7812C44.4954 22.9261 44.7596 22.9986 45.0806 22.9986ZM49.6871 24V17.4545H51.1829V18.5455H51.2511C51.3704 18.1676 51.5749 17.8764 51.8647 17.6719C52.1573 17.4645 52.4911 17.3608 52.8661 17.3608C52.9513 17.3608 53.0465 17.3651 53.1516 17.3736C53.2596 17.3793 53.3491 17.3892 53.4201 17.4034V18.8224C53.3548 18.7997 53.2511 18.7798 53.109 18.7628C52.9698 18.7429 52.8349 18.733 52.7042 18.733C52.4229 18.733 52.1701 18.794 51.9457 18.9162C51.7241 19.0355 51.5494 19.2017 51.4215 19.4148C51.2937 19.6278 51.2298 19.8736 51.2298 20.152V24H49.6871ZM63.2681 17.4545L60.9371 24H59.2326L56.9016 17.4545H58.5465L60.0508 22.3168H60.119L61.6275 17.4545H63.2681ZM66.0316 24.1321C65.6168 24.1321 65.2433 24.0582 64.9109 23.9105C64.5813 23.7599 64.32 23.5384 64.1268 23.2457C63.9364 22.9531 63.8413 22.5923 63.8413 22.1634C63.8413 21.794 63.9094 21.4886 64.0458 21.2472C64.1822 21.0057 64.3683 20.8125 64.604 20.6676C64.8398 20.5227 65.1055 20.4134 65.4009 20.3395C65.6992 20.2628 66.0075 20.2074 66.3256 20.1733C66.7092 20.1335 67.0202 20.098 67.2589 20.0668C67.4975 20.0327 67.6708 19.9815 67.7788 19.9134C67.8896 19.8423 67.945 19.733 67.945 19.5852V19.5597C67.945 19.2386 67.8498 18.9901 67.6594 18.8139C67.4691 18.6378 67.195 18.5497 66.837 18.5497C66.4592 18.5497 66.1594 18.6321 65.9379 18.7969C65.7191 18.9616 65.5714 19.1562 65.4947 19.3807L64.0543 19.1761C64.168 18.7784 64.3555 18.446 64.6168 18.179C64.8782 17.9091 65.1978 17.7074 65.5756 17.5739C65.9535 17.4375 66.3711 17.3693 66.8285 17.3693C67.1438 17.3693 67.4577 17.4062 67.7702 17.4801C68.0827 17.554 68.3683 17.6761 68.6268 17.8466C68.8853 18.0142 69.0927 18.2429 69.2489 18.5327C69.408 18.8224 69.4876 19.1847 69.4876 19.6193V24H68.0046V23.1009H67.9535C67.8597 23.2827 67.7276 23.4531 67.5572 23.6122C67.3896 23.7685 67.1779 23.8949 66.9222 23.9915C66.6694 24.0852 66.3725 24.1321 66.0316 24.1321ZM66.4322 22.9986C66.7418 22.9986 67.0103 22.9375 67.2376 22.8153C67.4648 22.6903 67.6396 22.5256 67.7617 22.321C67.8867 22.1165 67.9492 21.8935 67.9492 21.652V20.8807C67.9009 20.9205 67.8185 20.9574 67.7021 20.9915C67.5884 21.0256 67.4606 21.0554 67.3185 21.081C67.1765 21.1065 67.0359 21.1293 66.8967 21.1491C66.7575 21.169 66.6367 21.1861 66.5344 21.2003C66.3043 21.2315 66.0984 21.2827 65.9165 21.3537C65.7347 21.4247 65.5913 21.5241 65.4862 21.652C65.381 21.777 65.3285 21.9389 65.3285 22.1378C65.3285 22.4219 65.4322 22.6364 65.6396 22.7812C65.8469 22.9261 66.1112 22.9986 66.4322 22.9986ZM72.5813 15.2727V24H71.0387V15.2727H72.5813ZM78.3395 21.2472V17.4545H79.8821V24H78.3864V22.8366H78.3182C78.1705 23.2031 77.9276 23.5028 77.5895 23.7358C77.2543 23.9687 76.8409 24.0852 76.3494 24.0852C75.9205 24.0852 75.5412 23.9901 75.2116 23.7997C74.8849 23.6065 74.6293 23.3267 74.4446 22.9602C74.2599 22.5909 74.1676 22.1449 74.1676 21.6222V17.4545H75.7102V21.3835C75.7102 21.7983 75.8239 22.1278 76.0511 22.3722C76.2784 22.6165 76.5767 22.7386 76.946 22.7386C77.1733 22.7386 77.3935 22.6832 77.6065 22.5724C77.8196 22.4616 77.9943 22.2969 78.1307 22.0781C78.2699 21.8565 78.3395 21.5795 78.3395 21.2472ZM83.3519 24.1321C82.9371 24.1321 82.5636 24.0582 82.2312 23.9105C81.9016 23.7599 81.6403 23.5384 81.4471 23.2457C81.2567 22.9531 81.1616 22.5923 81.1616 22.1634C81.1616 21.794 81.2298 21.4886 81.3661 21.2472C81.5025 21.0057 81.6886 20.8125 81.9244 20.6676C82.1602 20.5227 82.4258 20.4134 82.7212 20.3395C83.0195 20.2628 83.3278 20.2074 83.646 20.1733C84.0295 20.1335 84.3406 20.098 84.5792 20.0668C84.8178 20.0327 84.9911 19.9815 85.0991 19.9134C85.2099 19.8423 85.2653 19.733 85.2653 19.5852V19.5597C85.2653 19.2386 85.1701 18.9901 84.9798 18.8139C84.7894 18.6378 84.5153 18.5497 84.1573 18.5497C83.7795 18.5497 83.4798 18.6321 83.2582 18.7969C83.0394 18.9616 82.8917 19.1562 82.815 19.3807L81.3746 19.1761C81.4883 18.7784 81.6758 18.446 81.9371 18.179C82.1985 17.9091 82.5181 17.7074 82.896 17.5739C83.2738 17.4375 83.6914 17.3693 84.1488 17.3693C84.4641 17.3693 84.7781 17.4062 85.0906 17.4801C85.4031 17.554 85.6886 17.6761 85.9471 17.8466C86.2056 18.0142 86.413 18.2429 86.5692 18.5327C86.7283 18.8224 86.8079 19.1847 86.8079 19.6193V24H85.3249V23.1009H85.2738C85.18 23.2827 85.0479 23.4531 84.8775 23.6122C84.7099 23.7685 84.4982 23.8949 84.2425 23.9915C83.9897 24.0852 83.6928 24.1321 83.3519 24.1321ZM83.7525 22.9986C84.0621 22.9986 84.3306 22.9375 84.5579 22.8153C84.7852 22.6903 84.9599 22.5256 85.082 22.321C85.207 22.1165 85.2695 21.8935 85.2695 21.652V20.8807C85.2212 20.9205 85.1388 20.9574 85.0224 20.9915C84.9087 21.0256 84.7809 21.0554 84.6388 21.081C84.4968 21.1065 84.3562 21.1293 84.217 21.1491C84.0778 21.169 83.957 21.1861 83.8548 21.2003C83.6246 21.2315 83.4187 21.2827 83.2369 21.3537C83.055 21.4247 82.9116 21.5241 82.8065 21.652C82.7013 21.777 82.6488 21.9389 82.6488 22.1378C82.6488 22.4219 82.7525 22.6364 82.9599 22.7812C83.1673 22.9261 83.4315 22.9986 83.7525 22.9986ZM91.6275 17.4545V18.6477H87.8647V17.4545H91.6275ZM88.7937 15.8864H90.3363V22.0312C90.3363 22.2386 90.3675 22.3977 90.43 22.5085C90.4954 22.6165 90.5806 22.6903 90.6857 22.7301C90.7908 22.7699 90.9073 22.7898 91.0352 22.7898C91.1317 22.7898 91.2198 22.7827 91.2994 22.7685C91.3817 22.7543 91.4442 22.7415 91.4869 22.7301L91.7468 23.9361C91.6644 23.9645 91.5465 23.9957 91.3931 24.0298C91.2425 24.0639 91.0579 24.0838 90.8391 24.0895C90.4528 24.1009 90.1048 24.0426 89.7951 23.9148C89.4854 23.7841 89.2397 23.5824 89.0579 23.3097C88.8789 23.0369 88.7908 22.696 88.7937 22.2869V15.8864ZM92.9176 24V17.4545H94.4602V24H92.9176ZM93.6932 16.5256C93.4489 16.5256 93.2386 16.4446 93.0625 16.2827C92.8864 16.1179 92.7983 15.9205 92.7983 15.6903C92.7983 15.4574 92.8864 15.2599 93.0625 15.098C93.2386 14.9332 93.4489 14.8509 93.6932 14.8509C93.9403 14.8509 94.1506 14.9332 94.3239 15.098C94.5 15.2599 94.5881 15.4574 94.5881 15.6903C94.5881 15.9205 94.5 16.1179 94.3239 16.2827C94.1506 16.4446 93.9403 16.5256 93.6932 16.5256ZM98.9016 24.1278C98.2624 24.1278 97.7085 23.9872 97.2397 23.706C96.771 23.4247 96.4073 23.0312 96.1488 22.5256C95.8931 22.0199 95.7653 21.429 95.7653 20.7528C95.7653 20.0767 95.8931 19.4844 96.1488 18.9759C96.4073 18.4673 96.771 18.0724 97.2397 17.7912C97.7085 17.5099 98.2624 17.3693 98.9016 17.3693C99.5408 17.3693 100.095 17.5099 100.564 17.7912C101.032 18.0724 101.395 18.4673 101.65 18.9759C101.909 19.4844 102.038 20.0767 102.038 20.7528C102.038 21.429 101.909 22.0199 101.65 22.5256C101.395 23.0312 101.032 23.4247 100.564 23.706C100.095 23.9872 99.5408 24.1278 98.9016 24.1278ZM98.9102 22.892C99.2567 22.892 99.5465 22.7969 99.7795 22.6065C100.012 22.4134 100.186 22.1548 100.299 21.831C100.416 21.5071 100.474 21.1463 100.474 20.7486C100.474 20.348 100.416 19.9858 100.299 19.6619C100.186 19.3352 100.012 19.0753 99.7795 18.8821C99.5465 18.6889 99.2567 18.5923 98.9102 18.5923C98.555 18.5923 98.2596 18.6889 98.0238 18.8821C97.7908 19.0753 97.6161 19.3352 97.4996 19.6619C97.386 19.9858 97.3292 20.348 97.3292 20.7486C97.3292 21.1463 97.386 21.5071 97.4996 21.831C97.6161 22.1548 97.7908 22.4134 98.0238 22.6065C98.2596 22.7969 98.555 22.892 98.9102 22.892ZM104.89 20.1648V24H103.347V17.4545H104.822V18.5668H104.898C105.049 18.2003 105.289 17.9091 105.619 17.6932C105.951 17.4773 106.362 17.3693 106.85 17.3693C107.302 17.3693 107.695 17.4659 108.031 17.6591C108.369 17.8523 108.63 18.1321 108.815 18.4986C109.002 18.8651 109.094 19.3097 109.092 19.8324V24H107.549V20.071C107.549 19.6335 107.435 19.2912 107.208 19.044C106.984 18.7969 106.673 18.6733 106.275 18.6733C106.005 18.6733 105.765 18.733 105.555 18.8523C105.347 18.9687 105.184 19.1378 105.065 19.3594C104.948 19.581 104.89 19.8494 104.89 20.1648ZM113.636 24V17.4545H115.132V18.5455H115.2C115.32 18.1676 115.524 17.8764 115.814 17.6719C116.107 17.4645 116.44 17.3608 116.815 17.3608C116.901 17.3608 116.996 17.3651 117.101 17.3736C117.209 17.3793 117.298 17.3892 117.369 17.4034V18.8224C117.304 18.7997 117.2 18.7798 117.058 18.7628C116.919 18.7429 116.784 18.733 116.653 18.733C116.372 18.733 116.119 18.794 115.895 18.9162C115.673 19.0355 115.499 19.2017 115.371 19.4148C115.243 19.6278 115.179 19.8736 115.179 20.152V24H113.636ZM121.022 24.1278C120.366 24.1278 119.799 23.9915 119.322 23.7188C118.848 23.4432 118.483 23.054 118.227 22.5511C117.971 22.0455 117.843 21.4503 117.843 20.7656C117.843 20.0923 117.971 19.5014 118.227 18.9929C118.485 18.4815 118.846 18.0838 119.309 17.7997C119.772 17.5128 120.316 17.3693 120.941 17.3693C121.345 17.3693 121.725 17.4347 122.083 17.5653C122.444 17.6932 122.762 17.892 123.038 18.1619C123.316 18.4318 123.535 18.7756 123.694 19.1932C123.853 19.608 123.933 20.1023 123.933 20.6761V21.1491H118.568V20.1094H122.454C122.451 19.8139 122.387 19.5511 122.262 19.321C122.137 19.0881 121.963 18.9048 121.738 18.7713C121.517 18.6378 121.258 18.571 120.963 18.571C120.647 18.571 120.37 18.6477 120.132 18.8011C119.893 18.9517 119.707 19.1506 119.574 19.3977C119.443 19.642 119.376 19.9105 119.373 20.2031V21.1108C119.373 21.4915 119.443 21.8182 119.582 22.0909C119.721 22.3608 119.916 22.5682 120.166 22.7131C120.416 22.8551 120.708 22.9261 121.044 22.9261C121.268 22.9261 121.471 22.8949 121.653 22.8324C121.835 22.767 121.993 22.6719 122.126 22.5469C122.26 22.4219 122.36 22.267 122.429 22.0824L123.869 22.2443C123.778 22.625 123.605 22.9574 123.349 23.2415C123.096 23.5227 122.772 23.7415 122.377 23.8977C121.983 24.0511 121.531 24.1278 121.022 24.1278ZM125.238 26.4545V17.4545H126.755V18.5369H126.844C126.924 18.3778 127.036 18.2088 127.181 18.0298C127.326 17.848 127.522 17.6932 127.769 17.5653C128.016 17.4347 128.332 17.3693 128.715 17.3693C129.221 17.3693 129.677 17.4986 130.083 17.7571C130.492 18.0128 130.816 18.392 131.055 18.8949C131.296 19.3949 131.417 20.0085 131.417 20.7358C131.417 21.4545 131.299 22.0653 131.063 22.5682C130.827 23.071 130.506 23.4545 130.1 23.7188C129.694 23.983 129.234 24.1151 128.719 24.1151C128.344 24.1151 128.033 24.0526 127.786 23.9276C127.539 23.8026 127.34 23.652 127.19 23.4759C127.042 23.2969 126.927 23.1278 126.844 22.9688H126.781V26.4545H125.238ZM126.751 20.7273C126.751 21.1506 126.81 21.5213 126.93 21.8395C127.052 22.1577 127.227 22.4062 127.454 22.5852C127.684 22.7614 127.962 22.8494 128.289 22.8494C128.63 22.8494 128.915 22.7585 129.146 22.5767C129.376 22.392 129.549 22.1406 129.665 21.8224C129.785 21.5014 129.844 21.1364 129.844 20.7273C129.844 20.321 129.786 19.9602 129.67 19.6449C129.553 19.3295 129.38 19.0824 129.15 18.9034C128.92 18.7244 128.633 18.6349 128.289 18.6349C127.96 18.6349 127.68 18.7216 127.45 18.8949C127.219 19.0682 127.045 19.3111 126.925 19.6236C126.809 19.9361 126.751 20.304 126.751 20.7273ZM135.593 24.1278C134.954 24.1278 134.4 23.9872 133.931 23.706C133.462 23.4247 133.099 23.0312 132.84 22.5256C132.585 22.0199 132.457 21.429 132.457 20.7528C132.457 20.0767 132.585 19.4844 132.84 18.9759C133.099 18.4673 133.462 18.0724 133.931 17.7912C134.4 17.5099 134.954 17.3693 135.593 17.3693C136.232 17.3693 136.786 17.5099 137.255 17.7912C137.724 18.0724 138.086 18.4673 138.342 18.9759C138.6 19.4844 138.729 20.0767 138.729 20.7528C138.729 21.429 138.6 22.0199 138.342 22.5256C138.086 23.0312 137.724 23.4247 137.255 23.706C136.786 23.9872 136.232 24.1278 135.593 24.1278ZM135.602 22.892C135.948 22.892 136.238 22.7969 136.471 22.6065C136.704 22.4134 136.877 22.1548 136.991 21.831C137.107 21.5071 137.165 21.1463 137.165 20.7486C137.165 20.348 137.107 19.9858 136.991 19.6619C136.877 19.3352 136.704 19.0753 136.471 18.8821C136.238 18.6889 135.948 18.5923 135.602 18.5923C135.246 18.5923 134.951 18.6889 134.715 18.8821C134.482 19.0753 134.308 19.3352 134.191 19.6619C134.077 19.9858 134.021 20.348 134.021 20.7486C134.021 21.1463 134.077 21.5071 134.191 21.831C134.308 22.1548 134.482 22.4134 134.715 22.6065C134.951 22.7969 135.246 22.892 135.602 22.892ZM140.039 24V17.4545H141.534V18.5455H141.603C141.722 18.1676 141.926 17.8764 142.216 17.6719C142.509 17.4645 142.843 17.3608 143.218 17.3608C143.303 17.3608 143.398 17.3651 143.503 17.3736C143.611 17.3793 143.701 17.3892 143.772 17.4034V18.8224C143.706 18.7997 143.603 18.7798 143.461 18.7628C143.321 18.7429 143.186 18.733 143.056 18.733C142.775 18.733 142.522 18.794 142.297 18.9162C142.076 19.0355 141.901 19.2017 141.773 19.4148C141.645 19.6278 141.581 19.8736 141.581 20.152V24H140.039ZM148.417 17.4545V18.6477H144.654V17.4545H148.417ZM145.583 15.8864H147.125V22.0312C147.125 22.2386 147.157 22.3977 147.219 22.5085C147.284 22.6165 147.37 22.6903 147.475 22.7301C147.58 22.7699 147.696 22.7898 147.824 22.7898C147.921 22.7898 148.009 22.7827 148.088 22.7685C148.171 22.7543 148.233 22.7415 148.276 22.7301L148.536 23.9361C148.453 23.9645 148.336 23.9957 148.182 24.0298C148.032 24.0639 147.847 24.0838 147.628 24.0895C147.242 24.1009 146.894 24.0426 146.584 23.9148C146.275 23.7841 146.029 23.5824 145.847 23.3097C145.668 23.0369 145.58 22.696 145.583 22.2869V15.8864Z" fill="#274B73"/>
</svg>
