<svg width="24" height="24" viewBox="0 0 24 24" fill="none" xmlns="http://www.w3.org/2000/svg">
<path d="M15.5 9C15.5 9.92826 15.1313 10.8185 14.4749 11.4749C13.8185 12.1313 12.9283 12.5 12 12.5C11.0717 12.5 10.1815 12.1313 9.52513 11.4749C8.86875 10.8185 8.5 9.92826 8.5 9C8.5 8.07174 8.86875 7.1815 9.52513 6.52513C10.1815 5.86875 11.0717 5.5 12 5.5C12.9283 5.5 13.8185 5.86875 14.4749 6.52513C15.1313 7.1815 15.5 8.07174 15.5 9ZM13.7678 10.7678C14.2366 10.2989 14.5 9.66304 14.5 9C14.5 8.33696 14.2366 7.70107 13.7678 7.23223C13.2989 6.76339 12.663 6.5 12 6.5C11.337 6.5 10.7011 6.76339 10.2322 7.23223C9.76339 7.70107 9.5 8.33696 9.5 9C9.5 9.66304 9.76339 10.2989 10.2322 10.7678C10.7011 11.2366 11.337 11.5 12 11.5C12.663 11.5 13.2989 11.2366 13.7678 10.7678Z" fill="#8D8989" stroke="#666666"/>
<path d="M12.0654 15.5C10.8586 15.4991 9.66951 15.7898 8.59923 16.3472C7.52894 16.9047 6.60915 17.7124 5.9181 18.7017L5.65209 19.0825L6.01234 19.3758C7.70381 20.7527 9.81899 21.5031 12.0001 21.5C14.2196 21.5029 16.3697 20.7256 18.0742 19.304L18.431 19.0065L18.1605 18.6288C17.4665 17.66 16.5514 16.8708 15.4912 16.3266C14.4313 15.7825 13.2568 15.4992 12.0654 15.5ZM12.0654 15.5L12.065 16L12.0646 15.5C12.0649 15.5 12.0651 15.5 12.0654 15.5ZM2.5 11.9999V12C2.5 14.2057 3.25289 16.2373 4.51414 17.85L4.91328 18.3604L5.3058 17.8449C6.09833 16.8041 7.12076 15.9607 8.29321 15.3804C9.46566 14.8002 10.7564 14.4989 12.0646 14.5L12.0655 14.5C13.3567 14.4988 14.6312 14.7923 15.7918 15.3582C16.9524 15.9241 17.9685 16.7475 18.7628 17.7655L19.1615 18.2767L19.5546 17.7612C20.4692 16.5616 21.085 15.1616 21.3511 13.6768C21.6171 12.192 21.5258 10.6652 21.0846 9.22275C20.6435 7.78028 19.8652 6.4636 18.8141 5.38164C17.7631 4.29969 16.4695 3.48357 15.0404 3.00081C13.6113 2.51805 12.0878 2.38253 10.596 2.60546C9.10411 2.8284 7.68678 3.40338 6.46126 4.28283C5.23573 5.16228 4.23724 6.32091 3.54841 7.66287C2.85957 9.00482 2.50019 10.4915 2.5 11.9999ZM1.5 12C1.5 6.20114 6.20114 1.5 12 1.5C17.7989 1.5 22.5 6.20114 22.5 12C22.5 17.7989 17.7989 22.5 12 22.5C6.20114 22.5 1.5 17.7989 1.5 12Z" fill="#9F9F9F" stroke="#666666"/>
</svg>
