<svg width="41" height="41" viewBox="0 0 41 41" fill="none" xmlns="http://www.w3.org/2000/svg">
<path d="M20.4992 8.78564C19.0511 8.78564 17.6356 9.21504 16.4316 10.0195C15.2276 10.824 14.2892 11.9675 13.735 13.3053C13.1809 14.6431 13.0359 16.1152 13.3184 17.5354C13.6009 18.9556 14.2982 20.2602 15.3221 21.2841C16.3461 22.308 17.6506 23.0053 19.0708 23.2878C20.491 23.5703 21.9631 23.4253 23.301 22.8712C24.6388 22.3171 25.7822 21.3786 26.5867 20.1746C27.3912 18.9706 27.8206 17.5551 27.8206 16.1071C27.8206 14.1653 27.0492 12.3031 25.6762 10.93C24.3032 9.55701 22.4409 8.78564 20.4992 8.78564ZM20.4992 20.4999C19.6303 20.4999 18.781 20.2423 18.0586 19.7596C17.3362 19.2769 16.7732 18.5908 16.4407 17.7881C16.1082 16.9855 16.0212 16.1022 16.1907 15.2501C16.3602 14.3979 16.7786 13.6152 17.3929 13.0009C18.0073 12.3865 18.79 11.9681 19.6422 11.7986C20.4943 11.6291 21.3776 11.7161 22.1802 12.0486C22.9829 12.3811 23.669 12.9441 24.1517 13.6665C24.6344 14.3889 24.892 15.2382 24.892 16.1071C24.8909 17.2718 24.4277 18.3884 23.6041 19.212C22.7805 20.0356 21.6639 20.4988 20.4992 20.4999Z" fill="#929292"/>
<path d="M20.5 0C16.4455 0 12.482 1.2023 9.11082 3.45487C5.73961 5.70744 3.11208 8.9091 1.56048 12.655C0.00888231 16.4009 -0.397086 20.5227 0.393911 24.4994C1.18491 28.476 3.13734 32.1287 6.00432 34.9957C8.8713 37.8627 12.524 39.8151 16.5007 40.6061C20.4773 41.3971 24.5991 40.9911 28.345 39.4395C32.0909 37.8879 35.2926 35.2604 37.5451 31.8892C39.7977 28.518 41 24.5545 41 20.5C40.9938 15.065 38.832 9.85431 34.9888 6.01116C31.1457 2.16801 25.935 0.00620084 20.5 0V0ZM11.7143 35.6949V33.6786C11.7155 32.5139 12.1786 31.3972 13.0022 30.5736C13.8258 29.7501 14.9425 29.2869 16.1072 29.2857H24.8929C26.0576 29.2869 27.1742 29.7501 27.9978 30.5736C28.8214 31.3972 29.2846 32.5139 29.2857 33.6786V35.6949C26.6195 37.2517 23.5875 38.0721 20.5 38.0721C17.4125 38.0721 14.3805 37.2517 11.7143 35.6949V35.6949ZM32.2026 33.5702C32.1734 31.6496 31.3909 29.8172 30.0236 28.468C28.6563 27.1188 26.8137 26.3608 24.8929 26.3571H16.1072C14.1863 26.3608 12.3437 27.1188 10.9764 28.468C9.60915 29.8172 8.82662 31.6496 8.79744 33.5702C6.14205 31.1992 4.26947 28.0775 3.42766 24.6185C2.58585 21.1596 2.81451 17.5265 4.08337 14.2004C5.35223 10.8743 7.60144 8.01208 10.5332 5.99269C13.4649 3.97329 16.9408 2.892 20.5007 2.892C24.0607 2.892 27.5366 3.97329 30.4683 5.99269C33.4 8.01208 35.6492 10.8743 36.9181 14.2004C38.187 17.5265 38.4156 21.1596 37.5738 24.6185C36.732 28.0775 34.8594 31.1992 32.204 33.5702H32.2026Z" fill="#929292"/>
</svg>
