<svg width="120" height="120" viewBox="0 0 120 120" fill="none" xmlns="http://www.w3.org/2000/svg">
<path d="M94.7 37H81.6L53 22L20.5 39.05V87C17.8478 87 15.3043 85.9464 13.4289 84.0711C11.5536 82.1957 10.5 79.6522 10.5 77V37.85C10.5 34.5 11.9 32.3 14.55 31.05L53 12L90.75 31.05C93 32.45 94.4 34.5 94.7 37Z" fill="#323740"/>
<path fill-rule="evenodd" clip-rule="evenodd" d="M35.5 42H100.5C103.152 42 105.696 43.0536 107.571 44.9289C109.446 46.8043 110.5 49.3478 110.5 52V97C110.5 99.6522 109.446 102.196 107.571 104.071C105.696 105.946 103.152 107 100.5 107H35.5C32.8478 107 30.3043 105.946 28.4289 104.071C26.5536 102.196 25.5 99.6522 25.5 97V52C25.5 49.3478 26.5536 46.8043 28.4289 44.9289C30.3043 43.0536 32.8478 42 35.5 42ZM100.5 52V60.35L68 77L35.5 60.35V52L68 68.55L100.5 52Z" fill="#DD3636"/>
</svg>
