<svg width="40" height="40" viewBox="0 0 40 40" fill="none" xmlns="http://www.w3.org/2000/svg">
<circle opacity="0.1" cx="20" cy="20" r="20" fill="#214660"/>
<path d="M24.166 27.7084H15.8327C15.491 27.7084 15.2077 27.4251 15.2077 27.0834C15.2077 26.7417 15.491 26.4584 15.8327 26.4584H24.166C26.5493 26.4584 27.7077 25.3001 27.7077 22.9167V17.0834C27.7077 14.7001 26.5493 13.5417 24.166 13.5417H15.8327C13.4493 13.5417 12.291 14.7001 12.291 17.0834C12.291 17.4251 12.0077 17.7084 11.666 17.7084C11.3243 17.7084 11.041 17.4251 11.041 17.0834C11.041 14.0417 12.791 12.2917 15.8327 12.2917H24.166C27.2077 12.2917 28.9577 14.0417 28.9577 17.0834V22.9167C28.9577 25.9584 27.2077 27.7084 24.166 27.7084Z" fill="#214660"/>
<path d="M19.999 20.725C19.299 20.725 18.5907 20.5083 18.049 20.0666L15.4407 17.9833C15.174 17.7666 15.124 17.375 15.3407 17.1083C15.5573 16.8416 15.949 16.7916 16.2157 17.0083L18.824 19.0916C19.4573 19.6 20.5323 19.6 21.1657 19.0916L23.774 17.0083C24.0407 16.7916 24.4407 16.8333 24.649 17.1083C24.8657 17.375 24.824 17.775 24.549 17.9833L21.9407 20.0666C21.4073 20.5083 20.699 20.725 19.999 20.725Z" fill="#214660"/>
<path d="M16.666 24.375H11.666C11.3243 24.375 11.041 24.0917 11.041 23.75C11.041 23.4083 11.3243 23.125 11.666 23.125H16.666C17.0077 23.125 17.291 23.4083 17.291 23.75C17.291 24.0917 17.0077 24.375 16.666 24.375Z" fill="#214660"/>
<path d="M14.166 21.0417H11.666C11.3243 21.0417 11.041 20.7584 11.041 20.4167C11.041 20.0751 11.3243 19.7917 11.666 19.7917H14.166C14.5077 19.7917 14.791 20.0751 14.791 20.4167C14.791 20.7584 14.5077 21.0417 14.166 21.0417Z" fill="#214660"/>
</svg>
