<svg width="183" height="192" viewBox="0 0 183 192" fill="none" xmlns="http://www.w3.org/2000/svg">
<rect width="183" height="192" fill="#F2F2F2"/>
<rect y="40" width="183" height="1" fill="#E6E6E6"/>
<path d="M92.0016 101.6C84.0672 101.6 77.6016 108.066 77.6016 116C77.6016 123.934 84.0672 130.4 92.0016 130.4C99.936 130.4 106.402 123.934 106.402 116C106.402 108.066 99.936 101.6 92.0016 101.6ZM97.7616 117.08H93.0816V121.76C93.0816 122.35 92.592 122.84 92.0016 122.84C91.4112 122.84 90.9216 122.35 90.9216 121.76V117.08H86.2416C85.6512 117.08 85.1616 116.59 85.1616 116C85.1616 115.41 85.6512 114.92 86.2416 114.92H90.9216V110.24C90.9216 109.65 91.4112 109.16 92.0016 109.16C92.592 109.16 93.0816 109.65 93.0816 110.24V114.92H97.7616C98.352 114.92 98.8416 115.41 98.8416 116C98.8416 116.59 98.352 117.08 97.7616 117.08Z" fill="#214660"/>
<rect x="69" y="93" width="46" height="46" rx="23" stroke="#FC8A8A" stroke-width="2" stroke-dasharray="4 4"/>
<path d="M39.0756 24V15.2727H44.7518V16.598H40.6566V18.9673H44.4577V20.2926H40.6566V22.6747H44.7859V24H39.0756ZM46.2965 24V17.4545H47.771V18.5668H47.8477C47.984 18.1918 48.2099 17.8991 48.5252 17.6889C48.8406 17.4759 49.217 17.3693 49.6545 17.3693C50.0977 17.3693 50.4712 17.4773 50.7752 17.6932C51.082 17.9062 51.2979 18.1974 51.4229 18.5668H51.4911C51.636 18.2031 51.8803 17.9134 52.2241 17.6974C52.5707 17.4787 52.9812 17.3693 53.4556 17.3693C54.0579 17.3693 54.5494 17.5597 54.93 17.9403C55.3107 18.321 55.5011 18.8764 55.5011 19.6065V24H53.9542V19.8452C53.9542 19.4389 53.8462 19.142 53.6303 18.9545C53.4144 18.7642 53.1502 18.669 52.8377 18.669C52.4656 18.669 52.1744 18.7855 51.9641 19.0185C51.7567 19.2486 51.6531 19.5483 51.6531 19.9176V24H50.1403V19.7812C50.1403 19.4432 50.038 19.1733 49.8335 18.9716C49.6317 18.7699 49.3675 18.669 49.0408 18.669C48.8192 18.669 48.6175 18.7259 48.4357 18.8395C48.2539 18.9503 48.109 19.108 48.0011 19.3125C47.8931 19.5142 47.8391 19.75 47.8391 20.0199V24H46.2965ZM57.0661 26.4545V17.4545H58.5831V18.5369H58.6726C58.7521 18.3778 58.8643 18.2088 59.0092 18.0298C59.1541 17.848 59.3501 17.6932 59.5973 17.5653C59.8445 17.4347 60.1598 17.3693 60.5433 17.3693C61.049 17.3693 61.505 17.4986 61.9112 17.7571C62.3203 18.0128 62.6442 18.392 62.8828 18.8949C63.1243 19.3949 63.245 20.0085 63.245 20.7358C63.245 21.4545 63.1271 22.0653 62.8913 22.5682C62.6555 23.071 62.3345 23.4545 61.9283 23.7188C61.522 23.983 61.0618 24.1151 60.5476 24.1151C60.1726 24.1151 59.8615 24.0526 59.6143 23.9276C59.3672 23.8026 59.1683 23.652 59.0178 23.4759C58.87 23.2969 58.755 23.1278 58.6726 22.9688H58.6087V26.4545H57.0661ZM58.5788 20.7273C58.5788 21.1506 58.6385 21.5213 58.7578 21.8395C58.88 22.1577 59.0547 22.4062 59.282 22.5852C59.5121 22.7614 59.7905 22.8494 60.1172 22.8494C60.4581 22.8494 60.7436 22.7585 60.9737 22.5767C61.2038 22.392 61.3771 22.1406 61.4936 21.8224C61.6129 21.5014 61.6726 21.1364 61.6726 20.7273C61.6726 20.321 61.6143 19.9602 61.4979 19.6449C61.3814 19.3295 61.2081 19.0824 60.978 18.9034C60.7479 18.7244 60.4609 18.6349 60.1172 18.6349C59.7876 18.6349 59.5078 18.7216 59.2777 18.8949C59.0476 19.0682 58.8729 19.3111 58.7536 19.6236C58.6371 19.9361 58.5788 20.304 58.5788 20.7273ZM66.1087 15.2727V24H64.5661V15.2727H66.1087ZM70.5501 24.1278C69.9109 24.1278 69.3569 23.9872 68.8881 23.706C68.4194 23.4247 68.0558 23.0312 67.7972 22.5256C67.5415 22.0199 67.4137 21.429 67.4137 20.7528C67.4137 20.0767 67.5415 19.4844 67.7972 18.9759C68.0558 18.4673 68.4194 18.0724 68.8881 17.7912C69.3569 17.5099 69.9109 17.3693 70.5501 17.3693C71.1893 17.3693 71.7433 17.5099 72.212 17.7912C72.6808 18.0724 73.043 18.4673 73.2987 18.9759C73.5572 19.4844 73.6864 20.0767 73.6864 20.7528C73.6864 21.429 73.5572 22.0199 73.2987 22.5256C73.043 23.0312 72.6808 23.4247 72.212 23.706C71.7433 23.9872 71.1893 24.1278 70.5501 24.1278ZM70.5586 22.892C70.9052 22.892 71.195 22.7969 71.4279 22.6065C71.6609 22.4134 71.8342 22.1548 71.9478 21.831C72.0643 21.5071 72.1225 21.1463 72.1225 20.7486C72.1225 20.348 72.0643 19.9858 71.9478 19.6619C71.8342 19.3352 71.6609 19.0753 71.4279 18.8821C71.195 18.6889 70.9052 18.5923 70.5586 18.5923C70.2035 18.5923 69.908 18.6889 69.6722 18.8821C69.4393 19.0753 69.2646 19.3352 69.1481 19.6619C69.0344 19.9858 68.9776 20.348 68.9776 20.7486C68.9776 21.1463 69.0344 21.5071 69.1481 21.831C69.2646 22.1548 69.4393 22.4134 69.6722 22.6065C69.908 22.7969 70.2035 22.892 70.5586 22.892ZM75.7319 26.4545C75.5217 26.4545 75.3271 26.4375 75.1481 26.4034C74.9719 26.3722 74.8313 26.3352 74.7262 26.2926L75.0842 25.0909C75.3086 25.1563 75.5089 25.1875 75.685 25.1847C75.8612 25.1818 76.016 25.1264 76.1495 25.0185C76.2859 24.9134 76.4009 24.7372 76.4947 24.4901L76.6268 24.1364L74.2532 17.4545H75.8896L77.3981 22.3977H77.4663L78.979 17.4545H80.6197L77.9989 24.7926C77.8768 25.1392 77.7148 25.4361 77.5131 25.6832C77.3114 25.9332 77.0643 26.1236 76.7717 26.2543C76.4819 26.3878 76.1353 26.4545 75.7319 26.4545ZM81.6871 24V17.4545H83.1616V18.5668H83.2383C83.3746 18.1918 83.6005 17.8991 83.9158 17.6889C84.2312 17.4759 84.6076 17.3693 85.0451 17.3693C85.4883 17.3693 85.8619 17.4773 86.1658 17.6932C86.4727 17.9062 86.6886 18.1974 86.8136 18.5668H86.8817C87.0266 18.2031 87.271 17.9134 87.6147 17.6974C87.9613 17.4787 88.3718 17.3693 88.8462 17.3693C89.4485 17.3693 89.94 17.5597 90.3207 17.9403C90.7013 18.321 90.8917 18.8764 90.8917 19.6065V24H89.3448V19.8452C89.3448 19.4389 89.2369 19.142 89.021 18.9545C88.805 18.7642 88.5408 18.669 88.2283 18.669C87.8562 18.669 87.565 18.7855 87.3548 19.0185C87.1474 19.2486 87.0437 19.5483 87.0437 19.9176V24H85.5309V19.7812C85.5309 19.4432 85.4286 19.1733 85.2241 18.9716C85.0224 18.7699 84.7582 18.669 84.4315 18.669C84.2099 18.669 84.0082 18.7259 83.8263 18.8395C83.6445 18.9503 83.4996 19.108 83.3917 19.3125C83.2837 19.5142 83.2298 19.75 83.2298 20.0199V24H81.6871ZM95.3544 24.1278C94.6982 24.1278 94.1314 23.9915 93.6541 23.7188C93.1797 23.4432 92.8146 23.054 92.5589 22.5511C92.3033 22.0455 92.1754 21.4503 92.1754 20.7656C92.1754 20.0923 92.3033 19.5014 92.5589 18.9929C92.8175 18.4815 93.1783 18.0838 93.6413 17.7997C94.1044 17.5128 94.6484 17.3693 95.2734 17.3693C95.6768 17.3693 96.0575 17.4347 96.4155 17.5653C96.7763 17.6932 97.0945 17.892 97.37 18.1619C97.6484 18.4318 97.8672 18.7756 98.0263 19.1932C98.1854 19.608 98.2649 20.1023 98.2649 20.6761V21.1491H92.8999V20.1094H96.7862C96.7834 19.8139 96.7195 19.5511 96.5945 19.321C96.4695 19.0881 96.2947 18.9048 96.0703 18.7713C95.8487 18.6378 95.5902 18.571 95.2947 18.571C94.9794 18.571 94.7024 18.6477 94.4638 18.8011C94.2251 18.9517 94.0391 19.1506 93.9055 19.3977C93.7749 19.642 93.7081 19.9105 93.7053 20.2031V21.1108C93.7053 21.4915 93.7749 21.8182 93.9141 22.0909C94.0533 22.3608 94.2479 22.5682 94.4979 22.7131C94.7479 22.8551 95.0405 22.9261 95.3757 22.9261C95.6001 22.9261 95.8033 22.8949 95.9851 22.8324C96.1669 22.767 96.3246 22.6719 96.4581 22.5469C96.5916 22.4219 96.6925 22.267 96.7607 22.0824L98.201 22.2443C98.1101 22.625 97.9368 22.9574 97.6811 23.2415C97.4283 23.5227 97.1044 23.7415 96.7095 23.8977C96.3146 24.0511 95.8629 24.1278 95.3544 24.1278ZM101.113 20.1648V24H99.57V17.4545H101.044V18.5668H101.121C101.272 18.2003 101.512 17.9091 101.841 17.6932C102.174 17.4773 102.584 17.3693 103.073 17.3693C103.525 17.3693 103.918 17.4659 104.253 17.6591C104.591 17.8523 104.853 18.1321 105.037 18.4986C105.225 18.8651 105.317 19.3097 105.314 19.8324V24H103.772V20.071C103.772 19.6335 103.658 19.2912 103.431 19.044C103.206 18.7969 102.895 18.6733 102.498 18.6733C102.228 18.6733 101.988 18.733 101.777 18.8523C101.57 18.9687 101.407 19.1378 101.287 19.3594C101.171 19.581 101.113 19.8494 101.113 20.1648ZM110.151 17.4545V18.6477H106.388V17.4545H110.151ZM107.317 15.8864H108.86V22.0312C108.86 22.2386 108.891 22.3977 108.953 22.5085C109.019 22.6165 109.104 22.6903 109.209 22.7301C109.314 22.7699 109.431 22.7898 109.559 22.7898C109.655 22.7898 109.743 22.7827 109.823 22.7685C109.905 22.7543 109.968 22.7415 110.01 22.7301L110.27 23.9361C110.188 23.9645 110.07 23.9957 109.917 24.0298C109.766 24.0639 109.581 24.0838 109.363 24.0895C108.976 24.1009 108.628 24.0426 108.319 23.9148C108.009 23.7841 107.763 23.5824 107.581 23.3097C107.402 23.0369 107.314 22.696 107.317 22.2869V15.8864ZM115.96 15.2727V24H114.418V15.2727H115.96ZM120.444 24.1278C119.788 24.1278 119.221 23.9915 118.744 23.7188C118.27 23.4432 117.904 23.054 117.649 22.5511C117.393 22.0455 117.265 21.4503 117.265 20.7656C117.265 20.0923 117.393 19.5014 117.649 18.9929C117.907 18.4815 118.268 18.0838 118.731 17.7997C119.194 17.5128 119.738 17.3693 120.363 17.3693C120.767 17.3693 121.147 17.4347 121.505 17.5653C121.866 17.6932 122.184 17.892 122.46 18.1619C122.738 18.4318 122.957 18.7756 123.116 19.1932C123.275 19.608 123.355 20.1023 123.355 20.6761V21.1491H117.99V20.1094H121.876C121.873 19.8139 121.809 19.5511 121.684 19.321C121.559 19.0881 121.385 18.9048 121.16 18.7713C120.939 18.6378 120.68 18.571 120.385 18.571C120.069 18.571 119.792 18.6477 119.554 18.8011C119.315 18.9517 119.129 19.1506 118.995 19.3977C118.865 19.642 118.798 19.9105 118.795 20.2031V21.1108C118.795 21.4915 118.865 21.8182 119.004 22.0909C119.143 22.3608 119.338 22.5682 119.588 22.7131C119.838 22.8551 120.13 22.9261 120.466 22.9261C120.69 22.9261 120.893 22.8949 121.075 22.8324C121.257 22.767 121.414 22.6719 121.548 22.5469C121.681 22.4219 121.782 22.267 121.85 22.0824L123.291 22.2443C123.2 22.625 123.027 22.9574 122.771 23.2415C122.518 23.5227 122.194 23.7415 121.799 23.8977C121.404 24.0511 120.953 24.1278 120.444 24.1278ZM127.928 17.4545V18.6477H124.165V17.4545H127.928ZM125.094 15.8864H126.637V22.0312C126.637 22.2386 126.668 22.3977 126.731 22.5085C126.796 22.6165 126.881 22.6903 126.987 22.7301C127.092 22.7699 127.208 22.7898 127.336 22.7898C127.433 22.7898 127.521 22.7827 127.6 22.7685C127.683 22.7543 127.745 22.7415 127.788 22.7301L128.048 23.9361C127.965 23.9645 127.847 23.9957 127.694 24.0298C127.543 24.0639 127.359 24.0838 127.14 24.0895C126.754 24.1009 126.406 24.0426 126.096 23.9148C125.786 23.7841 125.54 23.5824 125.359 23.3097C125.18 23.0369 125.092 22.696 125.094 22.2869V15.8864ZM132.487 17.4545V18.6477H128.724V17.4545H132.487ZM129.653 15.8864H131.196V22.0312C131.196 22.2386 131.227 22.3977 131.289 22.5085C131.355 22.6165 131.44 22.6903 131.545 22.7301C131.65 22.7699 131.767 22.7898 131.895 22.7898C131.991 22.7898 132.079 22.7827 132.159 22.7685C132.241 22.7543 132.304 22.7415 132.346 22.7301L132.606 23.9361C132.524 23.9645 132.406 23.9957 132.252 24.0298C132.102 24.0639 131.917 24.0838 131.699 24.0895C131.312 24.1009 130.964 24.0426 130.654 23.9148C130.345 23.7841 130.099 23.5824 129.917 23.3097C129.738 23.0369 129.65 22.696 129.653 22.2869V15.8864ZM136.604 24.1278C135.948 24.1278 135.381 23.9915 134.904 23.7188C134.43 23.4432 134.065 23.054 133.809 22.5511C133.553 22.0455 133.425 21.4503 133.425 20.7656C133.425 20.0923 133.553 19.5014 133.809 18.9929C134.067 18.4815 134.428 18.0838 134.891 17.7997C135.354 17.5128 135.898 17.3693 136.523 17.3693C136.927 17.3693 137.308 17.4347 137.665 17.5653C138.026 17.6932 138.344 17.892 138.62 18.1619C138.898 18.4318 139.117 18.7756 139.276 19.1932C139.435 19.608 139.515 20.1023 139.515 20.6761V21.1491H134.15V20.1094H138.036C138.033 19.8139 137.969 19.5511 137.844 19.321C137.719 19.0881 137.545 18.9048 137.32 18.7713C137.099 18.6378 136.84 18.571 136.545 18.571C136.229 18.571 135.952 18.6477 135.714 18.8011C135.475 18.9517 135.289 19.1506 135.156 19.3977C135.025 19.642 134.958 19.9105 134.955 20.2031V21.1108C134.955 21.4915 135.025 21.8182 135.164 22.0909C135.303 22.3608 135.498 22.5682 135.748 22.7131C135.998 22.8551 136.29 22.9261 136.626 22.9261C136.85 22.9261 137.053 22.8949 137.235 22.8324C137.417 22.767 137.575 22.6719 137.708 22.5469C137.842 22.4219 137.942 22.267 138.011 22.0824L139.451 22.2443C139.36 22.625 139.187 22.9574 138.931 23.2415C138.678 23.5227 138.354 23.7415 137.96 23.8977C137.565 24.0511 137.113 24.1278 136.604 24.1278ZM140.82 24V17.4545H142.316V18.5455H142.384C142.503 18.1676 142.708 17.8764 142.998 17.6719C143.29 17.4645 143.624 17.3608 143.999 17.3608C144.084 17.3608 144.179 17.3651 144.284 17.3736C144.392 17.3793 144.482 17.3892 144.553 17.4034V18.8224C144.488 18.7997 144.384 18.7798 144.242 18.7628C144.103 18.7429 143.968 18.733 143.837 18.733C143.556 18.733 143.303 18.794 143.078 18.9162C142.857 19.0355 142.682 19.2017 142.554 19.4148C142.426 19.6278 142.363 19.8736 142.363 20.152V24H140.82Z" fill="#274B73"/>
</svg>
