<svg width="188" height="192" viewBox="0 0 188 192" fill="none" xmlns="http://www.w3.org/2000/svg">
<g clip-path="url(#clip0_1166_27374)">
<rect width="188" height="192" fill="#F4F5F7"/>
<rect width="188" height="50" fill="#BDD1EF"/>
<rect x="-26" y="50" width="240" height="1" fill="#E1E4EB"/>
<path d="M102 96H86C79 96 76 100 76 106V126C76 132 79 136 86 136H102C109 136 112 132 112 126V106C112 100 109 96 102 96ZM86 116.5H94C94.82 116.5 95.5 117.18 95.5 118C95.5 118.82 94.82 119.5 94 119.5H86C85.18 119.5 84.5 118.82 84.5 118C84.5 117.18 85.18 116.5 86 116.5ZM102 127.5H86C85.18 127.5 84.5 126.82 84.5 126C84.5 125.18 85.18 124.5 86 124.5H102C102.82 124.5 103.5 125.18 103.5 126C103.5 126.82 102.82 127.5 102 127.5ZM107 110.5H103C99.96 110.5 97.5 108.04 97.5 105V101C97.5 100.18 98.18 99.5 99 99.5C99.82 99.5 100.5 100.18 100.5 101V105C100.5 106.38 101.62 107.5 103 107.5H107C107.82 107.5 108.5 108.18 108.5 109C108.5 109.82 107.82 110.5 107 110.5Z" fill="#DD3737"/>
<path d="M50.2695 31V18.454H58.6575V20.542H52.5915V23.53H57.8655V25.6H52.5915V31H50.2695ZM59.6009 31V22.126H61.8509V24.538L61.5089 24.574C61.5449 24.058 61.7009 23.602 61.9769 23.206C62.2529 22.81 62.5889 22.504 62.9849 22.288C63.3929 22.06 63.8069 21.946 64.2269 21.946C64.5269 21.946 64.8089 21.988 65.0729 22.072C65.3489 22.144 65.6309 22.27 65.9189 22.45L64.8389 24.466C64.7069 24.394 64.5389 24.328 64.3349 24.268C64.1309 24.208 63.9269 24.178 63.7229 24.178C63.4829 24.178 63.2489 24.22 63.0209 24.304C62.8049 24.388 62.6069 24.52 62.4269 24.7C62.2589 24.88 62.1209 25.12 62.0129 25.42C61.9649 25.588 61.9229 25.804 61.8869 26.068C61.8629 26.32 61.8509 26.692 61.8509 27.184V31H59.6009ZM70.8584 31.18C69.9944 31.18 69.2264 30.982 68.5544 30.586C67.8824 30.19 67.3484 29.644 66.9524 28.948C66.5684 28.24 66.3764 27.442 66.3764 26.554C66.3764 25.654 66.5684 24.862 66.9524 24.178C67.3364 23.482 67.8644 22.936 68.5364 22.54C69.2204 22.144 69.9944 21.946 70.8584 21.946C71.7104 21.946 72.4724 22.144 73.1444 22.54C73.8164 22.936 74.3444 23.482 74.7284 24.178C75.1124 24.862 75.3044 25.654 75.3044 26.554C75.3044 27.442 75.1124 28.234 74.7284 28.93C74.3444 29.626 73.8164 30.178 73.1444 30.586C72.4724 30.982 71.7104 31.18 70.8584 31.18ZM70.8584 29.218C71.3144 29.218 71.7044 29.11 72.0284 28.894C72.3644 28.678 72.6164 28.372 72.7844 27.976C72.9644 27.58 73.0544 27.106 73.0544 26.554C73.0544 25.99 72.9644 25.516 72.7844 25.132C72.6164 24.736 72.3644 24.436 72.0284 24.232C71.7044 24.016 71.3144 23.908 70.8584 23.908C70.3904 23.908 69.9884 24.016 69.6524 24.232C69.3164 24.436 69.0584 24.736 68.8784 25.132C68.6984 25.516 68.6084 25.99 68.6084 26.554C68.6084 27.106 68.6984 27.58 68.8784 27.976C69.0584 28.372 69.3164 28.678 69.6524 28.894C69.9884 29.11 70.3904 29.218 70.8584 29.218ZM77.0912 31V22.126H79.3412V24.142L78.9812 24.178C79.1372 23.638 79.3652 23.206 79.6652 22.882C79.9652 22.558 80.3132 22.324 80.7092 22.18C81.1052 22.024 81.5132 21.946 81.9332 21.946C82.9412 21.946 83.7272 22.234 84.2912 22.81C84.8672 23.374 85.1552 24.172 85.1552 25.204V31H82.9052V26.032C82.9052 25.288 82.7732 24.748 82.5092 24.412C82.2452 24.064 81.8312 23.89 81.2672 23.89C80.8352 23.89 80.4752 23.992 80.1872 24.196C79.9112 24.388 79.7012 24.694 79.5572 25.114C79.4132 25.534 79.3412 26.08 79.3412 26.752V31H77.0912ZM90.6353 31.18C90.1553 31.18 89.7113 31.09 89.3033 30.91C88.8953 30.73 88.5653 30.436 88.3133 30.028C88.0733 29.62 87.9533 29.074 87.9533 28.39V20.056L90.2213 18.85V27.778C90.2213 28.294 90.2873 28.684 90.4193 28.948C90.5633 29.212 90.8393 29.344 91.2473 29.344C91.3673 29.344 91.4993 29.332 91.6433 29.308C91.7993 29.284 91.9673 29.248 92.1473 29.2V30.91C91.8953 31.006 91.6433 31.072 91.3913 31.108C91.1393 31.156 90.8873 31.18 90.6353 31.18ZM86.3333 23.872V22.126H92.1473V23.872H86.3333ZM102.442 31.18C101.722 31.18 101.092 31.054 100.552 30.802C100.024 30.538 99.5745 30.19 99.2025 29.758C98.8425 29.326 98.5725 28.834 98.3925 28.282C98.2125 27.73 98.1225 27.154 98.1225 26.554C98.1225 25.966 98.2125 25.396 98.3925 24.844C98.5725 24.292 98.8425 23.8 99.2025 23.368C99.5745 22.936 100.024 22.594 100.552 22.342C101.092 22.078 101.722 21.946 102.442 21.946C103.342 21.946 104.122 22.162 104.782 22.594C105.442 23.026 105.934 23.68 106.258 24.556L104.314 25.33C104.17 24.91 103.948 24.568 103.648 24.304C103.36 24.028 102.958 23.89 102.442 23.89C101.962 23.89 101.566 24.022 101.254 24.286C100.942 24.538 100.714 24.868 100.57 25.276C100.426 25.684 100.354 26.11 100.354 26.554C100.354 26.998 100.426 27.43 100.57 27.85C100.714 28.258 100.942 28.594 101.254 28.858C101.566 29.11 101.962 29.236 102.442 29.236C102.958 29.236 103.36 29.104 103.648 28.84C103.948 28.564 104.17 28.21 104.314 27.778L106.258 28.552C105.934 29.44 105.442 30.1 104.782 30.532C104.122 30.964 103.342 31.18 102.442 31.18ZM112.009 31.18C111.145 31.18 110.377 30.982 109.705 30.586C109.033 30.19 108.499 29.644 108.103 28.948C107.719 28.24 107.527 27.442 107.527 26.554C107.527 25.654 107.719 24.862 108.103 24.178C108.487 23.482 109.015 22.936 109.687 22.54C110.371 22.144 111.145 21.946 112.009 21.946C112.861 21.946 113.623 22.144 114.295 22.54C114.967 22.936 115.495 23.482 115.879 24.178C116.263 24.862 116.455 25.654 116.455 26.554C116.455 27.442 116.263 28.234 115.879 28.93C115.495 29.626 114.967 30.178 114.295 30.586C113.623 30.982 112.861 31.18 112.009 31.18ZM112.009 29.218C112.465 29.218 112.855 29.11 113.179 28.894C113.515 28.678 113.767 28.372 113.935 27.976C114.115 27.58 114.205 27.106 114.205 26.554C114.205 25.99 114.115 25.516 113.935 25.132C113.767 24.736 113.515 24.436 113.179 24.232C112.855 24.016 112.465 23.908 112.009 23.908C111.541 23.908 111.139 24.016 110.803 24.232C110.467 24.436 110.209 24.736 110.029 25.132C109.849 25.516 109.759 25.99 109.759 26.554C109.759 27.106 109.849 27.58 110.029 27.976C110.209 28.372 110.467 28.678 110.803 28.894C111.139 29.11 111.541 29.218 112.009 29.218ZM118.242 34.672V22.126H120.474V24.502L119.934 24.682C120.09 23.974 120.324 23.422 120.636 23.026C120.96 22.63 121.326 22.354 121.734 22.198C122.142 22.03 122.568 21.946 123.012 21.946C123.792 21.946 124.464 22.15 125.028 22.558C125.604 22.954 126.042 23.5 126.342 24.196C126.642 24.892 126.792 25.684 126.792 26.572C126.792 27.532 126.624 28.36 126.288 29.056C125.952 29.74 125.496 30.268 124.92 30.64C124.344 31 123.708 31.18 123.012 31.18C122.544 31.18 122.1 31.084 121.68 30.892C121.26 30.7 120.9 30.412 120.6 30.028C120.312 29.632 120.114 29.134 120.006 28.534L120.474 28.606V34.672H118.242ZM122.4 29.128C122.844 29.128 123.222 29.026 123.534 28.822C123.858 28.606 124.11 28.306 124.29 27.922C124.47 27.538 124.56 27.088 124.56 26.572C124.56 26.044 124.47 25.588 124.29 25.204C124.11 24.82 123.858 24.526 123.534 24.322C123.222 24.106 122.844 23.998 122.4 23.998C121.968 23.998 121.59 24.106 121.266 24.322C120.954 24.538 120.708 24.838 120.528 25.222C120.36 25.594 120.276 26.044 120.276 26.572C120.276 27.088 120.36 27.538 120.528 27.922C120.708 28.306 120.954 28.606 121.266 28.822C121.59 29.026 121.968 29.128 122.4 29.128ZM129.122 34.672L130.922 30.316L127.574 22.126H130.022L132.11 28.084L134.234 22.126H136.646L131.552 34.672H129.122Z" fill="#323740"/>
<path d="M167.999 165.334C164.325 165.334 161.332 168.327 161.332 172.001C161.332 175.674 164.325 178.667 167.999 178.667C171.672 178.667 174.665 175.674 174.665 172.001C174.665 168.327 171.672 165.334 167.999 165.334ZM171.185 170.467L167.405 174.247C167.312 174.341 167.185 174.394 167.052 174.394C166.919 174.394 166.792 174.341 166.699 174.247L164.812 172.361C164.619 172.167 164.619 171.847 164.812 171.654C165.005 171.461 165.325 171.461 165.519 171.654L167.052 173.187L170.479 169.761C170.672 169.567 170.992 169.567 171.185 169.761C171.379 169.954 171.379 170.267 171.185 170.467Z" fill="#10A83B"/>
</g>
<defs>
<clipPath id="clip0_1166_27374">
<rect width="188" height="192" rx="16" fill="white"/>
</clipPath>
</defs>
</svg>
