<svg width="28" height="28" viewBox="0 0 28 28" fill="none" xmlns="http://www.w3.org/2000/svg">
<circle cx="14" cy="14" r="14" fill="#EDFFF0"/>
<path d="M15.9099 17.817C15.8315 17.8954 15.7243 17.9449 15.6006 17.9449L10.5931 17.9449C10.3538 17.9449 10.1558 17.7469 10.1558 17.5077L10.1558 12.5002C10.1558 12.2609 10.3538 12.0629 10.5931 12.0629C10.8323 12.0629 11.0303 12.2609 11.0303 12.5002L11.0303 17.0704H15.6006C15.8398 17.0704 16.0378 17.2684 16.0378 17.5077C16.0419 17.6273 15.9883 17.7386 15.9099 17.817Z" fill="#10A83B"/>
<path d="M17.915 10.8048L10.973 17.7469C10.8039 17.916 10.5234 17.916 10.3543 17.7469C10.1852 17.5777 10.1852 17.2973 10.3543 17.1281L17.2963 10.1861C17.4654 10.017 17.7459 10.017 17.915 10.1861C18.0841 10.3552 18.0841 10.6357 17.915 10.8048Z" fill="#10A83B"/>
</svg>
