<svg width="81" height="81" viewBox="0 0 81 81" fill="none" xmlns="http://www.w3.org/2000/svg">
<path d="M40.4994 17.3572C37.6387 17.3572 34.8422 18.2055 32.4635 19.7949C30.0849 21.3842 28.231 23.6432 27.1362 26.2862C26.0414 28.9292 25.755 31.8375 26.3131 34.6433C26.8712 37.4491 28.2488 40.0264 30.2717 42.0493C32.2945 44.0721 34.8718 45.4497 37.6776 46.0078C40.4834 46.5659 43.3917 46.2795 46.0347 45.1847C48.6777 44.09 50.9367 42.236 52.5261 39.8574C54.1154 37.4787 54.9637 34.6822 54.9637 31.8215C54.9637 27.9853 53.4398 24.3062 50.7272 21.5937C48.0147 18.8811 44.3356 17.3572 40.4994 17.3572ZM40.4994 40.5C38.783 40.5 37.1051 39.991 35.6779 39.0374C34.2507 38.0838 33.1384 36.7284 32.4815 35.1426C31.8246 33.5568 31.6528 31.8118 31.9876 30.1284C32.3225 28.4449 33.1491 26.8985 34.3628 25.6848C35.5765 24.4711 37.1229 23.6445 38.8063 23.3096C40.4898 22.9748 42.2348 23.1466 43.8206 23.8035C45.4064 24.4604 46.7618 25.5727 47.7154 26.9999C48.669 28.4271 49.178 30.105 49.178 31.8215C49.1757 34.1225 48.2606 36.3286 46.6336 37.9556C45.0065 39.5827 42.8004 40.4977 40.4994 40.5Z" fill="#929292"/>
<path d="M40.5 0C32.4899 0 24.6596 2.37528 17.9994 6.82548C11.3392 11.2757 6.14825 17.6009 3.0829 25.0013C0.017548 32.4017 -0.784487 40.5449 0.778214 48.4012C2.34092 56.2574 6.19817 63.4738 11.8622 69.1378C17.5262 74.8018 24.7426 78.6591 32.5989 80.2218C40.4551 81.7845 48.5983 80.9825 55.9987 77.9171C63.3991 74.8518 69.7243 69.6608 74.1745 63.0006C78.6247 56.3404 81 48.5101 81 40.5C80.9878 29.7625 76.7169 19.4683 69.1243 11.8757C61.5317 4.28314 51.2375 0.0122504 40.5 0V0ZM23.1429 70.5192V66.5357C23.1452 64.2347 24.0603 62.0286 25.6873 60.4016C27.3144 58.7745 29.5205 57.8594 31.8214 57.8571H49.1786C51.4796 57.8594 53.6857 58.7745 55.3127 60.4016C56.9398 62.0286 57.8549 64.2347 57.8572 66.5357V70.5192C52.5897 73.5949 46.5997 75.2157 40.5 75.2157C34.4004 75.2157 28.4103 73.5949 23.1429 70.5192V70.5192ZM63.6197 66.3216C63.5621 62.5272 62.0161 58.9072 59.3149 56.2417C56.6137 53.5762 52.9735 52.0786 49.1786 52.0714H31.8214C28.0265 52.0786 24.3863 53.5762 21.6851 56.2417C18.9839 58.9072 17.438 62.5272 17.3803 66.3216C12.1343 61.6374 8.43481 55.4702 6.77172 48.6366C5.10863 41.8031 5.56038 34.6256 8.06715 28.0545C10.5739 21.4834 15.0175 15.8288 20.8094 11.8392C26.6014 7.84967 33.4685 5.71347 40.5015 5.71347C47.5345 5.71347 54.4016 7.84967 60.1935 11.8392C65.9855 15.8288 70.429 21.4834 72.9358 28.0545C75.4426 34.6256 75.8943 41.8031 74.2312 48.6366C72.5681 55.4702 68.8686 61.6374 63.6226 66.3216H63.6197Z" fill="#929292"/>
</svg>
