<svg width="24" height="24" viewBox="0 0 24 24" fill="none" xmlns="http://www.w3.org/2000/svg">
<rect width="24" height="24" rx="12" fill="#EDFFF0"/>
<path d="M5.64645 16.1464C5.45118 16.3417 5.45118 16.6583 5.64645 16.8536C5.84171 17.0488 6.15829 17.0488 6.35355 16.8536L5.64645 16.1464ZM10.5 12L10.9472 11.7764C10.8753 11.6326 10.7387 11.5322 10.5801 11.5065C10.4214 11.4807 10.2601 11.5328 10.1464 11.6464L10.5 12ZM12 15L11.5528 15.2236C11.6295 15.3771 11.7796 15.4805 11.9503 15.4975C12.121 15.5146 12.2886 15.4429 12.3942 15.3076L12 15ZM17.9597 7.93882C17.9259 7.66475 17.6763 7.46997 17.4022 7.50376L12.936 8.05438C12.662 8.08817 12.4672 8.33774 12.501 8.61181C12.5348 8.88587 12.7843 9.08066 13.0584 9.04687L17.0284 8.55742L17.5178 12.5274C17.5516 12.8014 17.8012 12.9962 18.0752 12.9624C18.3493 12.9286 18.5441 12.6791 18.5103 12.405L17.9597 7.93882ZM6.35355 16.8536L10.8536 12.3536L10.1464 11.6464L5.64645 16.1464L6.35355 16.8536ZM10.0528 12.2236L11.5528 15.2236L12.4472 14.7764L10.9472 11.7764L10.0528 12.2236ZM12.3942 15.3076L17.8576 8.30764L17.0693 7.69236L11.6058 14.6924L12.3942 15.3076Z" fill="#10A83B"/>
</svg>
