<svg width="26" height="26" viewBox="0 0 26 26" fill="none" xmlns="http://www.w3.org/2000/svg">
<rect x="1" y="1" width="24" height="24" rx="4" fill="white"/>
<path fill-rule="evenodd" clip-rule="evenodd" d="M12.9993 14.3337C13.7357 14.3337 14.3327 13.7367 14.3327 13.0003C14.3327 12.2639 13.7357 11.667 12.9993 11.667C12.263 11.667 11.666 12.2639 11.666 13.0003C11.666 13.7367 12.263 14.3337 12.9993 14.3337Z" stroke="#DD3737" stroke-width="1.16667" stroke-linecap="round" stroke-linejoin="round"/>
<path fill-rule="evenodd" clip-rule="evenodd" d="M18.3333 14.3337C19.0697 14.3337 19.6667 13.7367 19.6667 13.0003C19.6667 12.2639 19.0697 11.667 18.3333 11.667C17.597 11.667 17 12.2639 17 13.0003C17 13.7367 17.597 14.3337 18.3333 14.3337Z" stroke="#DD3737" stroke-width="1.16667" stroke-linecap="round" stroke-linejoin="round"/>
<path fill-rule="evenodd" clip-rule="evenodd" d="M7.66732 14.3337C8.4037 14.3337 9.00065 13.7367 9.00065 13.0003C9.00065 12.2639 8.4037 11.667 7.66732 11.667C6.93094 11.667 6.33398 12.2639 6.33398 13.0003C6.33398 13.7367 6.93094 14.3337 7.66732 14.3337Z" stroke="#DD3737" stroke-width="1.16667" stroke-linecap="round" stroke-linejoin="round"/>
<rect x="1" y="1" width="24" height="24" rx="4" stroke="#CCCCCC"/>
</svg>
