<svg width="183" height="192" viewBox="0 0 183 192" fill="none" xmlns="http://www.w3.org/2000/svg">
<rect width="183" height="192" fill="#F2F2F2"/>
<rect y="40" width="183" height="1" fill="#E6E6E6"/>
<path d="M92.0016 101.6C84.0672 101.6 77.6016 108.065 77.6016 116C77.6016 123.934 84.0672 130.4 92.0016 130.4C99.936 130.4 106.402 123.934 106.402 116C106.402 108.065 99.936 101.6 92.0016 101.6ZM97.7616 117.08H93.0816V121.76C93.0816 122.35 92.592 122.84 92.0016 122.84C91.4112 122.84 90.9216 122.35 90.9216 121.76V117.08H86.2416C85.6512 117.08 85.1616 116.59 85.1616 116C85.1616 115.409 85.6512 114.92 86.2416 114.92H90.9216V110.24C90.9216 109.649 91.4112 109.16 92.0016 109.16C92.592 109.16 93.0816 109.649 93.0816 110.24V114.92H97.7616C98.352 114.92 98.8416 115.409 98.8416 116C98.8416 116.59 98.352 117.08 97.7616 117.08Z" fill="#214660"/>
<rect x="69" y="93" width="46" height="46" rx="23" stroke="#FC8A8A" stroke-width="2" stroke-dasharray="4 4"/>
<path d="M55.5746 15.2727V24H53.9936V15.2727H55.5746ZM59.6474 24.1151C59.1332 24.1151 58.6729 23.983 58.2667 23.7188C57.8604 23.4545 57.5394 23.071 57.3036 22.5682C57.0678 22.0653 56.9499 21.4545 56.9499 20.7358C56.9499 20.0085 57.0692 19.3949 57.3079 18.8949C57.5494 18.392 57.8746 18.0128 58.2837 17.7571C58.6928 17.4986 59.1488 17.3693 59.6516 17.3693C60.0352 17.3693 60.3505 17.4347 60.5977 17.5653C60.8448 17.6932 61.0408 17.848 61.1857 18.0298C61.3306 18.2088 61.4428 18.3778 61.5224 18.5369H61.5863V15.2727H63.1332V24H61.6161V22.9688H61.5224C61.4428 23.1278 61.3278 23.2969 61.1772 23.4759C61.0266 23.652 60.8278 23.8026 60.5806 23.9276C60.3335 24.0526 60.0224 24.1151 59.6474 24.1151ZM60.0778 22.8494C60.4045 22.8494 60.6829 22.7614 60.913 22.5852C61.1431 22.4062 61.3178 22.1577 61.4371 21.8395C61.5565 21.5213 61.6161 21.1506 61.6161 20.7273C61.6161 20.304 61.5565 19.9361 61.4371 19.6236C61.3207 19.3111 61.1474 19.0682 60.9173 18.8949C60.69 18.7216 60.4102 18.6349 60.0778 18.6349C59.734 18.6349 59.4471 18.7244 59.217 18.9034C58.9869 19.0824 58.8136 19.3295 58.6971 19.6449C58.5806 19.9602 58.5224 20.321 58.5224 20.7273C58.5224 21.1364 58.5806 21.5014 58.6971 21.8224C58.8164 22.1406 58.9911 22.392 59.2212 22.5767C59.4542 22.7585 59.7397 22.8494 60.0778 22.8494ZM67.6747 24.1278C67.0185 24.1278 66.4517 23.9915 65.9744 23.7188C65.5 23.4432 65.1349 23.054 64.8793 22.5511C64.6236 22.0455 64.4957 21.4503 64.4957 20.7656C64.4957 20.0923 64.6236 19.5014 64.8793 18.9929C65.1378 18.4815 65.4986 18.0838 65.9616 17.7997C66.4247 17.5128 66.9688 17.3693 67.5938 17.3693C67.9972 17.3693 68.3778 17.4347 68.7358 17.5653C69.0966 17.6932 69.4148 17.892 69.6903 18.1619C69.9688 18.4318 70.1875 18.7756 70.3466 19.1932C70.5057 19.608 70.5852 20.1023 70.5852 20.6761V21.1491H65.2202V20.1094H69.1065C69.1037 19.8139 69.0398 19.5511 68.9148 19.321C68.7898 19.0881 68.6151 18.9048 68.3906 18.7713C68.169 18.6378 67.9105 18.571 67.6151 18.571C67.2997 18.571 67.0227 18.6477 66.7841 18.8011C66.5455 18.9517 66.3594 19.1506 66.2259 19.3977C66.0952 19.642 66.0284 19.9105 66.0256 20.2031V21.1108C66.0256 21.4915 66.0952 21.8182 66.2344 22.0909C66.3736 22.3608 66.5682 22.5682 66.8182 22.7131C67.0682 22.8551 67.3608 22.9261 67.696 22.9261C67.9205 22.9261 68.1236 22.8949 68.3054 22.8324C68.4872 22.767 68.6449 22.6719 68.7784 22.5469C68.9119 22.4219 69.0128 22.267 69.081 22.0824L70.5213 22.2443C70.4304 22.625 70.2571 22.9574 70.0014 23.2415C69.7486 23.5227 69.4247 23.7415 69.0298 23.8977C68.6349 24.0511 68.1832 24.1278 67.6747 24.1278ZM73.4329 20.1648V24H71.8903V17.4545H73.3647V18.5668H73.4414C73.592 18.2003 73.832 17.9091 74.1616 17.6932C74.494 17.4773 74.9045 17.3693 75.3931 17.3693C75.8448 17.3693 76.2383 17.4659 76.5735 17.6591C76.9116 17.8523 77.1729 18.1321 77.3576 18.4986C77.5451 18.8651 77.6374 19.3097 77.6346 19.8324V24H76.092V20.071C76.092 19.6335 75.9783 19.2912 75.7511 19.044C75.5266 18.7969 75.2156 18.6733 74.8178 18.6733C74.5479 18.6733 74.3079 18.733 74.0977 18.8523C73.8903 18.9687 73.7269 19.1378 73.6076 19.3594C73.4911 19.581 73.4329 19.8494 73.4329 20.1648ZM82.4712 17.4545V18.6477H78.7085V17.4545H82.4712ZM79.6374 15.8864H81.18V22.0312C81.18 22.2386 81.2113 22.3977 81.2738 22.5085C81.3391 22.6165 81.4244 22.6903 81.5295 22.7301C81.6346 22.7699 81.7511 22.7898 81.8789 22.7898C81.9755 22.7898 82.0636 22.7827 82.1431 22.7685C82.2255 22.7543 82.288 22.7415 82.3306 22.7301L82.5906 23.9361C82.5082 23.9645 82.3903 23.9957 82.2369 24.0298C82.0863 24.0639 81.9016 24.0838 81.6829 24.0895C81.2965 24.1009 80.9485 24.0426 80.6388 23.9148C80.3292 23.7841 80.0835 23.5824 79.9016 23.3097C79.7227 23.0369 79.6346 22.696 79.6374 22.2869V15.8864ZM83.7614 24V17.4545H85.304V24H83.7614ZM84.5369 16.5256C84.2926 16.5256 84.0824 16.4446 83.9062 16.2827C83.7301 16.1179 83.642 15.9205 83.642 15.6903C83.642 15.4574 83.7301 15.2599 83.9062 15.098C84.0824 14.9332 84.2926 14.8509 84.5369 14.8509C84.7841 14.8509 84.9943 14.9332 85.1676 15.098C85.3438 15.2599 85.4318 15.4574 85.4318 15.6903C85.4318 15.9205 85.3438 16.1179 85.1676 16.2827C84.9943 16.4446 84.7841 16.5256 84.5369 16.5256ZM90.2056 17.4545V18.6477H86.3363V17.4545H90.2056ZM87.3036 24V16.8366C87.3036 16.3963 87.3945 16.0298 87.5763 15.7372C87.761 15.4446 88.0082 15.2259 88.3178 15.081C88.6275 14.9361 88.9712 14.8636 89.3491 14.8636C89.6161 14.8636 89.8533 14.8849 90.0607 14.9276C90.2681 14.9702 90.4215 15.0085 90.521 15.0426L90.2141 16.2358C90.1488 16.2159 90.0664 16.196 89.967 16.1761C89.8675 16.1534 89.7567 16.142 89.6346 16.142C89.3477 16.142 89.1445 16.2116 89.0252 16.3509C88.9087 16.4872 88.8505 16.6832 88.8505 16.9389V24H87.3036ZM91.4137 24V17.4545H92.9563V24H91.4137ZM92.1893 16.5256C91.945 16.5256 91.7347 16.4446 91.5586 16.2827C91.3825 16.1179 91.2944 15.9205 91.2944 15.6903C91.2944 15.4574 91.3825 15.2599 91.5586 15.098C91.7347 14.9332 91.945 14.8509 92.1893 14.8509C92.4364 14.8509 92.6467 14.9332 92.82 15.098C92.9961 15.2599 93.0842 15.4574 93.0842 15.6903C93.0842 15.9205 92.9961 16.1179 92.82 16.2827C92.6467 16.4446 92.4364 16.5256 92.1893 16.5256ZM97.3977 24.1278C96.7443 24.1278 96.1832 23.9844 95.7145 23.6974C95.2486 23.4105 94.8892 23.0142 94.6364 22.5085C94.3864 22 94.2614 21.4148 94.2614 20.7528C94.2614 20.0881 94.3892 19.5014 94.6449 18.9929C94.9006 18.4815 95.2614 18.0838 95.7273 17.7997C96.196 17.5128 96.75 17.3693 97.3892 17.3693C97.9205 17.3693 98.3906 17.4673 98.7997 17.6634C99.2116 17.8565 99.5398 18.1307 99.7841 18.4858C100.028 18.8381 100.168 19.25 100.202 19.7216H98.7273C98.6676 19.4062 98.5256 19.1435 98.3011 18.9332C98.0795 18.7202 97.7827 18.6136 97.4105 18.6136C97.0952 18.6136 96.8182 18.6989 96.5795 18.8693C96.3409 19.0369 96.1548 19.2784 96.0213 19.5938C95.8906 19.9091 95.8253 20.2869 95.8253 20.7273C95.8253 21.1733 95.8906 21.5568 96.0213 21.8778C96.152 22.196 96.3352 22.4418 96.571 22.6151C96.8097 22.7855 97.0895 22.8707 97.4105 22.8707C97.6378 22.8707 97.8409 22.8281 98.0199 22.7429C98.2017 22.6548 98.3537 22.5284 98.4759 22.3636C98.598 22.1989 98.6818 21.9986 98.7273 21.7628H100.202C100.165 22.2259 100.028 22.6364 99.7926 22.9943C99.5568 23.3494 99.2358 23.6278 98.8295 23.8295C98.4233 24.0284 97.946 24.1278 97.3977 24.1278ZM103.352 24.1321C102.937 24.1321 102.564 24.0582 102.231 23.9105C101.902 23.7599 101.64 23.5384 101.447 23.2457C101.257 22.9531 101.162 22.5923 101.162 22.1634C101.162 21.794 101.23 21.4886 101.366 21.2472C101.502 21.0057 101.689 20.8125 101.924 20.6676C102.16 20.5227 102.426 20.4134 102.721 20.3395C103.02 20.2628 103.328 20.2074 103.646 20.1733C104.029 20.1335 104.341 20.098 104.579 20.0668C104.818 20.0327 104.991 19.9815 105.099 19.9134C105.21 19.8423 105.265 19.733 105.265 19.5852V19.5597C105.265 19.2386 105.17 18.9901 104.98 18.8139C104.789 18.6378 104.515 18.5497 104.157 18.5497C103.779 18.5497 103.48 18.6321 103.258 18.7969C103.039 18.9616 102.892 19.1562 102.815 19.3807L101.375 19.1761C101.488 18.7784 101.676 18.446 101.937 18.179C102.199 17.9091 102.518 17.7074 102.896 17.5739C103.274 17.4375 103.691 17.3693 104.149 17.3693C104.464 17.3693 104.778 17.4062 105.091 17.4801C105.403 17.554 105.689 17.6761 105.947 17.8466C106.206 18.0142 106.413 18.2429 106.569 18.5327C106.728 18.8224 106.808 19.1847 106.808 19.6193V24H105.325V23.1009H105.274C105.18 23.2827 105.048 23.4531 104.877 23.6122C104.71 23.7685 104.498 23.8949 104.243 23.9915C103.99 24.0852 103.693 24.1321 103.352 24.1321ZM103.752 22.9986C104.062 22.9986 104.331 22.9375 104.558 22.8153C104.785 22.6903 104.96 22.5256 105.082 22.321C105.207 22.1165 105.27 21.8935 105.27 21.652V20.8807C105.221 20.9205 105.139 20.9574 105.022 20.9915C104.909 21.0256 104.781 21.0554 104.639 21.081C104.497 21.1065 104.356 21.1293 104.217 21.1491C104.078 21.169 103.957 21.1861 103.855 21.2003C103.625 21.2315 103.419 21.2827 103.237 21.3537C103.055 21.4247 102.912 21.5241 102.806 21.652C102.701 21.777 102.649 21.9389 102.649 22.1378C102.649 22.4219 102.752 22.6364 102.96 22.7812C103.167 22.9261 103.431 22.9986 103.752 22.9986ZM111.627 17.4545V18.6477H107.865V17.4545H111.627ZM108.794 15.8864H110.336V22.0312C110.336 22.2386 110.368 22.3977 110.43 22.5085C110.495 22.6165 110.581 22.6903 110.686 22.7301C110.791 22.7699 110.907 22.7898 111.035 22.7898C111.132 22.7898 111.22 22.7827 111.299 22.7685C111.382 22.7543 111.444 22.7415 111.487 22.7301L111.747 23.9361C111.664 23.9645 111.547 23.9957 111.393 24.0298C111.243 24.0639 111.058 24.0838 110.839 24.0895C110.453 24.1009 110.105 24.0426 109.795 23.9148C109.485 23.7841 109.24 23.5824 109.058 23.3097C108.879 23.0369 108.791 22.696 108.794 22.2869V15.8864ZM112.918 24V17.4545H114.46V24H112.918ZM113.693 16.5256C113.449 16.5256 113.239 16.4446 113.062 16.2827C112.886 16.1179 112.798 15.9205 112.798 15.6903C112.798 15.4574 112.886 15.2599 113.062 15.098C113.239 14.9332 113.449 14.8509 113.693 14.8509C113.94 14.8509 114.151 14.9332 114.324 15.098C114.5 15.2599 114.588 15.4574 114.588 15.6903C114.588 15.9205 114.5 16.1179 114.324 16.2827C114.151 16.4446 113.94 16.5256 113.693 16.5256ZM118.902 24.1278C118.262 24.1278 117.708 23.9872 117.24 23.706C116.771 23.4247 116.407 23.0312 116.149 22.5256C115.893 22.0199 115.765 21.429 115.765 20.7528C115.765 20.0767 115.893 19.4844 116.149 18.9759C116.407 18.4673 116.771 18.0724 117.24 17.7912C117.708 17.5099 118.262 17.3693 118.902 17.3693C119.541 17.3693 120.095 17.5099 120.564 17.7912C121.032 18.0724 121.395 18.4673 121.65 18.9759C121.909 19.4844 122.038 20.0767 122.038 20.7528C122.038 21.429 121.909 22.0199 121.65 22.5256C121.395 23.0312 121.032 23.4247 120.564 23.706C120.095 23.9872 119.541 24.1278 118.902 24.1278ZM118.91 22.892C119.257 22.892 119.547 22.7969 119.779 22.6065C120.012 22.4134 120.186 22.1548 120.299 21.831C120.416 21.5071 120.474 21.1463 120.474 20.7486C120.474 20.348 120.416 19.9858 120.299 19.6619C120.186 19.3352 120.012 19.0753 119.779 18.8821C119.547 18.6889 119.257 18.5923 118.91 18.5923C118.555 18.5923 118.26 18.6889 118.024 18.8821C117.791 19.0753 117.616 19.3352 117.5 19.6619C117.386 19.9858 117.329 20.348 117.329 20.7486C117.329 21.1463 117.386 21.5071 117.5 21.831C117.616 22.1548 117.791 22.4134 118.024 22.6065C118.26 22.7969 118.555 22.892 118.91 22.892ZM124.89 20.1648V24H123.347V17.4545H124.822V18.5668H124.898C125.049 18.2003 125.289 17.9091 125.619 17.6932C125.951 17.4773 126.362 17.3693 126.85 17.3693C127.302 17.3693 127.695 17.4659 128.031 17.6591C128.369 17.8523 128.63 18.1321 128.815 18.4986C129.002 18.8651 129.094 19.3097 129.092 19.8324V24H127.549V20.071C127.549 19.6335 127.435 19.2912 127.208 19.044C126.984 18.7969 126.673 18.6733 126.275 18.6733C126.005 18.6733 125.765 18.733 125.555 18.8523C125.347 18.9687 125.184 19.1378 125.065 19.3594C124.948 19.581 124.89 19.8494 124.89 20.1648Z" fill="#274B73"/>
</svg>
