<svg width="27" height="28" viewBox="0 0 27 28" fill="none" xmlns="http://www.w3.org/2000/svg">
<path fill-rule="evenodd" clip-rule="evenodd" d="M13.334 4C10.618 4 10.278 4.01133 9.21132 4.06C8.14665 4.10867 7.41932 4.278 6.78332 4.52533C6.11665 4.776 5.51198 5.16933 5.01198 5.67867C4.50347 6.17809 4.10989 6.78233 3.85865 7.44933C3.61265 8.08533 3.44265 8.81333 3.39398 9.878C3.34598 10.944 3.33398 11.2833 3.33398 14C3.33398 16.7167 3.34532 17.056 3.39398 18.1227C3.44265 19.1873 3.61198 19.9147 3.85932 20.5507C4.10998 21.2173 4.50332 21.822 5.01265 22.322C5.51209 22.8305 6.11632 23.2241 6.78332 23.4753C7.41932 23.722 8.14665 23.8913 9.21132 23.94C10.278 23.9887 10.618 24 13.334 24C16.05 24 16.39 23.9887 17.4567 23.94C18.5213 23.8913 19.2487 23.722 19.8847 23.4747C20.5513 23.224 21.156 22.8307 21.656 22.3213C22.1645 21.8219 22.5581 21.2177 22.8093 20.5507C23.056 19.9147 23.2253 19.1873 23.274 18.1227C23.3227 17.056 23.334 16.716 23.334 14C23.334 11.284 23.3227 10.944 23.274 9.87733C23.2253 8.81267 23.056 8.08533 22.8087 7.44933C22.5576 6.78204 22.164 6.17755 21.6553 5.678C21.1559 5.16948 20.5517 4.77591 19.8847 4.52467C19.2487 4.27867 18.5207 4.10867 17.456 4.06C16.39 4.012 16.0507 4 13.334 4ZM13.334 5.802C16.004 5.802 16.3207 5.812 17.3753 5.86C18.35 5.90467 18.8793 6.06667 19.232 6.20467C19.6987 6.38533 20.032 6.60267 20.382 6.952C20.732 7.302 20.9487 7.63533 21.1293 8.102C21.2667 8.45467 21.4293 8.984 21.474 9.95867C21.522 11.0133 21.532 11.33 21.532 14C21.532 16.67 21.522 16.9867 21.474 18.0413C21.4293 19.016 21.2673 19.5453 21.1293 19.898C20.9693 20.3324 20.7139 20.7253 20.382 21.048C20.0594 21.38 19.6664 21.6354 19.232 21.7953C18.8793 21.9327 18.35 22.0953 17.3753 22.14C16.3207 22.188 16.0047 22.198 13.334 22.198C10.6633 22.198 10.3473 22.188 9.29265 22.14C8.31798 22.0953 7.78865 21.9333 7.43598 21.7953C7.00162 21.6353 6.60866 21.3799 6.28598 21.048C5.9541 20.7253 5.69874 20.3323 5.53865 19.898C5.40132 19.5453 5.23865 19.016 5.19398 18.0413C5.14598 16.9867 5.13598 16.67 5.13598 14C5.13598 11.33 5.14598 11.0133 5.19398 9.95867C5.23865 8.984 5.40065 8.45467 5.53865 8.102C5.71932 7.63533 5.93665 7.302 6.28598 6.952C6.60861 6.62003 7.00159 6.36465 7.43598 6.20467C7.78865 6.06733 8.31798 5.90467 9.29265 5.86C10.3473 5.812 10.664 5.802 13.334 5.802Z" fill="url(#paint0_linear_2002_39551)"/>
<path fill-rule="evenodd" clip-rule="evenodd" d="M13.3334 17.3397C12.8952 17.3397 12.4613 17.2534 12.0565 17.0857C11.6516 16.918 11.2838 16.6722 10.974 16.3624C10.6641 16.0526 10.4184 15.6847 10.2507 15.2799C10.083 14.8751 9.99669 14.4412 9.99669 14.003C9.99669 13.5648 10.083 13.131 10.2507 12.7261C10.4184 12.3213 10.6641 11.9535 10.974 11.6436C11.2838 11.3338 11.6516 11.088 12.0565 10.9203C12.4613 10.7527 12.8952 10.6664 13.3334 10.6664C14.2183 10.6664 15.067 11.0179 15.6927 11.6436C16.3185 12.2694 16.67 13.1181 16.67 14.003C16.67 14.888 16.3185 15.7367 15.6927 16.3624C15.067 16.9881 14.2183 17.3397 13.3334 17.3397ZM13.3334 8.86302C11.9701 8.86302 10.6628 9.40455 9.69883 10.3685C8.73489 11.3324 8.19336 12.6398 8.19336 14.003C8.19336 15.3662 8.73489 16.6736 9.69883 17.6376C10.6628 18.6015 11.9701 19.143 13.3334 19.143C14.6966 19.143 16.0039 18.6015 16.9679 17.6376C17.9318 16.6736 18.4734 15.3662 18.4734 14.003C18.4734 12.6398 17.9318 11.3324 16.9679 10.3685C16.0039 9.40455 14.6966 8.86302 13.3334 8.86302ZM19.9687 8.76969C19.9687 9.09193 19.8407 9.40097 19.6128 9.62882C19.385 9.85668 19.0759 9.98469 18.7537 9.98469C18.4315 9.98469 18.1224 9.85668 17.8946 9.62882C17.6667 9.40097 17.5387 9.09193 17.5387 8.76969C17.5387 8.44745 17.6667 8.13841 17.8946 7.91055C18.1224 7.6827 18.4315 7.55469 18.7537 7.55469C19.0759 7.55469 19.385 7.6827 19.6128 7.91055C19.8407 8.13841 19.9687 8.44745 19.9687 8.76969Z" fill="url(#paint1_linear_2002_39551)"/>
<defs>
<linearGradient id="paint0_linear_2002_39551" x1="13.334" y1="4" x2="13.334" y2="24" gradientUnits="userSpaceOnUse">
<stop stop-color="#5A58C7"/>
<stop offset="0.242708" stop-color="#A33AA3"/>
<stop offset="0.544792" stop-color="#D33975"/>
<stop offset="0.753125" stop-color="#EB6546"/>
<stop offset="1" stop-color="#F6B760"/>
</linearGradient>
<linearGradient id="paint1_linear_2002_39551" x1="14.081" y1="7.55469" x2="14.081" y2="19.143" gradientUnits="userSpaceOnUse">
<stop stop-color="#5A58C7"/>
<stop offset="0.242708" stop-color="#A33AA3"/>
<stop offset="0.544792" stop-color="#D33975"/>
<stop offset="0.753125" stop-color="#EB6546"/>
<stop offset="1" stop-color="#F6B760"/>
</linearGradient>
</defs>
</svg>
