<svg width="24" height="24" viewBox="0 0 24 24" fill="none" xmlns="http://www.w3.org/2000/svg">
<path d="M12 22.75C6.07 22.75 1.25 17.93 1.25 12C1.25 6.07 6.07 1.25 12 1.25C12.41 1.25 12.75 1.59 12.75 2C12.75 2.41 12.41 2.75 12 2.75C6.9 2.75 2.75 6.9 2.75 12C2.75 17.1 6.9 21.25 12 21.25C17.1 21.25 21.25 17.1 21.25 12C21.25 11.59 21.59 11.25 22 11.25C22.41 11.25 22.75 11.59 22.75 12C22.75 17.93 17.93 22.75 12 22.75Z" fill="#687181"/>
<path d="M21 7.75H17C16.59 7.75 16.25 7.41 16.25 7V3C16.25 2.59 16.59 2.25 17 2.25C17.41 2.25 17.75 2.59 17.75 3V6.25H21C21.41 6.25 21.75 6.59 21.75 7C21.75 7.41 21.41 7.75 21 7.75Z" fill="#687181"/>
<path d="M16.9995 7.75043C16.8095 7.75043 16.6195 7.68043 16.4695 7.53043C16.1795 7.24043 16.1795 6.76043 16.4695 6.47043L21.4695 1.47043C21.7595 1.18043 22.2395 1.18043 22.5295 1.47043C22.8195 1.76043 22.8195 2.24043 22.5295 2.53043L17.5295 7.53043C17.3795 7.68043 17.1895 7.75043 16.9995 7.75043Z" fill="#687181"/>
<path d="M8.73109 17V13.8866H8V12.9538H8.73109V12.0462H8V11.1134H8.73109V8H10.7101L11.6933 11.1134H12.8403V8H14.2395V11.1134H14.958V12.0462H14.2395V12.9538H14.958V13.8866H14.2395V17H12.2479L11.2395 13.8866H10.1303V17H8.73109ZM10.1303 12.9538H10.9622L10.6849 12.0462H10.105L10.1303 12.9538ZM12.8782 15.0336H12.9412L12.8908 13.8866H12.5504L12.8782 15.0336ZM10.0798 11.1134H10.4328L10.0672 9.90336H10.0168L10.0798 11.1134ZM12.2857 12.9538H12.8655L12.8403 12.0462H11.9958L12.2857 12.9538Z" fill="#323740"/>
</svg>
