<svg width="26" height="19" viewBox="0 0 26 19" fill="none" xmlns="http://www.w3.org/2000/svg">
<path d="M11.3992 1.68716C9.7077 0.862881 7.80747 0.400391 5.79922 0.400391C3.79097 0.400391 1.89073 0.862881 0.199219 1.68716V17.6872C1.89073 16.8629 3.79097 16.4004 5.79922 16.4004C8.46898 16.4004 10.9478 17.2177 12.9992 18.6159C15.0506 17.2177 17.5295 16.4004 20.1992 16.4004C22.2075 16.4004 24.1077 16.8629 25.7992 17.6872V1.68716C24.1077 0.862881 22.2075 0.400391 20.1992 0.400391C18.191 0.400391 16.2907 0.862881 14.5992 1.68716V13.2004C14.5992 14.084 13.8829 14.8004 12.9992 14.8004C12.1156 14.8004 11.3992 14.084 11.3992 13.2004V1.68716Z" fill="#DD3636"/>
</svg>
