<svg width="18" height="20" viewBox="0 0 18 20" fill="none" xmlns="http://www.w3.org/2000/svg">
<path fill-rule="evenodd" clip-rule="evenodd" d="M3.00156 8.80039V6.40039C3.00156 3.08668 5.68785 0.400391 9.00156 0.400391C12.3153 0.400391 15.0016 3.08668 15.0016 6.40039V8.80039C16.327 8.80039 17.4016 9.87491 17.4016 11.2004V17.2004C17.4016 18.5259 16.327 19.6004 15.0016 19.6004H3.00156C1.67608 19.6004 0.601562 18.5259 0.601562 17.2004V11.2004C0.601562 9.87491 1.67608 8.80039 3.00156 8.80039ZM12.6016 6.40039V8.80039H5.40156V6.40039C5.40156 4.41217 7.01334 2.80039 9.00156 2.80039C10.9898 2.80039 12.6016 4.41217 12.6016 6.40039Z" fill="#4771B0"/>
</svg>
