<svg width="160" height="32" viewBox="0 0 160 32" fill="none" xmlns="http://www.w3.org/2000/svg">
<path d="M15.6912 32C21.209 32 26.0801 29.2473 28.6666 24.9032L23.5368 21.9355C22.1142 24.5591 19.1398 26.1935 15.6912 26.1935C12.7599 26.1935 10.3889 25.2903 8.57842 23.4409C6.81101 21.5914 5.90574 19.2258 5.90574 16.3441C5.90574 13.4194 6.81101 11.0538 8.57842 9.2043C10.3889 7.35484 12.7599 6.45161 15.6912 6.45161C19.1398 6.45161 22.028 8.04301 23.5368 10.7527L28.6666 7.78495C26.0801 3.44086 21.1658 0.688171 15.6912 0.688171C11.1649 0.688171 7.41451 2.19355 4.44009 5.2043C1.46566 8.17204 0 11.914 0 16.3441C0 20.7742 1.46566 24.4731 4.44009 27.4839C7.41451 30.4946 11.1649 32 15.6912 32Z" fill="#D80032"/>
<path d="M37.96 9.89247H32.3991V31.3979H37.96V21.1183C37.96 19.0538 38.6066 17.5914 39.9429 16.6882C41.2793 15.7849 42.8311 15.4409 44.5123 15.6559V9.46237C41.581 9.46237 38.9946 10.8387 37.96 13.5914V9.89247Z" fill="#D80032"/>
<path d="M67.9151 22.9247C68.0444 22.1075 68.1306 21.3763 68.1306 20.6452C68.1306 17.4194 67.096 14.7527 65.0268 12.5591C63.0008 10.3656 60.3712 9.29032 57.2244 9.29032C53.9051 9.29032 51.1462 10.3656 49.0339 12.5591C46.9216 14.7097 45.844 17.4194 45.844 20.6452C45.844 23.914 46.9216 26.6237 49.077 28.7742C51.2324 30.9247 54.0775 32 57.6554 32C61.7938 32 64.9406 30.4516 67.0529 27.3979L62.5697 24.8172C61.492 26.2366 59.8539 26.9677 57.7417 26.9677C54.4224 26.9677 52.3963 25.6344 51.6635 22.9247H67.9151ZM51.5773 18.6237C52.2239 15.871 54.2499 14.2796 57.2244 14.2796C59.7677 14.2796 61.9231 15.6989 62.5697 18.6237H51.5773Z" fill="#D80032"/>
<path d="M88.182 12.4301C86.544 10.3226 84.2161 9.29032 81.1986 9.29032C78.3104 9.29032 75.8102 10.4086 73.741 12.6022C71.7149 14.7957 70.6803 17.4624 70.6803 20.6452C70.6803 23.828 71.7149 26.5376 73.741 28.7312C75.8102 30.9247 78.3104 32 81.1986 32C84.2161 32 86.544 30.9677 88.182 28.8602V31.3979H93.7429V1.29032H88.182V12.4301ZM77.9224 25.0323C76.8016 23.871 76.2412 22.4086 76.2412 20.6452C76.2412 18.8817 76.8016 17.4194 77.9224 16.3011C79.0863 15.1398 80.5089 14.5806 82.2332 14.5806C83.9575 14.5806 85.38 15.1398 86.5008 16.3011C87.6216 17.4194 88.182 18.8817 88.182 20.6452C88.182 22.4086 87.6216 23.871 86.5008 25.0323C85.38 26.1505 83.9575 26.7097 82.2332 26.7097C80.5089 26.7097 79.0863 26.1505 77.9224 25.0323Z" fill="#D80032"/>
<path d="M101.588 7.31183C103.484 7.31183 105.036 5.76344 105.036 3.91398C105.036 2.06452 103.484 0.473117 101.588 0.473117C99.7339 0.473117 98.182 2.06452 98.182 3.91398C98.182 5.76344 99.7339 7.31183 101.588 7.31183ZM104.389 31.3979V9.89247H98.8286V31.3979H104.389Z" fill="#D80032"/>
<path d="M114.441 16C114.441 14.9247 115.518 14.2366 116.941 14.2366C118.536 14.2366 119.7 14.9677 120.389 16.4301L125.131 13.8495C123.45 10.9247 120.433 9.29032 116.941 9.29032C114.613 9.29032 112.673 9.89247 111.078 11.1398C109.526 12.3441 108.75 14.0215 108.75 16.129C108.75 20.6022 112.759 21.9355 115.949 22.7527C118.148 23.3118 119.872 23.957 119.872 25.1183C119.872 26.3656 118.881 26.9677 116.898 26.9677C114.699 26.9677 113.32 26.0215 112.673 24.172L107.845 26.8817C109.44 30.2796 112.458 32 116.898 32C119.355 32 121.424 31.3979 123.062 30.2366C124.743 29.0323 125.562 27.3118 125.562 25.1183C125.606 20.5161 121.51 19.0108 118.363 18.3656C116.165 17.8065 114.441 17.1613 114.441 16Z" fill="#D80032"/>
<path d="M147.208 28.7312C149.406 26.5376 150.527 23.828 150.527 20.6452C150.527 17.4624 149.406 14.7957 147.208 12.6022C145.009 10.4086 142.294 9.29032 139.104 9.29032C135.914 9.29032 133.198 10.4086 130.999 12.6022C128.801 14.7957 127.723 17.4624 127.723 20.6452C127.723 23.828 128.801 26.5376 130.999 28.7312C133.198 30.9247 135.914 32 139.104 32C142.294 32 145.009 30.9247 147.208 28.7312ZM134.922 24.9032C133.844 23.7849 133.284 22.3656 133.284 20.6452C133.284 18.9247 133.844 17.5054 134.922 16.3871C136.043 15.2688 137.422 14.7097 139.104 14.7097C140.785 14.7097 142.164 15.2688 143.285 16.3871C144.406 17.5054 144.966 18.9247 144.966 20.6452C144.966 22.3656 144.406 23.7849 143.285 24.9032C142.164 26.0215 140.785 26.5806 139.104 26.5806C137.422 26.5806 136.043 26.0215 134.922 24.9032Z" fill="#D80032"/>
<path d="M160 31.3979V0H154.439V31.3979H160Z" fill="#D80032"/>
</svg>
