<svg width="165" height="41" viewBox="0 0 165 41" fill="none" xmlns="http://www.w3.org/2000/svg">
<path d="M30.9954 40.6665C37.7886 37.1341 42.4277 30.037 42.4277 21.8576C42.4277 10.1541 32.93 0.666503 21.2139 0.666503C9.49782 0.666502 6.44351e-05 10.1541 6.39236e-05 21.8576C6.3566e-05 30.037 4.63914 37.1341 11.4324 40.6665C11.1622 39.7514 11.0172 38.7827 11.0172 37.7801C11.0172 35.8694 11.5439 34.0816 12.4601 32.5536C9.36148 30.0201 7.38388 26.1695 7.38388 21.8575C7.38388 14.2276 13.5758 8.04236 21.2139 8.04236C28.852 8.04236 35.0439 14.2276 35.0439 21.8575C35.0439 26.1695 33.0663 30.0201 29.9677 32.5536C30.8839 34.0816 31.4106 35.8694 31.4106 37.7801C31.4106 38.7827 31.2656 39.7514 30.9954 40.6665Z" fill="#D80032"/>
<path d="M19.229 24.7462C18.023 24.0575 17.2103 22.76 17.2103 21.273C17.2103 19.0649 19.0022 17.2749 21.2126 17.2749C23.423 17.2749 25.2149 19.0649 25.2149 21.273C25.2149 22.76 24.4022 24.0574 23.1963 24.7462C23.7588 24.9626 24.277 25.2683 24.7333 25.646C26.012 24.6174 26.8302 23.0406 26.8302 21.2729C26.8302 18.1738 24.3151 15.6614 21.2126 15.6614C18.1101 15.6614 15.5951 18.1738 15.5951 21.2729C15.5951 23.0407 16.4133 24.6175 17.6921 25.6461C18.1484 25.2684 18.6665 24.9626 19.229 24.7462Z" fill="#D80032"/>
<path d="M16.4727 27.0648C14.7948 25.693 13.7239 23.6079 13.7239 21.2729C13.7239 17.1414 17.0767 13.7922 21.2126 13.7922C25.3486 13.7922 28.7014 17.1415 28.7014 21.2729C28.7014 23.6078 27.6305 25.6929 25.9527 27.0647C26.4489 27.8922 26.7341 28.8603 26.7341 29.895C26.7341 30.4377 26.6556 30.9622 26.5094 31.4576C30.1877 29.5448 32.6996 25.7019 32.6996 21.273C32.6996 14.9357 27.5567 9.79829 21.2126 9.79829C14.8685 9.79829 9.72561 14.9357 9.72561 21.273C9.72561 25.702 12.2377 29.545 15.9161 31.4577C15.7699 30.9623 15.6914 30.4378 15.6914 29.895C15.6914 28.8604 15.9766 27.8922 16.4727 27.0648Z" fill="#D80032"/>
<path d="M56.092 20.8888C54.9253 20.8888 53.894 20.6177 52.9983 20.0756C52.1144 19.5335 51.425 18.7792 50.93 17.8128C50.435 16.8464 50.1875 15.7209 50.1875 14.4363C50.1875 13.1516 50.435 12.032 50.93 11.0774C51.425 10.111 52.1144 9.35672 52.9983 8.81459C53.894 8.27246 54.9253 8.00139 56.092 8.00139C57.4002 8.00139 58.5257 8.33138 59.4686 8.99137C60.4232 9.63957 61.1067 10.5353 61.5192 11.6785L59.3625 12.474C59.1032 11.7551 58.6907 11.1953 58.125 10.7945C57.5711 10.3938 56.8934 10.1935 56.092 10.1935C55.3613 10.1935 54.719 10.3644 54.1651 10.7062C53.623 11.0479 53.2046 11.537 52.9099 12.1734C52.6271 12.7981 52.4857 13.5524 52.4857 14.4363C52.4857 15.3202 52.6271 16.0803 52.9099 16.7168C53.2046 17.3532 53.623 17.8423 54.1651 18.184C54.719 18.5258 55.3613 18.6967 56.092 18.6967C56.8934 18.6967 57.5711 18.4964 58.125 18.0957C58.6907 17.6949 59.1032 17.1351 59.3625 16.4162L61.5192 17.1941C61.1067 18.3373 60.4232 19.2388 59.4686 19.8988C58.5257 20.5588 57.4002 20.8888 56.092 20.8888ZM63.0923 20.606V11.8906H65.2844V20.606H63.0923ZM63.0216 10.5471V8.28424H65.3728V10.5471H63.0216ZM67.4432 20.606V11.8906H69.653V14.2595L69.3171 14.2948C69.3525 13.7881 69.5057 13.3402 69.7767 12.9513C70.0478 12.5624 70.3778 12.2618 70.7667 12.0497C71.1674 11.8258 71.574 11.7138 71.9865 11.7138C72.2812 11.7138 72.5581 11.7551 72.8174 11.8376C73.0885 11.9083 73.3654 12.032 73.6483 12.2088L72.5876 14.1888C72.4579 14.1181 72.2929 14.0532 72.0926 13.9943C71.8922 13.9354 71.6919 13.9059 71.4915 13.9059C71.2558 13.9059 71.026 13.9472 70.8021 14.0297C70.5899 14.1122 70.3955 14.2418 70.2187 14.4186C70.0537 14.5954 69.9182 14.8311 69.8121 15.1257C69.765 15.2907 69.7237 15.5028 69.6884 15.7621C69.6648 16.0096 69.653 16.375 69.653 16.8582V20.606H67.4432ZM78.3403 20.7827C77.6332 20.7827 77.0145 20.659 76.4841 20.4115C75.9656 20.1522 75.5236 19.8104 75.1582 19.3862C74.8047 18.9619 74.5395 18.4787 74.3627 17.9365C74.1859 17.3944 74.0976 16.8287 74.0976 16.2394C74.0976 15.662 74.1859 15.1021 74.3627 14.56C74.5395 14.0179 74.8047 13.5347 75.1582 13.1104C75.5236 12.6861 75.9656 12.3502 76.4841 12.1027C77.0145 11.8435 77.6332 11.7138 78.3403 11.7138C79.2242 11.7138 79.9903 11.926 80.6385 12.3502C81.2867 12.7745 81.7699 13.4168 82.0881 14.2772L80.1789 15.0373C80.0374 14.6248 79.8194 14.2889 79.5248 14.0297C79.2419 13.7586 78.8471 13.6231 78.3403 13.6231C77.8689 13.6231 77.48 13.7527 77.1736 14.012C76.8671 14.2595 76.6432 14.5836 76.5018 14.9843C76.3604 15.385 76.2897 15.8034 76.2897 16.2394C76.2897 16.6755 76.3604 17.0998 76.5018 17.5123C76.6432 17.913 76.8671 18.243 77.1736 18.5022C77.48 18.7497 77.8689 18.8735 78.3403 18.8735C78.8471 18.8735 79.2419 18.7439 79.5248 18.4846C79.8194 18.2135 80.0374 17.8658 80.1789 17.4416L82.0881 18.2017C81.7699 19.0738 81.2867 19.722 80.6385 20.1463C79.9903 20.5706 79.2242 20.7827 78.3403 20.7827ZM85.7733 20.7827C85.1723 20.7827 84.6773 20.6001 84.2884 20.2347C83.8994 19.8694 83.705 19.2919 83.705 18.5022V8.28424H85.8794V18.078C85.8794 18.3255 85.9383 18.5022 86.0562 18.6083C86.174 18.7026 86.3272 18.7497 86.5158 18.7497C86.6101 18.7497 86.7103 18.7439 86.8163 18.7321C86.9224 18.7085 87.0344 18.679 87.1522 18.6437V20.5176C86.9047 20.6118 86.6572 20.6767 86.4097 20.712C86.174 20.7592 85.9619 20.7827 85.7733 20.7827ZM92.5497 20.7827C91.7955 20.7827 91.1473 20.659 90.6051 20.4115C90.063 20.164 89.6152 19.834 89.2616 19.4215C88.9198 18.9972 88.6664 18.5199 88.5014 17.9896C88.3364 17.4474 88.2539 16.8817 88.2539 16.2925C88.2539 15.7268 88.3364 15.1729 88.5014 14.6307C88.6664 14.0886 88.9139 13.5995 89.2439 13.1634C89.5739 12.7274 89.9982 12.3797 90.5167 12.1204C91.0471 11.8493 91.6776 11.7138 92.4083 11.7138C93.0919 11.7138 93.687 11.8317 94.1938 12.0674C94.7006 12.2913 95.119 12.6095 95.449 13.022C95.779 13.4227 96.0265 13.8941 96.1915 14.4363C96.3682 14.9784 96.4566 15.5559 96.4566 16.1687C96.4566 16.2512 96.4507 16.3691 96.4389 16.5223C96.4389 16.6637 96.4272 16.8169 96.4036 16.9819H90.446C90.505 17.6066 90.7348 18.078 91.1355 18.3962C91.548 18.7144 92.0606 18.8735 92.6735 18.8735C93.1213 18.8735 93.5574 18.7969 93.9817 18.6437C94.406 18.4787 94.7831 18.2489 95.1131 17.9542L96.2091 19.4392C95.7966 19.7574 95.4077 20.0167 95.0424 20.217C94.677 20.4174 94.294 20.5588 93.8933 20.6413C93.5044 20.7356 93.0565 20.7827 92.5497 20.7827ZM94.2822 15.8859C94.3058 15.7916 94.3235 15.6973 94.3352 15.603C94.3588 15.5087 94.3706 15.4203 94.3706 15.3378C94.3706 15.0904 94.3235 14.8605 94.2292 14.6484C94.1349 14.4245 94.0052 14.23 93.8402 14.065C93.6753 13.9 93.4749 13.7763 93.2392 13.6938C93.0153 13.5995 92.756 13.5524 92.4613 13.5524C92.0253 13.5524 91.6599 13.6407 91.3653 13.8175C91.0707 13.9943 90.8467 14.2241 90.6935 14.507C90.5521 14.778 90.4637 15.0609 90.4284 15.3555H95.0247L94.2822 15.8859ZM102.923 20.606V8.28424H111.161V10.3349H105.203V13.2695H110.383V15.3025H105.203V20.606H102.923ZM112.657 20.606V11.8906H114.849V20.606H112.657ZM112.586 10.5471V8.28424H114.937V10.5471H112.586ZM117.008 20.606V11.8906H119.218V13.8706L118.864 13.9059C119.017 13.3756 119.241 12.9513 119.536 12.6331C119.83 12.3149 120.172 12.0851 120.561 11.9436C120.95 11.7904 121.351 11.7138 121.763 11.7138C122.753 11.7138 123.525 11.9967 124.079 12.5624C124.645 13.1163 124.928 13.9 124.928 14.9136V20.606H122.718V15.7268C122.718 14.9961 122.588 14.4657 122.329 14.1357C122.07 13.794 121.663 13.6231 121.109 13.6231C120.685 13.6231 120.331 13.7232 120.048 13.9236C119.777 14.1122 119.571 14.4127 119.43 14.8252C119.288 15.2377 119.218 15.7739 119.218 16.4339V20.606H117.008ZM132.573 20.606L132.396 19.2978V15.108C132.396 14.5895 132.231 14.2064 131.901 13.9589C131.583 13.6997 131.147 13.57 130.593 13.57C130.133 13.57 129.662 13.6643 129.178 13.8529C128.707 14.0297 128.289 14.283 127.923 14.613L126.81 13.1104C127.422 12.6154 128.047 12.2618 128.683 12.0497C129.332 11.8258 130.027 11.7138 130.769 11.7138C131.972 11.7138 132.909 12.0143 133.58 12.6154C134.252 13.2165 134.588 14.0473 134.588 15.108V20.606H132.573ZM129.939 20.7827C129.302 20.7827 128.731 20.6649 128.224 20.4292C127.729 20.1935 127.334 19.8576 127.039 19.4215C126.757 18.9855 126.615 18.4846 126.615 17.9189C126.615 17.4121 126.715 16.9819 126.916 16.6284C127.128 16.263 127.405 15.9861 127.747 15.7975C128.041 15.6207 128.365 15.497 128.719 15.4262C129.084 15.3555 129.473 15.3202 129.886 15.3202H132.59V16.9466H130.204C130.015 16.9466 129.827 16.9642 129.638 16.9996C129.461 17.0232 129.308 17.088 129.178 17.1941C129.061 17.2766 128.972 17.3826 128.913 17.5123C128.854 17.6301 128.825 17.7657 128.825 17.9189C128.825 18.2489 128.955 18.514 129.214 18.7144C129.473 18.9147 129.821 19.0149 130.257 19.0149C130.646 19.0149 130.999 18.9324 131.318 18.7674C131.648 18.5906 131.907 18.3549 132.095 18.0603C132.296 17.7539 132.396 17.4062 132.396 17.0173L132.979 18.184C132.826 18.7969 132.59 19.2978 132.272 19.6867C131.966 20.0638 131.612 20.3408 131.211 20.5176C130.811 20.6943 130.386 20.7827 129.939 20.7827ZM136.637 20.606V11.8906H138.847V13.8706L138.493 13.9059C138.646 13.3756 138.87 12.9513 139.165 12.6331C139.459 12.3149 139.801 12.0851 140.19 11.9436C140.579 11.7904 140.98 11.7138 141.392 11.7138C142.382 11.7138 143.154 11.9967 143.708 12.5624C144.274 13.1163 144.557 13.9 144.557 14.9136V20.606H142.347V15.7268C142.347 14.9961 142.217 14.4657 141.958 14.1357C141.699 13.794 141.292 13.6231 140.738 13.6231C140.314 13.6231 139.96 13.7232 139.678 13.9236C139.406 14.1122 139.2 14.4127 139.059 14.8252C138.917 15.2377 138.847 15.7739 138.847 16.4339V20.606H136.637ZM150.452 20.7827C149.744 20.7827 149.126 20.659 148.595 20.4115C148.077 20.1522 147.635 19.8104 147.269 19.3862C146.916 18.9619 146.651 18.4787 146.474 17.9365C146.297 17.3944 146.209 16.8287 146.209 16.2394C146.209 15.662 146.297 15.1021 146.474 14.56C146.651 14.0179 146.916 13.5347 147.269 13.1104C147.635 12.6861 148.077 12.3502 148.595 12.1027C149.126 11.8435 149.744 11.7138 150.452 11.7138C151.335 11.7138 152.102 11.926 152.75 12.3502C153.398 12.7745 153.881 13.4168 154.199 14.2772L152.29 15.0373C152.149 14.6248 151.931 14.2889 151.636 14.0297C151.353 13.7586 150.958 13.6231 150.452 13.6231C149.98 13.6231 149.591 13.7527 149.285 14.012C148.978 14.2595 148.754 14.5836 148.613 14.9843C148.472 15.385 148.401 15.8034 148.401 16.2394C148.401 16.6755 148.472 17.0998 148.613 17.5123C148.754 17.913 148.978 18.243 149.285 18.5022C149.591 18.7497 149.98 18.8735 150.452 18.8735C150.958 18.8735 151.353 18.7439 151.636 18.4846C151.931 18.2135 152.149 17.8658 152.29 17.4416L154.199 18.2017C153.881 19.0738 153.398 19.722 152.75 20.1463C152.102 20.5706 151.335 20.7827 150.452 20.7827ZM159.741 20.7827C158.986 20.7827 158.338 20.659 157.796 20.4115C157.254 20.164 156.806 19.834 156.453 19.4215C156.111 18.9972 155.857 18.5199 155.692 17.9896C155.527 17.4474 155.445 16.8817 155.445 16.2925C155.445 15.7268 155.527 15.1729 155.692 14.6307C155.857 14.0886 156.105 13.5995 156.435 13.1634C156.765 12.7274 157.189 12.3797 157.708 12.1204C158.238 11.8493 158.869 11.7138 159.599 11.7138C160.283 11.7138 160.878 11.8317 161.385 12.0674C161.892 12.2913 162.31 12.6095 162.64 13.022C162.97 13.4227 163.217 13.8941 163.382 14.4363C163.559 14.9784 163.648 15.5559 163.648 16.1687C163.648 16.2512 163.642 16.3691 163.63 16.5223C163.63 16.6637 163.618 16.8169 163.595 16.9819H157.637C157.696 17.6066 157.926 18.078 158.326 18.3962C158.739 18.7144 159.252 18.8735 159.865 18.8735C160.312 18.8735 160.748 18.7969 161.173 18.6437C161.597 18.4787 161.974 18.2489 162.304 17.9542L163.4 19.4392C162.988 19.7574 162.599 20.0167 162.233 20.217C161.868 20.4174 161.485 20.5588 161.084 20.6413C160.695 20.7356 160.248 20.7827 159.741 20.7827ZM161.473 15.8859C161.497 15.7916 161.514 15.6973 161.526 15.603C161.55 15.5087 161.562 15.4203 161.562 15.3378C161.562 15.0904 161.514 14.8605 161.42 14.6484C161.326 14.4245 161.196 14.23 161.031 14.065C160.866 13.9 160.666 13.7763 160.43 13.6938C160.206 13.5995 159.947 13.5524 159.652 13.5524C159.216 13.5524 158.851 13.6407 158.556 13.8175C158.262 13.9943 158.038 14.2241 157.885 14.507C157.743 14.778 157.655 15.0609 157.619 15.3555H162.216L161.473 15.8859Z" fill="black"/>
<path d="M53.0402 36.7275H52.224L54.5845 30.2991H55.388L57.7485 36.7275H56.9324L55.0114 31.3161H54.9612L53.0402 36.7275ZM53.3415 34.2164H56.631V34.907H53.3415V34.2164ZM59.3901 30.2991V36.7275H58.6493V30.2991H59.3901ZM62.8437 31.9062V32.534H60.3451V31.9062H62.8437ZM61.0734 30.7511H61.8141V35.3464C61.8141 35.5557 61.8445 35.7126 61.9052 35.8173C61.9679 35.9198 62.0475 35.9889 62.1437 36.0244C62.2421 36.0579 62.3456 36.0747 62.4545 36.0747C62.5361 36.0747 62.603 36.0705 62.6554 36.0621C62.7077 36.0516 62.7495 36.0433 62.7809 36.037L62.9316 36.7024C62.8814 36.7213 62.8113 36.7401 62.7213 36.7589C62.6313 36.7799 62.5172 36.7903 62.3791 36.7903C62.1699 36.7903 61.9648 36.7453 61.7639 36.6553C61.5651 36.5654 61.3998 36.4283 61.268 36.2442C61.1382 36.06 61.0734 35.8277 61.0734 35.5473V30.7511ZM65.9276 36.828C65.4631 36.828 65.0624 36.7254 64.7254 36.5204C64.3906 36.3132 64.1322 36.0244 63.9501 35.654C63.7702 35.2816 63.6802 34.8484 63.6802 34.3545C63.6802 33.8607 63.7702 33.4254 63.9501 33.0488C64.1322 32.67 64.3854 32.3749 64.7098 32.1636C65.0362 31.9502 65.417 31.8434 65.8523 31.8434C66.1034 31.8434 66.3514 31.8853 66.5962 31.969C66.8411 32.0527 67.0639 32.1887 67.2648 32.377C67.4657 32.5633 67.6258 32.8102 67.7451 33.1178C67.8643 33.4254 67.924 33.8042 67.924 34.2541V34.568H64.2075V33.9277H67.1706C67.1706 33.6556 67.1162 33.4129 67.0074 33.1994C66.9007 32.986 66.7479 32.8175 66.5491 32.6941C66.3524 32.5706 66.1202 32.5089 65.8523 32.5089C65.5573 32.5089 65.302 32.5821 65.0864 32.7286C64.873 32.873 64.7087 33.0613 64.5936 33.2936C64.4785 33.5259 64.421 33.7749 64.421 34.0407V34.4675C64.421 34.8317 64.4838 35.1403 64.6093 35.3935C64.737 35.6446 64.9138 35.8361 65.1398 35.9679C65.3658 36.0977 65.6284 36.1625 65.9276 36.1625C66.1223 36.1625 66.298 36.1353 66.455 36.0809C66.614 36.0244 66.7511 35.9407 66.8662 35.8298C66.9813 35.7168 67.0702 35.5766 67.133 35.4092L67.8486 35.6101C67.7733 35.8528 67.6467 36.0663 67.4688 36.2504C67.291 36.4325 67.0712 36.5748 66.8097 36.6773C66.5481 36.7778 66.2541 36.828 65.9276 36.828ZM69.0508 36.7275V31.9062H69.7665V32.6344H69.8167C69.9046 32.3959 70.0636 32.2023 70.2938 32.0537C70.524 31.9052 70.7835 31.8309 71.0723 31.8309C71.1267 31.8309 71.1947 31.8319 71.2763 31.834C71.3579 31.8361 71.4196 31.8392 71.4615 31.8434V32.5968C71.4364 32.5905 71.3788 32.5811 71.2889 32.5685C71.201 32.5539 71.1079 32.5465 71.0095 32.5465C70.7751 32.5465 70.5659 32.5957 70.3817 32.6941C70.1997 32.7903 70.0553 32.9243 69.9486 33.0958C69.8439 33.2653 69.7916 33.4589 69.7916 33.6765V36.7275H69.0508ZM73.0804 33.8272V36.7275H72.3396V31.9062H73.0553V32.6595H73.118C73.231 32.4147 73.4026 32.218 73.6328 32.0694C73.863 31.9188 74.1602 31.8434 74.5243 31.8434C74.8507 31.8434 75.1364 31.9104 75.3812 32.0443C75.626 32.1762 75.8164 32.377 75.9525 32.647C76.0885 32.9148 76.1565 33.2538 76.1565 33.664V36.7275H75.4157V33.7142C75.4157 33.3354 75.3174 33.0404 75.1207 32.829C74.924 32.6156 74.654 32.5089 74.3108 32.5089C74.0744 32.5089 73.863 32.5601 73.6768 32.6627C73.4926 32.7652 73.3472 32.9148 73.2405 33.1115C73.1337 33.3082 73.0804 33.5468 73.0804 33.8272ZM78.9289 36.8405C78.6234 36.8405 78.3461 36.783 78.0971 36.6679C77.8481 36.5507 77.6503 36.3823 77.5039 36.1625C77.3574 35.9407 77.2841 35.6729 77.2841 35.359C77.2841 35.0828 77.3385 34.8589 77.4474 34.6873C77.5562 34.5136 77.7016 34.3776 77.8837 34.2792C78.0657 34.1809 78.2666 34.1076 78.4863 34.0595C78.7081 34.0093 78.931 33.9695 79.1549 33.9402C79.4479 33.9025 79.6854 33.8743 79.8674 33.8555C80.0516 33.8345 80.1855 33.8 80.2692 33.7519C80.355 33.7037 80.3979 33.62 80.3979 33.5008V33.4757C80.3979 33.1659 80.3132 32.9253 80.1437 32.7537C79.9763 32.5821 79.722 32.4963 79.3809 32.4963C79.0273 32.4963 78.75 32.5737 78.5491 32.7286C78.3482 32.8834 78.207 33.0488 78.1254 33.2245L77.4222 32.9734C77.5478 32.6805 77.7152 32.4524 77.9245 32.2892C78.1358 32.1238 78.366 32.0087 78.615 31.9439C78.8661 31.8769 79.1131 31.8434 79.3558 31.8434C79.5107 31.8434 79.6885 31.8623 79.8894 31.8999C80.0924 31.9355 80.288 32.0098 80.4764 32.1228C80.6668 32.2358 80.8248 32.4063 80.9504 32.6344C81.0759 32.8625 81.1387 33.168 81.1387 33.551V36.7275H80.3979V36.0747H80.3602C80.31 36.1793 80.2263 36.2912 80.1091 36.4105C79.9919 36.5298 79.836 36.6313 79.6414 36.715C79.4468 36.7987 79.2093 36.8405 78.9289 36.8405ZM79.0419 36.1751C79.3349 36.1751 79.5818 36.1175 79.7827 36.0025C79.9857 35.8874 80.1384 35.7388 80.241 35.5567C80.3456 35.3747 80.3979 35.1832 80.3979 34.9823V34.3043C80.3665 34.342 80.2975 34.3765 80.1907 34.4079C80.0861 34.4372 79.9647 34.4634 79.8266 34.4864C79.6906 34.5073 79.5577 34.5261 79.428 34.5429C79.3003 34.5575 79.1968 34.5701 79.1172 34.5805C78.9247 34.6057 78.7448 34.6465 78.5774 34.703C78.412 34.7574 78.2781 34.84 78.1756 34.9509C78.0751 35.0597 78.0249 35.2083 78.0249 35.3967C78.0249 35.654 78.1201 35.8487 78.3106 35.9805C78.5031 36.1102 78.7469 36.1751 79.0419 36.1751ZM84.5875 31.9062V32.534H82.089V31.9062H84.5875ZM82.8172 30.7511H83.558V35.3464C83.558 35.5557 83.5883 35.7126 83.649 35.8173C83.7118 35.9198 83.7913 35.9889 83.8876 36.0244C83.9859 36.0579 84.0895 36.0747 84.1983 36.0747C84.2799 36.0747 84.3469 36.0705 84.3992 36.0621C84.4515 36.0516 84.4934 36.0433 84.5248 36.037L84.6754 36.7024C84.6252 36.7213 84.5551 36.7401 84.4651 36.7589C84.3751 36.7799 84.2611 36.7903 84.123 36.7903C83.9137 36.7903 83.7087 36.7453 83.5078 36.6553C83.309 36.5654 83.1437 36.4283 83.0118 36.2442C82.8821 36.06 82.8172 35.8277 82.8172 35.5473V30.7511ZM85.7018 36.7275V31.9062H86.4426V36.7275H85.7018ZM86.0785 31.1027C85.9341 31.1027 85.8096 31.0535 85.705 30.9551C85.6024 30.8568 85.5512 30.7385 85.5512 30.6004C85.5512 30.4623 85.6024 30.3441 85.705 30.2457C85.8096 30.1474 85.9341 30.0982 86.0785 30.0982C86.2229 30.0982 86.3464 30.1474 86.4489 30.2457C86.5535 30.3441 86.6058 30.4623 86.6058 30.6004C86.6058 30.7385 86.5535 30.8568 86.4489 30.9551C86.3464 31.0535 86.2229 31.1027 86.0785 31.1027ZM91.7418 31.9062L89.959 36.7275H89.2056L87.4227 31.9062H88.2263L89.5572 35.7482H89.6074L90.9383 31.9062H91.7418ZM94.5684 36.828C94.1039 36.828 93.7031 36.7254 93.3662 36.5204C93.0314 36.3132 92.773 36.0244 92.5909 35.654C92.411 35.2816 92.321 34.8484 92.321 34.3545C92.321 33.8607 92.411 33.4254 92.5909 33.0488C92.773 32.67 93.0262 32.3749 93.3505 32.1636C93.677 31.9502 94.0578 31.8434 94.4931 31.8434C94.7442 31.8434 94.9922 31.8853 95.237 31.969C95.4818 32.0527 95.7047 32.1887 95.9056 32.377C96.1065 32.5633 96.2666 32.8102 96.3858 33.1178C96.5051 33.4254 96.5647 33.8042 96.5647 34.2541V34.568H92.8483V33.9277H95.8114C95.8114 33.6556 95.757 33.4129 95.6482 33.1994C95.5415 32.986 95.3887 32.8175 95.1899 32.6941C94.9932 32.5706 94.7609 32.5089 94.4931 32.5089C94.198 32.5089 93.9427 32.5821 93.7272 32.7286C93.5137 32.873 93.3495 33.0613 93.2344 33.2936C93.1193 33.5259 93.0617 33.7749 93.0617 34.0407V34.4675C93.0617 34.8317 93.1245 35.1403 93.2501 35.3935C93.3777 35.6446 93.5546 35.8361 93.7806 35.9679C94.0066 36.0977 94.2692 36.1625 94.5684 36.1625C94.763 36.1625 94.9388 36.1353 95.0957 36.0809C95.2548 36.0244 95.3919 35.9407 95.5069 35.8298C95.622 35.7168 95.711 35.5766 95.7737 35.4092L96.4894 35.6101C96.4141 35.8528 96.2875 36.0663 96.1096 36.2504C95.9317 36.4325 95.712 36.5748 95.4504 36.6773C95.1889 36.7778 94.8949 36.828 94.5684 36.828ZM100.278 36.7275V30.2991H104.133V30.9897H101.056V33.1618H103.844V33.8523H101.056V36.7275H100.278ZM105.365 36.7275V31.9062H106.106V36.7275H105.365ZM105.742 31.1027C105.598 31.1027 105.473 31.0535 105.369 30.9551C105.266 30.8568 105.215 30.7385 105.215 30.6004C105.215 30.4623 105.266 30.3441 105.369 30.2457C105.473 30.1474 105.598 30.0982 105.742 30.0982C105.886 30.0982 106.01 30.1474 106.112 30.2457C106.217 30.3441 106.269 30.4623 106.269 30.6004C106.269 30.7385 106.217 30.8568 106.112 30.9551C106.01 31.0535 105.886 31.1027 105.742 31.1027ZM108.204 33.8272V36.7275H107.463V31.9062H108.179V32.6595H108.241C108.354 32.4147 108.526 32.218 108.756 32.0694C108.986 31.9188 109.284 31.8434 109.648 31.8434C109.974 31.8434 110.26 31.9104 110.505 32.0443C110.749 32.1762 110.94 32.377 111.076 32.647C111.212 32.9148 111.28 33.2538 111.28 33.664V36.7275H110.539V33.7142C110.539 33.3354 110.441 33.0404 110.244 32.829C110.047 32.6156 109.777 32.5089 109.434 32.5089C109.198 32.5089 108.986 32.5601 108.8 32.6627C108.616 32.7652 108.471 32.9148 108.364 33.1115C108.257 33.3082 108.204 33.5468 108.204 33.8272ZM114.052 36.8405C113.747 36.8405 113.469 36.783 113.22 36.6679C112.971 36.5507 112.774 36.3823 112.627 36.1625C112.481 35.9407 112.407 35.6729 112.407 35.359C112.407 35.0828 112.462 34.8589 112.571 34.6873C112.68 34.5136 112.825 34.3776 113.007 34.2792C113.189 34.1809 113.39 34.1076 113.61 34.0595C113.832 34.0093 114.054 33.9695 114.278 33.9402C114.571 33.9025 114.809 33.8743 114.991 33.8555C115.175 33.8345 115.309 33.8 115.393 33.7519C115.478 33.7037 115.521 33.62 115.521 33.5008V33.4757C115.521 33.1659 115.437 32.9253 115.267 32.7537C115.1 32.5821 114.845 32.4963 114.504 32.4963C114.151 32.4963 113.873 32.5737 113.672 32.7286C113.472 32.8834 113.33 33.0488 113.249 33.2245L112.546 32.9734C112.671 32.6805 112.839 32.4524 113.048 32.2892C113.259 32.1238 113.489 32.0087 113.738 31.9439C113.989 31.8769 114.236 31.8434 114.479 31.8434C114.634 31.8434 114.812 31.8623 115.013 31.8999C115.216 31.9355 115.411 32.0098 115.6 32.1228C115.79 32.2358 115.948 32.4063 116.074 32.6344C116.199 32.8625 116.262 33.168 116.262 33.551V36.7275H115.521V36.0747H115.484C115.433 36.1793 115.35 36.2912 115.232 36.4105C115.115 36.5298 114.959 36.6313 114.765 36.715C114.57 36.7987 114.333 36.8405 114.052 36.8405ZM114.165 36.1751C114.458 36.1751 114.705 36.1175 114.906 36.0025C115.109 35.8874 115.262 35.7388 115.364 35.5567C115.469 35.3747 115.521 35.1832 115.521 34.9823V34.3043C115.49 34.342 115.421 34.3765 115.314 34.4079C115.209 34.4372 115.088 34.4634 114.95 34.4864C114.814 34.5073 114.681 34.5261 114.551 34.5429C114.424 34.5575 114.32 34.5701 114.241 34.5805C114.048 34.6057 113.868 34.6465 113.701 34.703C113.535 34.7574 113.401 34.84 113.299 34.9509C113.198 35.0597 113.148 35.2083 113.148 35.3967C113.148 35.654 113.243 35.8487 113.434 35.9805C113.626 36.1102 113.87 36.1751 114.165 36.1751ZM118.355 33.8272V36.7275H117.614V31.9062H118.33V32.6595H118.393C118.506 32.4147 118.677 32.218 118.907 32.0694C119.138 31.9188 119.435 31.8434 119.799 31.8434C120.125 31.8434 120.411 31.9104 120.656 32.0443C120.901 32.1762 121.091 32.377 121.227 32.647C121.363 32.9148 121.431 33.2538 121.431 33.664V36.7275H120.69V33.7142C120.69 33.3354 120.592 33.0404 120.395 32.829C120.198 32.6156 119.929 32.5089 119.585 32.5089C119.349 32.5089 119.138 32.5601 118.951 32.6627C118.767 32.7652 118.622 32.9148 118.515 33.1115C118.408 33.3082 118.355 33.5468 118.355 33.8272ZM124.743 36.828C124.291 36.828 123.902 36.7213 123.576 36.5078C123.249 36.2944 122.998 36.0004 122.822 35.6258C122.647 35.2512 122.559 34.8233 122.559 34.342C122.559 33.8523 122.649 33.4202 122.829 33.0456C123.011 32.669 123.264 32.3749 123.588 32.1636C123.915 31.9502 124.296 31.8434 124.731 31.8434C125.07 31.8434 125.375 31.9062 125.647 32.0318C125.919 32.1573 126.142 32.3331 126.316 32.5591C126.49 32.7851 126.597 33.0488 126.639 33.3501H125.898C125.842 33.1304 125.716 32.9358 125.522 32.7663C125.329 32.5947 125.07 32.5089 124.743 32.5089C124.455 32.5089 124.201 32.5842 123.984 32.7349C123.768 32.8834 123.6 33.0938 123.478 33.3658C123.359 33.6357 123.299 33.9528 123.299 34.3169C123.299 34.6894 123.358 35.0137 123.475 35.2899C123.594 35.5662 123.762 35.7806 123.977 35.9334C124.195 36.0862 124.45 36.1625 124.743 36.1625C124.936 36.1625 125.111 36.1291 125.268 36.0621C125.424 35.9951 125.557 35.8989 125.666 35.7733C125.775 35.6478 125.852 35.4971 125.898 35.3213H126.639C126.597 35.6059 126.494 35.8623 126.328 36.0903C126.165 36.3163 125.949 36.4963 125.679 36.6302C125.411 36.7621 125.099 36.828 124.743 36.828ZM129.744 36.828C129.279 36.828 128.878 36.7254 128.541 36.5204C128.207 36.3132 127.948 36.0244 127.766 35.654C127.586 35.2816 127.496 34.8484 127.496 34.3545C127.496 33.8607 127.586 33.4254 127.766 33.0488C127.948 32.67 128.201 32.3749 128.526 32.1636C128.852 31.9502 129.233 31.8434 129.668 31.8434C129.919 31.8434 130.167 31.8853 130.412 31.969C130.657 32.0527 130.88 32.1887 131.081 32.377C131.282 32.5633 131.442 32.8102 131.561 33.1178C131.68 33.4254 131.74 33.8042 131.74 34.2541V34.568H128.023V33.9277H130.987C130.987 33.6556 130.932 33.4129 130.823 33.1994C130.717 32.986 130.564 32.8175 130.365 32.6941C130.168 32.5706 129.936 32.5089 129.668 32.5089C129.373 32.5089 129.118 32.5821 128.902 32.7286C128.689 32.873 128.525 33.0613 128.41 33.2936C128.294 33.5259 128.237 33.7749 128.237 34.0407V34.4675C128.237 34.8317 128.3 35.1403 128.425 35.3935C128.553 35.6446 128.73 35.8361 128.956 35.9679C129.182 36.0977 129.444 36.1625 129.744 36.1625C129.938 36.1625 130.114 36.1353 130.271 36.0809C130.43 36.0244 130.567 35.9407 130.682 35.8298C130.797 35.7168 130.886 35.5766 130.949 35.4092L131.665 35.6101C131.589 35.8528 131.463 36.0663 131.285 36.2504C131.107 36.4325 130.887 36.5748 130.626 36.6773C130.364 36.7778 130.07 36.828 129.744 36.828ZM135.453 36.7275V30.2991H139.308V30.9897H136.232V33.1618H139.019V33.8523H136.232V36.7275H135.453ZM142.499 36.828C142.064 36.828 141.682 36.7244 141.354 36.5172C141.027 36.3101 140.772 36.0202 140.588 35.6478C140.406 35.2753 140.315 34.84 140.315 34.342C140.315 33.8398 140.406 33.4014 140.588 33.0268C140.772 32.6522 141.027 32.3613 141.354 32.1542C141.682 31.947 142.064 31.8434 142.499 31.8434C142.934 31.8434 143.315 31.947 143.642 32.1542C143.97 32.3613 144.226 32.6522 144.408 33.0268C144.592 33.4014 144.684 33.8398 144.684 34.342C144.684 34.84 144.592 35.2753 144.408 35.6478C144.226 36.0202 143.97 36.3101 143.642 36.5172C143.315 36.7244 142.934 36.828 142.499 36.828ZM142.499 36.1625C142.83 36.1625 143.102 36.0778 143.315 35.9083C143.529 35.7388 143.687 35.5159 143.789 35.2397C143.892 34.9635 143.943 34.6642 143.943 34.342C143.943 34.0197 143.892 33.7194 143.789 33.4411C143.687 33.1628 143.529 32.9379 143.315 32.7663C143.102 32.5947 142.83 32.5089 142.499 32.5089C142.169 32.5089 141.897 32.5947 141.683 32.7663C141.47 32.9379 141.312 33.1628 141.209 33.4411C141.107 33.7194 141.055 34.0197 141.055 34.342C141.055 34.6642 141.107 34.9635 141.209 35.2397C141.312 35.5159 141.47 35.7388 141.683 35.9083C141.897 36.0778 142.169 36.1625 142.499 36.1625ZM145.815 36.7275V31.9062H146.53V32.6344H146.581C146.668 32.3959 146.827 32.2023 147.058 32.0537C147.288 31.9052 147.547 31.8309 147.836 31.8309C147.891 31.8309 147.959 31.8319 148.04 31.834C148.122 31.8361 148.183 31.8392 148.225 31.8434V32.5968C148.2 32.5905 148.143 32.5811 148.053 32.5685C147.965 32.5539 147.872 32.5465 147.773 32.5465C147.539 32.5465 147.33 32.5957 147.146 32.6941C146.963 32.7903 146.819 32.9243 146.712 33.0958C146.608 33.2653 146.555 33.4589 146.555 33.6765V36.7275H145.815ZM151.954 36.7275H151.137L153.498 30.2991H154.301L156.662 36.7275H155.846L153.925 31.3161H153.875L151.954 36.7275ZM152.255 34.2164H155.544V34.907H152.255V34.2164ZM158.304 30.2991V36.7275H157.563V30.2991H158.304ZM160.401 30.2991V36.7275H159.66V30.2991H160.401Z" fill="black"/>
</svg>
