<svg width="104" height="105" viewBox="0 0 104 105" fill="none" xmlns="http://www.w3.org/2000/svg">
<rect opacity="0.1" y="0.5" width="104" height="104" rx="52" fill="#DD3737"/>
<path d="M62.6654 31.8335C62.6654 35.1402 59.972 37.8335 56.6654 37.8335H47.332C45.6787 37.8335 44.1854 37.1668 43.092 36.0735C41.9987 34.9802 41.332 33.4868 41.332 31.8335C41.332 28.5268 44.0254 25.8335 47.332 25.8335H56.6654C58.3187 25.8335 59.812 26.5002 60.9054 27.5935C61.9987 28.6868 62.6654 30.1802 62.6654 31.8335Z" fill="#1D3149"/>
<path d="M70.2146 33.9132C69.6013 33.4066 68.908 33.0066 68.1613 32.7132C67.388 32.4199 66.6146 33.0332 66.4546 33.8332C65.548 38.3932 61.5213 41.8332 56.668 41.8332H47.3346C44.668 41.8332 42.1613 40.7932 40.268 38.8999C38.8813 37.5132 37.9213 35.7532 37.548 33.8599C37.388 33.0599 36.588 32.4199 35.8146 32.7399C32.7213 33.9932 30.668 36.8199 30.668 42.4999V68.4999C30.668 76.4999 35.4413 79.1666 41.3346 79.1666H62.668C68.5613 79.1666 73.3346 76.4999 73.3346 68.4999V42.4999C73.3346 38.1532 72.1346 35.4866 70.2146 33.9132ZM41.3346 53.1666H52.0013C53.0946 53.1666 54.0013 54.0732 54.0013 55.1666C54.0013 56.2599 53.0946 57.1666 52.0013 57.1666H41.3346C40.2413 57.1666 39.3346 56.2599 39.3346 55.1666C39.3346 54.0732 40.2413 53.1666 41.3346 53.1666ZM62.668 67.8332H41.3346C40.2413 67.8332 39.3346 66.9266 39.3346 65.8332C39.3346 64.7399 40.2413 63.8332 41.3346 63.8332H62.668C63.7613 63.8332 64.668 64.7399 64.668 65.8332C64.668 66.9266 63.7613 67.8332 62.668 67.8332Z" fill="#DD3737"/>
</svg>
