<svg width="183" height="192" viewBox="0 0 183 192" fill="none" xmlns="http://www.w3.org/2000/svg">
<rect width="183" height="192" fill="#F2F2F2"/>
<rect y="40" width="183" height="1" fill="#E6E6E6"/>
<path d="M92.0016 101.6C84.0672 101.6 77.6016 108.065 77.6016 116C77.6016 123.934 84.0672 130.4 92.0016 130.4C99.936 130.4 106.402 123.934 106.402 116C106.402 108.065 99.936 101.6 92.0016 101.6ZM97.7616 117.08H93.0816V121.76C93.0816 122.35 92.592 122.84 92.0016 122.84C91.4112 122.84 90.9216 122.35 90.9216 121.76V117.08H86.2416C85.6512 117.08 85.1616 116.59 85.1616 116C85.1616 115.409 85.6512 114.92 86.2416 114.92H90.9216V110.24C90.9216 109.649 91.4112 109.16 92.0016 109.16C92.592 109.16 93.0816 109.649 93.0816 110.24V114.92H97.7616C98.352 114.92 98.8416 115.409 98.8416 116C98.8416 116.59 98.352 117.08 97.7616 117.08Z" fill="#214660"/>
<rect x="69" y="93" width="46" height="46" rx="23" stroke="#FC8A8A" stroke-width="2" stroke-dasharray="4 4"/>
<path d="M41.0275 17.6719C40.9877 17.2997 40.8201 17.0099 40.5247 16.8026C40.2321 16.5952 39.8514 16.4915 39.3826 16.4915C39.0531 16.4915 38.7704 16.5412 38.5346 16.6406C38.2988 16.7401 38.1184 16.875 37.9934 17.0455C37.8684 17.2159 37.8045 17.4105 37.8017 17.6293C37.8017 17.8111 37.8429 17.9687 37.9252 18.1023C38.0105 18.2358 38.1255 18.3494 38.2704 18.4432C38.4153 18.5341 38.5758 18.6108 38.752 18.6733C38.9281 18.7358 39.1056 18.7884 39.2846 18.831L40.1028 19.0355C40.4324 19.1122 40.7491 19.2159 41.0531 19.3466C41.3599 19.4773 41.6341 19.642 41.8755 19.8409C42.1199 20.0398 42.313 20.2798 42.4551 20.5611C42.5971 20.8423 42.6681 21.1719 42.6681 21.5497C42.6681 22.0611 42.5375 22.5114 42.2761 22.9006C42.0147 23.2869 41.6369 23.5895 41.1426 23.8082C40.6511 24.0241 40.0559 24.1321 39.3571 24.1321C38.6781 24.1321 38.0886 24.027 37.5886 23.8168C37.0914 23.6065 36.7022 23.2997 36.421 22.8963C36.1426 22.4929 35.992 22.0014 35.9693 21.4219H37.5247C37.5474 21.7259 37.6412 21.9787 37.8059 22.1804C37.9707 22.3821 38.1852 22.5327 38.4494 22.6321C38.7164 22.7315 39.0147 22.7812 39.3443 22.7812C39.688 22.7812 39.9892 22.7301 40.2477 22.6278C40.5091 22.5227 40.7136 22.3778 40.8613 22.1932C41.0091 22.0057 41.0843 21.7869 41.0872 21.5369C41.0843 21.3097 41.0176 21.1222 40.8869 20.9744C40.7562 20.8239 40.573 20.6989 40.3372 20.5994C40.1042 20.4972 39.8315 20.4062 39.519 20.3267L38.5261 20.071C37.8074 19.8864 37.2392 19.6065 36.8216 19.2315C36.4068 18.8537 36.1994 18.3523 36.1994 17.7273C36.1994 17.2131 36.3386 16.7628 36.617 16.3764C36.8983 15.9901 37.2804 15.6903 37.7633 15.4773C38.2463 15.2614 38.7931 15.1534 39.4039 15.1534C40.0233 15.1534 40.5659 15.2614 41.0318 15.4773C41.5005 15.6903 41.8684 15.9872 42.1355 16.3679C42.4025 16.7457 42.5403 17.1804 42.5488 17.6719H41.0275ZM44.0094 24V17.4545H45.552V24H44.0094ZM44.785 16.5256C44.5407 16.5256 44.3304 16.4446 44.1543 16.2827C43.9782 16.1179 43.8901 15.9205 43.8901 15.6903C43.8901 15.4574 43.9782 15.2599 44.1543 15.098C44.3304 14.9332 44.5407 14.8509 44.785 14.8509C45.0321 14.8509 45.2424 14.9332 45.4157 15.098C45.5918 15.2599 45.6799 15.4574 45.6799 15.6903C45.6799 15.9205 45.5918 16.1179 45.4157 16.2827C45.2424 16.4446 45.0321 16.5256 44.785 16.5256ZM49.9849 26.5909C49.4309 26.5909 48.9551 26.5156 48.5574 26.3651C48.1596 26.2173 47.84 26.0185 47.5985 25.7685C47.3571 25.5185 47.1895 25.2415 47.0957 24.9375L48.4849 24.6009C48.5474 24.7287 48.6383 24.8551 48.7576 24.9801C48.877 25.108 49.0375 25.2131 49.2392 25.2955C49.4437 25.3807 49.7008 25.4233 50.0105 25.4233C50.448 25.4233 50.8102 25.3168 51.0971 25.1037C51.3841 24.8935 51.5275 24.5469 51.5275 24.0639V22.8239H51.4508C51.3713 22.983 51.2548 23.1463 51.1014 23.3139C50.9508 23.4815 50.7505 23.6222 50.5005 23.7358C50.2534 23.8494 49.9423 23.9062 49.5673 23.9062C49.0645 23.9062 48.6085 23.7884 48.1994 23.5526C47.7931 23.3139 47.4693 22.9588 47.2278 22.4872C46.9892 22.0128 46.8699 21.419 46.8699 20.706C46.8699 19.9872 46.9892 19.3807 47.2278 18.8864C47.4693 18.3892 47.7946 18.0128 48.2037 17.7571C48.6127 17.4986 49.0687 17.3693 49.5716 17.3693C49.9551 17.3693 50.2704 17.4347 50.5176 17.5653C50.7676 17.6932 50.9664 17.848 51.1142 18.0298C51.2619 18.2088 51.3741 18.3778 51.4508 18.5369H51.536V17.4545H53.0574V24.1065C53.0574 24.6662 52.9238 25.1293 52.6568 25.4957C52.3897 25.8622 52.0247 26.1364 51.5616 26.3182C51.0985 26.5 50.573 26.5909 49.9849 26.5909ZM49.9977 22.696C50.3244 22.696 50.6028 22.6165 50.8329 22.4574C51.063 22.2983 51.2377 22.0696 51.3571 21.7713C51.4764 21.473 51.536 21.1151 51.536 20.6974C51.536 20.2855 51.4764 19.9247 51.3571 19.6151C51.2406 19.3054 51.0673 19.0653 50.8372 18.8949C50.6099 18.7216 50.3301 18.6349 49.9977 18.6349C49.6539 18.6349 49.367 18.7244 49.1369 18.9034C48.9068 19.0824 48.7335 19.3281 48.617 19.6406C48.5005 19.9503 48.4423 20.3026 48.4423 20.6974C48.4423 21.098 48.5005 21.4489 48.617 21.75C48.7363 22.0483 48.911 22.2812 49.1412 22.4489C49.3741 22.6136 49.6596 22.696 49.9977 22.696ZM56.1809 20.1648V24H54.6383V17.4545H56.1127V18.5668H56.1895C56.34 18.2003 56.5801 17.9091 56.9096 17.6932C57.242 17.4773 57.6525 17.3693 58.1412 17.3693C58.5929 17.3693 58.9863 17.4659 59.3216 17.6591C59.6596 17.8523 59.921 18.1321 60.1056 18.4986C60.2931 18.8651 60.3855 19.3097 60.3826 19.8324V24H58.84V20.071C58.84 19.6335 58.7264 19.2912 58.4991 19.044C58.2747 18.7969 57.9636 18.6733 57.5659 18.6733C57.296 18.6733 57.0559 18.733 56.8457 18.8523C56.6383 18.9687 56.475 19.1378 56.3556 19.3594C56.2392 19.581 56.1809 19.8494 56.1809 20.1648ZM64.8485 24.1278C64.1923 24.1278 63.6255 23.9915 63.1483 23.7188C62.6738 23.4432 62.3088 23.054 62.0531 22.5511C61.7974 22.0455 61.6696 21.4503 61.6696 20.7656C61.6696 20.0923 61.7974 19.5014 62.0531 18.9929C62.3116 18.4815 62.6724 18.0838 63.1355 17.7997C63.5985 17.5128 64.1426 17.3693 64.7676 17.3693C65.171 17.3693 65.5517 17.4347 65.9096 17.5653C66.2704 17.6932 66.5886 17.892 66.8642 18.1619C67.1426 18.4318 67.3613 18.7756 67.5204 19.1932C67.6795 19.608 67.7591 20.1023 67.7591 20.6761V21.1491H62.394V20.1094H66.2804C66.2775 19.8139 66.2136 19.5511 66.0886 19.321C65.9636 19.0881 65.7889 18.9048 65.5645 18.7713C65.3429 18.6378 65.0843 18.571 64.7889 18.571C64.4735 18.571 64.1966 18.6477 63.9579 18.8011C63.7193 18.9517 63.5332 19.1506 63.3997 19.3977C63.269 19.642 63.2022 19.9105 63.1994 20.2031V21.1108C63.1994 21.4915 63.269 21.8182 63.4082 22.0909C63.5474 22.3608 63.742 22.5682 63.992 22.7131C64.242 22.8551 64.5346 22.9261 64.8699 22.9261C65.0943 22.9261 65.2974 22.8949 65.4792 22.8324C65.661 22.767 65.8187 22.6719 65.9522 22.5469C66.0858 22.4219 66.1866 22.267 66.2548 22.0824L67.6951 22.2443C67.6042 22.625 67.4309 22.9574 67.1752 23.2415C66.9224 23.5227 66.5985 23.7415 66.2037 23.8977C65.8088 24.0511 65.3571 24.1278 64.8485 24.1278ZM71.4931 24.1151C70.9789 24.1151 70.5186 23.983 70.1124 23.7188C69.7061 23.4545 69.3851 23.071 69.1493 22.5682C68.9135 22.0653 68.7956 21.4545 68.7956 20.7358C68.7956 20.0085 68.915 19.3949 69.1536 18.8949C69.3951 18.392 69.7203 18.0128 70.1294 17.7571C70.5385 17.4986 70.9945 17.3693 71.4973 17.3693C71.8809 17.3693 72.1962 17.4347 72.4434 17.5653C72.6905 17.6932 72.8865 17.848 73.0314 18.0298C73.1763 18.2088 73.2885 18.3778 73.3681 18.5369H73.432V15.2727H74.9789V24H73.4618V22.9688H73.3681C73.2885 23.1278 73.1735 23.2969 73.0229 23.4759C72.8723 23.652 72.6735 23.8026 72.4263 23.9276C72.1792 24.0526 71.8681 24.1151 71.4931 24.1151ZM71.9235 22.8494C72.2502 22.8494 72.5286 22.7614 72.7587 22.5852C72.9888 22.4062 73.1635 22.1577 73.2828 21.8395C73.4022 21.5213 73.4618 21.1506 73.4618 20.7273C73.4618 20.304 73.4022 19.9361 73.2828 19.6236C73.1664 19.3111 72.9931 19.0682 72.763 18.8949C72.5357 18.7216 72.2559 18.6349 71.9235 18.6349C71.5797 18.6349 71.2928 18.7244 71.0627 18.9034C70.8326 19.0824 70.6593 19.3295 70.5428 19.6449C70.4263 19.9602 70.3681 20.321 70.3681 20.7273C70.3681 21.1364 70.4263 21.5014 70.5428 21.8224C70.6621 22.1406 70.8368 22.392 71.0669 22.5767C71.2999 22.7585 71.5854 22.8494 71.9235 22.8494ZM87.4657 19.6364C87.4657 20.5767 87.2896 21.3821 86.9373 22.0526C86.5879 22.7202 86.1106 23.2315 85.5055 23.5866C84.9032 23.9418 84.22 24.1193 83.4558 24.1193C82.6916 24.1193 82.0069 23.9418 81.4018 23.5866C80.7995 23.2287 80.3223 22.7159 79.97 22.0483C79.6206 21.3778 79.4458 20.5739 79.4458 19.6364C79.4458 18.696 79.6206 17.892 79.97 17.2244C80.3223 16.554 80.7995 16.0412 81.4018 15.6861C82.0069 15.331 82.6916 15.1534 83.4558 15.1534C84.22 15.1534 84.9032 15.331 85.5055 15.6861C86.1106 16.0412 86.5879 16.554 86.9373 17.2244C87.2896 17.892 87.4657 18.696 87.4657 19.6364ZM85.8762 19.6364C85.8762 18.9744 85.7726 18.4162 85.5652 17.9616C85.3606 17.5043 85.0765 17.1591 84.7129 16.9261C84.3493 16.6903 83.9302 16.5724 83.4558 16.5724C82.9814 16.5724 82.5623 16.6903 82.1987 16.9261C81.835 17.1591 81.5495 17.5043 81.3422 17.9616C81.1376 18.4162 81.0353 18.9744 81.0353 19.6364C81.0353 20.2983 81.1376 20.858 81.3422 21.3153C81.5495 21.7699 81.835 22.1151 82.1987 22.3509C82.5623 22.5838 82.9814 22.7003 83.4558 22.7003C83.9302 22.7003 84.3493 22.5838 84.7129 22.3509C85.0765 22.1151 85.3606 21.7699 85.5652 21.3153C85.7726 20.858 85.8762 20.2983 85.8762 19.6364ZM92.2076 17.4545V18.6477H88.3382V17.4545H92.2076ZM89.3056 24V16.8366C89.3056 16.3963 89.3965 16.0298 89.5783 15.7372C89.763 15.4446 90.0101 15.2259 90.3198 15.081C90.6294 14.9361 90.9732 14.8636 91.351 14.8636C91.6181 14.8636 91.8553 14.8849 92.0627 14.9276C92.2701 14.9702 92.4235 15.0085 92.5229 15.0426L92.2161 16.2358C92.1507 16.2159 92.0684 16.196 91.9689 16.1761C91.8695 16.1534 91.7587 16.142 91.6365 16.142C91.3496 16.142 91.1465 16.2116 91.0272 16.3509C90.9107 16.4872 90.8525 16.6832 90.8525 16.9389V24H89.3056ZM96.731 17.4545V18.6477H92.8617V17.4545H96.731ZM93.829 24V16.8366C93.829 16.3963 93.9199 16.0298 94.1017 15.7372C94.2864 15.4446 94.5336 15.2259 94.8432 15.081C95.1529 14.9361 95.4966 14.8636 95.8745 14.8636C96.1415 14.8636 96.3787 14.8849 96.5861 14.9276C96.7935 14.9702 96.9469 15.0085 97.0463 15.0426L96.7395 16.2358C96.6742 16.2159 96.5918 16.196 96.4924 16.1761C96.3929 16.1534 96.2821 16.142 96.16 16.142C95.873 16.142 95.6699 16.2116 95.5506 16.3509C95.4341 16.4872 95.3759 16.6832 95.3759 16.9389V24H93.829ZM100.591 24.1278C99.9345 24.1278 99.3677 23.9915 98.8904 23.7188C98.416 23.4432 98.051 23.054 97.7953 22.5511C97.5396 22.0455 97.4118 21.4503 97.4118 20.7656C97.4118 20.0923 97.5396 19.5014 97.7953 18.9929C98.0538 18.4815 98.4146 18.0838 98.8777 17.7997C99.3407 17.5128 99.8848 17.3693 100.51 17.3693C100.913 17.3693 101.294 17.4347 101.652 17.5653C102.013 17.6932 102.331 17.892 102.606 18.1619C102.885 18.4318 103.104 18.7756 103.263 19.1932C103.422 19.608 103.501 20.1023 103.501 20.6761V21.1491H98.1362V20.1094H102.023C102.02 19.8139 101.956 19.5511 101.831 19.321C101.706 19.0881 101.531 18.9048 101.307 18.7713C101.085 18.6378 100.827 18.571 100.531 18.571C100.216 18.571 99.9387 18.6477 99.7001 18.8011C99.4615 18.9517 99.2754 19.1506 99.1419 19.3977C99.0112 19.642 98.9444 19.9105 98.9416 20.2031V21.1108C98.9416 21.4915 99.0112 21.8182 99.1504 22.0909C99.2896 22.3608 99.4842 22.5682 99.7342 22.7131C99.9842 22.8551 100.277 22.9261 100.612 22.9261C100.836 22.9261 101.04 22.8949 101.221 22.8324C101.403 22.767 101.561 22.6719 101.694 22.5469C101.828 22.4219 101.929 22.267 101.997 22.0824L103.437 22.2443C103.346 22.625 103.173 22.9574 102.917 23.2415C102.665 23.5227 102.341 23.7415 101.946 23.8977C101.551 24.0511 101.099 24.1278 100.591 24.1278ZM104.806 24V17.4545H106.302V18.5455H106.37C106.49 18.1676 106.694 17.8764 106.984 17.6719C107.276 17.4645 107.61 17.3608 107.985 17.3608C108.07 17.3608 108.166 17.3651 108.271 17.3736C108.379 17.3793 108.468 17.3892 108.539 17.4034V18.8224C108.474 18.7997 108.37 18.7798 108.228 18.7628C108.089 18.7429 107.954 18.733 107.823 18.733C107.542 18.733 107.289 18.794 107.065 18.9162C106.843 19.0355 106.669 19.2017 106.541 19.4148C106.413 19.6278 106.349 19.8736 106.349 20.152V24H104.806ZM112.609 24V15.2727H114.19V22.6747H118.034V24H112.609ZM122.235 24.1278C121.579 24.1278 121.012 23.9915 120.535 23.7188C120.061 23.4432 119.695 23.054 119.44 22.5511C119.184 22.0455 119.056 21.4503 119.056 20.7656C119.056 20.0923 119.184 19.5014 119.44 18.9929C119.698 18.4815 120.059 18.0838 120.522 17.7997C120.985 17.5128 121.529 17.3693 122.154 17.3693C122.558 17.3693 122.938 17.4347 123.296 17.5653C123.657 17.6932 123.975 17.892 124.251 18.1619C124.529 18.4318 124.748 18.7756 124.907 19.1932C125.066 19.608 125.146 20.1023 125.146 20.6761V21.1491H119.781V20.1094H123.667C123.664 19.8139 123.6 19.5511 123.475 19.321C123.35 19.0881 123.176 18.9048 122.951 18.7713C122.73 18.6378 122.471 18.571 122.176 18.571C121.86 18.571 121.583 18.6477 121.345 18.8011C121.106 18.9517 120.92 19.1506 120.786 19.3977C120.656 19.642 120.589 19.9105 120.586 20.2031V21.1108C120.586 21.4915 120.656 21.8182 120.795 22.0909C120.934 22.3608 121.129 22.5682 121.379 22.7131C121.629 22.8551 121.921 22.9261 122.257 22.9261C122.481 22.9261 122.684 22.8949 122.866 22.8324C123.048 22.767 123.205 22.6719 123.339 22.5469C123.472 22.4219 123.573 22.267 123.642 22.0824L125.082 22.2443C124.991 22.625 124.818 22.9574 124.562 23.2415C124.309 23.5227 123.985 23.7415 123.59 23.8977C123.195 24.0511 122.744 24.1278 122.235 24.1278ZM129.719 17.4545V18.6477H125.956V17.4545H129.719ZM126.885 15.8864H128.428V22.0312C128.428 22.2386 128.459 22.3977 128.522 22.5085C128.587 22.6165 128.672 22.6903 128.778 22.7301C128.883 22.7699 128.999 22.7898 129.127 22.7898C129.224 22.7898 129.312 22.7827 129.391 22.7685C129.474 22.7543 129.536 22.7415 129.579 22.7301L129.839 23.9361C129.756 23.9645 129.638 23.9957 129.485 24.0298C129.334 24.0639 129.15 24.0838 128.931 24.0895C128.545 24.1009 128.197 24.0426 127.887 23.9148C127.577 23.7841 127.331 23.5824 127.15 23.3097C126.971 23.0369 126.883 22.696 126.885 22.2869V15.8864ZM134.278 17.4545V18.6477H130.515V17.4545H134.278ZM131.444 15.8864H132.987V22.0312C132.987 22.2386 133.018 22.3977 133.08 22.5085C133.146 22.6165 133.231 22.6903 133.336 22.7301C133.441 22.7699 133.558 22.7898 133.686 22.7898C133.782 22.7898 133.87 22.7827 133.95 22.7685C134.032 22.7543 134.095 22.7415 134.137 22.7301L134.397 23.9361C134.315 23.9645 134.197 23.9957 134.044 24.0298C133.893 24.0639 133.708 24.0838 133.49 24.0895C133.103 24.1009 132.755 24.0426 132.445 23.9148C132.136 23.7841 131.89 23.5824 131.708 23.3097C131.529 23.0369 131.441 22.696 131.444 22.2869V15.8864ZM138.395 24.1278C137.739 24.1278 137.172 23.9915 136.695 23.7188C136.221 23.4432 135.856 23.054 135.6 22.5511C135.344 22.0455 135.216 21.4503 135.216 20.7656C135.216 20.0923 135.344 19.5014 135.6 18.9929C135.858 18.4815 136.219 18.0838 136.682 17.7997C137.145 17.5128 137.689 17.3693 138.314 17.3693C138.718 17.3693 139.099 17.4347 139.456 17.5653C139.817 17.6932 140.135 17.892 140.411 18.1619C140.689 18.4318 140.908 18.7756 141.067 19.1932C141.226 19.608 141.306 20.1023 141.306 20.6761V21.1491H135.941V20.1094H139.827C139.824 19.8139 139.76 19.5511 139.635 19.321C139.51 19.0881 139.336 18.9048 139.111 18.7713C138.89 18.6378 138.631 18.571 138.336 18.571C138.02 18.571 137.743 18.6477 137.505 18.8011C137.266 18.9517 137.08 19.1506 136.947 19.3977C136.816 19.642 136.749 19.9105 136.746 20.2031V21.1108C136.746 21.4915 136.816 21.8182 136.955 22.0909C137.094 22.3608 137.289 22.5682 137.539 22.7131C137.789 22.8551 138.081 22.9261 138.417 22.9261C138.641 22.9261 138.844 22.8949 139.026 22.8324C139.208 22.767 139.366 22.6719 139.499 22.5469C139.633 22.4219 139.733 22.267 139.802 22.0824L141.242 22.2443C141.151 22.625 140.978 22.9574 140.722 23.2415C140.469 23.5227 140.145 23.7415 139.751 23.8977C139.356 24.0511 138.904 24.1278 138.395 24.1278ZM142.611 24V17.4545H144.107V18.5455H144.175C144.294 18.1676 144.499 17.8764 144.789 17.6719C145.081 17.4645 145.415 17.3608 145.79 17.3608C145.875 17.3608 145.97 17.3651 146.075 17.3736C146.183 17.3793 146.273 17.3892 146.344 17.4034V18.8224C146.279 18.7997 146.175 18.7798 146.033 18.7628C145.894 18.7429 145.759 18.733 145.628 18.733C145.347 18.733 145.094 18.794 144.869 18.9162C144.648 19.0355 144.473 19.2017 144.345 19.4148C144.218 19.6278 144.154 19.8736 144.154 20.152V24H142.611Z" fill="#274B73"/>
</svg>
