<svg width="32" height="32" viewBox="0 0 32 32" fill="none" xmlns="http://www.w3.org/2000/svg">
<rect width="32" height="32" rx="16" fill="#F4F5F7"/>
<path fill-rule="evenodd" clip-rule="evenodd" d="M10.3536 13.1299C9.88575 13.4223 9.60156 13.9351 9.60156 14.4867V20.7999C9.60156 21.6836 10.3179 22.3999 11.2016 22.3999H20.8016C21.6852 22.3999 22.4016 21.6836 22.4016 20.7999V14.4867C22.4016 13.9351 22.1174 13.4223 21.6496 13.1299L16.8496 10.1299C16.3307 9.80565 15.6724 9.80565 15.1536 10.1299L10.3536 13.1299ZM12.4453 15.0677C12.0777 14.8226 11.581 14.9219 11.3359 15.2896C11.0908 15.6572 11.1902 16.1539 11.5578 16.399L15.5578 19.0656C15.8265 19.2448 16.1766 19.2448 16.4453 19.0656L20.4453 16.399C20.8129 16.1539 20.9123 15.6572 20.6672 15.2896C20.4221 14.9219 19.9254 14.8226 19.5578 15.0677L16.0016 17.4385L12.4453 15.0677Z" fill="#687181"/>
</svg>
