<svg width="183" height="192" viewBox="0 0 183 192" fill="none" xmlns="http://www.w3.org/2000/svg">
<rect width="183" height="192" fill="#F2F2F2"/>
<rect y="40" width="183" height="1" fill="#E6E6E6"/>
<path d="M92.0016 101.6C84.0672 101.6 77.6016 108.065 77.6016 116C77.6016 123.934 84.0672 130.4 92.0016 130.4C99.936 130.4 106.402 123.934 106.402 116C106.402 108.065 99.936 101.6 92.0016 101.6ZM97.7616 117.08H93.0816V121.76C93.0816 122.35 92.592 122.84 92.0016 122.84C91.4112 122.84 90.9216 122.35 90.9216 121.76V117.08H86.2416C85.6512 117.08 85.1616 116.59 85.1616 116C85.1616 115.409 85.6512 114.92 86.2416 114.92H90.9216V110.24C90.9216 109.649 91.4112 109.16 92.0016 109.16C92.592 109.16 93.0816 109.649 93.0816 110.24V114.92H97.7616C98.352 114.92 98.8416 115.409 98.8416 116C98.8416 116.59 98.352 117.08 97.7616 117.08Z" fill="#214660"/>
<rect x="69" y="93" width="46" height="46" rx="23" stroke="#FC8A8A" stroke-width="2" stroke-dasharray="4 4"/>
<path d="M38.4814 18.2173H36.8876C36.8422 17.956 36.7583 17.7244 36.6362 17.5227C36.514 17.3182 36.362 17.1449 36.1802 17.0028C35.9984 16.8608 35.791 16.7543 35.5581 16.6832C35.3279 16.6094 35.0794 16.5724 34.8123 16.5724C34.3379 16.5724 33.9174 16.6918 33.551 16.9304C33.1845 17.1662 32.8975 17.5128 32.6902 17.9702C32.4828 18.4247 32.3791 18.9801 32.3791 19.6364C32.3791 20.304 32.4828 20.8665 32.6902 21.3239C32.9004 21.7784 33.1873 22.1222 33.551 22.3551C33.9174 22.5852 34.3365 22.7003 34.8081 22.7003C35.0694 22.7003 35.3137 22.6662 35.541 22.598C35.7711 22.527 35.9771 22.4233 36.1589 22.2869C36.3436 22.1506 36.4984 21.983 36.6234 21.7841C36.7512 21.5852 36.8393 21.358 36.8876 21.1023L38.4814 21.1108C38.4217 21.5256 38.2924 21.9148 38.0936 22.2784C37.8975 22.642 37.6404 22.9631 37.3223 23.2415C37.0041 23.517 36.6319 23.733 36.2058 23.8892C35.7797 24.0426 35.3066 24.1193 34.7868 24.1193C34.0197 24.1193 33.335 23.9418 32.7328 23.5866C32.1305 23.2315 31.6561 22.7188 31.3095 22.0483C30.9629 21.3778 30.7896 20.5739 30.7896 19.6364C30.7896 18.696 30.9643 17.892 31.3137 17.2244C31.6632 16.554 32.139 16.0412 32.7413 15.6861C33.3436 15.331 34.0254 15.1534 34.7868 15.1534C35.2725 15.1534 35.7243 15.2216 36.1419 15.358C36.5595 15.4943 36.9316 15.6946 37.2583 15.9588C37.585 16.2202 37.8535 16.5412 38.0637 16.9219C38.2768 17.2997 38.416 17.7315 38.4814 18.2173ZM42.7161 24.1278C42.0769 24.1278 41.5229 23.9872 41.0542 23.706C40.5854 23.4247 40.2218 23.0312 39.9632 22.5256C39.7076 22.0199 39.5797 21.429 39.5797 20.7528C39.5797 20.0767 39.7076 19.4844 39.9632 18.9759C40.2218 18.4673 40.5854 18.0724 41.0542 17.7912C41.5229 17.5099 42.0769 17.3693 42.7161 17.3693C43.3553 17.3693 43.9093 17.5099 44.378 17.7912C44.8468 18.0724 45.209 18.4673 45.4647 18.9759C45.7232 19.4844 45.8525 20.0767 45.8525 20.7528C45.8525 21.429 45.7232 22.0199 45.4647 22.5256C45.209 23.0312 44.8468 23.4247 44.378 23.706C43.9093 23.9872 43.3553 24.1278 42.7161 24.1278ZM42.7246 22.892C43.0712 22.892 43.361 22.7969 43.5939 22.6065C43.8269 22.4134 44.0002 22.1548 44.1138 21.831C44.2303 21.5071 44.2885 21.1463 44.2885 20.7486C44.2885 20.348 44.2303 19.9858 44.1138 19.6619C44.0002 19.3352 43.8269 19.0753 43.5939 18.8821C43.361 18.6889 43.0712 18.5923 42.7246 18.5923C42.3695 18.5923 42.074 18.6889 41.8382 18.8821C41.6053 19.0753 41.4306 19.3352 41.3141 19.6619C41.2005 19.9858 41.1436 20.348 41.1436 20.7486C41.1436 21.1463 41.2005 21.5071 41.3141 21.831C41.4306 22.1548 41.6053 22.4134 41.8382 22.6065C42.074 22.7969 42.3695 22.892 42.7246 22.892ZM48.7044 15.2727V24H47.1618V15.2727H48.7044ZM51.8333 15.2727V24H50.2907V15.2727H51.8333ZM55.3031 24.1321C54.8883 24.1321 54.5147 24.0582 54.1824 23.9105C53.8528 23.7599 53.5914 23.5384 53.3983 23.2457C53.2079 22.9531 53.1127 22.5923 53.1127 22.1634C53.1127 21.794 53.1809 21.4886 53.3173 21.2472C53.4537 21.0057 53.6397 20.8125 53.8755 20.6676C54.1113 20.5227 54.377 20.4134 54.6724 20.3395C54.9707 20.2628 55.2789 20.2074 55.5971 20.1733C55.9806 20.1335 56.2917 20.098 56.5304 20.0668C56.769 20.0327 56.9423 19.9815 57.0502 19.9134C57.161 19.8423 57.2164 19.733 57.2164 19.5852V19.5597C57.2164 19.2386 57.1213 18.9901 56.9309 18.8139C56.7406 18.6378 56.4664 18.5497 56.1085 18.5497C55.7306 18.5497 55.4309 18.6321 55.2093 18.7969C54.9906 18.9616 54.8429 19.1562 54.7662 19.3807L53.3258 19.1761C53.4395 18.7784 53.627 18.446 53.8883 18.179C54.1497 17.9091 54.4693 17.7074 54.8471 17.5739C55.225 17.4375 55.6426 17.3693 56.1 17.3693C56.4153 17.3693 56.7292 17.4062 57.0417 17.4801C57.3542 17.554 57.6397 17.6761 57.8983 17.8466C58.1568 18.0142 58.3642 18.2429 58.5204 18.5327C58.6795 18.8224 58.7591 19.1847 58.7591 19.6193V24H57.2761V23.1009H57.225C57.1312 23.2827 56.9991 23.4531 56.8287 23.6122C56.661 23.7685 56.4494 23.8949 56.1937 23.9915C55.9409 24.0852 55.644 24.1321 55.3031 24.1321ZM55.7037 22.9986C56.0133 22.9986 56.2818 22.9375 56.5091 22.8153C56.7363 22.6903 56.911 22.5256 57.0332 22.321C57.1582 22.1165 57.2207 21.8935 57.2207 21.652V20.8807C57.1724 20.9205 57.09 20.9574 56.9735 20.9915C56.8599 21.0256 56.7321 21.0554 56.59 21.081C56.448 21.1065 56.3074 21.1293 56.1681 21.1491C56.0289 21.169 55.9082 21.1861 55.8059 21.2003C55.5758 21.2315 55.3699 21.2827 55.188 21.3537C55.0062 21.4247 54.8627 21.5241 54.7576 21.652C54.6525 21.777 54.6 21.9389 54.6 22.1378C54.6 22.4219 54.7037 22.6364 54.911 22.7812C55.1184 22.9261 55.3826 22.9986 55.7037 22.9986ZM63.5787 17.4545V18.6477H59.8159V17.4545H63.5787ZM60.7449 15.8864H62.2875V22.0312C62.2875 22.2386 62.3187 22.3977 62.3812 22.5085C62.4466 22.6165 62.5318 22.6903 62.6369 22.7301C62.742 22.7699 62.8585 22.7898 62.9863 22.7898C63.0829 22.7898 63.171 22.7827 63.2505 22.7685C63.3329 22.7543 63.3954 22.7415 63.438 22.7301L63.698 23.9361C63.6156 23.9645 63.4977 23.9957 63.3443 24.0298C63.1937 24.0639 63.0091 24.0838 62.7903 24.0895C62.4039 24.1009 62.0559 24.0426 61.7463 23.9148C61.4366 23.7841 61.1909 23.5824 61.0091 23.3097C60.8301 23.0369 60.742 22.696 60.7449 22.2869V15.8864ZM67.6962 24.1278C67.04 24.1278 66.4732 23.9915 65.9959 23.7188C65.5215 23.4432 65.1564 23.054 64.9007 22.5511C64.6451 22.0455 64.5172 21.4503 64.5172 20.7656C64.5172 20.0923 64.6451 19.5014 64.9007 18.9929C65.1593 18.4815 65.5201 18.0838 65.9831 17.7997C66.4462 17.5128 66.9902 17.3693 67.6152 17.3693C68.0186 17.3693 68.3993 17.4347 68.7573 17.5653C69.1181 17.6932 69.4363 17.892 69.7118 18.1619C69.9902 18.4318 70.209 18.7756 70.3681 19.1932C70.5272 19.608 70.6067 20.1023 70.6067 20.6761V21.1491H65.2417V20.1094H69.128C69.1252 19.8139 69.0613 19.5511 68.9363 19.321C68.8113 19.0881 68.6365 18.9048 68.4121 18.7713C68.1905 18.6378 67.932 18.571 67.6365 18.571C67.3212 18.571 67.0442 18.6477 66.8056 18.8011C66.5669 18.9517 66.3809 19.1506 66.2473 19.3977C66.1167 19.642 66.0499 19.9105 66.0471 20.2031V21.1108C66.0471 21.4915 66.1167 21.8182 66.2559 22.0909C66.3951 22.3608 66.5897 22.5682 66.8397 22.7131C67.0897 22.8551 67.3823 22.9261 67.7175 22.9261C67.9419 22.9261 68.1451 22.8949 68.3269 22.8324C68.5087 22.767 68.6664 22.6719 68.7999 22.5469C68.9334 22.4219 69.0343 22.267 69.1025 22.0824L70.5428 22.2443C70.4519 22.625 70.2786 22.9574 70.0229 23.2415C69.7701 23.5227 69.4462 23.7415 69.0513 23.8977C68.6564 24.0511 68.2047 24.1278 67.6962 24.1278ZM71.9118 24V17.4545H73.4075V18.5455H73.4757C73.595 18.1676 73.7995 17.8764 74.0893 17.6719C74.3819 17.4645 74.7157 17.3608 75.0907 17.3608C75.176 17.3608 75.2711 17.3651 75.3762 17.3736C75.4842 17.3793 75.5737 17.3892 75.6447 17.4034V18.8224C75.5794 18.7997 75.4757 18.7798 75.3336 18.7628C75.1944 18.7429 75.0595 18.733 74.9288 18.733C74.6475 18.733 74.3947 18.794 74.1703 18.9162C73.9487 19.0355 73.774 19.2017 73.6461 19.4148C73.5183 19.6278 73.4544 19.8736 73.4544 20.152V24H71.9118ZM78.4359 24.1321C78.0211 24.1321 77.6475 24.0582 77.3152 23.9105C76.9856 23.7599 76.7243 23.5384 76.5311 23.2457C76.3407 22.9531 76.2456 22.5923 76.2456 22.1634C76.2456 21.794 76.3137 21.4886 76.4501 21.2472C76.5865 21.0057 76.7725 20.8125 77.0083 20.6676C77.2441 20.5227 77.5098 20.4134 77.8052 20.3395C78.1035 20.2628 78.4118 20.2074 78.7299 20.1733C79.1135 20.1335 79.4245 20.098 79.6632 20.0668C79.9018 20.0327 80.0751 19.9815 80.1831 19.9134C80.2939 19.8423 80.3493 19.733 80.3493 19.5852V19.5597C80.3493 19.2386 80.2541 18.9901 80.0637 18.8139C79.8734 18.6378 79.5993 18.5497 79.2413 18.5497C78.8635 18.5497 78.5637 18.6321 78.3422 18.7969C78.1234 18.9616 77.9757 19.1562 77.899 19.3807L76.4586 19.1761C76.5723 18.7784 76.7598 18.446 77.0211 18.179C77.2825 17.9091 77.6021 17.7074 77.9799 17.5739C78.3578 17.4375 78.7754 17.3693 79.2328 17.3693C79.5481 17.3693 79.862 17.4062 80.1745 17.4801C80.487 17.554 80.7725 17.6761 81.0311 17.8466C81.2896 18.0142 81.497 18.2429 81.6532 18.5327C81.8123 18.8224 81.8919 19.1847 81.8919 19.6193V24H80.4089V23.1009H80.3578C80.264 23.2827 80.1319 23.4531 79.9615 23.6122C79.7939 23.7685 79.5822 23.8949 79.3265 23.9915C79.0737 24.0852 78.7768 24.1321 78.4359 24.1321ZM78.8365 22.9986C79.1461 22.9986 79.4146 22.9375 79.6419 22.8153C79.8691 22.6903 80.0439 22.5256 80.166 22.321C80.291 22.1165 80.3535 21.8935 80.3535 21.652V20.8807C80.3052 20.9205 80.2228 20.9574 80.1064 20.9915C79.9927 21.0256 79.8649 21.0554 79.7228 21.081C79.5808 21.1065 79.4402 21.1293 79.301 21.1491C79.1618 21.169 79.041 21.1861 78.9387 21.2003C78.7086 21.2315 78.5027 21.2827 78.3208 21.3537C78.139 21.4247 77.9956 21.5241 77.8904 21.652C77.7853 21.777 77.7328 21.9389 77.7328 22.1378C77.7328 22.4219 77.8365 22.6364 78.0439 22.7812C78.2512 22.9261 78.5154 22.9986 78.8365 22.9986ZM84.9856 15.2727V24H83.443V15.2727H84.9856ZM97.415 19.6364C97.415 20.5767 97.2388 21.3821 96.8865 22.0526C96.5371 22.7202 96.0598 23.2315 95.4547 23.5866C94.8525 23.9418 94.1692 24.1193 93.405 24.1193C92.6408 24.1193 91.9561 23.9418 91.351 23.5866C90.7488 23.2287 90.2715 22.7159 89.9192 22.0483C89.5698 21.3778 89.3951 20.5739 89.3951 19.6364C89.3951 18.696 89.5698 17.892 89.9192 17.2244C90.2715 16.554 90.7488 16.0412 91.351 15.6861C91.9561 15.331 92.6408 15.1534 93.405 15.1534C94.1692 15.1534 94.8525 15.331 95.4547 15.6861C96.0598 16.0412 96.5371 16.554 96.8865 17.2244C97.2388 17.892 97.415 18.696 97.415 19.6364ZM95.8255 19.6364C95.8255 18.9744 95.7218 18.4162 95.5144 17.9616C95.3098 17.5043 95.0257 17.1591 94.6621 16.9261C94.2985 16.6903 93.8794 16.5724 93.405 16.5724C92.9306 16.5724 92.5115 16.6903 92.1479 16.9261C91.7843 17.1591 91.4988 17.5043 91.2914 17.9616C91.0868 18.4162 90.9846 18.9744 90.9846 19.6364C90.9846 20.2983 91.0868 20.858 91.2914 21.3153C91.4988 21.7699 91.7843 22.1151 92.1479 22.3509C92.5115 22.5838 92.9306 22.7003 93.405 22.7003C93.8794 22.7003 94.2985 22.5838 94.6621 22.3509C95.0257 22.1151 95.3098 21.7699 95.5144 21.3153C95.7218 20.858 95.8255 20.2983 95.8255 19.6364ZM100.192 24L98.3429 17.4545H99.9153L101.066 22.0568H101.126L102.302 17.4545H103.857L105.033 22.0312H105.097L106.231 17.4545H107.807L105.954 24H104.347L103.12 19.5767H103.03L101.803 24H100.192ZM110.427 20.1648V24H108.884V17.4545H110.359V18.5668H110.436C110.586 18.2003 110.826 17.9091 111.156 17.6932C111.488 17.4773 111.899 17.3693 112.387 17.3693C112.839 17.3693 113.232 17.4659 113.568 17.6591C113.906 17.8523 114.167 18.1321 114.352 18.4986C114.539 18.8651 114.632 19.3097 114.629 19.8324V24H113.086V20.071C113.086 19.6335 112.972 19.2912 112.745 19.044C112.521 18.7969 112.21 18.6733 111.812 18.6733C111.542 18.6733 111.302 18.733 111.092 18.8523C110.884 18.9687 110.721 19.1378 110.602 19.3594C110.485 19.581 110.427 19.8494 110.427 20.1648ZM119.095 24.1278C118.438 24.1278 117.872 23.9915 117.394 23.7188C116.92 23.4432 116.555 23.054 116.299 22.5511C116.044 22.0455 115.916 21.4503 115.916 20.7656C115.916 20.0923 116.044 19.5014 116.299 18.9929C116.558 18.4815 116.919 18.0838 117.382 17.7997C117.845 17.5128 118.389 17.3693 119.014 17.3693C119.417 17.3693 119.798 17.4347 120.156 17.5653C120.517 17.6932 120.835 17.892 121.11 18.1619C121.389 18.4318 121.607 18.7756 121.767 19.1932C121.926 19.608 122.005 20.1023 122.005 20.6761V21.1491H116.64V20.1094H120.526C120.524 19.8139 120.46 19.5511 120.335 19.321C120.21 19.0881 120.035 18.9048 119.811 18.7713C119.589 18.6378 119.33 18.571 119.035 18.571C118.72 18.571 118.443 18.6477 118.204 18.8011C117.965 18.9517 117.779 19.1506 117.646 19.3977C117.515 19.642 117.448 19.9105 117.445 20.2031V21.1108C117.445 21.4915 117.515 21.8182 117.654 22.0909C117.794 22.3608 117.988 22.5682 118.238 22.7131C118.488 22.8551 118.781 22.9261 119.116 22.9261C119.34 22.9261 119.544 22.8949 119.725 22.8324C119.907 22.767 120.065 22.6719 120.198 22.5469C120.332 22.4219 120.433 22.267 120.501 22.0824L121.941 22.2443C121.85 22.625 121.677 22.9574 121.421 23.2415C121.169 23.5227 120.845 23.7415 120.45 23.8977C120.055 24.0511 119.603 24.1278 119.095 24.1278ZM123.31 24V17.4545H124.806V18.5455H124.874C124.993 18.1676 125.198 17.8764 125.488 17.6719C125.78 17.4645 126.114 17.3608 126.489 17.3608C126.574 17.3608 126.67 17.3651 126.775 17.3736C126.883 17.3793 126.972 17.3892 127.043 17.4034V18.8224C126.978 18.7997 126.874 18.7798 126.732 18.7628C126.593 18.7429 126.458 18.733 126.327 18.733C126.046 18.733 125.793 18.794 125.569 18.9162C125.347 19.0355 125.172 19.2017 125.045 19.4148C124.917 19.6278 124.853 19.8736 124.853 20.152V24H123.31ZM133.241 19.1847L131.835 19.3381C131.795 19.196 131.726 19.0625 131.626 18.9375C131.53 18.8125 131.399 18.7116 131.234 18.6349C131.069 18.5582 130.868 18.5199 130.629 18.5199C130.308 18.5199 130.038 18.5895 129.819 18.7287C129.604 18.8679 129.497 19.0483 129.5 19.2699C129.497 19.4602 129.567 19.6151 129.709 19.7344C129.854 19.8537 130.092 19.9517 130.425 20.0284L131.541 20.267C132.16 20.4006 132.621 20.6122 132.922 20.902C133.226 21.1918 133.379 21.571 133.382 22.0398C133.379 22.4517 133.258 22.8153 133.02 23.1307C132.784 23.4432 132.456 23.6875 132.035 23.8636C131.615 24.0398 131.132 24.1278 130.586 24.1278C129.785 24.1278 129.14 23.9602 128.652 23.625C128.163 23.2869 127.872 22.8168 127.778 22.2145L129.282 22.0696C129.351 22.3651 129.496 22.5881 129.717 22.7386C129.939 22.8892 130.227 22.9645 130.582 22.9645C130.949 22.9645 131.243 22.8892 131.464 22.7386C131.689 22.5881 131.801 22.402 131.801 22.1804C131.801 21.9929 131.729 21.8381 131.584 21.7159C131.442 21.5937 131.22 21.5 130.919 21.4347L129.802 21.2003C129.175 21.0696 128.71 20.8494 128.409 20.5398C128.108 20.2273 127.959 19.8324 127.961 19.3551C127.959 18.9517 128.068 18.6023 128.29 18.3068C128.514 18.0085 128.825 17.7784 129.223 17.6165C129.623 17.4517 130.085 17.3693 130.608 17.3693C131.375 17.3693 131.979 17.5327 132.419 17.8594C132.862 18.1861 133.136 18.6278 133.241 19.1847ZM136.197 20.1648V24H134.654V15.2727H136.162V18.5668H136.239C136.393 18.1974 136.63 17.9062 136.951 17.6932C137.275 17.4773 137.687 17.3693 138.187 17.3693C138.641 17.3693 139.037 17.4645 139.376 17.6548C139.714 17.8452 139.975 18.1236 140.16 18.4901C140.347 18.8565 140.441 19.304 140.441 19.8324V24H138.898V20.071C138.898 19.6307 138.785 19.2884 138.557 19.044C138.333 18.7969 138.018 18.6733 137.611 18.6733C137.339 18.6733 137.094 18.733 136.878 18.8523C136.665 18.9687 136.498 19.1378 136.376 19.3594C136.256 19.581 136.197 19.8494 136.197 20.1648ZM142.013 24V17.4545H143.556V24H142.013ZM142.789 16.5256C142.545 16.5256 142.334 16.4446 142.158 16.2827C141.982 16.1179 141.894 15.9205 141.894 15.6903C141.894 15.4574 141.982 15.2599 142.158 15.098C142.334 14.9332 142.545 14.8509 142.789 14.8509C143.036 14.8509 143.246 14.9332 143.42 15.098C143.596 15.2599 143.684 15.4574 143.684 15.6903C143.684 15.9205 143.596 16.1179 143.42 16.2827C143.246 16.4446 143.036 16.5256 142.789 16.5256ZM145.142 26.4545V17.4545H146.659V18.5369H146.749C146.828 18.3778 146.941 18.2088 147.085 18.0298C147.23 17.848 147.426 17.6932 147.673 17.5653C147.921 17.4347 148.236 17.3693 148.619 17.3693C149.125 17.3693 149.581 17.4986 149.987 17.7571C150.396 18.0128 150.72 18.392 150.959 18.8949C151.2 19.3949 151.321 20.0085 151.321 20.7358C151.321 21.4545 151.203 22.0653 150.968 22.5682C150.732 23.071 150.411 23.4545 150.004 23.7188C149.598 23.983 149.138 24.1151 148.624 24.1151C148.249 24.1151 147.938 24.0526 147.691 23.9276C147.443 23.8026 147.244 23.652 147.094 23.4759C146.946 23.2969 146.831 23.1278 146.749 22.9688H146.685V26.4545H145.142ZM146.655 20.7273C146.655 21.1506 146.715 21.5213 146.834 21.8395C146.956 22.1577 147.131 22.4062 147.358 22.5852C147.588 22.7614 147.867 22.8494 148.193 22.8494C148.534 22.8494 148.82 22.7585 149.05 22.5767C149.28 22.392 149.453 22.1406 149.57 21.8224C149.689 21.5014 149.749 21.1364 149.749 20.7273C149.749 20.321 149.691 19.9602 149.574 19.6449C149.458 19.3295 149.284 19.0824 149.054 18.9034C148.824 18.7244 148.537 18.6349 148.193 18.6349C147.864 18.6349 147.584 18.7216 147.354 18.8949C147.124 19.0682 146.949 19.3111 146.83 19.6236C146.713 19.9361 146.655 20.304 146.655 20.7273Z" fill="#274B73"/>
</svg>
