<svg width="183" height="192" viewBox="0 0 183 192" fill="none" xmlns="http://www.w3.org/2000/svg">
<rect width="183" height="192" fill="#F2F2F2"/>
<rect y="40" width="183" height="1" fill="#E6E6E6"/>
<path d="M92.0016 101.6C84.0672 101.6 77.6016 108.065 77.6016 116C77.6016 123.934 84.0672 130.4 92.0016 130.4C99.936 130.4 106.402 123.934 106.402 116C106.402 108.065 99.936 101.6 92.0016 101.6ZM97.7616 117.08H93.0816V121.76C93.0816 122.35 92.592 122.84 92.0016 122.84C91.4112 122.84 90.9216 122.35 90.9216 121.76V117.08H86.2416C85.6512 117.08 85.1616 116.59 85.1616 116C85.1616 115.409 85.6512 114.92 86.2416 114.92H90.9216V110.24C90.9216 109.649 91.4112 109.16 92.0016 109.16C92.592 109.16 93.0816 109.649 93.0816 110.24V114.92H97.7616C98.352 114.92 98.8416 115.409 98.8416 116C98.8416 116.59 98.352 117.08 97.7616 117.08Z" fill="#214660"/>
<rect x="69" y="93" width="46" height="46" rx="23" stroke="#FC8A8A" stroke-width="2" stroke-dasharray="4 4"/>
<path d="M29.641 15.2727V24H28.06V15.2727H29.641ZM32.8274 20.1648V24H31.2848V17.4545H32.7592V18.5668H32.8359C32.9865 18.2003 33.2266 17.9091 33.5561 17.6932C33.8885 17.4773 34.299 17.3693 34.7876 17.3693C35.2393 17.3693 35.6328 17.4659 35.968 17.6591C36.3061 17.8523 36.5675 18.1321 36.7521 18.4986C36.9396 18.8651 37.032 19.3097 37.0291 19.8324V24H35.4865V20.071C35.4865 19.6335 35.3729 19.2912 35.1456 19.044C34.9212 18.7969 34.6101 18.6733 34.2124 18.6733C33.9425 18.6733 33.7024 18.733 33.4922 18.8523C33.2848 18.9687 33.1214 19.1378 33.0021 19.3594C32.8857 19.581 32.8274 19.8494 32.8274 20.1648ZM41.8658 17.4545V18.6477H38.103V17.4545H41.8658ZM39.032 15.8864H40.5746V22.0312C40.5746 22.2386 40.6058 22.3977 40.6683 22.5085C40.7337 22.6165 40.8189 22.6903 40.924 22.7301C41.0291 22.7699 41.1456 22.7898 41.2734 22.7898C41.37 22.7898 41.4581 22.7827 41.5376 22.7685C41.62 22.7543 41.6825 22.7415 41.7251 22.7301L41.9851 23.9361C41.9027 23.9645 41.7848 23.9957 41.6314 24.0298C41.4808 24.0639 41.2962 24.0838 41.0774 24.0895C40.6911 24.1009 40.343 24.0426 40.0334 23.9148C39.7237 23.7841 39.478 23.5824 39.2962 23.3097C39.1172 23.0369 39.0291 22.696 39.032 22.2869V15.8864ZM45.9833 24.1278C45.3271 24.1278 44.7603 23.9915 44.283 23.7188C43.8086 23.4432 43.4435 23.054 43.1879 22.5511C42.9322 22.0455 42.8043 21.4503 42.8043 20.7656C42.8043 20.0923 42.9322 19.5014 43.1879 18.9929C43.4464 18.4815 43.8072 18.0838 44.2702 17.7997C44.7333 17.5128 45.2773 17.3693 45.9023 17.3693C46.3058 17.3693 46.6864 17.4347 47.0444 17.5653C47.4052 17.6932 47.7234 17.892 47.9989 18.1619C48.2773 18.4318 48.4961 18.7756 48.6552 19.1932C48.8143 19.608 48.8938 20.1023 48.8938 20.6761V21.1491H43.5288V20.1094H47.4151C47.4123 19.8139 47.3484 19.5511 47.2234 19.321C47.0984 19.0881 46.9237 18.9048 46.6992 18.7713C46.4776 18.6378 46.2191 18.571 45.9237 18.571C45.6083 18.571 45.3313 18.6477 45.0927 18.8011C44.854 18.9517 44.668 19.1506 44.5344 19.3977C44.4038 19.642 44.337 19.9105 44.3342 20.2031V21.1108C44.3342 21.4915 44.4038 21.8182 44.543 22.0909C44.6822 22.3608 44.8768 22.5682 45.1268 22.7131C45.3768 22.8551 45.6694 22.9261 46.0046 22.9261C46.229 22.9261 46.4322 22.8949 46.614 22.8324C46.7958 22.767 46.9535 22.6719 47.087 22.5469C47.2205 22.4219 47.3214 22.267 47.3896 22.0824L48.8299 22.2443C48.739 22.625 48.5657 22.9574 48.31 23.2415C48.0572 23.5227 47.7333 23.7415 47.3384 23.8977C46.9435 24.0511 46.4918 24.1278 45.9833 24.1278ZM50.1989 24V17.4545H51.6946V18.5455H51.7628C51.8821 18.1676 52.0866 17.8764 52.3764 17.6719C52.669 17.4645 53.0028 17.3608 53.3778 17.3608C53.4631 17.3608 53.5582 17.3651 53.6634 17.3736C53.7713 17.3793 53.8608 17.3892 53.9318 17.4034V18.8224C53.8665 18.7997 53.7628 18.7798 53.6207 18.7628C53.4815 18.7429 53.3466 18.733 53.2159 18.733C52.9347 18.733 52.6818 18.794 52.4574 18.9162C52.2358 19.0355 52.0611 19.2017 51.9332 19.4148C51.8054 19.6278 51.7415 19.8736 51.7415 20.152V24H50.1989ZM56.4993 20.1648V24H54.9567V17.4545H56.4311V18.5668H56.5078C56.6584 18.2003 56.8984 17.9091 57.228 17.6932C57.5604 17.4773 57.9709 17.3693 58.4595 17.3693C58.9112 17.3693 59.3047 17.4659 59.6399 17.6591C59.978 17.8523 60.2393 18.1321 60.424 18.4986C60.6115 18.8651 60.7038 19.3097 60.701 19.8324V24H59.1584V20.071C59.1584 19.6335 59.0447 19.2912 58.8175 19.044C58.593 18.7969 58.282 18.6733 57.8842 18.6733C57.6143 18.6733 57.3743 18.733 57.1641 18.8523C56.9567 18.9687 56.7933 19.1378 56.674 19.3594C56.5575 19.581 56.4993 19.8494 56.4993 20.1648ZM64.1527 24.1321C63.7379 24.1321 63.3643 24.0582 63.032 23.9105C62.7024 23.7599 62.4411 23.5384 62.2479 23.2457C62.0575 22.9531 61.9624 22.5923 61.9624 22.1634C61.9624 21.794 62.0305 21.4886 62.1669 21.2472C62.3033 21.0057 62.4893 20.8125 62.7251 20.6676C62.9609 20.5227 63.2266 20.4134 63.522 20.3395C63.8203 20.2628 64.1286 20.2074 64.4467 20.1733C64.8303 20.1335 65.1413 20.098 65.38 20.0668C65.6186 20.0327 65.7919 19.9815 65.8999 19.9134C66.0107 19.8423 66.0661 19.733 66.0661 19.5852V19.5597C66.0661 19.2386 65.9709 18.9901 65.7805 18.8139C65.5902 18.6378 65.3161 18.5497 64.9581 18.5497C64.5803 18.5497 64.2805 18.6321 64.0589 18.7969C63.8402 18.9616 63.6925 19.1562 63.6158 19.3807L62.1754 19.1761C62.2891 18.7784 62.4766 18.446 62.7379 18.179C62.9993 17.9091 63.3189 17.7074 63.6967 17.5739C64.0746 17.4375 64.4922 17.3693 64.9496 17.3693C65.2649 17.3693 65.5788 17.4062 65.8913 17.4801C66.2038 17.554 66.4893 17.6761 66.7479 17.8466C67.0064 18.0142 67.2138 18.2429 67.37 18.5327C67.5291 18.8224 67.6087 19.1847 67.6087 19.6193V24H66.1257V23.1009H66.0746C65.9808 23.2827 65.8487 23.4531 65.6783 23.6122C65.5107 23.7685 65.299 23.8949 65.0433 23.9915C64.7905 24.0852 64.4936 24.1321 64.1527 24.1321ZM64.5533 22.9986C64.8629 22.9986 65.1314 22.9375 65.3587 22.8153C65.5859 22.6903 65.7607 22.5256 65.8828 22.321C66.0078 22.1165 66.0703 21.8935 66.0703 21.652V20.8807C66.022 20.9205 65.9396 20.9574 65.8232 20.9915C65.7095 21.0256 65.5817 21.0554 65.4396 21.081C65.2976 21.1065 65.157 21.1293 65.0178 21.1491C64.8786 21.169 64.7578 21.1861 64.6555 21.2003C64.4254 21.2315 64.2195 21.2827 64.0376 21.3537C63.8558 21.4247 63.7124 21.5241 63.6072 21.652C63.5021 21.777 63.4496 21.9389 63.4496 22.1378C63.4496 22.4219 63.5533 22.6364 63.7607 22.7812C63.968 22.9261 64.2322 22.9986 64.5533 22.9986ZM72.4283 17.4545V18.6477H68.6655V17.4545H72.4283ZM69.5945 15.8864H71.1371V22.0312C71.1371 22.2386 71.1683 22.3977 71.2308 22.5085C71.2962 22.6165 71.3814 22.6903 71.4865 22.7301C71.5916 22.7699 71.7081 22.7898 71.8359 22.7898C71.9325 22.7898 72.0206 22.7827 72.1001 22.7685C72.1825 22.7543 72.245 22.7415 72.2876 22.7301L72.5476 23.9361C72.4652 23.9645 72.3473 23.9957 72.1939 24.0298C72.0433 24.0639 71.8587 24.0838 71.6399 24.0895C71.2536 24.1009 70.9055 24.0426 70.5959 23.9148C70.2862 23.7841 70.0405 23.5824 69.8587 23.3097C69.6797 23.0369 69.5916 22.696 69.5945 22.2869V15.8864ZM73.7184 24V17.4545H75.261V24H73.7184ZM74.494 16.5256C74.2496 16.5256 74.0394 16.4446 73.8633 16.2827C73.6871 16.1179 73.5991 15.9205 73.5991 15.6903C73.5991 15.4574 73.6871 15.2599 73.8633 15.098C74.0394 14.9332 74.2496 14.8509 74.494 14.8509C74.7411 14.8509 74.9513 14.9332 75.1246 15.098C75.3008 15.2599 75.3888 15.4574 75.3888 15.6903C75.3888 15.9205 75.3008 16.1179 75.1246 16.2827C74.9513 16.4446 74.7411 16.5256 74.494 16.5256ZM79.7024 24.1278C79.0632 24.1278 78.5092 23.9872 78.0405 23.706C77.5717 23.4247 77.2081 23.0312 76.9496 22.5256C76.6939 22.0199 76.5661 21.429 76.5661 20.7528C76.5661 20.0767 76.6939 19.4844 76.9496 18.9759C77.2081 18.4673 77.5717 18.0724 78.0405 17.7912C78.5092 17.5099 79.0632 17.3693 79.7024 17.3693C80.3416 17.3693 80.8956 17.5099 81.3643 17.7912C81.8331 18.0724 82.1953 18.4673 82.451 18.9759C82.7095 19.4844 82.8388 20.0767 82.8388 20.7528C82.8388 21.429 82.7095 22.0199 82.451 22.5256C82.1953 23.0312 81.8331 23.4247 81.3643 23.706C80.8956 23.9872 80.3416 24.1278 79.7024 24.1278ZM79.7109 22.892C80.0575 22.892 80.3473 22.7969 80.5803 22.6065C80.8132 22.4134 80.9865 22.1548 81.1001 21.831C81.2166 21.5071 81.2749 21.1463 81.2749 20.7486C81.2749 20.348 81.2166 19.9858 81.1001 19.6619C80.9865 19.3352 80.8132 19.0753 80.5803 18.8821C80.3473 18.6889 80.0575 18.5923 79.7109 18.5923C79.3558 18.5923 79.0604 18.6889 78.8246 18.8821C78.5916 19.0753 78.4169 19.3352 78.3004 19.6619C78.1868 19.9858 78.13 20.348 78.13 20.7486C78.13 21.1463 78.1868 21.5071 78.3004 21.831C78.4169 22.1548 78.5916 22.4134 78.8246 22.6065C79.0604 22.7969 79.3558 22.892 79.7109 22.892ZM85.6907 20.1648V24H84.1481V17.4545H85.6225V18.5668H85.6992C85.8498 18.2003 86.0898 17.9091 86.4194 17.6932C86.7518 17.4773 87.1623 17.3693 87.6509 17.3693C88.1026 17.3693 88.4961 17.4659 88.8313 17.6591C89.1694 17.8523 89.4308 18.1321 89.6154 18.4986C89.8029 18.8651 89.8952 19.3097 89.8924 19.8324V24H88.3498V20.071C88.3498 19.6335 88.2362 19.2912 88.0089 19.044C87.7844 18.7969 87.4734 18.6733 87.0756 18.6733C86.8058 18.6733 86.5657 18.733 86.3555 18.8523C86.1481 18.9687 85.9847 19.1378 85.8654 19.3594C85.7489 19.581 85.6907 19.8494 85.6907 20.1648ZM93.3441 24.1321C92.9293 24.1321 92.5558 24.0582 92.2234 23.9105C91.8938 23.7599 91.6325 23.5384 91.4393 23.2457C91.2489 22.9531 91.1538 22.5923 91.1538 22.1634C91.1538 21.794 91.2219 21.4886 91.3583 21.2472C91.4947 21.0057 91.6808 20.8125 91.9165 20.6676C92.1523 20.5227 92.418 20.4134 92.7134 20.3395C93.0117 20.2628 93.32 20.2074 93.6381 20.1733C94.0217 20.1335 94.3327 20.098 94.5714 20.0668C94.81 20.0327 94.9833 19.9815 95.0913 19.9134C95.2021 19.8423 95.2575 19.733 95.2575 19.5852V19.5597C95.2575 19.2386 95.1623 18.9901 94.9719 18.8139C94.7816 18.6378 94.5075 18.5497 94.1495 18.5497C93.7717 18.5497 93.4719 18.6321 93.2504 18.7969C93.0316 18.9616 92.8839 19.1562 92.8072 19.3807L91.3668 19.1761C91.4805 18.7784 91.668 18.446 91.9293 18.179C92.1907 17.9091 92.5103 17.7074 92.8881 17.5739C93.266 17.4375 93.6836 17.3693 94.141 17.3693C94.4563 17.3693 94.7702 17.4062 95.0827 17.4801C95.3952 17.554 95.6808 17.6761 95.9393 17.8466C96.1978 18.0142 96.4052 18.2429 96.5614 18.5327C96.7205 18.8224 96.8001 19.1847 96.8001 19.6193V24H95.3171V23.1009H95.266C95.1722 23.2827 95.0401 23.4531 94.8697 23.6122C94.7021 23.7685 94.4904 23.8949 94.2347 23.9915C93.9819 24.0852 93.685 24.1321 93.3441 24.1321ZM93.7447 22.9986C94.0543 22.9986 94.3228 22.9375 94.5501 22.8153C94.7773 22.6903 94.9521 22.5256 95.0742 22.321C95.1992 22.1165 95.2617 21.8935 95.2617 21.652V20.8807C95.2134 20.9205 95.131 20.9574 95.0146 20.9915C94.9009 21.0256 94.7731 21.0554 94.631 21.081C94.489 21.1065 94.3484 21.1293 94.2092 21.1491C94.07 21.169 93.9492 21.1861 93.8469 21.2003C93.6168 21.2315 93.4109 21.2827 93.229 21.3537C93.0472 21.4247 92.9038 21.5241 92.7987 21.652C92.6935 21.777 92.641 21.9389 92.641 22.1378C92.641 22.4219 92.7447 22.6364 92.9521 22.7812C93.1594 22.9261 93.4237 22.9986 93.7447 22.9986ZM99.8938 15.2727V24H98.3512V15.2727H99.8938ZM104.525 24V15.2727H107.798C108.468 15.2727 109.031 15.3977 109.485 15.6477C109.942 15.8977 110.288 16.2415 110.521 16.679C110.756 17.1136 110.874 17.608 110.874 18.1619C110.874 18.7216 110.756 19.2187 110.521 19.6534C110.285 20.0881 109.937 20.4304 109.477 20.6804C109.016 20.9276 108.45 21.0511 107.776 21.0511H105.607V19.7514H107.563C107.955 19.7514 108.276 19.6832 108.526 19.5469C108.776 19.4105 108.961 19.223 109.08 18.9844C109.202 18.7457 109.263 18.4716 109.263 18.1619C109.263 17.8523 109.202 17.5795 109.08 17.3438C108.961 17.108 108.775 16.9247 108.522 16.794C108.272 16.6605 107.95 16.5938 107.555 16.5938H106.106V24H104.525ZM113.946 24.1321C113.531 24.1321 113.157 24.0582 112.825 23.9105C112.495 23.7599 112.234 23.5384 112.041 23.2457C111.85 22.9531 111.755 22.5923 111.755 22.1634C111.755 21.794 111.824 21.4886 111.96 21.2472C112.096 21.0057 112.282 20.8125 112.518 20.6676C112.754 20.5227 113.02 20.4134 113.315 20.3395C113.613 20.2628 113.922 20.2074 114.24 20.1733C114.623 20.1335 114.934 20.098 115.173 20.0668C115.412 20.0327 115.585 19.9815 115.693 19.9134C115.804 19.8423 115.859 19.733 115.859 19.5852V19.5597C115.859 19.2386 115.764 18.9901 115.574 18.8139C115.383 18.6378 115.109 18.5497 114.751 18.5497C114.373 18.5497 114.074 18.6321 113.852 18.7969C113.633 18.9616 113.485 19.1562 113.409 19.3807L111.968 19.1761C112.082 18.7784 112.27 18.446 112.531 18.179C112.792 17.9091 113.112 17.7074 113.49 17.5739C113.868 17.4375 114.285 17.3693 114.743 17.3693C115.058 17.3693 115.372 17.4062 115.684 17.4801C115.997 17.554 116.282 17.6761 116.541 17.8466C116.799 18.0142 117.007 18.2429 117.163 18.5327C117.322 18.8224 117.402 19.1847 117.402 19.6193V24H115.919V23.1009H115.868C115.774 23.2827 115.642 23.4531 115.471 23.6122C115.304 23.7685 115.092 23.8949 114.836 23.9915C114.583 24.0852 114.287 24.1321 113.946 24.1321ZM114.346 22.9986C114.656 22.9986 114.924 22.9375 115.152 22.8153C115.379 22.6903 115.554 22.5256 115.676 22.321C115.801 22.1165 115.863 21.8935 115.863 21.652V20.8807C115.815 20.9205 115.733 20.9574 115.616 20.9915C115.502 21.0256 115.375 21.0554 115.233 21.081C115.091 21.1065 114.95 21.1293 114.811 21.1491C114.672 21.169 114.551 21.1861 114.449 21.2003C114.218 21.2315 114.012 21.2827 113.831 21.3537C113.649 21.4247 113.505 21.5241 113.4 21.652C113.295 21.777 113.243 21.9389 113.243 22.1378C113.243 22.4219 113.346 22.6364 113.554 22.7812C113.761 22.9261 114.025 22.9986 114.346 22.9986ZM124.126 19.1847L122.72 19.3381C122.68 19.196 122.61 19.0625 122.511 18.9375C122.414 18.8125 122.284 18.7116 122.119 18.6349C121.954 18.5582 121.752 18.5199 121.514 18.5199C121.193 18.5199 120.923 18.5895 120.704 18.7287C120.488 18.8679 120.382 19.0483 120.385 19.2699C120.382 19.4602 120.451 19.6151 120.593 19.7344C120.738 19.8537 120.977 19.9517 121.309 20.0284L122.426 20.267C123.045 20.4006 123.505 20.6122 123.806 20.902C124.11 21.1918 124.264 21.571 124.267 22.0398C124.264 22.4517 124.143 22.8153 123.904 23.1307C123.669 23.4432 123.341 23.6875 122.92 23.8636C122.5 24.0398 122.017 24.1278 121.471 24.1278C120.67 24.1278 120.025 23.9602 119.537 23.625C119.048 23.2869 118.757 22.8168 118.663 22.2145L120.167 22.0696C120.235 22.3651 120.38 22.5881 120.602 22.7386C120.824 22.8892 121.112 22.9645 121.467 22.9645C121.833 22.9645 122.127 22.8892 122.349 22.7386C122.574 22.5881 122.686 22.402 122.686 22.1804C122.686 21.9929 122.613 21.8381 122.468 21.7159C122.326 21.5937 122.105 21.5 121.804 21.4347L120.687 21.2003C120.059 21.0696 119.595 20.8494 119.294 20.5398C118.993 20.2273 118.843 19.8324 118.846 19.3551C118.843 18.9517 118.953 18.6023 119.174 18.3068C119.399 18.0085 119.71 17.7784 120.108 17.6165C120.508 17.4517 120.97 17.3693 121.493 17.3693C122.26 17.3693 122.863 17.5327 123.304 17.8594C123.747 18.1861 124.021 18.6278 124.126 19.1847ZM130.712 19.1847L129.306 19.3381C129.266 19.196 129.196 19.0625 129.097 18.9375C129 18.8125 128.87 18.7116 128.705 18.6349C128.54 18.5582 128.338 18.5199 128.1 18.5199C127.779 18.5199 127.509 18.5895 127.29 18.7287C127.074 18.8679 126.968 19.0483 126.971 19.2699C126.968 19.4602 127.037 19.6151 127.179 19.7344C127.324 19.8537 127.563 19.9517 127.895 20.0284L129.012 20.267C129.631 20.4006 130.091 20.6122 130.392 20.902C130.696 21.1918 130.85 21.571 130.853 22.0398C130.85 22.4517 130.729 22.8153 130.49 23.1307C130.255 23.4432 129.926 23.6875 129.506 23.8636C129.086 24.0398 128.603 24.1278 128.057 24.1278C127.256 24.1278 126.611 23.9602 126.123 23.625C125.634 23.2869 125.343 22.8168 125.249 22.2145L126.753 22.0696C126.821 22.3651 126.966 22.5881 127.188 22.7386C127.409 22.8892 127.698 22.9645 128.053 22.9645C128.419 22.9645 128.713 22.8892 128.935 22.7386C129.159 22.5881 129.272 22.402 129.272 22.1804C129.272 21.9929 129.199 21.8381 129.054 21.7159C128.912 21.5937 128.691 21.5 128.39 21.4347L127.273 21.2003C126.645 21.0696 126.181 20.8494 125.88 20.5398C125.578 20.2273 125.429 19.8324 125.432 19.3551C125.429 18.9517 125.539 18.6023 125.76 18.3068C125.985 18.0085 126.296 17.7784 126.694 17.6165C127.094 17.4517 127.556 17.3693 128.078 17.3693C128.846 17.3693 129.449 17.5327 129.89 17.8594C130.333 18.1861 130.607 18.6278 130.712 19.1847ZM132.125 26.4545V17.4545H133.642V18.5369H133.731C133.811 18.3778 133.923 18.2088 134.068 18.0298C134.213 17.848 134.409 17.6932 134.656 17.5653C134.903 17.4347 135.218 17.3693 135.602 17.3693C136.108 17.3693 136.564 17.4986 136.97 17.7571C137.379 18.0128 137.703 18.392 137.941 18.8949C138.183 19.3949 138.304 20.0085 138.304 20.7358C138.304 21.4545 138.186 22.0653 137.95 22.5682C137.714 23.071 137.393 23.4545 136.987 23.7188C136.581 23.983 136.12 24.1151 135.606 24.1151C135.231 24.1151 134.92 24.0526 134.673 23.9276C134.426 23.8026 134.227 23.652 134.076 23.4759C133.929 23.2969 133.814 23.1278 133.731 22.9688H133.667V26.4545H132.125ZM133.637 20.7273C133.637 21.1506 133.697 21.5213 133.816 21.8395C133.939 22.1577 134.113 22.4062 134.341 22.5852C134.571 22.7614 134.849 22.8494 135.176 22.8494C135.517 22.8494 135.802 22.7585 136.032 22.5767C136.262 22.392 136.436 22.1406 136.552 21.8224C136.672 21.5014 136.731 21.1364 136.731 20.7273C136.731 20.321 136.673 19.9602 136.556 19.6449C136.44 19.3295 136.267 19.0824 136.037 18.9034C135.806 18.7244 135.52 18.6349 135.176 18.6349C134.846 18.6349 134.566 18.7216 134.336 18.8949C134.106 19.0682 133.931 19.3111 133.812 19.6236C133.696 19.9361 133.637 20.304 133.637 20.7273ZM142.48 24.1278C141.841 24.1278 141.287 23.9872 140.818 23.706C140.349 23.4247 139.985 23.0312 139.727 22.5256C139.471 22.0199 139.343 21.429 139.343 20.7528C139.343 20.0767 139.471 19.4844 139.727 18.9759C139.985 18.4673 140.349 18.0724 140.818 17.7912C141.287 17.5099 141.841 17.3693 142.48 17.3693C143.119 17.3693 143.673 17.5099 144.142 17.7912C144.61 18.0724 144.973 18.4673 145.228 18.9759C145.487 19.4844 145.616 20.0767 145.616 20.7528C145.616 21.429 145.487 22.0199 145.228 22.5256C144.973 23.0312 144.61 23.4247 144.142 23.706C143.673 23.9872 143.119 24.1278 142.48 24.1278ZM142.488 22.892C142.835 22.892 143.125 22.7969 143.358 22.6065C143.591 22.4134 143.764 22.1548 143.877 21.831C143.994 21.5071 144.052 21.1463 144.052 20.7486C144.052 20.348 143.994 19.9858 143.877 19.6619C143.764 19.3352 143.591 19.0753 143.358 18.8821C143.125 18.6889 142.835 18.5923 142.488 18.5923C142.133 18.5923 141.838 18.6889 141.602 18.8821C141.369 19.0753 141.194 19.3352 141.078 19.6619C140.964 19.9858 140.907 20.348 140.907 20.7486C140.907 21.1463 140.964 21.5071 141.078 21.831C141.194 22.1548 141.369 22.4134 141.602 22.6065C141.838 22.7969 142.133 22.892 142.488 22.892ZM146.925 24V17.4545H148.421V18.5455H148.489C148.609 18.1676 148.813 17.8764 149.103 17.6719C149.396 17.4645 149.729 17.3608 150.104 17.3608C150.19 17.3608 150.285 17.3651 150.39 17.3736C150.498 17.3793 150.587 17.3892 150.658 17.4034V18.8224C150.593 18.7997 150.489 18.7798 150.347 18.7628C150.208 18.7429 150.073 18.733 149.942 18.733C149.661 18.733 149.408 18.794 149.184 18.9162C148.962 19.0355 148.788 19.2017 148.66 19.4148C148.532 19.6278 148.468 19.8736 148.468 20.152V24H146.925ZM155.303 17.4545V18.6477H151.54V17.4545H155.303ZM152.469 15.8864H154.012V22.0312C154.012 22.2386 154.043 22.3977 154.106 22.5085C154.171 22.6165 154.256 22.6903 154.362 22.7301C154.467 22.7699 154.583 22.7898 154.711 22.7898C154.808 22.7898 154.896 22.7827 154.975 22.7685C155.058 22.7543 155.12 22.7415 155.163 22.7301L155.423 23.9361C155.34 23.9645 155.222 23.9957 155.069 24.0298C154.918 24.0639 154.734 24.0838 154.515 24.0895C154.129 24.1009 153.781 24.0426 153.471 23.9148C153.161 23.7841 152.915 23.5824 152.734 23.3097C152.555 23.0369 152.467 22.696 152.469 22.2869V15.8864Z" fill="#274B73"/>
</svg>
