<svg width="188" height="192" viewBox="0 0 188 192" fill="none" xmlns="http://www.w3.org/2000/svg">
<g clip-path="url(#clip0_1112_23975)">
<rect width="188" height="192" fill="#F4F5F7"/>
<rect width="188" height="50" fill="#BDD1EF"/>
<rect x="-26" y="50" width="240" height="1" fill="#E1E4EB"/>
<path d="M94.0016 101.6C86.0672 101.6 79.6016 108.065 79.6016 116C79.6016 123.934 86.0672 130.4 94.0016 130.4C101.936 130.4 108.402 123.934 108.402 116C108.402 108.065 101.936 101.6 94.0016 101.6ZM99.7616 117.08H95.0816V121.76C95.0816 122.35 94.592 122.84 94.0016 122.84C93.4112 122.84 92.9216 122.35 92.9216 121.76V117.08H88.2416C87.6512 117.08 87.1616 116.59 87.1616 116C87.1616 115.409 87.6512 114.92 88.2416 114.92H92.9216V110.24C92.9216 109.649 93.4112 109.16 94.0016 109.16C94.592 109.16 95.0816 109.649 95.0816 110.24V114.92H99.7616C100.352 114.92 100.842 115.409 100.842 116C100.842 116.59 100.352 117.08 99.7616 117.08Z" fill="#687181"/>
<rect x="71" y="93" width="46" height="46" rx="23" stroke="#FC8A8A" stroke-width="2" stroke-dasharray="4 4"/>
<path d="M56.2626 31V18.454H60.4026C61.8186 18.454 62.8866 18.76 63.6066 19.372C64.3266 19.972 64.6866 20.878 64.6866 22.09C64.6866 23.302 64.3206 24.226 63.5886 24.862C62.8566 25.498 61.7946 25.816 60.4026 25.816H58.5666V31H56.2626ZM58.5666 23.746H60.1686C60.8646 23.746 61.4046 23.626 61.7886 23.386C62.1726 23.134 62.3646 22.708 62.3646 22.108C62.3646 21.532 62.1786 21.13 61.8066 20.902C61.4466 20.662 60.9006 20.542 60.1686 20.542H58.5666V23.746ZM71.8446 31L71.6646 29.668V25.402C71.6646 24.874 71.4966 24.484 71.1606 24.232C70.8366 23.968 70.3926 23.836 69.8286 23.836C69.3606 23.836 68.8806 23.932 68.3886 24.124C67.9086 24.304 67.4826 24.562 67.1106 24.898L65.9766 23.368C66.6006 22.864 67.2366 22.504 67.8846 22.288C68.5446 22.06 69.2526 21.946 70.0086 21.946C71.2326 21.946 72.1866 22.252 72.8706 22.864C73.5546 23.476 73.8966 24.322 73.8966 25.402V31H71.8446ZM69.1626 31.18C68.5146 31.18 67.9326 31.06 67.4166 30.82C66.9126 30.58 66.5106 30.238 66.2106 29.794C65.9226 29.35 65.7786 28.84 65.7786 28.264C65.7786 27.748 65.8806 27.31 66.0846 26.95C66.3006 26.578 66.5826 26.296 66.9306 26.104C67.2306 25.924 67.5606 25.798 67.9206 25.726C68.2926 25.654 68.6886 25.618 69.1086 25.618H71.8626V27.274H69.4326C69.2406 27.274 69.0486 27.292 68.8566 27.328C68.6766 27.352 68.5206 27.418 68.3886 27.526C68.2686 27.61 68.1786 27.718 68.1186 27.85C68.0586 27.97 68.0286 28.108 68.0286 28.264C68.0286 28.6 68.1606 28.87 68.4246 29.074C68.6886 29.278 69.0426 29.38 69.4866 29.38C69.8826 29.38 70.2426 29.296 70.5666 29.128C70.9026 28.948 71.1666 28.708 71.3586 28.408C71.5626 28.096 71.6646 27.742 71.6646 27.346L72.2586 28.534C72.1026 29.158 71.8626 29.668 71.5386 30.064C71.2266 30.448 70.8666 30.73 70.4586 30.91C70.0506 31.09 69.6186 31.18 69.1626 31.18ZM76.4567 34.672L78.2567 30.316L74.9087 22.126H77.3567L79.4447 28.084L81.5687 22.126H83.9807L78.8867 34.672H76.4567ZM93.1233 31.18C92.4633 31.18 91.8873 31.084 91.3953 30.892C90.9033 30.7 90.4833 30.46 90.1353 30.172C89.7993 29.884 89.5293 29.608 89.3253 29.344L90.8553 28.012C91.0593 28.348 91.3473 28.66 91.7193 28.948C92.1033 29.224 92.5773 29.362 93.1413 29.362C93.5853 29.362 93.9273 29.278 94.1673 29.11C94.4193 28.93 94.5453 28.708 94.5453 28.444C94.5453 28.228 94.4673 28.054 94.3113 27.922C94.1553 27.778 93.9453 27.664 93.6813 27.58C93.4173 27.484 93.1233 27.394 92.7993 27.31C92.4633 27.214 92.1153 27.106 91.7553 26.986C91.3953 26.866 91.0653 26.71 90.7653 26.518C90.4653 26.314 90.2193 26.056 90.0273 25.744C89.8473 25.432 89.7573 25.042 89.7573 24.574C89.7573 23.794 90.0633 23.164 90.6753 22.684C91.2873 22.192 92.0973 21.946 93.1053 21.946C93.8133 21.946 94.4553 22.09 95.0313 22.378C95.6073 22.654 96.0633 23.056 96.3993 23.584L95.0133 24.682C94.7973 24.334 94.5093 24.076 94.1493 23.908C93.8013 23.728 93.4293 23.638 93.0333 23.638C92.6853 23.638 92.3973 23.704 92.1693 23.836C91.9533 23.968 91.8453 24.148 91.8453 24.376C91.8453 24.532 91.8933 24.664 91.9893 24.772C92.0973 24.88 92.2653 24.976 92.4933 25.06C92.7333 25.132 93.0453 25.216 93.4293 25.312C93.7893 25.396 94.1613 25.498 94.5453 25.618C94.9293 25.738 95.2893 25.9 95.6253 26.104C95.9613 26.308 96.2313 26.578 96.4353 26.914C96.6393 27.25 96.7413 27.676 96.7413 28.192C96.7413 28.78 96.5913 29.302 96.2913 29.758C95.9913 30.202 95.5713 30.55 95.0313 30.802C94.4913 31.054 93.8553 31.18 93.1233 31.18ZM100.606 31.18C99.9935 31.18 99.4895 30.994 99.0935 30.622C98.6975 30.25 98.4995 29.662 98.4995 28.858V18.454H100.714V28.426C100.714 28.678 100.774 28.858 100.894 28.966C101.014 29.062 101.17 29.11 101.362 29.11C101.458 29.11 101.56 29.104 101.668 29.092C101.776 29.068 101.89 29.038 102.01 29.002V30.91C101.758 31.006 101.506 31.072 101.254 31.108C101.014 31.156 100.798 31.18 100.606 31.18ZM103.527 31V22.126H105.759V31H103.527ZM103.455 20.758V18.454H105.849V20.758H103.455ZM107.957 34.672V22.126H110.189V24.502L109.649 24.682C109.805 23.974 110.039 23.422 110.351 23.026C110.675 22.63 111.041 22.354 111.449 22.198C111.857 22.03 112.283 21.946 112.727 21.946C113.507 21.946 114.179 22.15 114.743 22.558C115.319 22.954 115.757 23.5 116.057 24.196C116.357 24.892 116.507 25.684 116.507 26.572C116.507 27.532 116.339 28.36 116.003 29.056C115.667 29.74 115.211 30.268 114.635 30.64C114.059 31 113.423 31.18 112.727 31.18C112.259 31.18 111.815 31.084 111.395 30.892C110.975 30.7 110.615 30.412 110.315 30.028C110.027 29.632 109.829 29.134 109.721 28.534L110.189 28.606V34.672H107.957ZM112.115 29.128C112.559 29.128 112.937 29.026 113.249 28.822C113.573 28.606 113.825 28.306 114.005 27.922C114.185 27.538 114.275 27.088 114.275 26.572C114.275 26.044 114.185 25.588 114.005 25.204C113.825 24.82 113.573 24.526 113.249 24.322C112.937 24.106 112.559 23.998 112.115 23.998C111.683 23.998 111.305 24.106 110.981 24.322C110.669 24.538 110.423 24.838 110.243 25.222C110.075 25.594 109.991 26.044 109.991 26.572C109.991 27.088 110.075 27.538 110.243 27.922C110.423 28.306 110.669 28.606 110.981 28.822C111.305 29.026 111.683 29.128 112.115 29.128ZM122.609 31V29.308C122.993 29.02 123.443 28.69 123.959 28.318C124.475 27.946 124.997 27.538 125.525 27.094C126.065 26.65 126.563 26.176 127.019 25.672C127.475 25.168 127.841 24.64 128.117 24.088C128.405 23.536 128.549 22.972 128.549 22.396C128.549 21.856 128.405 21.406 128.117 21.046C127.829 20.674 127.379 20.488 126.767 20.488C126.263 20.488 125.861 20.614 125.561 20.866C125.273 21.118 125.063 21.442 124.931 21.838C124.799 22.222 124.721 22.624 124.697 23.044L122.501 22.882C122.501 22.318 122.591 21.766 122.771 21.226C122.963 20.686 123.239 20.2 123.599 19.768C123.971 19.324 124.427 18.97 124.967 18.706C125.507 18.442 126.131 18.31 126.839 18.31C127.607 18.31 128.285 18.478 128.873 18.814C129.473 19.15 129.941 19.618 130.277 20.218C130.613 20.818 130.781 21.52 130.781 22.324C130.781 22.948 130.673 23.554 130.457 24.142C130.253 24.73 129.959 25.294 129.575 25.834C129.191 26.374 128.735 26.884 128.207 27.364C127.679 27.844 127.091 28.294 126.443 28.714C125.795 29.122 125.111 29.494 124.391 29.83L124.985 28.912H131.267V31H122.609Z" fill="#323740"/>
</g>
<defs>
<clipPath id="clip0_1112_23975">
<rect width="188" height="192" rx="16" fill="white"/>
</clipPath>
</defs>
</svg>
