<svg width="40" height="40" viewBox="0 0 40 40" fill="none" xmlns="http://www.w3.org/2000/svg">
<circle opacity="0.1" cx="20" cy="20" r="20" fill="#214660"/>
<path d="M24.541 28.9584C23.5994 28.9584 22.6077 28.7334 21.5827 28.3001C20.5827 27.8751 19.5743 27.2917 18.591 26.5834C17.616 25.8667 16.6743 25.0667 15.7827 24.1917C14.8993 23.3001 14.0993 22.3584 13.391 21.3917C12.6743 20.3917 12.0993 19.3917 11.691 18.4251C11.2577 17.3917 11.041 16.3917 11.041 15.4501C11.041 14.8001 11.1577 14.1834 11.3827 13.6084C11.616 13.0167 11.991 12.4667 12.4993 11.9917C13.141 11.3584 13.8743 11.0417 14.6577 11.0417C14.9827 11.0417 15.316 11.1167 15.5993 11.2501C15.9243 11.4001 16.1993 11.6251 16.3993 11.9251L18.3327 14.6501C18.5077 14.8917 18.641 15.1251 18.7327 15.3584C18.841 15.6084 18.8993 15.8584 18.8993 16.1001C18.8993 16.4167 18.8077 16.7251 18.6327 17.0167C18.5077 17.2417 18.316 17.4834 18.0743 17.7251L17.5077 18.3167C17.516 18.3417 17.5243 18.3584 17.5327 18.3751C17.6327 18.5501 17.8327 18.8501 18.216 19.3001C18.6243 19.7667 19.0077 20.1917 19.391 20.5834C19.8827 21.0667 20.291 21.4501 20.6743 21.7667C21.1493 22.1667 21.4577 22.3667 21.641 22.4584L21.6243 22.5001L22.2327 21.9001C22.491 21.6417 22.741 21.4501 22.9827 21.3251C23.441 21.0417 24.0244 20.9917 24.6077 21.2334C24.8244 21.3251 25.0577 21.4501 25.3077 21.6251L28.0744 23.5917C28.3827 23.8001 28.6077 24.0667 28.741 24.3834C28.866 24.7001 28.9243 24.9917 28.9243 25.2834C28.9243 25.6834 28.8327 26.0834 28.6577 26.4584C28.4827 26.8334 28.266 27.1584 27.991 27.4584C27.516 27.9834 26.9993 28.3584 26.3993 28.6001C25.8243 28.8334 25.1994 28.9584 24.541 28.9584ZM14.6577 12.2917C14.1993 12.2917 13.7743 12.4917 13.366 12.8917C12.9827 13.2501 12.716 13.6417 12.5493 14.0667C12.3743 14.5001 12.291 14.9584 12.291 15.4501C12.291 16.2251 12.4743 17.0667 12.841 17.9334C13.216 18.8167 13.741 19.7334 14.4077 20.6501C15.0743 21.5667 15.8327 22.4584 16.666 23.3001C17.4993 24.1251 18.3993 24.8917 19.3243 25.5667C20.2243 26.2251 21.1493 26.7584 22.066 27.1417C23.491 27.7501 24.8244 27.8917 25.9244 27.4334C26.3494 27.2584 26.7243 26.9917 27.066 26.6084C27.2577 26.4001 27.4077 26.1751 27.5327 25.9084C27.6327 25.7001 27.6827 25.4834 27.6827 25.2667C27.6827 25.1334 27.6577 25.0001 27.591 24.8501C27.566 24.8001 27.516 24.7084 27.3577 24.6001L24.591 22.6334C24.4243 22.5167 24.2743 22.4334 24.1327 22.3751C23.9493 22.3001 23.8743 22.2251 23.591 22.4001C23.4243 22.4834 23.2743 22.6084 23.1077 22.7751L22.4743 23.4001C22.1493 23.7167 21.6493 23.7917 21.266 23.6501L21.041 23.5501C20.6993 23.3667 20.2993 23.0834 19.8577 22.7084C19.4577 22.3667 19.0243 21.9667 18.4993 21.4501C18.091 21.0334 17.6827 20.5917 17.2577 20.1001C16.866 19.6417 16.5827 19.2501 16.4077 18.9251L16.3077 18.6751C16.2577 18.4834 16.241 18.3751 16.241 18.2584C16.241 17.9584 16.3493 17.6917 16.5577 17.4834L17.1827 16.8334C17.3493 16.6667 17.4743 16.5084 17.5577 16.3667C17.6243 16.2584 17.6493 16.1667 17.6493 16.0834C17.6493 16.0167 17.6243 15.9167 17.5827 15.8167C17.5243 15.6834 17.4327 15.5334 17.316 15.3751L15.3827 12.6417C15.2993 12.5251 15.1993 12.4417 15.0743 12.3834C14.941 12.3251 14.7993 12.2917 14.6577 12.2917ZM21.6243 22.5084L21.491 23.0751L21.716 22.4917C21.6743 22.4834 21.641 22.4917 21.6243 22.5084Z" fill="#214660"/>
</svg>
