<svg width="183" height="192" viewBox="0 0 183 192" fill="none" xmlns="http://www.w3.org/2000/svg">
<rect width="183" height="192" fill="#F2F2F2"/>
<rect y="40" width="183" height="1" fill="#E6E6E6"/>
<path d="M92.0016 101.6C84.0672 101.6 77.6016 108.066 77.6016 116C77.6016 123.934 84.0672 130.4 92.0016 130.4C99.936 130.4 106.402 123.934 106.402 116C106.402 108.066 99.936 101.6 92.0016 101.6ZM97.7616 117.08H93.0816V121.76C93.0816 122.35 92.592 122.84 92.0016 122.84C91.4112 122.84 90.9216 122.35 90.9216 121.76V117.08H86.2416C85.6512 117.08 85.1616 116.59 85.1616 116C85.1616 115.41 85.6512 114.92 86.2416 114.92H90.9216V110.24C90.9216 109.65 91.4112 109.16 92.0016 109.16C92.592 109.16 93.0816 109.65 93.0816 110.24V114.92H97.7616C98.352 114.92 98.8416 115.41 98.8416 116C98.8416 116.59 98.352 117.08 97.7616 117.08Z" fill="#214660"/>
<rect x="69" y="93" width="46" height="46" rx="23" stroke="#FC8A8A" stroke-width="2" stroke-dasharray="4 4"/>
<path d="M36.0854 24V15.2727H39.3581C40.0286 15.2727 40.5911 15.3892 41.0456 15.6222C41.503 15.8551 41.8482 16.1818 42.0811 16.6023C42.3169 17.0199 42.4348 17.5071 42.4348 18.0639C42.4348 18.6236 42.3155 19.1094 42.0769 19.5213C41.8411 19.9304 41.4931 20.2472 41.0328 20.4716C40.5726 20.6932 40.0073 20.804 39.3368 20.804H37.0059V19.4915H39.1238C39.5158 19.4915 39.8368 19.4375 40.0868 19.3295C40.3368 19.2187 40.5215 19.0582 40.6408 18.848C40.763 18.6349 40.824 18.3736 40.824 18.0639C40.824 17.7543 40.763 17.4901 40.6408 17.2713C40.5186 17.0497 40.3326 16.8821 40.0826 16.7685C39.8326 16.652 39.5101 16.5938 39.1152 16.5938H37.6664V24H36.0854ZM40.5939 20.0455L42.7544 24H40.9902L38.8681 20.0455H40.5939ZM46.6259 24.1278C45.9696 24.1278 45.4029 23.9915 44.9256 23.7188C44.4512 23.4432 44.0861 23.054 43.8304 22.5511C43.5748 22.0455 43.4469 21.4503 43.4469 20.7656C43.4469 20.0923 43.5748 19.5014 43.8304 18.9929C44.089 18.4815 44.4498 18.0838 44.9128 17.7997C45.3759 17.5128 45.9199 17.3693 46.5449 17.3693C46.9483 17.3693 47.329 17.4347 47.687 17.5653C48.0478 17.6932 48.3659 17.892 48.6415 18.1619C48.9199 18.4318 49.1387 18.7756 49.2978 19.1932C49.4569 19.608 49.5364 20.1023 49.5364 20.6761V21.1491H44.1713V20.1094H48.0577C48.0549 19.8139 47.9909 19.5511 47.8659 19.321C47.7409 19.0881 47.5662 18.9048 47.3418 18.7713C47.1202 18.6378 46.8617 18.571 46.5662 18.571C46.2509 18.571 45.9739 18.6477 45.7353 18.8011C45.4966 18.9517 45.3105 19.1506 45.177 19.3977C45.0463 19.642 44.9796 19.9105 44.9767 20.2031V21.1108C44.9767 21.4915 45.0463 21.8182 45.1855 22.0909C45.3248 22.3608 45.5194 22.5682 45.7694 22.7131C46.0194 22.8551 46.312 22.9261 46.6472 22.9261C46.8716 22.9261 47.0748 22.8949 47.2566 22.8324C47.4384 22.767 47.5961 22.6719 47.7296 22.5469C47.8631 22.4219 47.964 22.267 48.0321 22.0824L49.4725 22.2443C49.3816 22.625 49.2083 22.9574 48.9526 23.2415C48.6998 23.5227 48.3759 23.7415 47.981 23.8977C47.5861 24.0511 47.1344 24.1278 46.6259 24.1278ZM53.6966 24.1278C53.0431 24.1278 52.4821 23.9844 52.0133 23.6974C51.5474 23.4105 51.188 23.0142 50.9352 22.5085C50.6852 22 50.5602 21.4148 50.5602 20.7528C50.5602 20.0881 50.688 19.5014 50.9437 18.9929C51.1994 18.4815 51.5602 18.0838 52.0261 17.7997C52.4949 17.5128 53.0488 17.3693 53.688 17.3693C54.2193 17.3693 54.6895 17.4673 55.0985 17.6634C55.5105 17.8565 55.8386 18.1307 56.0829 18.4858C56.3272 18.8381 56.4664 19.25 56.5005 19.7216H55.0261C54.9664 19.4062 54.8244 19.1435 54.6 18.9332C54.3784 18.7202 54.0815 18.6136 53.7093 18.6136C53.394 18.6136 53.117 18.6989 52.8784 18.8693C52.6397 19.0369 52.4537 19.2784 52.3201 19.5938C52.1895 19.9091 52.1241 20.2869 52.1241 20.7273C52.1241 21.1733 52.1895 21.5568 52.3201 21.8778C52.4508 22.196 52.6341 22.4418 52.8699 22.6151C53.1085 22.7855 53.3883 22.8707 53.7093 22.8707C53.9366 22.8707 54.1397 22.8281 54.3187 22.7429C54.5005 22.6548 54.6525 22.5284 54.7747 22.3636C54.8968 22.1989 54.9806 21.9986 55.0261 21.7628H56.5005C56.4636 22.2259 56.3272 22.6364 56.0914 22.9943C55.8556 23.3494 55.5346 23.6278 55.1284 23.8295C54.7221 24.0284 54.2449 24.1278 53.6966 24.1278ZM60.665 24.1278C60.0087 24.1278 59.4419 23.9915 58.9647 23.7188C58.4902 23.4432 58.1252 23.054 57.8695 22.5511C57.6138 22.0455 57.486 21.4503 57.486 20.7656C57.486 20.0923 57.6138 19.5014 57.8695 18.9929C58.128 18.4815 58.4888 18.0838 58.9519 17.7997C59.415 17.5128 59.959 17.3693 60.584 17.3693C60.9874 17.3693 61.3681 17.4347 61.726 17.5653C62.0868 17.6932 62.405 17.892 62.6806 18.1619C62.959 18.4318 63.1777 18.7756 63.3368 19.1932C63.4959 19.608 63.5755 20.1023 63.5755 20.6761V21.1491H58.2104V20.1094H62.0968C62.0939 19.8139 62.03 19.5511 61.905 19.321C61.78 19.0881 61.6053 18.9048 61.3809 18.7713C61.1593 18.6378 60.9007 18.571 60.6053 18.571C60.29 18.571 60.013 18.6477 59.7743 18.8011C59.5357 18.9517 59.3496 19.1506 59.2161 19.3977C59.0854 19.642 59.0186 19.9105 59.0158 20.2031V21.1108C59.0158 21.4915 59.0854 21.8182 59.2246 22.0909C59.3638 22.3608 59.5584 22.5682 59.8084 22.7131C60.0584 22.8551 60.351 22.9261 60.6863 22.9261C60.9107 22.9261 61.1138 22.8949 61.2956 22.8324C61.4775 22.767 61.6351 22.6719 61.7686 22.5469C61.9022 22.4219 62.003 22.267 62.0712 22.0824L63.5115 22.2443C63.4206 22.625 63.2473 22.9574 62.9917 23.2415C62.7388 23.5227 62.415 23.7415 62.0201 23.8977C61.6252 24.0511 61.1735 24.1278 60.665 24.1278ZM66.4231 20.1648V24H64.8805V17.4545H66.3549V18.5668H66.4316C66.5822 18.2003 66.8223 17.9091 67.1518 17.6932C67.4842 17.4773 67.8947 17.3693 68.3833 17.3693C68.835 17.3693 69.2285 17.4659 69.5637 17.6591C69.9018 17.8523 70.1632 18.1321 70.3478 18.4986C70.5353 18.8651 70.6277 19.3097 70.6248 19.8324V24H69.0822V20.071C69.0822 19.6335 68.9686 19.2912 68.7413 19.044C68.5169 18.7969 68.2058 18.6733 67.8081 18.6733C67.5382 18.6733 67.2981 18.733 67.0879 18.8523C66.8805 18.9687 66.7172 19.1378 66.5978 19.3594C66.4814 19.581 66.4231 19.8494 66.4231 20.1648ZM75.4615 17.4545V18.6477H71.6987V17.4545H75.4615ZM72.6277 15.8864H74.1703V22.0312C74.1703 22.2386 74.2015 22.3977 74.264 22.5085C74.3294 22.6165 74.4146 22.6903 74.5197 22.7301C74.6248 22.7699 74.7413 22.7898 74.8691 22.7898C74.9657 22.7898 75.0538 22.7827 75.1333 22.7685C75.2157 22.7543 75.2782 22.7415 75.3208 22.7301L75.5808 23.9361C75.4984 23.9645 75.3805 23.9957 75.2271 24.0298C75.0765 24.0639 74.8919 24.0838 74.6731 24.0895C74.2868 24.1009 73.9387 24.0426 73.6291 23.9148C73.3194 23.7841 73.0737 23.5824 72.8919 23.3097C72.7129 23.0369 72.6248 22.696 72.6277 22.2869V15.8864ZM79.7282 26.4545V17.4545H81.2452V18.5369H81.3347C81.4142 18.3778 81.5265 18.2088 81.6713 18.0298C81.8162 17.848 82.0123 17.6932 82.2594 17.5653C82.5066 17.4347 82.8219 17.3693 83.2054 17.3693C83.7111 17.3693 84.1671 17.4986 84.5733 17.7571C84.9824 18.0128 85.3063 18.392 85.5449 18.8949C85.7864 19.3949 85.9071 20.0085 85.9071 20.7358C85.9071 21.4545 85.7892 22.0653 85.5534 22.5682C85.3176 23.071 84.9966 23.4545 84.5904 23.7188C84.1841 23.983 83.7239 24.1151 83.2097 24.1151C82.8347 24.1151 82.5236 24.0526 82.2765 23.9276C82.0293 23.8026 81.8304 23.652 81.6799 23.4759C81.5321 23.2969 81.4171 23.1278 81.3347 22.9688H81.2708V26.4545H79.7282ZM81.2409 20.7273C81.2409 21.1506 81.3006 21.5213 81.4199 21.8395C81.5421 22.1577 81.7168 22.4062 81.9441 22.5852C82.1742 22.7614 82.4526 22.8494 82.7793 22.8494C83.1202 22.8494 83.4057 22.7585 83.6358 22.5767C83.8659 22.392 84.0392 22.1406 84.1557 21.8224C84.275 21.5014 84.3347 21.1364 84.3347 20.7273C84.3347 20.321 84.2765 19.9602 84.16 19.6449C84.0435 19.3295 83.8702 19.0824 83.6401 18.9034C83.41 18.7244 83.123 18.6349 82.7793 18.6349C82.4498 18.6349 82.1699 18.7216 81.9398 18.8949C81.7097 19.0682 81.535 19.3111 81.4157 19.6236C81.2992 19.9361 81.2409 20.304 81.2409 20.7273ZM88.7708 20.1648V24H87.2282V15.2727H88.7367V18.5668H88.8134C88.9668 18.1974 89.204 17.9062 89.525 17.6932C89.8489 17.4773 90.2608 17.3693 90.7608 17.3693C91.2154 17.3693 91.6117 17.4645 91.9498 17.6548C92.2878 17.8452 92.5492 18.1236 92.7338 18.4901C92.9213 18.8565 93.0151 19.304 93.0151 19.8324V24H91.4725V20.071C91.4725 19.6307 91.3588 19.2884 91.1316 19.044C90.9071 18.7969 90.5918 18.6733 90.1855 18.6733C89.9128 18.6733 89.6685 18.733 89.4526 18.8523C89.2395 18.9687 89.0719 19.1378 88.9498 19.3594C88.8304 19.581 88.7708 19.8494 88.7708 20.1648ZM97.4426 24.1278C96.8034 24.1278 96.2495 23.9872 95.7807 23.706C95.312 23.4247 94.9483 23.0312 94.6898 22.5256C94.4341 22.0199 94.3063 21.429 94.3063 20.7528C94.3063 20.0767 94.4341 19.4844 94.6898 18.9759C94.9483 18.4673 95.312 18.0724 95.7807 17.7912C96.2495 17.5099 96.8034 17.3693 97.4426 17.3693C98.0819 17.3693 98.6358 17.5099 99.1046 17.7912C99.5733 18.0724 99.9355 18.4673 100.191 18.9759C100.45 19.4844 100.579 20.0767 100.579 20.7528C100.579 21.429 100.45 22.0199 100.191 22.5256C99.9355 23.0312 99.5733 23.4247 99.1046 23.706C98.6358 23.9872 98.0819 24.1278 97.4426 24.1278ZM97.4512 22.892C97.7978 22.892 98.0875 22.7969 98.3205 22.6065C98.5534 22.4134 98.7267 22.1548 98.8404 21.831C98.9569 21.5071 99.0151 21.1463 99.0151 20.7486C99.0151 20.348 98.9569 19.9858 98.8404 19.6619C98.7267 19.3352 98.5534 19.0753 98.3205 18.8821C98.0875 18.6889 97.7978 18.5923 97.4512 18.5923C97.0961 18.5923 96.8006 18.6889 96.5648 18.8821C96.3319 19.0753 96.1571 19.3352 96.0407 19.6619C95.927 19.9858 95.8702 20.348 95.8702 20.7486C95.8702 21.1463 95.927 21.5071 96.0407 21.831C96.1571 22.1548 96.3319 22.4134 96.5648 22.6065C96.8006 22.7969 97.0961 22.892 97.4512 22.892ZM105.157 17.4545V18.6477H101.394V17.4545H105.157ZM102.323 15.8864H103.866V22.0312C103.866 22.2386 103.897 22.3977 103.959 22.5085C104.025 22.6165 104.11 22.6903 104.215 22.7301C104.32 22.7699 104.437 22.7898 104.564 22.7898C104.661 22.7898 104.749 22.7827 104.829 22.7685C104.911 22.7543 104.974 22.7415 105.016 22.7301L105.276 23.9361C105.194 23.9645 105.076 23.9957 104.922 24.0298C104.772 24.0639 104.587 24.0838 104.368 24.0895C103.982 24.1009 103.634 24.0426 103.324 23.9148C103.015 23.7841 102.769 23.5824 102.587 23.3097C102.408 23.0369 102.32 22.696 102.323 22.2869V15.8864ZM109.232 24.1278C108.593 24.1278 108.039 23.9872 107.57 23.706C107.101 23.4247 106.737 23.0312 106.479 22.5256C106.223 22.0199 106.095 21.429 106.095 20.7528C106.095 20.0767 106.223 19.4844 106.479 18.9759C106.737 18.4673 107.101 18.0724 107.57 17.7912C108.039 17.5099 108.593 17.3693 109.232 17.3693C109.871 17.3693 110.425 17.5099 110.894 17.7912C111.362 18.0724 111.725 18.4673 111.98 18.9759C112.239 19.4844 112.368 20.0767 112.368 20.7528C112.368 21.429 112.239 22.0199 111.98 22.5256C111.725 23.0312 111.362 23.4247 110.894 23.706C110.425 23.9872 109.871 24.1278 109.232 24.1278ZM109.24 22.892C109.587 22.892 109.877 22.7969 110.11 22.6065C110.343 22.4134 110.516 22.1548 110.629 21.831C110.746 21.5071 110.804 21.1463 110.804 20.7486C110.804 20.348 110.746 19.9858 110.629 19.6619C110.516 19.3352 110.343 19.0753 110.11 18.8821C109.877 18.6889 109.587 18.5923 109.24 18.5923C108.885 18.5923 108.59 18.6889 108.354 18.8821C108.121 19.0753 107.946 19.3352 107.83 19.6619C107.716 19.9858 107.659 20.348 107.659 20.7486C107.659 21.1463 107.716 21.5071 107.83 21.831C107.946 22.1548 108.121 22.4134 108.354 22.6065C108.59 22.7969 108.885 22.892 109.24 22.892ZM116.524 26.5909C115.97 26.5909 115.494 26.5156 115.096 26.3651C114.699 26.2173 114.379 26.0185 114.138 25.7685C113.896 25.5185 113.729 25.2415 113.635 24.9375L115.024 24.6009C115.086 24.7287 115.177 24.8551 115.297 24.9801C115.416 25.108 115.577 25.2131 115.778 25.2955C115.983 25.3807 116.24 25.4233 116.55 25.4233C116.987 25.4233 117.349 25.3168 117.636 25.1037C117.923 24.8935 118.067 24.5469 118.067 24.0639V22.8239H117.99C117.91 22.983 117.794 23.1463 117.64 23.3139C117.49 23.4815 117.29 23.6222 117.04 23.7358C116.792 23.8494 116.481 23.9062 116.106 23.9062C115.604 23.9062 115.148 23.7884 114.738 23.5526C114.332 23.3139 114.008 22.9588 113.767 22.4872C113.528 22.0128 113.409 21.419 113.409 20.706C113.409 19.9872 113.528 19.3807 113.767 18.8864C114.008 18.3892 114.334 18.0128 114.743 17.7571C115.152 17.4986 115.608 17.3693 116.111 17.3693C116.494 17.3693 116.809 17.4347 117.057 17.5653C117.307 17.6932 117.506 17.848 117.653 18.0298C117.801 18.2088 117.913 18.3778 117.99 18.5369H118.075V17.4545H119.596V24.1065C119.596 24.6662 119.463 25.1293 119.196 25.4957C118.929 25.8622 118.564 26.1364 118.101 26.3182C117.638 26.5 117.112 26.5909 116.524 26.5909ZM116.537 22.696C116.863 22.696 117.142 22.6165 117.372 22.4574C117.602 22.2983 117.777 22.0696 117.896 21.7713C118.015 21.473 118.075 21.1151 118.075 20.6974C118.075 20.2855 118.015 19.9247 117.896 19.6151C117.78 19.3054 117.606 19.0653 117.376 18.8949C117.149 18.7216 116.869 18.6349 116.537 18.6349C116.193 18.6349 115.906 18.7244 115.676 18.9034C115.446 19.0824 115.273 19.3281 115.156 19.6406C115.04 19.9503 114.981 20.3026 114.981 20.6974C114.981 21.098 115.04 21.4489 115.156 21.75C115.275 22.0483 115.45 22.2812 115.68 22.4489C115.913 22.6136 116.199 22.696 116.537 22.696ZM121.177 24V17.4545H122.673V18.5455H122.741C122.861 18.1676 123.065 17.8764 123.355 17.6719C123.648 17.4645 123.981 17.3608 124.356 17.3608C124.442 17.3608 124.537 17.3651 124.642 17.3736C124.75 17.3793 124.839 17.3892 124.91 17.4034V18.8224C124.845 18.7997 124.741 18.7798 124.599 18.7628C124.46 18.7429 124.325 18.733 124.194 18.733C123.913 18.733 123.66 18.794 123.436 18.9162C123.214 19.0355 123.04 19.2017 122.912 19.4148C122.784 19.6278 122.72 19.8736 122.72 20.152V24H121.177ZM127.702 24.1321C127.287 24.1321 126.913 24.0582 126.581 23.9105C126.251 23.7599 125.99 23.5384 125.797 23.2457C125.606 22.9531 125.511 22.5923 125.511 22.1634C125.511 21.794 125.579 21.4886 125.716 21.2472C125.852 21.0057 126.038 20.8125 126.274 20.6676C126.51 20.5227 126.775 20.4134 127.071 20.3395C127.369 20.2628 127.677 20.2074 127.996 20.1733C128.379 20.1335 128.69 20.098 128.929 20.0668C129.167 20.0327 129.341 19.9815 129.449 19.9134C129.559 19.8423 129.615 19.733 129.615 19.5852V19.5597C129.615 19.2386 129.52 18.9901 129.329 18.8139C129.139 18.6378 128.865 18.5497 128.507 18.5497C128.129 18.5497 127.829 18.6321 127.608 18.7969C127.389 18.9616 127.241 19.1562 127.165 19.3807L125.724 19.1761C125.838 18.7784 126.025 18.446 126.287 18.179C126.548 17.9091 126.868 17.7074 127.246 17.5739C127.623 17.4375 128.041 17.3693 128.498 17.3693C128.814 17.3693 129.128 17.4062 129.44 17.4801C129.753 17.554 130.038 17.6761 130.297 17.8466C130.555 18.0142 130.763 18.2429 130.919 18.5327C131.078 18.8224 131.157 19.1847 131.157 19.6193V24H129.675V23.1009H129.623C129.53 23.2827 129.398 23.4531 129.227 23.6122C129.059 23.7685 128.848 23.8949 128.592 23.9915C128.339 24.0852 128.042 24.1321 127.702 24.1321ZM128.102 22.9986C128.412 22.9986 128.68 22.9375 128.907 22.8153C129.135 22.6903 129.309 22.5256 129.432 22.321C129.557 22.1165 129.619 21.8935 129.619 21.652V20.8807C129.571 20.9205 129.488 20.9574 129.372 20.9915C129.258 21.0256 129.131 21.0554 128.988 21.081C128.846 21.1065 128.706 21.1293 128.567 21.1491C128.427 21.169 128.307 21.1861 128.204 21.2003C127.974 21.2315 127.768 21.2827 127.586 21.3537C127.405 21.4247 127.261 21.5241 127.156 21.652C127.051 21.777 126.998 21.9389 126.998 22.1378C126.998 22.4219 127.102 22.6364 127.309 22.7812C127.517 22.9261 127.781 22.9986 128.102 22.9986ZM132.709 26.4545V17.4545H134.226V18.5369H134.315C134.395 18.3778 134.507 18.2088 134.652 18.0298C134.797 17.848 134.993 17.6932 135.24 17.5653C135.487 17.4347 135.802 17.3693 136.186 17.3693C136.692 17.3693 137.148 17.4986 137.554 17.7571C137.963 18.0128 138.287 18.392 138.525 18.8949C138.767 19.3949 138.888 20.0085 138.888 20.7358C138.888 21.4545 138.77 22.0653 138.534 22.5682C138.298 23.071 137.977 23.4545 137.571 23.7188C137.165 23.983 136.704 24.1151 136.19 24.1151C135.815 24.1151 135.504 24.0526 135.257 23.9276C135.01 23.8026 134.811 23.652 134.66 23.4759C134.513 23.2969 134.398 23.1278 134.315 22.9688H134.251V26.4545H132.709ZM134.221 20.7273C134.221 21.1506 134.281 21.5213 134.4 21.8395C134.523 22.1577 134.697 22.4062 134.925 22.5852C135.155 22.7614 135.433 22.8494 135.76 22.8494C136.101 22.8494 136.386 22.7585 136.616 22.5767C136.846 22.392 137.02 22.1406 137.136 21.8224C137.256 21.5014 137.315 21.1364 137.315 20.7273C137.315 20.321 137.257 19.9602 137.14 19.6449C137.024 19.3295 136.851 19.0824 136.621 18.9034C136.39 18.7244 136.104 18.6349 135.76 18.6349C135.43 18.6349 135.15 18.7216 134.92 18.8949C134.69 19.0682 134.515 19.3111 134.396 19.6236C134.28 19.9361 134.221 20.304 134.221 20.7273ZM141.751 20.1648V24H140.209V15.2727H141.717V18.5668H141.794C141.947 18.1974 142.184 17.9062 142.506 17.6932C142.829 17.4773 143.241 17.3693 143.741 17.3693C144.196 17.3693 144.592 17.4645 144.93 17.6548C145.268 17.8452 145.53 18.1236 145.714 18.4901C145.902 18.8565 145.996 19.304 145.996 19.8324V24H144.453V20.071C144.453 19.6307 144.339 19.2884 144.112 19.044C143.888 18.7969 143.572 18.6733 143.166 18.6733C142.893 18.6733 142.649 18.733 142.433 18.8523C142.22 18.9687 142.052 19.1378 141.93 19.3594C141.811 19.581 141.751 19.8494 141.751 20.1648Z" fill="#274B73"/>
</svg>
