<svg width="136" height="40" viewBox="0 0 136 40" fill="none" xmlns="http://www.w3.org/2000/svg">
<rect width="136" height="40" rx="4" fill="#0D0D0D"/>
<path d="M46.6002 15.295C46.7935 15.295 46.9702 15.2867 47.1302 15.27C47.2935 15.25 47.4468 15.2217 47.5902 15.185C47.7335 15.1483 47.8685 15.105 47.9952 15.055C48.1218 15.0017 48.2485 14.9417 48.3752 14.875V13.295H47.2652C47.2018 13.295 47.1502 13.2767 47.1102 13.24C47.0735 13.2033 47.0552 13.1583 47.0552 13.105V12.555H49.2552V15.305C49.0752 15.435 48.8868 15.5483 48.6902 15.645C48.4968 15.7417 48.2885 15.8233 48.0652 15.89C47.8452 15.9533 47.6085 16 47.3552 16.03C47.1018 16.0633 46.8268 16.08 46.5302 16.08C46.0102 16.08 45.5335 15.9917 45.1002 15.815C44.6668 15.635 44.2935 15.385 43.9802 15.065C43.6668 14.7417 43.4218 14.355 43.2452 13.905C43.0718 13.455 42.9852 12.96 42.9852 12.42C42.9852 11.8733 43.0702 11.375 43.2402 10.925C43.4135 10.475 43.6585 10.09 43.9752 9.77C44.2952 9.44667 44.6802 9.19667 45.1302 9.02C45.5835 8.84333 46.0902 8.755 46.6502 8.755C46.9335 8.755 47.1968 8.77667 47.4402 8.82C47.6835 8.86 47.9085 8.92 48.1152 9C48.3252 9.07667 48.5185 9.17167 48.6952 9.285C48.8718 9.395 49.0368 9.52 49.1902 9.66L48.9152 10.1C48.8585 10.19 48.7852 10.235 48.6952 10.235C48.6418 10.235 48.5835 10.2167 48.5202 10.18C48.4368 10.1333 48.3435 10.0767 48.2402 10.01C48.1368 9.94333 48.0102 9.88 47.8602 9.82C47.7135 9.75667 47.5385 9.70333 47.3352 9.66C47.1352 9.61667 46.8968 9.595 46.6202 9.595C46.2168 9.595 45.8518 9.66167 45.5252 9.795C45.1985 9.925 44.9202 10.1133 44.6902 10.36C44.4602 10.6033 44.2835 10.9 44.1602 11.25C44.0368 11.5967 43.9752 11.9867 43.9752 12.42C43.9752 12.8733 44.0385 13.2783 44.1652 13.635C44.2952 13.9883 44.4768 14.2883 44.7102 14.535C44.9435 14.7817 45.2202 14.97 45.5402 15.1C45.8602 15.23 46.2135 15.295 46.6002 15.295ZM52.6139 10.855C52.9172 10.855 53.1972 10.9067 53.4539 11.01C53.7106 11.11 53.9322 11.2567 54.1189 11.45C54.3056 11.64 54.4506 11.8767 54.5539 12.16C54.6606 12.44 54.7139 12.76 54.7139 13.12C54.7139 13.26 54.6989 13.3533 54.6689 13.4C54.6389 13.4467 54.5822 13.47 54.4989 13.47H51.1289C51.1356 13.79 51.1789 14.0683 51.2589 14.305C51.3389 14.5417 51.4489 14.74 51.5889 14.9C51.7289 15.0567 51.8956 15.175 52.0889 15.255C52.2822 15.3317 52.4989 15.37 52.7389 15.37C52.9622 15.37 53.1539 15.345 53.3139 15.295C53.4772 15.2417 53.6172 15.185 53.7339 15.125C53.8506 15.065 53.9472 15.01 54.0239 14.96C54.1039 14.9067 54.1722 14.88 54.2289 14.88C54.3022 14.88 54.3589 14.9083 54.3989 14.965L54.6489 15.29C54.5389 15.4233 54.4072 15.54 54.2539 15.64C54.1006 15.7367 53.9356 15.8167 53.7589 15.88C53.5856 15.9433 53.4056 15.99 53.2189 16.02C53.0322 16.0533 52.8472 16.07 52.6639 16.07C52.3139 16.07 51.9906 16.0117 51.6939 15.895C51.4006 15.775 51.1456 15.6017 50.9289 15.375C50.7156 15.145 50.5489 14.8617 50.4289 14.525C50.3089 14.1883 50.2489 13.8017 50.2489 13.365C50.2489 13.0117 50.3022 12.6817 50.4089 12.375C50.5189 12.0683 50.6756 11.8033 50.8789 11.58C51.0822 11.3533 51.3306 11.1767 51.6239 11.05C51.9172 10.92 52.2472 10.855 52.6139 10.855ZM52.6339 11.51C52.2039 11.51 51.8656 11.635 51.6189 11.885C51.3722 12.1317 51.2189 12.475 51.1589 12.915H53.9139C53.9139 12.7083 53.8856 12.52 53.8289 12.35C53.7722 12.1767 53.6889 12.0283 53.5789 11.905C53.4689 11.7783 53.3339 11.6817 53.1739 11.615C53.0172 11.545 52.8372 11.51 52.6339 11.51ZM57.388 16.08C56.988 16.08 56.6797 15.9683 56.463 15.745C56.2497 15.5217 56.143 15.2 56.143 14.78V11.68H55.533C55.4797 11.68 55.4347 11.665 55.398 11.635C55.3614 11.6017 55.343 11.5517 55.343 11.485V11.13L56.173 11.025L56.378 9.46C56.3847 9.41 56.4064 9.37 56.443 9.34C56.4797 9.30667 56.5264 9.29 56.583 9.29H57.033V11.035H58.483V11.68H57.033V14.72C57.033 14.9333 57.0847 15.0917 57.188 15.195C57.2914 15.2983 57.4247 15.35 57.588 15.35C57.6814 15.35 57.7614 15.3383 57.828 15.315C57.898 15.2883 57.958 15.26 58.008 15.23C58.058 15.2 58.0997 15.1733 58.133 15.15C58.1697 15.1233 58.2014 15.11 58.228 15.11C58.2747 15.11 58.3164 15.1383 58.353 15.195L58.613 15.62C58.4597 15.7633 58.2747 15.8767 58.058 15.96C57.8414 16.04 57.618 16.08 57.388 16.08ZM62.5071 10.935V16H61.6171V10.935H62.5071ZM62.7071 9.345C62.7071 9.43167 62.6888 9.51333 62.6521 9.59C62.6188 9.66333 62.5721 9.73 62.5121 9.79C62.4554 9.84667 62.3888 9.89167 62.3121 9.925C62.2354 9.95833 62.1538 9.975 62.0671 9.975C61.9804 9.975 61.8988 9.95833 61.8221 9.925C61.7488 9.89167 61.6821 9.84667 61.6221 9.79C61.5654 9.73 61.5204 9.66333 61.4871 9.59C61.4538 9.51333 61.4371 9.43167 61.4371 9.345C61.4371 9.25833 61.4538 9.17667 61.4871 9.1C61.5204 9.02 61.5654 8.95167 61.6221 8.895C61.6821 8.835 61.7488 8.78833 61.8221 8.755C61.8988 8.72167 61.9804 8.705 62.0671 8.705C62.1538 8.705 62.2354 8.72167 62.3121 8.755C62.3888 8.78833 62.4554 8.835 62.5121 8.895C62.5721 8.95167 62.6188 9.02 62.6521 9.1C62.6888 9.17667 62.7071 9.25833 62.7071 9.345ZM65.6107 16.08C65.2107 16.08 64.9024 15.9683 64.6857 15.745C64.4724 15.5217 64.3657 15.2 64.3657 14.78V11.68H63.7557C63.7024 11.68 63.6574 11.665 63.6207 11.635C63.584 11.6017 63.5657 11.5517 63.5657 11.485V11.13L64.3957 11.025L64.6007 9.46C64.6074 9.41 64.629 9.37 64.6657 9.34C64.7024 9.30667 64.749 9.29 64.8057 9.29H65.2557V11.035H66.7057V11.68H65.2557V14.72C65.2557 14.9333 65.3074 15.0917 65.4107 15.195C65.514 15.2983 65.6474 15.35 65.8107 15.35C65.904 15.35 65.984 15.3383 66.0507 15.315C66.1207 15.2883 66.1807 15.26 66.2307 15.23C66.2807 15.2 66.3224 15.1733 66.3557 15.15C66.3924 15.1233 66.424 15.11 66.4507 15.11C66.4974 15.11 66.539 15.1383 66.5757 15.195L66.8357 15.62C66.6824 15.7633 66.4974 15.8767 66.2807 15.96C66.064 16.04 65.8407 16.08 65.6107 16.08ZM71.7898 10.855C72.1598 10.855 72.4931 10.9167 72.7898 11.04C73.0898 11.1633 73.3431 11.3383 73.5498 11.565C73.7598 11.7917 73.9198 12.0667 74.0298 12.39C74.1431 12.71 74.1998 13.0683 74.1998 13.465C74.1998 13.865 74.1431 14.225 74.0298 14.545C73.9198 14.865 73.7598 15.1383 73.5498 15.365C73.3431 15.5917 73.0898 15.7667 72.7898 15.89C72.4931 16.01 72.1598 16.07 71.7898 16.07C71.4198 16.07 71.0848 16.01 70.7848 15.89C70.4881 15.7667 70.2348 15.5917 70.0248 15.365C69.8148 15.1383 69.6531 14.865 69.5398 14.545C69.4264 14.225 69.3698 13.865 69.3698 13.465C69.3698 13.0683 69.4264 12.71 69.5398 12.39C69.6531 12.0667 69.8148 11.7917 70.0248 11.565C70.2348 11.3383 70.4881 11.1633 70.7848 11.04C71.0848 10.9167 71.4198 10.855 71.7898 10.855ZM71.7898 15.375C72.2898 15.375 72.6631 15.2083 72.9098 14.875C73.1564 14.5383 73.2798 14.07 73.2798 13.47C73.2798 12.8667 73.1564 12.3967 72.9098 12.06C72.6631 11.7233 72.2898 11.555 71.7898 11.555C71.5364 11.555 71.3164 11.5983 71.1298 11.685C70.9431 11.7717 70.7864 11.8967 70.6598 12.06C70.5364 12.2233 70.4431 12.425 70.3798 12.665C70.3198 12.9017 70.2898 13.17 70.2898 13.47C70.2898 13.77 70.3198 14.0383 70.3798 14.275C70.4431 14.5117 70.5364 14.7117 70.6598 14.875C70.7864 15.035 70.9431 15.1583 71.1298 15.245C71.3164 15.3317 71.5364 15.375 71.7898 15.375ZM75.2964 16V10.935H75.8264C75.9531 10.935 76.0331 10.9967 76.0664 11.12L76.1364 11.67C76.3564 11.4267 76.6014 11.23 76.8714 11.08C77.1447 10.93 77.4597 10.855 77.8164 10.855C78.0931 10.855 78.3364 10.9017 78.5464 10.995C78.7597 11.085 78.9364 11.215 79.0764 11.385C79.2197 11.5517 79.3281 11.7533 79.4014 11.99C79.4747 12.2267 79.5114 12.4883 79.5114 12.775V16H78.6214V12.775C78.6214 12.3917 78.5331 12.095 78.3564 11.885C78.1831 11.6717 77.9164 11.565 77.5564 11.565C77.2931 11.565 77.0464 11.6283 76.8164 11.755C76.5897 11.8817 76.3797 12.0533 76.1864 12.27V16H75.2964ZM48.2262 31.013C48.4968 31.013 48.7442 31.0013 48.9682 30.978C49.1968 30.95 49.4115 30.9103 49.6122 30.859C49.8128 30.8077 50.0018 30.747 50.1792 30.677C50.3565 30.6023 50.5338 30.5183 50.7112 30.425V28.213H49.1572C49.0685 28.213 48.9962 28.1873 48.9402 28.136C48.8888 28.0847 48.8632 28.0217 48.8632 27.947V27.177H51.9432V31.027C51.6912 31.209 51.4275 31.3677 51.1522 31.503C50.8815 31.6383 50.5898 31.7527 50.2772 31.846C49.9692 31.9347 49.6378 32 49.2832 32.042C48.9285 32.0887 48.5435 32.112 48.1282 32.112C47.4002 32.112 46.7328 31.9883 46.1262 31.741C45.5195 31.489 44.9968 31.139 44.5582 30.691C44.1195 30.2383 43.7765 29.697 43.5292 29.067C43.2865 28.437 43.1652 27.744 43.1652 26.988C43.1652 26.2227 43.2842 25.525 43.5222 24.895C43.7648 24.265 44.1078 23.726 44.5512 23.278C44.9992 22.8253 45.5382 22.4753 46.1682 22.228C46.8028 21.9807 47.5122 21.857 48.2962 21.857C48.6928 21.857 49.0615 21.8873 49.4022 21.948C49.7428 22.004 50.0578 22.088 50.3472 22.2C50.6412 22.3073 50.9118 22.4403 51.1592 22.599C51.4065 22.753 51.6375 22.928 51.8522 23.124L51.4672 23.74C51.3878 23.866 51.2852 23.929 51.1592 23.929C51.0845 23.929 51.0028 23.9033 50.9142 23.852C50.7975 23.7867 50.6668 23.7073 50.5222 23.614C50.3775 23.5207 50.2002 23.432 49.9902 23.348C49.7848 23.2593 49.5398 23.1847 49.2552 23.124C48.9752 23.0633 48.6415 23.033 48.2542 23.033C47.6895 23.033 47.1785 23.1263 46.7212 23.313C46.2638 23.495 45.8742 23.7587 45.5522 24.104C45.2302 24.4447 44.9828 24.86 44.8102 25.35C44.6375 25.8353 44.5512 26.3813 44.5512 26.988C44.5512 27.6227 44.6398 28.1897 44.8172 28.689C44.9992 29.1837 45.2535 29.6037 45.5802 29.949C45.9068 30.2943 46.2942 30.558 46.7422 30.74C47.1902 30.922 47.6848 31.013 48.2262 31.013ZM56.7084 24.797C57.2264 24.797 57.6931 24.8833 58.1084 25.056C58.5284 25.2287 58.8831 25.4737 59.1724 25.791C59.4664 26.1083 59.6904 26.4933 59.8444 26.946C60.0031 27.394 60.0824 27.8957 60.0824 28.451C60.0824 29.011 60.0031 29.515 59.8444 29.963C59.6904 30.411 59.4664 30.7937 59.1724 31.111C58.8831 31.4283 58.5284 31.6733 58.1084 31.846C57.6931 32.014 57.2264 32.098 56.7084 32.098C56.1904 32.098 55.7214 32.014 55.3014 31.846C54.8861 31.6733 54.5314 31.4283 54.2374 31.111C53.9434 30.7937 53.7171 30.411 53.5584 29.963C53.3997 29.515 53.3204 29.011 53.3204 28.451C53.3204 27.8957 53.3997 27.394 53.5584 26.946C53.7171 26.4933 53.9434 26.1083 54.2374 25.791C54.5314 25.4737 54.8861 25.2287 55.3014 25.056C55.7214 24.8833 56.1904 24.797 56.7084 24.797ZM56.7084 31.125C57.4084 31.125 57.9311 30.8917 58.2764 30.425C58.6217 29.9537 58.7944 29.298 58.7944 28.458C58.7944 27.6133 58.6217 26.9553 58.2764 26.484C57.9311 26.0127 57.4084 25.777 56.7084 25.777C56.3537 25.777 56.0457 25.8377 55.7844 25.959C55.5231 26.0803 55.3037 26.2553 55.1264 26.484C54.9537 26.7127 54.8231 26.995 54.7344 27.331C54.6504 27.6623 54.6084 28.038 54.6084 28.458C54.6084 28.878 54.6504 29.2537 54.7344 29.585C54.8231 29.9163 54.9537 30.1963 55.1264 30.425C55.3037 30.649 55.5231 30.8217 55.7844 30.943C56.0457 31.0643 56.3537 31.125 56.7084 31.125ZM64.4877 24.797C65.0057 24.797 65.4724 24.8833 65.8877 25.056C66.3077 25.2287 66.6624 25.4737 66.9517 25.791C67.2457 26.1083 67.4697 26.4933 67.6237 26.946C67.7824 27.394 67.8617 27.8957 67.8617 28.451C67.8617 29.011 67.7824 29.515 67.6237 29.963C67.4697 30.411 67.2457 30.7937 66.9517 31.111C66.6624 31.4283 66.3077 31.6733 65.8877 31.846C65.4724 32.014 65.0057 32.098 64.4877 32.098C63.9697 32.098 63.5007 32.014 63.0807 31.846C62.6654 31.6733 62.3107 31.4283 62.0167 31.111C61.7227 30.7937 61.4964 30.411 61.3377 29.963C61.179 29.515 61.0997 29.011 61.0997 28.451C61.0997 27.8957 61.179 27.394 61.3377 26.946C61.4964 26.4933 61.7227 26.1083 62.0167 25.791C62.3107 25.4737 62.6654 25.2287 63.0807 25.056C63.5007 24.8833 63.9697 24.797 64.4877 24.797ZM64.4877 31.125C65.1877 31.125 65.7104 30.8917 66.0557 30.425C66.401 29.9537 66.5737 29.298 66.5737 28.458C66.5737 27.6133 66.401 26.9553 66.0557 26.484C65.7104 26.0127 65.1877 25.777 64.4877 25.777C64.133 25.777 63.825 25.8377 63.5637 25.959C63.3024 26.0803 63.083 26.2553 62.9057 26.484C62.733 26.7127 62.6024 26.995 62.5137 27.331C62.4297 27.6623 62.3877 28.038 62.3877 28.458C62.3877 28.878 62.4297 29.2537 62.5137 29.585C62.6024 29.9163 62.733 30.1963 62.9057 30.425C63.083 30.649 63.3024 30.8217 63.5637 30.943C63.825 31.0643 64.133 31.125 64.4877 31.125ZM71.784 24.79C72.092 24.79 72.379 24.825 72.645 24.895C72.9157 24.9603 73.1607 25.0583 73.38 25.189H75.305V25.651C75.305 25.805 75.207 25.903 75.011 25.945L74.206 26.057C74.3647 26.3603 74.444 26.6987 74.444 27.072C74.444 27.4173 74.3763 27.7323 74.241 28.017C74.1103 28.297 73.926 28.5373 73.688 28.738C73.4547 28.9387 73.1747 29.0927 72.848 29.2C72.526 29.3073 72.1713 29.361 71.784 29.361C71.4527 29.361 71.14 29.3213 70.846 29.242C70.6967 29.3353 70.5823 29.4357 70.503 29.543C70.4283 29.6503 70.391 29.7553 70.391 29.858C70.391 30.026 70.4587 30.1543 70.594 30.243C70.7293 30.327 70.909 30.3877 71.133 30.425C71.357 30.4623 71.6113 30.4857 71.896 30.495C72.1807 30.5043 72.47 30.5207 72.764 30.544C73.0627 30.5627 73.3543 30.5977 73.639 30.649C73.9237 30.7003 74.178 30.7843 74.402 30.901C74.626 31.0177 74.8057 31.1787 74.941 31.384C75.0763 31.5893 75.144 31.8553 75.144 32.182C75.144 32.4853 75.067 32.7793 74.913 33.064C74.7637 33.3487 74.5467 33.6007 74.262 33.82C73.9773 34.044 73.6297 34.2213 73.219 34.352C72.8083 34.4873 72.344 34.555 71.826 34.555C71.308 34.555 70.853 34.5037 70.461 34.401C70.0737 34.2983 69.7517 34.1607 69.495 33.988C69.2383 33.8153 69.0447 33.6147 68.914 33.386C68.788 33.162 68.725 32.9263 68.725 32.679C68.725 32.329 68.8347 32.0327 69.054 31.79C69.278 31.5427 69.5837 31.3467 69.971 31.202C69.7703 31.1087 69.6093 30.985 69.488 30.831C69.3713 30.6723 69.313 30.4623 69.313 30.201C69.313 30.0983 69.3317 29.9933 69.369 29.886C69.4063 29.774 69.4623 29.6643 69.537 29.557C69.6163 29.4497 69.712 29.347 69.824 29.249C69.936 29.151 70.0667 29.0647 70.216 28.99C69.866 28.794 69.5907 28.535 69.39 28.213C69.194 27.8863 69.096 27.506 69.096 27.072C69.096 26.7267 69.1613 26.414 69.292 26.134C69.4273 25.8493 69.614 25.609 69.852 25.413C70.09 25.2123 70.3723 25.0583 70.699 24.951C71.0303 24.8437 71.392 24.79 71.784 24.79ZM73.996 32.385C73.996 32.2077 73.947 32.0653 73.849 31.958C73.751 31.8507 73.618 31.769 73.45 31.713C73.282 31.6523 73.0883 31.608 72.869 31.58C72.6497 31.552 72.4187 31.5333 72.176 31.524C71.9333 31.51 71.686 31.496 71.434 31.482C71.182 31.468 70.9417 31.4423 70.713 31.405C70.447 31.531 70.23 31.685 70.062 31.867C69.8987 32.049 69.817 32.266 69.817 32.518C69.817 32.6767 69.8567 32.8237 69.936 32.959C70.02 33.099 70.146 33.218 70.314 33.316C70.482 33.4187 70.692 33.498 70.944 33.554C71.2007 33.6147 71.5017 33.645 71.847 33.645C72.183 33.645 72.484 33.6147 72.75 33.554C73.016 33.4933 73.24 33.407 73.422 33.295C73.6087 33.183 73.751 33.05 73.849 32.896C73.947 32.742 73.996 32.5717 73.996 32.385ZM71.784 28.535C72.036 28.535 72.2577 28.5 72.449 28.43C72.645 28.36 72.8083 28.262 72.939 28.136C73.0697 28.01 73.1677 27.8607 73.233 27.688C73.2983 27.5107 73.331 27.317 73.331 27.107C73.331 26.673 73.198 26.3277 72.932 26.071C72.6707 25.8143 72.288 25.686 71.784 25.686C71.2847 25.686 70.902 25.8143 70.636 26.071C70.3747 26.3277 70.244 26.673 70.244 27.107C70.244 27.317 70.2767 27.5107 70.342 27.688C70.412 27.8607 70.5123 28.01 70.643 28.136C70.7737 28.262 70.9347 28.36 71.126 28.43C71.3173 28.5 71.5367 28.535 71.784 28.535ZM77.9334 21.689V32H76.6874V21.689H77.9334ZM82.9364 24.797C83.3611 24.797 83.7531 24.8693 84.1124 25.014C84.4718 25.154 84.7821 25.3593 85.0434 25.63C85.3048 25.896 85.5078 26.2273 85.6524 26.624C85.8018 27.016 85.8764 27.464 85.8764 27.968C85.8764 28.164 85.8554 28.2947 85.8134 28.36C85.7714 28.4253 85.6921 28.458 85.5754 28.458H80.8574C80.8668 28.906 80.9274 29.2957 81.0394 29.627C81.1514 29.9583 81.3054 30.236 81.5014 30.46C81.6974 30.6793 81.9308 30.845 82.2014 30.957C82.4721 31.0643 82.7754 31.118 83.1114 31.118C83.4241 31.118 83.6924 31.083 83.9164 31.013C84.1451 30.9383 84.3411 30.859 84.5044 30.775C84.6678 30.691 84.8031 30.614 84.9104 30.544C85.0224 30.4693 85.1181 30.432 85.1974 30.432C85.3001 30.432 85.3794 30.4717 85.4354 30.551L85.7854 31.006C85.6314 31.1927 85.4471 31.356 85.2324 31.496C85.0178 31.6313 84.7868 31.7433 84.5394 31.832C84.2968 31.9207 84.0448 31.986 83.7834 32.028C83.5221 32.0747 83.2631 32.098 83.0064 32.098C82.5164 32.098 82.0638 32.0163 81.6484 31.853C81.2378 31.685 80.8808 31.4423 80.5774 31.125C80.2788 30.803 80.0454 30.4063 79.8774 29.935C79.7094 29.4637 79.6254 28.9223 79.6254 28.311C79.6254 27.8163 79.7001 27.3543 79.8494 26.925C80.0034 26.4957 80.2228 26.1247 80.5074 25.812C80.7921 25.4947 81.1398 25.2473 81.5504 25.07C81.9611 24.888 82.4231 24.797 82.9364 24.797ZM82.9644 25.714C82.3624 25.714 81.8888 25.889 81.5434 26.239C81.1981 26.5843 80.9834 27.065 80.8994 27.681H84.7564C84.7564 27.3917 84.7168 27.128 84.6374 26.89C84.5581 26.6473 84.4414 26.4397 84.2874 26.267C84.1334 26.0897 83.9444 25.9543 83.7204 25.861C83.5011 25.763 83.2491 25.714 82.9644 25.714ZM90.1783 34.401V24.909H90.9203C91.0976 24.909 91.2096 24.9953 91.2563 25.168L91.3613 26.008C91.6646 25.6393 92.0099 25.343 92.3973 25.119C92.7893 24.895 93.2396 24.783 93.7483 24.783C94.1543 24.783 94.5229 24.8623 94.8543 25.021C95.1856 25.175 95.4679 25.406 95.7013 25.714C95.9346 26.0173 96.1143 26.3953 96.2403 26.848C96.3663 27.3007 96.4293 27.821 96.4293 28.409C96.4293 28.9317 96.3593 29.4193 96.2193 29.872C96.0793 30.32 95.8786 30.7097 95.6173 31.041C95.3559 31.3677 95.0339 31.6267 94.6513 31.818C94.2733 32.0047 93.8463 32.098 93.3703 32.098C92.9316 32.098 92.5559 32.0257 92.2433 31.881C91.9353 31.7363 91.6623 31.531 91.4243 31.265V34.401H90.1783ZM93.3353 25.791C92.9293 25.791 92.5723 25.8843 92.2643 26.071C91.9609 26.2577 91.6809 26.5213 91.4243 26.862V30.292C91.6529 30.6 91.9026 30.817 92.1733 30.943C92.4486 31.069 92.7543 31.132 93.0903 31.132C93.7483 31.132 94.2546 30.8963 94.6093 30.425C94.9639 29.9537 95.1413 29.2817 95.1413 28.409C95.1413 27.947 95.0993 27.5503 95.0153 27.219C94.9359 26.8877 94.8193 26.617 94.6653 26.407C94.5113 26.1923 94.3223 26.036 94.0983 25.938C93.8743 25.84 93.6199 25.791 93.3353 25.791ZM99.2889 21.689V32H98.0429V21.689H99.2889ZM106.693 32H106.14C106.019 32 105.921 31.9813 105.846 31.944C105.771 31.9067 105.722 31.8273 105.699 31.706L105.559 31.048C105.372 31.216 105.19 31.3677 105.013 31.503C104.836 31.6337 104.649 31.7457 104.453 31.839C104.257 31.9277 104.047 31.9953 103.823 32.042C103.604 32.0887 103.359 32.112 103.088 32.112C102.813 32.112 102.554 32.0747 102.311 32C102.073 31.9207 101.865 31.804 101.688 31.65C101.511 31.496 101.368 31.3023 101.261 31.069C101.158 30.831 101.107 30.551 101.107 30.229C101.107 29.949 101.184 29.6807 101.338 29.424C101.492 29.1627 101.739 28.9317 102.08 28.731C102.425 28.5303 102.876 28.367 103.431 28.241C103.986 28.1103 104.665 28.0357 105.468 28.017V27.464C105.468 26.9133 105.349 26.498 105.111 26.218C104.878 25.9333 104.53 25.791 104.068 25.791C103.765 25.791 103.508 25.8307 103.298 25.91C103.093 25.9847 102.913 26.071 102.759 26.169C102.61 26.2623 102.479 26.3487 102.367 26.428C102.26 26.5027 102.152 26.54 102.045 26.54C101.961 26.54 101.886 26.519 101.821 26.477C101.76 26.4303 101.711 26.3743 101.674 26.309L101.45 25.91C101.842 25.532 102.264 25.2497 102.717 25.063C103.17 24.8763 103.671 24.783 104.222 24.783C104.619 24.783 104.971 24.8483 105.279 24.979C105.587 25.1097 105.846 25.2917 106.056 25.525C106.266 25.7583 106.425 26.0407 106.532 26.372C106.639 26.7033 106.693 27.0673 106.693 27.464V32ZM103.459 31.237C103.678 31.237 103.879 31.216 104.061 31.174C104.243 31.1273 104.413 31.0643 104.572 30.985C104.735 30.901 104.889 30.8007 105.034 30.684C105.183 30.5673 105.328 30.4343 105.468 30.285V28.808C104.894 28.8267 104.406 28.8733 104.005 28.948C103.604 29.018 103.277 29.1113 103.025 29.228C102.773 29.3447 102.589 29.4823 102.472 29.641C102.36 29.7997 102.304 29.977 102.304 30.173C102.304 30.3597 102.334 30.5207 102.395 30.656C102.456 30.7913 102.537 30.9033 102.64 30.992C102.743 31.076 102.864 31.139 103.004 31.181C103.144 31.2183 103.296 31.237 103.459 31.237ZM110.441 34.093C110.399 34.1863 110.345 34.261 110.28 34.317C110.219 34.373 110.124 34.401 109.993 34.401H109.069L110.364 31.587L107.438 24.909H108.516C108.623 24.909 108.707 24.937 108.768 24.993C108.829 25.0443 108.873 25.1027 108.901 25.168L110.798 29.634C110.84 29.7367 110.875 29.8393 110.903 29.942C110.936 30.0447 110.964 30.1497 110.987 30.257C111.02 30.1497 111.052 30.0447 111.085 29.942C111.118 29.8393 111.155 29.7343 111.197 29.627L113.038 25.168C113.066 25.0933 113.113 25.0327 113.178 24.986C113.248 24.9347 113.323 24.909 113.402 24.909H114.396L110.441 34.093Z" fill="white"/>
<path d="M14.2978 5.46738C13.9484 5.91802 13.772 6.49492 13.8046 7.08049V32.5676C13.772 33.1532 13.9484 33.7301 14.2978 34.1808L14.3728 34.2614L27.6559 19.9969V19.6628L14.3728 5.38672L14.2978 5.46738Z" fill="url(#paint0_linear_2776_23235)"/>
<path d="M32.0518 24.7556L27.6562 19.9969V19.6628L32.0518 14.8926L32.1482 14.9502L37.4121 18.1649C38.913 19.0752 38.913 20.573 37.4121 21.4948L32.1697 24.698L32.0518 24.7556Z" fill="url(#paint1_linear_2776_23235)"/>
<path d="M32.1791 24.6866L27.6549 19.8242L14.2969 34.1809C14.6028 34.4699 14.9931 34.635 15.4002 34.6477C15.8074 34.6603 16.2059 34.5196 16.5268 34.25L32.1898 24.6866" fill="url(#paint2_linear_2776_23235)"/>
<path d="M32.182 14.9618L16.519 5.3984C16.1981 5.1288 15.7996 4.98816 15.3924 5.00078C14.9853 5.0134 14.595 5.1785 14.2891 5.46754L27.6579 19.8242L32.182 14.9618Z" fill="url(#paint3_linear_2776_23235)"/>
<path opacity="0.2" d="M32.0505 24.582L16.5161 34.0878C16.2066 34.3365 15.8305 34.4709 15.444 34.4709C15.0575 34.4709 14.6814 34.3365 14.3719 34.0878L14.2969 34.1685L14.3719 34.2491C14.6807 34.4996 15.0571 34.6351 15.444 34.6351C15.8309 34.6351 16.2073 34.4996 16.5161 34.2491L32.1791 24.6857L32.0505 24.582Z" fill="black"/>
<path opacity="0.12" d="M14.2978 34.0196C13.9484 33.569 13.772 32.9921 13.8046 32.4065V32.5793C13.772 33.1649 13.9484 33.7418 14.2978 34.1924L14.3728 34.1118L14.2978 34.0196ZM37.4118 21.3221L32.0514 24.5829L32.1479 24.6866L37.4118 21.4834C37.7105 21.3326 37.9668 21.0998 38.1551 20.8085C38.3433 20.5172 38.4567 20.1777 38.4838 19.8242C38.4236 20.1454 38.2956 20.4474 38.1097 20.707C37.9239 20.9667 37.6851 21.1771 37.4118 21.3221Z" fill="black"/>
<path opacity="0.25" d="M16.516 5.55976L37.4108 18.3264C37.6842 18.4714 37.9229 18.6818 38.1088 18.9415C38.2946 19.2011 38.4226 19.5031 38.4829 19.8243C38.4558 19.4708 38.3424 19.1313 38.1541 18.84C37.9659 18.5487 37.7095 18.3159 37.4108 18.1651L16.516 5.39845C15.0151 4.48819 13.793 5.24866 13.793 7.09222V7.26505C13.8251 5.40997 15.0259 4.6495 16.516 5.55976Z" fill="white"/>
<defs>
<linearGradient id="paint0_linear_2776_23235" x1="26.4766" y1="6.81547" x2="7.19243" y2="24.7583" gradientUnits="userSpaceOnUse">
<stop stop-color="#00A0FF"/>
<stop offset="0.01" stop-color="#00A1FF"/>
<stop offset="0.26" stop-color="#00BEFF"/>
<stop offset="0.51" stop-color="#00D2FF"/>
<stop offset="0.76" stop-color="#00DFFF"/>
<stop offset="1" stop-color="#00E3FF"/>
</linearGradient>
<linearGradient id="paint1_linear_2776_23235" x1="39.374" y1="19.8241" x2="13.4405" y2="19.8241" gradientUnits="userSpaceOnUse">
<stop stop-color="#FFE000"/>
<stop offset="0.41" stop-color="#FFBD00"/>
<stop offset="0.78" stop-color="#FFA500"/>
<stop offset="1" stop-color="#FF9C00"/>
</linearGradient>
<linearGradient id="paint2_linear_2776_23235" x1="29.7241" y1="22.4743" x2="3.56832" y2="46.8" gradientUnits="userSpaceOnUse">
<stop stop-color="#FF3A44"/>
<stop offset="1" stop-color="#C31162"/>
</linearGradient>
<linearGradient id="paint3_linear_2776_23235" x1="10.9335" y1="-3.01281" x2="22.6097" y2="7.85124" gradientUnits="userSpaceOnUse">
<stop stop-color="#32A071"/>
<stop offset="0.07" stop-color="#2DA771"/>
<stop offset="0.48" stop-color="#15CF74"/>
<stop offset="0.8" stop-color="#06E775"/>
<stop offset="1" stop-color="#00F076"/>
</linearGradient>
</defs>
</svg>
