<svg width="40" height="40" viewBox="0 0 40 40" fill="none" xmlns="http://www.w3.org/2000/svg">
<path d="M18.3032 21.6957H32.3212C32.3212 29.4368 26.0438 35.7137 18.3032 35.7137C10.5626 35.7137 4.28516 29.4362 4.28516 21.6957C4.28516 13.9551 10.5626 7.67764 18.3032 7.67764H18.3224L18.3032 21.6957ZM25.5817 9.92028C25.4748 9.81341 25.3333 9.75611 25.1843 9.75611C25.0354 9.75611 24.8938 9.81342 24.787 9.92028C24.5692 10.138 24.5692 10.4973 24.787 10.715C25.0047 10.9327 25.36 10.9327 25.5817 10.715C25.7994 10.4973 25.7995 10.138 25.5817 9.92028ZM29.9107 14.2493C29.8038 14.1424 29.6623 14.0851 29.5133 14.0851C29.3643 14.0851 29.2228 14.1424 29.1159 14.2493C28.8982 14.467 28.8982 14.8263 29.1159 15.044C29.3337 15.2617 29.689 15.2617 29.9107 15.044C30.1284 14.8262 30.1284 14.467 29.9107 14.2493ZM35.7183 18.3029L21.6962 18.3032L21.7153 4.28516C29.4483 4.29662 35.7143 10.5663 35.7143 18.3032L35.7183 18.3029ZM23.9811 11.5249C24.3134 11.8573 24.7529 12.0254 25.1884 12.0254C25.6239 12.0254 26.0633 11.8573 26.3957 11.5249C27.0604 10.8602 27.0604 9.77503 26.3957 9.11029C26.0748 8.78941 25.6431 8.60978 25.1884 8.60978C24.7337 8.60978 24.302 8.78941 23.9811 9.11029C23.3164 9.77497 23.3164 10.8602 23.9811 11.5249ZM24.9898 15.6551L30.7516 9.89333L29.9417 9.0834L24.1799 14.8452L24.9898 15.6551ZM30.7247 13.4391C30.4038 13.1182 29.9721 12.9385 29.5174 12.9385C29.0628 12.9385 28.631 13.1182 28.3101 13.4391C27.6455 14.1037 27.6455 15.189 28.3101 15.8537C28.6425 16.186 29.0819 16.3542 29.5174 16.3542C29.9529 16.3542 30.3924 16.186 30.7247 15.8537C31.3894 15.189 31.3894 14.1038 30.7247 13.4391Z" fill="#323740"/>
</svg>
