<svg width="19" height="17" viewBox="0 0 19 17" fill="none" xmlns="http://www.w3.org/2000/svg">
<path fill-rule="evenodd" clip-rule="evenodd" d="M2.64241 5.45261L3.90544 3.26502H16.2103L16.526 3.8113L17.4734 5.45261H2.64241ZM4.38869 2.4279L5.65294 0.238281H14.4624L15.7267 2.4279H4.38869ZM14.4628 14.5307H7.2658C7.12668 14.5307 7.00953 14.6028 6.94567 14.7102L6.06907 16.2286H3.56823L5.63098 12.656C5.72454 12.4937 5.97592 12.3623 6.19192 12.3623L15.7133 12.3648L14.4628 14.5307ZM17.4652 9.33066L16.1965 11.528H5.49634C5.35966 11.528 5.24536 11.5956 5.18027 11.6977L4.31588 13.1946H1.81504L3.87779 9.62235C3.97134 9.46005 4.22273 9.32863 4.43872 9.32863L17.4652 9.33066ZM3.72891 8.49399C3.59467 8.49399 3.47752 8.56598 3.41366 8.67337L2.55943 10.1527H0.0585938L2.12093 6.58098C2.21449 6.41868 2.46588 6.28684 2.68187 6.28684L17.9562 6.29014L18.5883 7.38474L17.9481 8.49358H3.74152L3.72891 8.49399Z" fill="#FEC23B"/>
</svg>
