<svg width="40" height="40" viewBox="0 0 40 40" fill="none" xmlns="http://www.w3.org/2000/svg">
<circle opacity="0.1" cx="20" cy="20" r="20" fill="#214660"/>
<path d="M19.9993 28.9582C15.0577 28.9582 11.041 24.9415 11.041 19.9998C11.041 15.0582 15.0577 11.0415 19.9993 11.0415C24.941 11.0415 28.9577 15.0582 28.9577 19.9998C28.9577 24.9415 24.941 28.9582 19.9993 28.9582ZM19.9993 12.2915C15.7493 12.2915 12.291 15.7498 12.291 19.9998C12.291 24.2498 15.7493 27.7082 19.9993 27.7082C24.2493 27.7082 27.7077 24.2498 27.7077 19.9998C27.7077 15.7498 24.2493 12.2915 19.9993 12.2915Z" fill="#214660"/>
<path d="M20 21.7225C19.5747 21.7225 19.222 21.3888 19.222 20.9864V20.7803C19.222 19.6417 20.1037 19.0822 20.4357 18.8663C20.8195 18.6209 20.944 18.454 20.944 18.1988C20.944 17.708 20.5187 17.3056 20 17.3056C19.4813 17.3056 19.056 17.708 19.056 18.1988C19.056 18.6013 18.7033 18.935 18.278 18.935C17.8527 18.935 17.5 18.6013 17.5 18.1988C17.5 16.8934 18.6203 15.8333 20 15.8333C21.3797 15.8333 22.5 16.8934 22.5 18.1988C22.5 19.3178 21.6287 19.8772 21.3071 20.0834C20.9025 20.3386 20.778 20.5055 20.778 20.7803V20.9864C20.778 21.3986 20.4253 21.7225 20 21.7225Z" fill="#214660"/>
<path d="M19.9987 24.1664C19.563 24.1664 19.2207 23.8327 19.2207 23.4303C19.2207 23.0278 19.5734 22.6941 19.9987 22.6941C20.424 22.6941 20.7767 23.0278 20.7767 23.4303C20.7767 23.8327 20.4344 24.1664 19.9987 24.1664Z" fill="#214660"/>
</svg>
