<svg width="40" height="40" viewBox="0 0 40 40" fill="none" xmlns="http://www.w3.org/2000/svg">
<path d="M19.3543 14.0798L10.0069 20.4032C9.73884 20.5854 9.57812 20.8885 9.57812 21.2128V31.3437C9.57902 31.6029 9.68259 31.8511 9.86607 32.0341C10.0496 32.2171 10.2982 32.3198 10.5574 32.3198H15.6998C15.9594 32.3198 16.2085 32.2167 16.3922 32.033C16.5757 31.8493 16.679 31.6002 16.679 31.3406V25.0874C16.679 24.8272 16.7826 24.5778 16.967 24.3939C17.1511 24.2102 17.4011 24.1075 17.6614 24.1084H22.1413C22.4011 24.1084 22.65 24.2115 22.8337 24.395C23.0174 24.5787 23.1205 24.8278 23.1205 25.0874V31.3434C23.1214 31.6032 23.2254 31.8519 23.4095 32.035C23.5937 32.218 23.8432 32.3204 24.1029 32.3196H29.2453C29.5051 32.3196 29.754 32.2164 29.9377 32.0327C30.1214 31.849 30.2245 31.5999 30.2245 31.3403V21.2123C30.2245 20.888 30.0638 20.5849 29.7957 20.4027L20.4483 14.0793C20.2867 13.9701 20.096 13.9121 19.9012 13.9121C19.7063 13.9121 19.5157 13.9701 19.3541 14.0793L19.3543 14.0798Z" fill="#F3A03D"/>
<path d="M33.8687 17.1944L30.2238 14.7431V10.196C30.2238 10.0891 30.1814 9.98639 30.1058 9.91072C30.0301 9.83527 29.9276 9.79264 29.8207 9.79264H27.3535C27.2448 9.79018 27.1397 9.83148 27.062 9.90737C26.9843 9.98326 26.9406 10.0873 26.9406 10.196V12.5415L20.448 8.16719C20.2864 8.05826 20.0958 8 19.9009 8C19.706 8 19.5154 8.05826 19.3538 8.16719L5.93266 17.1946C5.69896 17.3518 5.54426 17.602 5.5081 17.8815C5.47194 18.1607 5.55788 18.4422 5.74404 18.6538L6.85118 19.9145C7.0081 20.0929 7.2244 20.2078 7.45987 20.2384C7.69536 20.2692 7.93376 20.2132 8.13107 20.081L19.3534 12.5387C19.5145 12.4305 19.7045 12.3727 19.8989 12.3727C20.0931 12.3727 20.283 12.4305 20.4444 12.5387L31.6701 20.0776C31.8675 20.2097 32.1059 20.2658 32.3413 20.2352C32.5768 20.2046 32.7931 20.0894 32.95 19.9113L34.0572 18.6506V18.6504C34.2422 18.439 34.3275 18.1584 34.2913 17.8799C34.2552 17.6013 34.1012 17.3517 33.8686 17.1946L33.8687 17.1944Z" fill="#F3A03D"/>
</svg>
