<svg width="32" height="32" viewBox="0 0 32 32" fill="none" xmlns="http://www.w3.org/2000/svg">
<path d="M28.707 23.08V22.8667C28.707 20.2933 27.4003 19 24.8403 19C22.2803 19 20.9737 20.3067 20.9737 22.8667V23.08C19.5737 23.4267 19.0137 24.3867 19.0137 26.3067V27.2933C19.0137 29.76 19.9337 30.6667 22.387 30.6667H27.2937C29.7603 30.6667 30.667 29.7467 30.667 27.2933V26.3067C30.667 24.4 30.107 23.4267 28.707 23.08ZM24.827 20.84C26.547 20.84 26.8537 21.4933 26.8537 22.8667V22.9333H22.8003V22.8667C22.8003 21.4933 23.107 20.84 24.827 20.84Z" fill="#323740"/>
<path d="M9.32757 2.71588C9.87948 2.66285 10.3327 3.11713 10.3327 3.67159V9.39935C10.3327 9.95163 9.88497 10.3993 9.33268 10.3993H3.66601C3.11373 10.3993 2.66038 9.94964 2.70939 9.39954C3.05552 5.51413 5.45727 3.08776 9.32757 2.71588Z" fill="#DD3636"/>
<path d="M27.906 10.3993H22.666C22.1137 10.3993 21.666 9.95163 21.666 9.39935V3.67226C21.666 3.11755 22.1195 2.66316 22.6717 2.71664C26.3749 3.07531 28.7368 5.31455 29.2393 8.90602C29.346 9.69268 28.706 10.3993 27.906 10.3993Z" fill="#DD3636"/>
<path d="M9.33268 21.7324C9.88497 21.7324 10.3327 22.1801 10.3327 22.7324V27.8924C10.3327 28.6924 9.62602 29.3324 8.82601 29.2258C5.29058 28.6997 3.10204 26.3778 2.7238 22.7441C2.66611 22.1899 3.12152 21.7324 3.67875 21.7324H9.33268Z" fill="#DD3636"/>
<path d="M10.3327 13.4004C10.3327 12.8481 9.88497 12.4004 9.33268 12.4004H3.66601C3.11373 12.4004 2.66602 12.8481 2.66602 13.4004V18.7337C2.66602 19.286 3.11373 19.7337 3.66602 19.7337H9.33268C9.88497 19.7337 10.3327 19.286 10.3327 18.7337V13.4004Z" fill="#DD3636"/>
<path d="M19.6673 13.4004C19.6673 12.8481 19.2196 12.4004 18.6673 12.4004H13.334C12.7817 12.4004 12.334 12.8481 12.334 13.4004V18.7337C12.334 19.286 12.7817 19.7337 13.334 19.7337H18.334C19.0673 19.7337 19.6673 19.1337 19.6673 18.4004V13.4004Z" fill="#DD3636"/>
<path d="M19.6673 3.66601C19.6673 3.11373 19.2196 2.66602 18.6673 2.66602H13.334C12.7817 2.66602 12.334 3.11373 12.334 3.66602V9.39935C12.334 9.95163 12.7817 10.3993 13.334 10.3993H18.6673C19.2196 10.3993 19.6673 9.95163 19.6673 9.39935V3.66601Z" fill="#DD3636"/>
</svg>
