<svg width="7" height="6" viewBox="0 0 7 6" fill="none" xmlns="http://www.w3.org/2000/svg">
<path d="M3.94985 6C3.40237 6 2.89399 5.87151 2.42471 5.61453C1.95544 5.34637 1.58114 4.98324 1.30181 4.52514C1.02248 4.05587 0.882812 3.54749 0.882812 3C0.882812 2.48603 1.01689 2 1.28505 1.5419C1.5532 1.07263 1.92192 0.698324 2.39119 0.418995C2.86047 0.139665 3.38002 0 3.94985 0C4.48616 0 4.98896 0.134078 5.45823 0.402235C5.9275 0.659218 6.30181 1.01676 6.58114 1.47486C6.86047 1.93296 7.00013 2.44134 7.00013 3C7.00013 3.54749 6.86047 4.05028 6.58114 4.50838C6.31298 4.96648 5.94426 5.32961 5.47499 5.59777C5.00572 5.86592 4.49734 6 3.94985 6Z" fill="#4D4D4D"/>
</svg>
