<svg width="25" height="24" viewBox="0 0 25 24" fill="none" xmlns="http://www.w3.org/2000/svg">
<path d="M17.5 21.25H7.5C7.09 21.25 6.75 20.91 6.75 20.5C6.75 20.09 7.09 19.75 7.5 19.75H17.5C20.36 19.75 21.75 18.36 21.75 15.5V8.5C21.75 5.64 20.36 4.25 17.5 4.25H7.5C4.64 4.25 3.25 5.64 3.25 8.5C3.25 8.91 2.91 9.25 2.5 9.25C2.09 9.25 1.75 8.91 1.75 8.5C1.75 4.85 3.85 2.75 7.5 2.75H17.5C21.15 2.75 23.25 4.85 23.25 8.5V15.5C23.25 19.15 21.15 21.25 17.5 21.25Z" fill="#DD3737"/>
<path d="M12.4988 12.87C11.6588 12.87 10.8088 12.61 10.1588 12.08L7.0288 9.57997C6.7088 9.31997 6.64881 8.84997 6.9088 8.52997C7.1688 8.20997 7.63879 8.14997 7.95879 8.40997L11.0888 10.91C11.8488 11.52 13.1388 11.52 13.8988 10.91L17.0288 8.40997C17.3488 8.14997 17.8288 8.19997 18.0788 8.52997C18.3388 8.84997 18.2888 9.32997 17.9588 9.57997L14.8288 12.08C14.1888 12.61 13.3388 12.87 12.4988 12.87Z" fill="#DD3737"/>
<path d="M8.5 17.25H2.5C2.09 17.25 1.75 16.91 1.75 16.5C1.75 16.09 2.09 15.75 2.5 15.75H8.5C8.91 15.75 9.25 16.09 9.25 16.5C9.25 16.91 8.91 17.25 8.5 17.25Z" fill="#DD3737"/>
<path d="M5.5 13.25H2.5C2.09 13.25 1.75 12.91 1.75 12.5C1.75 12.09 2.09 11.75 2.5 11.75H5.5C5.91 11.75 6.25 12.09 6.25 12.5C6.25 12.91 5.91 13.25 5.5 13.25Z" fill="#DD3737"/>
</svg>
