<svg width="183" height="192" viewBox="0 0 183 192" fill="none" xmlns="http://www.w3.org/2000/svg">
<rect width="183" height="192" fill="#F2F2F2"/>
<rect y="40" width="183" height="1" fill="#E6E6E6"/>
<path d="M100 96H84C77 96 74 100 74 106V126C74 132 77 136 84 136H100C107 136 110 132 110 126V106C110 100 107 96 100 96ZM84 116.5H92C92.82 116.5 93.5 117.18 93.5 118C93.5 118.82 92.82 119.5 92 119.5H84C83.18 119.5 82.5 118.82 82.5 118C82.5 117.18 83.18 116.5 84 116.5ZM100 127.5H84C83.18 127.5 82.5 126.82 82.5 126C82.5 125.18 83.18 124.5 84 124.5H100C100.82 124.5 101.5 125.18 101.5 126C101.5 126.82 100.82 127.5 100 127.5ZM105 110.5H101C97.96 110.5 95.5 108.04 95.5 105V101C95.5 100.18 96.18 99.5 97 99.5C97.82 99.5 98.5 100.18 98.5 101V105C98.5 106.38 99.62 107.5 101 107.5H105C105.82 107.5 106.5 108.18 106.5 109C106.5 109.82 105.82 110.5 105 110.5Z" fill="#DD3737"/>
<path d="M58.8166 17.6719C58.7768 17.2997 58.6092 17.0099 58.3137 16.8026C58.0211 16.5952 57.6404 16.4915 57.1717 16.4915C56.8422 16.4915 56.5595 16.5412 56.3237 16.6406C56.0879 16.7401 55.9075 16.875 55.7825 17.0455C55.6575 17.2159 55.5936 17.4105 55.5907 17.6293C55.5907 17.8111 55.6319 17.9687 55.7143 18.1023C55.7995 18.2358 55.9146 18.3494 56.0595 18.4432C56.2044 18.5341 56.3649 18.6108 56.541 18.6733C56.7172 18.7358 56.8947 18.7884 57.0737 18.831L57.8919 19.0355C58.2214 19.1122 58.5382 19.2159 58.8422 19.3466C59.149 19.4773 59.4231 19.642 59.6646 19.8409C59.9089 20.0398 60.1021 20.2798 60.2441 20.5611C60.3862 20.8423 60.4572 21.1719 60.4572 21.5497C60.4572 22.0611 60.3265 22.5114 60.0652 22.9006C59.8038 23.2869 59.426 23.5895 58.9316 23.8082C58.4402 24.0241 57.845 24.1321 57.1461 24.1321C56.4672 24.1321 55.8777 24.027 55.3777 23.8168C54.8805 23.6065 54.4913 23.2997 54.21 22.8963C53.9316 22.4929 53.7811 22.0014 53.7583 21.4219H55.3137C55.3365 21.7259 55.4302 21.9787 55.595 22.1804C55.7598 22.3821 55.9743 22.5327 56.2385 22.6321C56.5055 22.7315 56.8038 22.7812 57.1333 22.7812C57.4771 22.7812 57.7782 22.7301 58.0368 22.6278C58.2981 22.5227 58.5027 22.3778 58.6504 22.1932C58.7981 22.0057 58.8734 21.7869 58.8762 21.5369C58.8734 21.3097 58.8066 21.1222 58.676 20.9744C58.5453 20.8239 58.362 20.6989 58.1262 20.5994C57.8933 20.4972 57.6206 20.4062 57.3081 20.3267L56.3152 20.071C55.5964 19.8864 55.0282 19.6065 54.6106 19.2315C54.1958 18.8537 53.9885 18.3523 53.9885 17.7273C53.9885 17.2131 54.1277 16.7628 54.4061 16.3764C54.6873 15.9901 55.0694 15.6903 55.5524 15.4773C56.0353 15.2614 56.5822 15.1534 57.193 15.1534C57.8123 15.1534 58.3549 15.2614 58.8208 15.4773C59.2896 15.6903 59.6575 15.9872 59.9245 16.3679C60.1916 16.7457 60.3294 17.1804 60.3379 17.6719H58.8166ZM65.0669 17.4545V18.6477H61.3042V17.4545H65.0669ZM62.2331 15.8864H63.7757V22.0312C63.7757 22.2386 63.807 22.3977 63.8695 22.5085C63.9348 22.6165 64.0201 22.6903 64.1252 22.7301C64.2303 22.7699 64.3468 22.7898 64.4746 22.7898C64.5712 22.7898 64.6593 22.7827 64.7388 22.7685C64.8212 22.7543 64.8837 22.7415 64.9263 22.7301L65.1863 23.9361C65.1039 23.9645 64.986 23.9957 64.8326 24.0298C64.682 24.0639 64.4973 24.0838 64.2786 24.0895C63.8922 24.1009 63.5442 24.0426 63.2346 23.9148C62.9249 23.7841 62.6792 23.5824 62.4973 23.3097C62.3184 23.0369 62.2303 22.696 62.2331 22.2869V15.8864ZM68.2406 24.1321C67.8258 24.1321 67.4522 24.0582 67.1199 23.9105C66.7903 23.7599 66.5289 23.5384 66.3358 23.2457C66.1454 22.9531 66.0502 22.5923 66.0502 22.1634C66.0502 21.794 66.1184 21.4886 66.2548 21.2472C66.3912 21.0057 66.5772 20.8125 66.813 20.6676C67.0488 20.5227 67.3145 20.4134 67.6099 20.3395C67.9082 20.2628 68.2164 20.2074 68.5346 20.1733C68.9181 20.1335 69.2292 20.098 69.4679 20.0668C69.7065 20.0327 69.8798 19.9815 69.9877 19.9134C70.0985 19.8423 70.1539 19.733 70.1539 19.5852V19.5597C70.1539 19.2386 70.0588 18.9901 69.8684 18.8139C69.6781 18.6378 69.4039 18.5497 69.046 18.5497C68.6681 18.5497 68.3684 18.6321 68.1468 18.7969C67.9281 18.9616 67.7804 19.1562 67.7037 19.3807L66.2633 19.1761C66.377 18.7784 66.5645 18.446 66.8258 18.179C67.0872 17.9091 67.4068 17.7074 67.7846 17.5739C68.1625 17.4375 68.5801 17.3693 69.0375 17.3693C69.3528 17.3693 69.6667 17.4062 69.9792 17.4801C70.2917 17.554 70.5772 17.6761 70.8358 17.8466C71.0943 18.0142 71.3017 18.2429 71.4579 18.5327C71.617 18.8224 71.6966 19.1847 71.6966 19.6193V24H70.2136V23.1009H70.1625C70.0687 23.2827 69.9366 23.4531 69.7662 23.6122C69.5985 23.7685 69.3869 23.8949 69.1312 23.9915C68.8784 24.0852 68.5815 24.1321 68.2406 24.1321ZM68.6412 22.9986C68.9508 22.9986 69.2193 22.9375 69.4466 22.8153C69.6738 22.6903 69.8485 22.5256 69.9707 22.321C70.0957 22.1165 70.1582 21.8935 70.1582 21.652V20.8807C70.1099 20.9205 70.0275 20.9574 69.911 20.9915C69.7974 21.0256 69.6696 21.0554 69.5275 21.081C69.3855 21.1065 69.2449 21.1293 69.1056 21.1491C68.9664 21.169 68.8457 21.1861 68.7434 21.2003C68.5133 21.2315 68.3074 21.2827 68.1255 21.3537C67.9437 21.4247 67.8002 21.5241 67.6951 21.652C67.59 21.777 67.5375 21.9389 67.5375 22.1378C67.5375 22.4219 67.6412 22.6364 67.8485 22.7812C68.0559 22.9261 68.3201 22.9986 68.6412 22.9986ZM76.563 17.4545V18.6477H72.6937V17.4545H76.563ZM73.661 24V16.8366C73.661 16.3963 73.752 16.0298 73.9338 15.7372C74.1184 15.4446 74.3656 15.2259 74.6752 15.081C74.9849 14.9361 75.3287 14.8636 75.7065 14.8636C75.9735 14.8636 76.2108 14.8849 76.4181 14.9276C76.6255 14.9702 76.7789 15.0085 76.8784 15.0426L76.5716 16.2358C76.5062 16.2159 76.4238 16.196 76.3244 16.1761C76.225 16.1534 76.1142 16.142 75.992 16.142C75.7051 16.142 75.502 16.2116 75.3826 16.3509C75.2662 16.4872 75.2079 16.6832 75.2079 16.9389V24H73.661ZM81.0865 17.4545V18.6477H77.2172V17.4545H81.0865ZM78.1845 24V16.8366C78.1845 16.3963 78.2754 16.0298 78.4572 15.7372C78.6419 15.4446 78.889 15.2259 79.1987 15.081C79.5083 14.9361 79.8521 14.8636 80.2299 14.8636C80.497 14.8636 80.7342 14.8849 80.9416 14.9276C81.149 14.9702 81.3024 15.0085 81.4018 15.0426L81.095 16.2358C81.0297 16.2159 80.9473 16.196 80.8478 16.1761C80.7484 16.1534 80.6376 16.142 80.5154 16.142C80.2285 16.142 80.0254 16.2116 79.9061 16.3509C79.7896 16.4872 79.7314 16.6832 79.7314 16.9389V24H78.1845ZM86.9203 15.2727V24H85.3393V15.2727H86.9203ZM89.5144 24.0938C89.2559 24.0938 89.0343 24.0028 88.8496 23.821C88.665 23.6392 88.574 23.4176 88.5769 23.1562C88.574 22.9006 88.665 22.6818 88.8496 22.5C89.0343 22.3182 89.2559 22.2273 89.5144 22.2273C89.7644 22.2273 89.9817 22.3182 90.1664 22.5C90.3539 22.6818 90.449 22.9006 90.4519 23.1562C90.449 23.3295 90.4036 23.4872 90.3155 23.6293C90.2303 23.7713 90.1167 23.8849 89.9746 23.9702C89.8354 24.0526 89.682 24.0938 89.5144 24.0938ZM95.0701 24H92.1127V15.2727H95.1298C95.9963 15.2727 96.7406 15.4474 97.3627 15.7969C97.9877 16.1435 98.4679 16.642 98.8031 17.2926C99.1383 17.9432 99.3059 18.7216 99.3059 19.6278C99.3059 20.5369 99.1369 21.3182 98.7988 21.9716C98.4636 22.625 97.9792 23.1264 97.3457 23.4759C96.715 23.8253 95.9565 24 95.0701 24ZM93.6937 22.6321H94.9934C95.6014 22.6321 96.1085 22.5213 96.5147 22.2997C96.921 22.0753 97.2264 21.7415 97.4309 21.2983C97.6355 20.8523 97.7377 20.2955 97.7377 19.6278C97.7377 18.9602 97.6355 18.4062 97.4309 17.9659C97.2264 17.5227 96.9238 17.1918 96.5233 16.973C96.1255 16.7514 95.6312 16.6406 95.0403 16.6406H93.6937V22.6321ZM106.572 24.1278C105.918 24.1278 105.357 23.9844 104.888 23.6974C104.422 23.4105 104.063 23.0142 103.81 22.5085C103.56 22 103.435 21.4148 103.435 20.7528C103.435 20.0881 103.563 19.5014 103.819 18.9929C104.074 18.4815 104.435 18.0838 104.901 17.7997C105.37 17.5128 105.924 17.3693 106.563 17.3693C107.094 17.3693 107.564 17.4673 107.974 17.6634C108.385 17.8565 108.714 18.1307 108.958 18.4858C109.202 18.8381 109.341 19.25 109.376 19.7216H107.901C107.841 19.4062 107.699 19.1435 107.475 18.9332C107.253 18.7202 106.956 18.6136 106.584 18.6136C106.269 18.6136 105.992 18.6989 105.753 18.8693C105.515 19.0369 105.329 19.2784 105.195 19.5938C105.064 19.9091 104.999 20.2869 104.999 20.7273C104.999 21.1733 105.064 21.5568 105.195 21.8778C105.326 22.196 105.509 22.4418 105.745 22.6151C105.983 22.7855 106.263 22.8707 106.584 22.8707C106.812 22.8707 107.015 22.8281 107.194 22.7429C107.376 22.6548 107.528 22.5284 107.65 22.3636C107.772 22.1989 107.856 21.9986 107.901 21.7628H109.376C109.339 22.2259 109.202 22.6364 108.966 22.9943C108.731 23.3494 108.41 23.6278 108.003 23.8295C107.597 24.0284 107.12 24.1278 106.572 24.1278ZM112.526 24.1321C112.111 24.1321 111.737 24.0582 111.405 23.9105C111.075 23.7599 110.814 23.5384 110.621 23.2457C110.431 22.9531 110.335 22.5923 110.335 22.1634C110.335 21.794 110.404 21.4886 110.54 21.2472C110.676 21.0057 110.862 20.8125 111.098 20.6676C111.334 20.5227 111.6 20.4134 111.895 20.3395C112.193 20.2628 112.502 20.2074 112.82 20.1733C113.203 20.1335 113.514 20.098 113.753 20.0668C113.992 20.0327 114.165 19.9815 114.273 19.9134C114.384 19.8423 114.439 19.733 114.439 19.5852V19.5597C114.439 19.2386 114.344 18.9901 114.154 18.8139C113.963 18.6378 113.689 18.5497 113.331 18.5497C112.953 18.5497 112.654 18.6321 112.432 18.7969C112.213 18.9616 112.066 19.1562 111.989 19.3807L110.548 19.1761C110.662 18.7784 110.85 18.446 111.111 18.179C111.372 17.9091 111.692 17.7074 112.07 17.5739C112.448 17.4375 112.865 17.3693 113.323 17.3693C113.638 17.3693 113.952 17.4062 114.264 17.4801C114.577 17.554 114.862 17.6761 115.121 17.8466C115.379 18.0142 115.587 18.2429 115.743 18.5327C115.902 18.8224 115.982 19.1847 115.982 19.6193V24H114.499V23.1009H114.448C114.354 23.2827 114.222 23.4531 114.051 23.6122C113.884 23.7685 113.672 23.8949 113.416 23.9915C113.164 24.0852 112.867 24.1321 112.526 24.1321ZM112.926 22.9986C113.236 22.9986 113.504 22.9375 113.732 22.8153C113.959 22.6903 114.134 22.5256 114.256 22.321C114.381 22.1165 114.443 21.8935 114.443 21.652V20.8807C114.395 20.9205 114.313 20.9574 114.196 20.9915C114.083 21.0256 113.955 21.0554 113.813 21.081C113.671 21.1065 113.53 21.1293 113.391 21.1491C113.252 21.169 113.131 21.1861 113.029 21.2003C112.798 21.2315 112.593 21.2827 112.411 21.3537C112.229 21.4247 112.085 21.5241 111.98 21.652C111.875 21.777 111.823 21.9389 111.823 22.1378C111.823 22.4219 111.926 22.6364 112.134 22.7812C112.341 22.9261 112.605 22.9986 112.926 22.9986ZM117.533 24V17.4545H119.029V18.5455H119.097C119.216 18.1676 119.421 17.8764 119.71 17.6719C120.003 17.4645 120.337 17.3608 120.712 17.3608C120.797 17.3608 120.892 17.3651 120.997 17.3736C121.105 17.3793 121.195 17.3892 121.266 17.4034V18.8224C121.2 18.7997 121.097 18.7798 120.955 18.7628C120.816 18.7429 120.681 18.733 120.55 18.733C120.269 18.733 120.016 18.794 119.791 18.9162C119.57 19.0355 119.395 19.2017 119.267 19.4148C119.139 19.6278 119.075 19.8736 119.075 20.152V24H117.533ZM124.45 24.1151C123.936 24.1151 123.476 23.983 123.069 23.7188C122.663 23.4545 122.342 23.071 122.106 22.5682C121.871 22.0653 121.753 21.4545 121.753 20.7358C121.753 20.0085 121.872 19.3949 122.111 18.8949C122.352 18.392 122.677 18.0128 123.086 17.7571C123.496 17.4986 123.952 17.3693 124.454 17.3693C124.838 17.3693 125.153 17.4347 125.4 17.5653C125.648 17.6932 125.844 17.848 125.988 18.0298C126.133 18.2088 126.246 18.3778 126.325 18.5369H126.389V15.2727H127.936V24H126.419V22.9688H126.325C126.246 23.1278 126.131 23.2969 125.98 23.4759C125.829 23.652 125.631 23.8026 125.383 23.9276C125.136 24.0526 124.825 24.1151 124.45 24.1151ZM124.881 22.8494C125.207 22.8494 125.486 22.7614 125.716 22.5852C125.946 22.4062 126.121 22.1577 126.24 21.8395C126.359 21.5213 126.419 21.1506 126.419 20.7273C126.419 20.304 126.359 19.9361 126.24 19.6236C126.123 19.3111 125.95 19.0682 125.72 18.8949C125.493 18.7216 125.213 18.6349 124.881 18.6349C124.537 18.6349 124.25 18.7244 124.02 18.9034C123.79 19.0824 123.616 19.3295 123.5 19.6449C123.383 19.9602 123.325 20.321 123.325 20.7273C123.325 21.1364 123.383 21.5014 123.5 21.8224C123.619 22.1406 123.794 22.392 124.024 22.5767C124.257 22.7585 124.542 22.8494 124.881 22.8494Z" fill="#274B73"/>
</svg>
