<svg width="20" height="26" viewBox="0 0 20 26" fill="none" xmlns="http://www.w3.org/2000/svg">
<path fill-rule="evenodd" clip-rule="evenodd" d="M3.60039 0.199219C1.83308 0.199219 0.400391 1.63191 0.400391 3.39922V22.5992C0.400391 24.3665 1.83308 25.7992 3.60039 25.7992H16.4004C18.1677 25.7992 19.6004 24.3665 19.6004 22.5992V8.86196C19.6004 8.01327 19.2633 7.19934 18.6631 6.59922L13.2004 1.13648C12.6003 0.536361 11.7863 0.199219 10.9376 0.199219H3.60039ZM6.80039 16.1992C6.80039 15.3156 6.08405 14.5992 5.20039 14.5992C4.31674 14.5992 3.60039 15.3156 3.60039 16.1992V20.9992C3.60039 21.8829 4.31674 22.5992 5.20039 22.5992C6.08405 22.5992 6.80039 21.8829 6.80039 20.9992V16.1992ZM10.0004 11.3992C10.884 11.3992 11.6004 12.1156 11.6004 12.9992V20.9992C11.6004 21.8829 10.884 22.5992 10.0004 22.5992C9.11674 22.5992 8.40039 21.8829 8.40039 20.9992V12.9992C8.40039 12.1156 9.11674 11.3992 10.0004 11.3992ZM16.4004 9.79922C16.4004 8.91556 15.684 8.19922 14.8004 8.19922C13.9167 8.19922 13.2004 8.91556 13.2004 9.79922V20.9992C13.2004 21.8829 13.9167 22.5992 14.8004 22.5992C15.684 22.5992 16.4004 21.8829 16.4004 20.9992V9.79922Z" fill="#DD3636"/>
</svg>
