<svg width="27" height="28" viewBox="0 0 27 28" fill="none" xmlns="http://www.w3.org/2000/svg">
<path fill-rule="evenodd" clip-rule="evenodd" d="M24.4449 14.0017C24.4449 20.1382 19.4703 25.1128 13.3338 25.1128C7.19727 25.1128 2.22266 20.1382 2.22266 14.0017C2.22266 7.86524 7.19727 2.89062 13.3338 2.89062C19.4703 2.89062 24.4449 7.86524 24.4449 14.0017ZM13.7319 11.0933C12.6512 11.5429 10.4913 12.4732 7.25217 13.8845C6.72618 14.0936 6.45065 14.2982 6.42557 14.4983C6.38318 14.8365 6.80663 14.9696 7.38326 15.1509C7.46169 15.1756 7.54296 15.2012 7.62628 15.2282C8.1936 15.4127 8.95673 15.6284 9.35346 15.637C9.71332 15.6447 10.115 15.4964 10.5584 15.1919C13.5848 13.149 15.1471 12.1164 15.2451 12.0941C15.3143 12.0784 15.4102 12.0587 15.4752 12.1164C15.5402 12.1742 15.5338 12.2835 15.5269 12.3129C15.4849 12.4917 13.8228 14.037 12.9626 14.8367C12.6944 15.086 12.5042 15.2629 12.4653 15.3033C12.3782 15.3937 12.2894 15.4793 12.2041 15.5616C11.677 16.0697 11.2818 16.4507 12.226 17.0729C12.6797 17.3719 13.0428 17.6191 13.405 17.8658C13.8006 18.1352 14.1951 18.4038 14.7056 18.7385C14.8357 18.8237 14.9599 18.9123 15.0809 18.9985C15.5412 19.3267 15.9548 19.6216 16.4658 19.5746C16.7627 19.5472 17.0694 19.2681 17.2251 18.4354C17.5932 16.4676 18.3167 12.204 18.4839 10.4471C18.4986 10.2932 18.4802 10.0962 18.4654 10.0097C18.4506 9.92321 18.4196 9.79999 18.3072 9.70878C18.1741 9.60076 17.9686 9.57798 17.8767 9.5796C17.4588 9.58696 16.8176 9.80991 13.7319 11.0933Z" fill="#0088CC"/>
</svg>
