<svg width="56" height="56" viewBox="0 0 56 56" fill="none" xmlns="http://www.w3.org/2000/svg">
<path d="M28.0013 53.0832C14.1646 53.0832 2.91797 41.8365 2.91797 27.9998C2.91797 14.1632 14.1646 2.9165 28.0013 2.9165C41.838 2.9165 53.0846 14.1632 53.0846 27.9998C53.0846 41.8365 41.838 53.0832 28.0013 53.0832ZM28.0013 6.4165C16.1013 6.4165 6.41797 16.0998 6.41797 27.9998C6.41797 39.8998 16.1013 49.5832 28.0013 49.5832C39.9013 49.5832 49.5846 39.8998 49.5846 27.9998C49.5846 16.0998 39.9013 6.4165 28.0013 6.4165Z" fill="#61B858"/>
<path d="M24.6873 36.3536C24.2207 36.3536 23.7773 36.1669 23.4507 35.8402L16.8473 29.2369C16.1707 28.5602 16.1707 27.4402 16.8473 26.7636C17.524 26.0869 18.644 26.0869 19.3207 26.7636L24.6873 32.1302L36.6807 20.1369C37.3573 19.4602 38.4773 19.4602 39.154 20.1369C39.8307 20.8136 39.8307 21.9336 39.154 22.6102L25.924 35.8402C25.5973 36.1669 25.154 36.3536 24.6873 36.3536Z" fill="#61B858"/>
</svg>
