<svg width="48" height="48" viewBox="0 0 48 48" fill="none" xmlns="http://www.w3.org/2000/svg">
<circle cx="24" cy="24" r="24" fill="#BFD0E4"/>
<path d="M30.6606 28.694L28.7797 23.9706L28.3555 22.924C28.2989 22.7543 28.3484 22.5068 28.4757 22.3796L30.6394 20.2158C31.3182 19.537 31.6223 18.2289 31.3253 17.3096C31.2193 16.9914 30.9647 16.7369 30.6465 16.6308C29.7343 16.3409 28.4191 16.652 27.7403 17.3308L25.5765 19.4946C25.4493 19.6219 25.2018 19.6714 25.0321 19.6148L19.2691 17.3167C18.6398 17.0551 17.7206 17.253 17.2398 17.7339L16.3064 18.6673C15.7053 19.2683 15.8609 20.0178 16.6599 20.336L21.7299 22.3513C22.1259 22.5069 22.2036 22.8816 21.8996 23.1857L21.1147 23.9706L19.8419 25.2434C19.6793 25.406 19.354 25.5474 19.1277 25.5474L15.8397 25.5545C15.5003 25.5545 15.0901 25.809 14.9275 26.1272L14.284 27.4071C13.9941 27.9516 14.2699 28.6233 14.8568 28.8142L17.9539 29.0829C18.4277 29.1183 18.8449 29.5355 18.8802 30.0093L19.1489 33.1064C19.3469 33.6862 20.0116 33.9691 20.5702 33.6933L21.8501 33.0498C22.1612 32.8942 22.4228 32.4771 22.4228 32.1376L22.4299 28.8496C22.4228 28.6163 22.5643 28.291 22.7269 28.1283L24.7846 26.0707C25.0886 25.7666 25.4493 25.8444 25.619 26.2404L27.6342 31.3103C27.9524 32.1094 28.702 32.2649 29.303 31.6639L30.2364 30.7305C30.7172 30.2497 30.9152 29.3304 30.6606 28.694Z" fill="#1A1A1A"/>
</svg>
