<svg width="27" height="28" viewBox="0 0 27 28" fill="none" xmlns="http://www.w3.org/2000/svg">
<path d="M22.1698 9.46789C22.1834 9.6638 22.1834 9.8597 22.1834 10.0574C22.1834 16.0817 17.5972 23.0296 9.21117 23.0296V23.026C6.73391 23.0296 4.30811 22.32 2.22266 20.9821C2.58287 21.0254 2.94489 21.0471 3.30781 21.048C5.36076 21.0498 7.35503 20.361 8.97012 19.0926C7.01919 19.0555 5.3084 17.7835 4.71075 15.9265C5.39416 16.0583 6.09834 16.0312 6.76912 15.8479C4.64214 15.4182 3.11191 13.5494 3.11191 11.3791C3.11191 11.3592 3.11191 11.3403 3.11191 11.3213C3.74567 11.6743 4.45526 11.8702 5.18111 11.8919C3.17781 10.553 2.5603 7.88801 3.77004 5.80436C6.0848 8.65267 9.50006 10.3842 13.1663 10.5675C12.7989 8.984 13.3008 7.32467 14.4853 6.21152C16.3216 4.48539 19.2096 4.57386 20.9357 6.40923C21.9568 6.20791 22.9354 5.83325 23.831 5.30241C23.4906 6.35778 22.7783 7.25425 21.8268 7.82391C22.7305 7.71738 23.6134 7.47543 24.4449 7.10619C23.8328 8.02343 23.0618 8.8224 22.1698 9.46789Z" fill="#00ACEE"/>
</svg>
