<svg width="12" height="10" viewBox="0 0 12 10" fill="none" xmlns="http://www.w3.org/2000/svg">
<path d="M10.7665 2.34558C10.7741 2.44852 10.7741 2.55147 10.7741 2.65441C10.7741 5.7941 8.29953 9.41177 3.77666 9.41177C2.38325 9.41177 1.08884 9.02204 0 8.3456C0.197977 8.36765 0.388314 8.375 0.593909 8.375C1.74364 8.375 2.80203 8.00001 3.64722 7.3603C2.56599 7.33824 1.6599 6.65442 1.34771 5.71323C1.50001 5.73528 1.65228 5.74999 1.81219 5.74999C2.033 5.74999 2.25383 5.72057 2.4594 5.66912C1.3325 5.44851 0.487291 4.49264 0.487291 3.33823V3.30883C0.814691 3.4853 1.19543 3.59559 1.59896 3.61028C0.936519 3.1838 0.502525 2.45587 0.502525 1.63234C0.502525 1.19117 0.624331 0.786756 0.837542 0.433812C2.04821 1.87499 3.86802 2.81615 5.90862 2.91911C5.87055 2.74264 5.8477 2.55883 5.8477 2.375C5.8477 1.06616 6.94416 0 8.3071 0C9.01522 0 9.65481 0.286764 10.1041 0.75C10.6599 0.647064 11.1929 0.448524 11.665 0.176472C11.4822 0.727955 11.0939 1.19119 10.5838 1.48529C11.0787 1.43384 11.5584 1.30146 12 1.11766C11.665 1.58822 11.2462 2.00733 10.7665 2.34558Z" fill="#1DA1F2"/>
</svg>
