<svg width="32" height="12" viewBox="0 0 32 12" fill="none" xmlns="http://www.w3.org/2000/svg">
<g clip-path="url(#clip0_1673_46267)">
<path d="M13.8676 11.0292H11.2754L12.8968 1.00391H15.4888L13.8676 11.0292Z" fill="#00579F"/>
<path d="M23.2642 1.24908C22.7529 1.04623 21.942 0.822266 20.9392 0.822266C18.3793 0.822266 16.5767 2.18734 16.5656 4.13899C16.5443 5.57891 17.8563 6.37867 18.8375 6.85879C19.8404 7.34939 20.1813 7.66961 20.1813 8.10692C20.1711 8.77854 19.3709 9.08813 18.6246 9.08813C17.5896 9.08813 17.0351 8.92851 16.1924 8.55485L15.851 8.39467L15.4883 10.6451C16.0963 10.9221 17.2164 11.1679 18.3793 11.1787C21.0993 11.1787 22.87 9.83473 22.891 7.75495C22.9014 6.6137 22.2086 5.73923 20.7151 5.02465C19.8085 4.56594 19.2532 4.25664 19.2532 3.7873C19.2639 3.36062 19.7228 2.9236 20.7463 2.9236C21.589 2.9022 22.2082 3.10476 22.6773 3.30747L22.9117 3.41392L23.2642 1.24908Z" fill="#00579F"/>
<path d="M26.7079 7.47759C26.9213 6.90165 27.7428 4.6726 27.7428 4.6726C27.732 4.694 27.9559 4.08603 28.0839 3.71279L28.265 4.57663C28.265 4.57663 28.7559 6.97636 28.8625 7.47759C28.4574 7.47759 27.2199 7.47759 26.7079 7.47759ZM29.9076 1.00391H27.9026C27.2842 1.00391 26.8145 1.18507 26.5477 1.83571L22.6973 11.0291H25.4172C25.4172 11.0291 25.865 9.7917 25.9613 9.5252C26.2596 9.5252 28.9056 9.5252 29.2895 9.5252C29.3639 9.87718 29.5988 11.0291 29.5988 11.0291H31.9989L29.9076 1.00391Z" fill="#00579F"/>
<path d="M9.10896 1.00391L6.57032 7.84019L6.29291 6.45372C5.82357 4.8539 4.35161 3.11573 2.70898 2.25147L5.03429 11.0186H7.7755L11.85 1.00391H9.10896Z" fill="#00579F"/>
<path d="M4.2133 1.00391H0.0426673L0 1.20647C3.25336 2.03841 5.40799 4.04378 6.29323 6.45414L5.38659 1.84662C5.23732 1.20633 4.77861 1.02503 4.2133 1.00391Z" fill="#FAA61A"/>
</g>
<defs>
<clipPath id="clip0_1673_46267">
<rect width="32" height="10.3564" fill="white" transform="translate(0 0.822266)"/>
</clipPath>
</defs>
</svg>
