<svg width="19" height="19" viewBox="0 0 19 19" fill="none" xmlns="http://www.w3.org/2000/svg">
<path d="M17.805 15.2357L10.725 1.06988C10.395 0.415778 9.74103 0.0078125 9.00896 0.0078125C8.27689 0.0078125 7.62293 0.415744 7.29293 1.06988L0.212928 15.2357C-0.0870725 15.8357 -0.0570724 16.5317 0.2969 17.1017C0.651003 17.6657 1.2569 18.0078 1.92897 18.0078H16.089C16.761 18.0078 17.3669 17.6657 17.721 17.1017C18.075 16.5317 18.105 15.8357 17.805 15.2357ZM9.009 16.2078C8.349 16.2078 7.809 15.6678 7.809 15.0078C7.809 14.3478 8.349 13.8078 9.009 13.8078C9.669 13.8078 10.209 14.3478 10.209 15.0078C10.209 15.6678 9.669 16.2078 9.009 16.2078ZM9.009 3.60778C9.65693 3.60778 10.1669 4.15985 10.119 4.80174L9.65693 12.6079C9.62693 12.95 9.34487 13.2079 9.009 13.2079C8.67297 13.2079 8.39107 12.95 8.36106 12.6079L7.899 4.80174C7.85105 4.15981 8.36106 3.60778 9.009 3.60778Z" fill="#D79D00"/>
</svg>
