<svg width="104" height="104" viewBox="0 0 104 104" fill="none" xmlns="http://www.w3.org/2000/svg">
<rect opacity="0.1" width="104" height="104" rx="52" fill="#214660"/>
<path d="M69.3338 30.9602L56.0271 25.9735C53.8138 25.1468 50.1871 25.1468 47.9738 25.9735L34.6671 30.9602C31.6004 32.1068 29.0938 35.7335 29.0938 38.9868V58.8002C29.0938 61.9468 31.1737 66.0802 33.7071 67.9735L45.1737 76.5335C48.9338 79.3602 55.1204 79.3602 58.8804 76.5335L70.3471 67.9735C72.8804 66.0802 74.9604 61.9468 74.9604 58.8002V38.9868C74.9071 35.7335 72.4004 32.1068 69.3338 30.9602ZM51.8138 38.7468C54.9604 38.7468 57.5204 41.3068 57.5204 44.4535C57.5204 47.5469 55.0938 50.0269 52.0271 50.1335H51.9738H51.9204C51.8671 50.1335 51.8138 50.1335 51.7604 50.1335C48.5604 50.0269 46.1604 47.5469 46.1604 44.4535C46.1338 41.3068 48.6938 38.7468 51.8138 38.7468ZM57.8404 63.6269C56.2138 64.6935 54.1071 65.2535 52.0004 65.2535C49.8938 65.2535 47.7604 64.7202 46.1604 63.6269C44.6404 62.6135 43.8138 61.2269 43.7871 59.7069C43.7871 58.2135 44.6404 56.7735 46.1604 55.7602C49.3871 53.6269 54.6404 53.6269 57.8671 55.7602C59.3871 56.7735 60.2404 58.1602 60.2404 59.6802C60.2138 61.1735 59.3604 62.6135 57.8404 63.6269Z" fill="#214660"/>
</svg>
