<svg width="27" height="28" viewBox="0 0 27 28" fill="none" xmlns="http://www.w3.org/2000/svg">
<path d="M13.3759 4.32422C7.88689 4.32422 3.41979 8.6268 3.41786 13.9145C3.41657 15.6055 3.87592 17.2558 4.74689 18.7094L3.33398 23.6791L8.61334 22.3455C10.0819 23.1137 11.7147 23.5144 13.372 23.5133H13.3759C18.865 23.5133 23.332 19.21 23.334 13.9223C23.3353 11.361 22.3004 8.95003 20.4198 7.13777C18.5398 5.32486 16.0398 4.32486 13.3759 4.32422ZM13.3759 21.8933H13.3727C11.8875 21.8933 10.4308 21.5087 9.15979 20.7823L8.85656 20.6094L5.72495 21.4003L6.56108 18.4584L6.36431 18.1571C5.53779 16.8966 5.09781 15.4219 5.0985 13.9145C5.10044 9.51906 8.81398 5.94422 13.3791 5.94422C15.5895 5.94486 17.6675 6.77519 19.2308 8.28164C20.794 9.78809 21.654 11.7913 21.6527 13.9216C21.6508 18.3171 17.9379 21.8933 13.3753 21.8933H13.3759ZM17.9159 15.9223C17.6669 15.8029 16.4437 15.2229 16.2153 15.1423C15.9875 15.0629 15.8217 15.0216 15.6559 15.2616C15.4908 15.5016 15.0133 16.0416 14.8688 16.201C14.723 16.361 14.5779 16.3803 14.3288 16.261C14.0798 16.141 13.2779 15.8881 12.3282 15.0713C11.5882 14.4365 11.0888 13.652 10.9437 13.4113C10.7985 13.172 10.9282 13.0423 11.0527 12.9229C11.1643 12.8165 11.3017 12.6436 11.4256 12.5036C11.5495 12.3636 11.5908 12.2636 11.6746 12.1036C11.7572 11.9442 11.7159 11.8036 11.6533 11.6842C11.5908 11.5636 11.094 10.3842 10.8856 9.90486C10.6843 9.43777 10.4791 9.50035 10.3262 9.49261C10.1811 9.48615 10.0159 9.48422 9.84882 9.48422C9.68431 9.48422 9.41398 9.54422 9.1856 9.78422C8.95786 10.0242 8.31463 10.6036 8.31463 11.7829C8.31463 12.9629 9.20624 14.1023 9.33076 14.2623C9.45527 14.4216 11.0856 16.8429 13.5817 17.8816C14.1753 18.1274 14.6385 18.2752 15.0004 18.3862C15.5966 18.5687 16.1391 18.5423 16.5675 18.481C17.045 18.412 18.0398 17.9016 18.2462 17.3423C18.454 16.7829 18.454 16.3029 18.392 16.2029C18.3314 16.1029 18.165 16.0429 17.9159 15.9223Z" fill="#075E54"/>
</svg>
