<svg width="28" height="28" viewBox="0 0 28 28" fill="none" xmlns="http://www.w3.org/2000/svg">
<circle cx="14" cy="14" r="14" fill="#EB3A3A" fill-opacity="0.2"/>
<path d="M17.914 15.809C17.8356 15.8874 17.7284 15.9369 17.6046 15.9369C17.3654 15.9369 17.1674 15.7389 17.1674 15.4997L17.1674 10.9294L12.5971 10.9294C12.3579 10.9294 12.1599 10.7314 12.1599 10.4922C12.1599 10.2529 12.3579 10.055 12.5971 10.055L17.6046 10.055C17.8439 10.055 18.0418 10.2529 18.0418 10.4922L18.0418 15.4997C18.0418 15.6234 17.9923 15.7307 17.914 15.809Z" fill="#EB3A3A"/>
<path d="M17.8447 10.8752L10.9027 17.8172C10.7336 17.9863 10.4531 17.9863 10.284 17.8172C10.1149 17.6481 10.1149 17.3676 10.284 17.1985L17.226 10.2564C17.3951 10.0873 17.6756 10.0873 17.8447 10.2564C18.0138 10.4255 18.0138 10.706 17.8447 10.8752Z" fill="#EB3A3A"/>
</svg>
