<svg width="32" height="32" viewBox="0 0 32 32" fill="none" xmlns="http://www.w3.org/2000/svg">
<circle cx="16" cy="16" r="16" fill="#EEEFF2"/>
<path d="M15.2008 12.8004C15.2008 14.1259 14.1263 15.2004 12.8008 15.2004C11.4753 15.2004 10.4008 14.1259 10.4008 12.8004C10.4008 11.4749 11.4753 10.4004 12.8008 10.4004C14.1263 10.4004 15.2008 11.4749 15.2008 12.8004Z" fill="#434E61"/>
<path d="M21.6008 12.8004C21.6008 14.1259 20.5263 15.2004 19.2008 15.2004C17.8753 15.2004 16.8008 14.1259 16.8008 12.8004C16.8008 11.4749 17.8753 10.4004 19.2008 10.4004C20.5263 10.4004 21.6008 11.4749 21.6008 12.8004Z" fill="#434E61"/>
<path d="M18.3441 21.6004C18.3815 21.3391 18.4008 21.072 18.4008 20.8004C18.4008 19.4922 17.9523 18.2889 17.2006 17.3356C17.789 16.9952 18.4721 16.8004 19.2008 16.8004C21.4099 16.8004 23.2008 18.5913 23.2008 20.8004V21.6004H18.3441Z" fill="#434E61"/>
<path d="M12.8008 16.8004C15.0099 16.8004 16.8008 18.5913 16.8008 20.8004V21.6004H8.80078V20.8004C8.80078 18.5913 10.5916 16.8004 12.8008 16.8004Z" fill="#434E61"/>
</svg>
