<svg width="345" height="193" viewBox="0 0 345 193" fill="none" xmlns="http://www.w3.org/2000/svg">
<g clip-path="url(#clip0_1127_22838)">
<path d="M152.931 193.37C140.931 188.509 128.118 185.967 115.171 185.88C102.224 185.967 89.4111 188.509 77.4111 193.37L76.8711 192C89.0407 187.062 102.038 184.483 115.171 184.4C128.307 184.484 141.308 187.063 153.481 192L152.931 193.37Z" fill="#D4D4D4"/>
<path d="M174.001 193.33C158.161 184.67 138.791 175.82 115.191 175.82C91.5906 175.82 72.1906 184.67 56.3806 193.33L55.6406 192C71.6406 183.25 91.2306 174.3 115.171 174.3C139.111 174.3 158.701 183.25 174.701 192L174.001 193.33Z" fill="#D4D4D4"/>
<path d="M497.78 193.32C474.91 179.77 451.27 165.76 421.56 165.76C391.85 165.76 368.21 179.76 345.35 193.32L344.58 192.03C367.58 178.38 391.44 164.26 421.58 164.26C451.72 164.26 475.52 178.38 498.58 192.03L497.78 193.32Z" fill="#D4D4D4"/>
<path d="M191.391 193.32C168.521 179.77 144.881 165.76 115.171 165.76C85.4614 165.76 61.8214 179.76 38.9614 193.32L38.1914 192C61.1914 178.34 85.0514 164.23 115.191 164.23C145.331 164.23 169.131 178.34 192.191 192L191.391 193.32Z" fill="#D4D4D4"/>
<path d="M515.23 193.33C509.34 190.11 503.46 186.63 497.78 183.26C474.91 169.71 451.27 155.69 421.56 155.69C391.85 155.69 368.21 169.69 345.35 183.26C339.66 186.63 333.78 190.11 327.9 193.33L327.18 192.02C333.04 188.81 338.91 185.33 344.58 182.02C367.58 168.36 391.44 154.24 421.58 154.24C451.72 154.24 475.52 168.36 498.58 182.02C504.26 185.38 510.12 188.86 515.99 192.02L515.23 193.33Z" fill="#D4D4D4"/>
<path d="M208.841 193.33C202.951 190.11 197.071 186.63 191.391 183.26C168.521 169.71 144.881 155.69 115.171 155.69C85.4613 155.69 61.8213 169.69 38.9612 183.26C33.2712 186.63 27.3912 190.11 21.5012 193.33L20.7812 192C26.6512 188.79 32.5212 185.31 38.1912 182C61.1912 168.34 85.0513 154.22 115.191 154.22C145.331 154.22 169.131 168.34 192.191 182C197.861 185.36 203.731 188.84 209.601 192L208.841 193.33Z" fill="#D4D4D4"/>
<path d="M536.451 193.37C522.861 188.07 510.111 180.51 497.781 173.2C474.911 159.65 451.271 145.63 421.561 145.63C391.851 145.63 368.211 159.63 345.351 173.2C333.011 180.51 320.261 188.07 306.671 193.37L306.121 191.98C319.601 186.71 332.301 179.19 344.581 171.91C367.581 158.25 391.441 144.13 421.581 144.13C451.721 144.13 475.531 158.25 498.581 171.91C510.871 179.19 523.581 186.71 537.041 191.98L536.451 193.37Z" fill="#D4D4D4"/>
<path d="M230.06 193.37C216.47 188.07 203.72 180.51 191.39 173.2C168.52 159.65 144.88 145.63 115.17 145.63C85.46 145.63 61.82 159.65 39 173.2C26.7 180.46 14 188 0.55 193.27L0 191.87C13.37 186.62 26 179.14 38.19 171.87C61.19 158.21 85.05 144.09 115.19 144.09C145.33 144.09 169.13 158.21 192.19 171.87C204.47 179.15 217.19 186.67 230.65 191.94L230.06 193.37Z" fill="#D4D4D4"/>
<path d="M268.37 190.91C238.25 190.91 214.37 176.79 191.37 163.14C168.5 149.58 144.86 135.57 115.15 135.57C85.44 135.57 61.8 149.57 38.94 163.13C26.7 170.4 14 177.91 0.55 183.21L0 181.81C13.37 176.55 26 169.08 38.19 161.81C61.19 148.16 85.05 134.04 115.19 134.04C145.33 134.04 169.13 148.16 192.19 161.81C215.06 175.37 238.7 189.38 268.41 189.38C298.12 189.38 321.76 175.38 344.62 161.81C367.62 148.16 391.48 134.04 421.62 134.04V135.54C391.91 135.54 368.27 149.54 345.41 163.11C322.31 176.79 298.48 190.91 268.37 190.91Z" fill="#D4D4D4"/>
<path d="M268.37 180.85C238.25 180.85 214.37 166.73 191.37 153.07C168.5 139.52 144.86 125.51 115.15 125.51C85.44 125.51 61.8 139.51 38.94 153.07C26.7 160.34 14 167.85 0.55 173.15L0 171.75C13.37 166.49 26 159.01 38.19 151.75C61.19 138.1 85.05 123.98 115.19 123.98C145.33 123.98 169.13 138.1 192.19 151.75C215.06 165.3 238.7 179.32 268.41 179.32C298.12 179.32 321.76 165.32 344.62 151.75C367.62 138.1 391.48 123.98 421.62 123.98V125.48C391.91 125.48 368.27 139.48 345.41 153.04C322.31 166.73 298.48 180.85 268.37 180.85Z" fill="#D4D4D4"/>
<path d="M268.37 170.79C238.25 170.79 214.37 156.67 191.37 143.01C168.5 129.46 144.86 115.45 115.15 115.45C85.44 115.45 61.82 129.46 39 143C26.7 150.27 14 157.78 0.55 163.08L0 161.69C13.37 156.43 26 148.95 38.19 141.69C61.19 128.04 85.05 113.92 115.19 113.92C145.33 113.92 169.13 128.04 192.19 141.69C215.06 155.24 238.7 169.26 268.41 169.26C298.12 169.26 321.76 155.26 344.62 141.69C367.62 128.04 391.48 113.92 421.62 113.92V115.42C391.91 115.42 368.27 129.42 345.41 142.98C322.31 156.67 298.48 170.79 268.37 170.79Z" fill="#D4D4D4"/>
<path d="M268.37 160.72C238.25 160.72 214.37 146.6 191.37 132.95C168.5 119.4 144.86 105.38 115.15 105.38C85.44 105.38 61.82 119.4 39 133C26.7 140.21 14 147.72 0.55 153L0 151.63C13.37 146.37 26 138.89 38.19 131.63C61.19 117.97 85.05 103.85 115.19 103.85C145.33 103.85 169.13 117.97 192.19 131.63C215.06 145.18 238.7 159.19 268.41 159.19C298.12 159.19 321.76 145.19 344.62 131.63C367.62 117.97 391.48 103.85 421.62 103.85V105.35C391.91 105.35 368.27 119.35 345.41 132.92C322.31 146.6 298.48 160.72 268.37 160.72Z" fill="#D4D4D4"/>
<path d="M268.37 150.66C238.25 150.66 214.37 136.54 191.37 122.89C168.5 109.34 144.86 95.32 115.15 95.32C85.44 95.32 61.8 109.32 38.94 122.89C26.71 130.15 14 137.66 0.55 143L0 141.56C13.37 136.31 26 128.83 38.19 121.56C61.19 107.9 85.05 93.78 115.19 93.78C145.33 93.78 169.13 107.9 192.19 121.56C215.06 135.11 238.7 149.12 268.41 149.12C298.12 149.12 321.76 135.12 344.62 121.56C367.62 107.9 391.48 93.78 421.62 93.78V95.28C391.91 95.28 368.27 109.28 345.41 122.85C322.31 136.54 298.48 150.66 268.37 150.66Z" fill="#D4D4D4"/>
<path d="M268.37 140.6C238.25 140.6 214.37 126.48 191.37 112.83C168.5 99.27 144.86 85.26 115.15 85.26C85.44 85.26 61.8 99.26 38.94 112.83C26.7 120.09 14 127.6 0.55 132.9L0 131.5C13.37 126.25 26 118.77 38.19 111.5C61.19 97.84 85.05 83.72 115.19 83.72C145.33 83.72 169.13 97.84 192.19 111.5C215.06 125.05 238.7 139.06 268.41 139.06C298.12 139.06 321.76 125.06 344.62 111.5C367.62 97.84 391.48 83.72 421.62 83.72V85.22C391.91 85.22 368.27 99.22 345.41 112.79C322.31 126.48 298.48 140.6 268.37 140.6Z" fill="#D4D4D4"/>
<path d="M268.37 130.54C238.25 130.54 214.37 116.42 191.37 102.76C168.5 89.2099 144.86 75.1999 115.15 75.1999C85.44 75.1999 61.8 89.1999 38.94 102.76C26.71 110 14 117.54 0.55 122.84L0 121.44C13.37 116.18 26 108.71 38.19 101.44C61.19 87.7899 85.05 73.6699 115.19 73.6699C145.33 73.6699 169.13 87.7899 192.19 101.44C215 115 238.66 129 268.37 129C298.08 129 321.72 115 344.58 101.43C367.58 87.7799 391.44 73.6599 421.58 73.6599V75.1599C391.87 75.1599 368.23 89.1599 345.37 102.72C322.31 116.42 298.48 130.54 268.37 130.54Z" fill="#D4D4D4"/>
<path d="M268.37 120.48C238.25 120.48 214.37 106.36 191.37 92.7001C168.5 79.1501 144.86 65.1401 115.15 65.1401C85.44 65.1401 61.82 79.1501 39 92.7001C26.7 100 14 107.47 0.55 112.77L0 111.38C13.37 106.12 26 98.6401 38.19 91.3801C61.19 77.7301 85.05 63.6101 115.19 63.6101C145.33 63.6101 169.13 77.7301 192.19 91.3801C215 105 238.66 119 268.37 119C298.08 119 321.72 105 344.58 91.4301C367.58 77.7801 391.44 63.6601 421.58 63.6601V65.1601C391.87 65.1601 368.23 79.1601 345.37 92.7201C322.31 106.36 298.48 120.48 268.37 120.48Z" fill="#D4D4D4"/>
<path d="M268.37 110.42C238.25 110.42 214.37 96.3 191.37 82.64C168.5 69.09 144.86 55.08 115.15 55.08C85.44 55.08 61.8 69.08 38.94 82.64C26.7 89.9 14 97.4101 0.55 102.71L0 101.32C13.37 96.0601 26 88.5801 38.19 81.3201C61.19 67.6701 85.05 53.55 115.19 53.55C145.33 53.55 169.13 67.6701 192.19 81.3201C215.06 94.8701 238.7 108.89 268.41 108.89C298.12 108.89 321.76 94.8901 344.62 81.3201C367.62 67.6701 391.48 53.55 421.62 53.55V55.05C391.91 55.05 368.27 69.05 345.41 82.61C322.31 96.3 298.48 110.42 268.37 110.42Z" fill="#D4D4D4"/>
<path d="M268.37 100.35C238.25 100.35 214.37 86.23 191.37 72.58C168.52 59 144.88 45 115.17 45C85.46 45 61.82 59 39 72.58C26.7 79.84 14 87.35 0.55 92.65L0 91.26C13.37 86 26 78.52 38.19 71.26C61.19 57.6 85.05 43.48 115.19 43.48C145.33 43.48 169.13 57.6 192.19 71.26C215.06 84.81 238.7 98.82 268.41 98.82C298.12 98.82 321.76 84.82 344.62 71.26C367.62 57.6 391.48 43.48 421.62 43.48V45C391.91 45 368.27 59 345.41 72.57C322.31 86.23 298.48 100.35 268.37 100.35Z" fill="#D4D4D4"/>
<path d="M268.37 90.2899C238.25 90.2899 214.37 76.1699 191.37 62.5199C168.52 48.9999 144.88 34.9999 115.17 34.9999C85.46 34.9999 61.82 48.9999 39 62.5199C26.7 69.7799 14 77.2899 0.55 82.5899L0 81.1899C13.37 75.9399 26 68.4599 38.19 61.1899C61.19 47.5299 85.05 33.4099 115.19 33.4099C145.33 33.4099 169.13 47.5299 192.19 61.1899C215.06 74.7399 238.7 88.7499 268.41 88.7499C298.12 88.7499 321.76 74.7499 344.62 61.1899C367.62 47.5299 391.48 33.4099 421.62 33.4099V34.9999C391.91 34.9999 368.27 48.9999 345.41 62.5699C322.31 76.1699 298.48 90.2899 268.37 90.2899Z" fill="#D4D4D4"/>
<path d="M268.37 80.2301C238.25 80.2301 214.37 66.1101 191.37 52.4601C168.5 38.9001 144.86 24.8901 115.15 24.8901C85.44 24.8901 61.82 38.9001 39 52.4601C26.7 59.7201 14 67.2301 0.55 72.5301L0 71.1301C13.37 65.8801 26 58.4001 38.19 51.1301C61.19 37.4801 85.05 23.3601 115.19 23.3601C145.33 23.3601 169.13 37.4801 192.19 51.1401C215.06 64.6901 238.7 78.7001 268.41 78.7001C298.12 78.7001 321.76 64.7001 344.62 51.1401C367.62 37.4801 391.48 23.3601 421.62 23.3601V24.8601C391.91 24.8601 368.27 38.8601 345.41 52.4301C322.31 66.1101 298.48 80.2301 268.37 80.2301Z" fill="#D4D4D4"/>
<path d="M268.37 70.17C238.25 70.17 214.37 56.05 191.37 42.39C168.5 28.84 144.86 14.83 115.15 14.83C85.44 14.83 61.8 28.83 38.94 42.39C26.7 49.66 14 57.17 0.55 62.47L0 61.0701C13.37 55.8101 26 48.3401 38.19 41.0701C61.19 27.4201 85.05 13.3 115.19 13.3C145.33 13.3 169.13 27.4201 192.19 41.0701C215.06 54.6301 238.7 68.64 268.41 68.64C298.12 68.64 321.76 54.6401 344.62 41.0701C367.62 27.4201 391.48 13.3 421.62 13.3V14.8C391.91 14.8 368.27 28.8 345.41 42.36C322.31 56.05 298.48 70.17 268.37 70.17Z" fill="#D4D4D4"/>
<path d="M268.37 60.11C238.25 60.11 214.37 45.99 191.37 32.33C168.5 18.78 144.86 4.76999 115.15 4.76999C85.44 4.76999 61.8 18.77 38.94 32.33C26.7 39.59 14 47.1 0.55 52.4L0 51C13.37 45.74 26 38.26 38.19 31C61.19 17.35 85.05 3.22998 115.19 3.22998C145.33 3.22998 169.13 17.35 192.19 31C215.06 44.55 238.7 58.57 268.41 58.57C298.12 58.57 321.76 44.57 344.62 31C367.62 17.35 391.48 3.22998 421.62 3.22998V4.72998C391.91 4.72998 368.27 18.73 345.41 32.29C322.31 46 298.48 60.11 268.37 60.11Z" fill="#D4D4D4"/>
<path d="M268.37 50.05C238.25 50.05 214.37 35.93 191.37 22.27C168.5 8.71998 144.86 -5.29002 115.15 -5.29002C85.44 -5.29002 61.8 8.70998 38.94 22.27C26.7 29.53 14 37 0.55 42.34L0 41C13.37 35.74 26 28.26 38.19 21C61.19 7.33998 85.05 -6.77002 115.19 -6.77002C145.33 -6.77002 169.13 7.33998 192.19 21C215.06 34.55 238.7 48.57 268.41 48.57C298.12 48.57 321.76 34.57 344.62 21C367.62 7.33998 391.48 -6.77002 421.62 -6.77002V-5.27002C391.91 -5.27002 368.27 8.72997 345.41 22.29C322.31 35.93 298.48 50.05 268.37 50.05Z" fill="#D4D4D4"/>
<path d="M268.37 40.0001C238.25 40.0001 214.37 25.8801 191.37 12.2301C168.5 -1.31991 144.86 -15.3399 115.15 -15.3399C85.44 -15.3399 61.8 -1.3399 38.94 12.2301C26.7 19.4701 14 27.0001 0.55 32.2801L0 30.8801C13.37 25.6301 26 18.1501 38.19 10.8801C61.19 -2.7799 85.05 -16.8999 115.19 -16.8999C145.33 -16.8999 169.13 -2.7799 192.19 10.8801C215.06 24.4301 238.7 38.4401 268.41 38.4401C298.12 38.4401 321.76 24.4401 344.62 10.8801C367.62 -2.7799 391.48 -16.8999 421.62 -16.8999V-15.3999C391.91 -15.3999 368.27 -1.3999 345.41 12.1701C322.31 25.8601 298.48 40.0001 268.37 40.0001Z" fill="#D4D4D4"/>
<path d="M268.37 29.92C238.25 29.92 214.37 15.8 191.37 2.15003C168.5 -11.4 144.86 -25.42 115.15 -25.42C85.44 -25.42 61.8 -11.42 38.94 2.15003C26.7 9.41003 14 16.92 0.55 22.22L0 20.82C13.37 15.57 26 8.09005 38.19 0.820045C61.19 -12.84 85.05 -26.96 115.19 -26.96C145.33 -26.96 169.13 -12.84 192.19 0.820045C215.06 14.37 238.7 28.38 268.41 28.38C298.12 28.38 321.76 14.38 344.62 0.820045C367.62 -12.84 391.48 -26.96 421.62 -26.96V-25.46C391.91 -25.46 368.27 -11.46 345.41 2.11004C322.31 15.8 298.48 29.92 268.37 29.92Z" fill="#D4D4D4"/>
<path d="M268.37 19.86C238.25 19.86 214.37 5.73999 191.37 -7.91001C168.5 -21.47 144.86 -35.48 115.15 -35.48C85.44 -35.48 61.8 -21.48 38.94 -7.91001C26.7 -0.650009 14 6.86 0.55 12.16L0 10.76C13.37 5.49998 26 -1.97001 38.19 -9.24001C61.19 -22.89 85.05 -37.01 115.19 -37.01C145.33 -37.01 169.13 -22.89 192.19 -9.23001C215.06 4.31999 238.7 18.33 268.41 18.33C298.12 18.33 321.76 4.32999 344.62 -9.23001C367.62 -22.89 391.48 -37.01 421.62 -37.01V-35.51C391.91 -35.51 368.27 -21.51 345.41 -7.94001C322.31 5.73999 298.48 19.86 268.37 19.86Z" fill="#D4D4D4"/>
<path d="M268.37 9.79993C238.25 9.79993 214.37 -4.32007 191.37 -17.9801C168.5 -31.5301 144.86 -45.5401 115.15 -45.5401C85.44 -45.5401 61.82 -31.5301 39 -18.0001C26.71 -10.7201 14 -3.21006 0.55 2.09994L0 0.699928C13.37 -4.56007 26 -12.0401 38.19 -19.3001C61.19 -32.9501 85.05 -47.0701 115.19 -47.0701C145.33 -47.0701 169.13 -32.9501 192.19 -19.3001C215.06 -5.74007 238.7 8.26994 268.41 8.26994C298.12 8.26994 321.76 -5.73007 344.62 -19.3001C367.62 -32.9501 391.48 -47.0701 421.62 -47.0701V-45.5701C391.91 -45.5701 368.27 -31.5701 345.41 -18.0101C322.31 -4.32007 298.48 9.79993 268.37 9.79993Z" fill="#D4D4D4"/>
</g>
<defs>
<clipPath id="clip0_1127_22838">
<rect width="345" height="193" fill="white"/>
</clipPath>
</defs>
</svg>
