<svg width="36" height="24" viewBox="0 0 36 24" fill="none" xmlns="http://www.w3.org/2000/svg">
<g clip-path="url(#clip0_2588_21584)">
<path d="M32.495 24C34.1518 24 35.495 22.6569 35.495 21V3C35.495 1.34315 34.1518 0 32.495 0H3C1.34314 0 0 1.34315 0 3V21C0 22.6569 1.34315 24 3 24H32.495Z" fill="#232323"/>
<path d="M17.8482 18.4459C19.3581 19.8137 21.3572 20.6449 23.551 20.6449C28.2436 20.6449 32.0472 16.8413 32.0472 12.1486C32.0472 7.45593 28.2436 3.65234 23.551 3.65234C21.3572 3.65234 19.3581 4.48355 17.8482 5.85138C16.1332 7.40332 15.0547 9.64971 15.0547 12.1486C15.0547 14.6475 16.1332 16.8886 17.8482 18.4459Z" fill="#E3B837"/>
<path d="M31.1547 16.8671H31.1863C31.1968 16.8671 31.2073 16.8671 31.2178 16.8619C31.2284 16.8566 31.2336 16.8461 31.2336 16.8356C31.2336 16.8251 31.2284 16.8145 31.2178 16.8093C31.2126 16.804 31.1968 16.804 31.1863 16.804H31.1547V16.8671ZM31.1547 17.0039H31.0968V16.7619H31.2021C31.2231 16.7619 31.2441 16.7619 31.2599 16.7724C31.281 16.7882 31.2915 16.8093 31.2915 16.8356C31.2915 16.8619 31.2757 16.8882 31.2494 16.8987L31.2968 17.0039H31.2336L31.1968 16.9092H31.1547V17.0039ZM31.1915 17.0934C31.3073 17.0934 31.402 16.9987 31.402 16.8829C31.402 16.7672 31.3073 16.6725 31.1915 16.6725C31.0758 16.6725 30.9811 16.7672 30.9811 16.8829C30.9811 16.9987 31.0758 17.0934 31.1915 17.0934ZM30.918 16.8829C30.918 16.7304 31.039 16.6094 31.1915 16.6094C31.3441 16.6094 31.4651 16.7304 31.4651 16.8829C31.4651 17.0355 31.3441 17.1565 31.1915 17.1565C31.039 17.1565 30.918 17.0355 30.918 16.8829Z" fill="#E3B837"/>
<path d="M17.8482 18.446C16.1332 16.8888 15.0547 14.6477 15.0547 12.1488C15.0547 9.6499 16.1332 7.4035 17.8482 5.85156" fill="#E3B837"/>
<path d="M17.8482 18.446C16.1332 16.8888 15.0547 14.6477 15.0547 12.1488C15.0547 9.6499 16.1332 7.4035 17.8482 5.85156" stroke="#E3B837" stroke-width="0.142043"/>
<path d="M20.5976 11.249C20.566 10.9439 20.5134 10.644 20.4503 10.3494H15.2473C15.3157 10.0443 15.3998 9.7444 15.4945 9.44979H20.203C20.103 9.13941 19.982 8.83954 19.8453 8.55018H15.8575C16.0048 8.23979 16.1679 7.93993 16.3468 7.65059H19.356C19.1613 7.33493 18.9404 7.03506 18.7089 6.75098H16.9939C17.2569 6.43007 17.541 6.1302 17.8514 5.85138C16.3415 4.48355 14.3424 3.65234 12.1486 3.65234C7.45595 3.65234 3.65234 7.45593 3.65234 12.1486C3.65234 16.8413 7.45595 20.6449 12.1486 20.6449C14.3424 20.6449 16.3415 19.8137 17.8514 18.4459C18.1565 18.167 18.4459 17.8672 18.7089 17.5462H16.9939C16.7571 17.2622 16.5467 16.9623 16.3468 16.6466H19.356C19.5349 16.3573 19.698 16.0574 19.8453 15.747H15.8575C15.7207 15.4524 15.5997 15.1578 15.4945 14.8474H20.203C20.303 14.5528 20.3871 14.2529 20.4503 13.9478C20.5134 13.6532 20.566 13.3533 20.5976 13.0482C20.6291 12.7536 20.6449 12.4537 20.6449 12.1486C20.6449 11.8435 20.6291 11.5436 20.5976 11.249Z" fill="#BE002E"/>
<path d="M31.1547 14.0976H31.1863C31.1968 14.0976 31.2073 14.1029 31.2178 14.0976C31.2284 14.0871 31.2336 14.0766 31.2336 14.0661C31.2336 14.0555 31.2284 14.045 31.2178 14.045C31.2126 14.0345 31.1968 14.0397 31.1863 14.0397H31.1547V14.0976ZM31.1547 14.2344H31.0968V13.9977H31.2021C31.2231 13.9977 31.2441 13.9977 31.2599 14.0082C31.281 14.0187 31.2915 14.045 31.2915 14.0661C31.2915 14.0976 31.2757 14.1187 31.2494 14.1292L31.2968 14.2344H31.2336L31.1968 14.1397H31.1547V14.2344ZM31.1915 14.3238C31.3073 14.3238 31.402 14.2291 31.402 14.1187C31.402 14.0029 31.3073 13.9082 31.1915 13.9082C31.0758 13.9082 30.9811 14.0029 30.9811 14.1187C30.9811 14.2291 31.0758 14.3238 31.1915 14.3238ZM30.918 14.1187C30.918 13.9661 31.039 13.8398 31.1915 13.8398C31.3441 13.8398 31.4651 13.9661 31.4651 14.1187C31.4651 14.266 31.3441 14.3922 31.1915 14.3922C31.039 14.3922 30.918 14.266 30.918 14.1187Z" fill="white"/>
<path d="M14.9605 14.5997C14.6764 14.6786 14.4765 14.7154 14.2661 14.7154C13.8347 14.7154 13.5664 14.4418 13.5664 13.9473C13.5664 13.8474 13.5769 13.7421 13.5927 13.6317L13.6506 13.2897L13.6927 13.0109L14.0925 10.6172H14.9816L14.8764 11.138H15.4288L15.2972 12.0218H14.7396L14.5028 13.4528C14.4923 13.5159 14.4871 13.5685 14.4871 13.6001C14.4871 13.779 14.5817 13.8579 14.8027 13.8579C14.9079 13.8579 14.9868 13.8474 15.0815 13.8263L14.9605 14.5997Z" fill="black"/>
<path d="M17.2592 12.4856C17.2645 12.412 17.2645 12.3489 17.2645 12.3068C17.2645 12.0227 17.1066 11.8543 16.8278 11.8543C16.5384 11.8543 16.328 12.0806 16.2438 12.4804L17.2592 12.4856ZM17.8063 14.5689C17.4907 14.6636 17.1855 14.711 16.8646 14.711C15.8756 14.711 15.2969 14.1744 15.2969 13.1432C15.2969 11.9385 15.9755 11.0547 16.9067 11.0547C17.6643 11.0547 18.1483 11.5492 18.1483 12.3278C18.1483 12.5856 18.1167 12.8381 18.0378 13.1906H16.2018C16.1965 13.2485 16.1965 13.2695 16.1965 13.3011C16.1965 13.7062 16.47 13.9166 17.0014 13.9166C17.3328 13.9166 17.6274 13.8482 17.9589 13.6956L17.8063 14.5689Z" fill="black"/>
<path d="M7.92134 14.6459H6.99544L7.52679 11.3316L6.34836 14.6459H5.71705L5.63815 11.3474L5.08575 14.6459H4.19141L4.91214 10.332H6.23788L6.2747 13.0045L7.16904 10.332H8.62631L7.92134 14.6459Z" fill="black"/>
<path d="M10.8642 14.6465H10.0698L10.0856 14.2835C9.88565 14.5518 9.61209 14.7043 9.11756 14.7043C8.67039 14.7043 8.29688 14.315 8.29688 13.7469C8.29688 13.5785 8.32844 13.4312 8.36527 13.2892C8.51258 12.7526 9.0597 12.4106 9.89617 12.3949C10.0014 12.3949 10.1645 12.3948 10.3013 12.4106C10.3328 12.2949 10.3381 12.2475 10.3381 12.1844C10.3381 11.9529 10.1487 11.8793 9.7173 11.8793C9.45426 11.8793 9.15966 11.9214 8.95447 11.9845L8.82295 12.0213L8.77035 12.0319L8.89661 11.248C9.328 11.1165 9.63313 11.0586 9.96983 11.0586C10.7642 11.0586 11.1851 11.4163 11.1851 12.0897C11.1851 12.2633 11.2009 12.3949 11.1377 12.7842L10.9483 14.0257L10.9115 14.2519L10.8905 14.4255L10.8747 14.5465L10.8642 14.6465ZM10.1382 13.084C10.0382 13.0735 10.0224 13.0682 9.95404 13.0682C9.43322 13.0682 9.17017 13.2681 9.17017 13.5996C9.17017 13.8205 9.29644 13.9573 9.50161 13.9573C9.94351 13.9573 10.1224 13.5996 10.1382 13.084Z" fill="black"/>
<path d="M22.2444 11.1681C22.5022 11.1681 22.7442 11.2365 23.0704 11.4048L23.2229 10.4684C23.1387 10.4368 23.1177 10.4263 22.9967 10.3842L22.6179 10.2895C22.5022 10.258 22.3654 10.2422 22.2076 10.2422C21.7499 10.2422 21.4816 10.2474 21.2027 10.421C21.0555 10.5105 20.8713 10.642 20.6556 10.8787L20.5451 10.8472L19.6035 11.5153L19.6508 11.1365H18.6723L18.1094 14.6455H19.0353L19.372 12.7569C19.372 12.7569 19.5035 12.4991 19.5614 12.4202C19.7297 12.1887 19.8823 12.1887 20.0769 12.194C20.098 12.194 20.1295 12.194 20.1401 12.194C20.1138 12.3991 20.098 12.6201 20.098 12.8621C20.098 14.009 20.7503 14.7192 21.7446 14.7192C21.9971 14.7192 22.2181 14.6876 22.5548 14.5982L22.7179 13.6144C22.4128 13.7617 22.1655 13.8353 21.934 13.8353C21.3974 13.8353 21.0765 13.4408 21.0765 12.7832C21.0765 11.8362 21.5552 11.1681 22.2444 11.1681Z" fill="black"/>
<path d="M28.9123 13.82C28.6019 13.82 28.4388 13.5885 28.4388 13.1255C28.4388 12.4364 28.7386 11.9471 29.1542 11.9471C29.4752 11.9471 29.6435 12.1891 29.6435 12.6363C29.6435 13.3307 29.3436 13.82 28.9123 13.82ZM30.0381 10.332L29.8329 11.5631C29.6119 11.2316 29.3489 11.0738 28.9912 11.0738C28.5072 11.0738 28.06 11.3474 27.7812 11.8682V11.8629L27.1972 11.5157L27.2393 11.1369H26.266L25.7031 14.6459H26.6238L26.9289 12.7573C26.9289 12.7573 27.1656 12.4942 27.2235 12.4153C27.3603 12.2365 27.5129 12.1996 27.6339 12.1944C27.5286 12.489 27.4655 12.8362 27.4655 13.236C27.4655 14.1093 27.9232 14.688 28.5966 14.688C28.9333 14.688 29.1963 14.5723 29.4489 14.2987L29.4015 14.6459H30.2748L30.9745 10.332H30.0381Z" fill="black"/>
<path d="M25.3944 14.6465H24.6L24.6158 14.2835C24.4159 14.5518 24.1423 14.7043 23.6478 14.7043C23.2059 14.7043 22.7956 14.3203 22.8008 13.7416C22.8061 12.9104 23.4321 12.3949 24.4264 12.3949C24.5316 12.3949 24.6947 12.3948 24.8315 12.4106C24.8631 12.2949 24.8684 12.2475 24.8684 12.1844C24.8684 11.9529 24.679 11.8793 24.2476 11.8793C23.9845 11.8793 23.6899 11.9214 23.4847 11.9845L23.3585 12.0213L23.3006 12.0319L23.4321 11.248C23.8635 11.1165 24.1634 11.0586 24.5001 11.0586C25.2945 11.0586 25.7101 11.4163 25.7101 12.0897C25.7101 12.2633 25.7311 12.3949 25.668 12.7842L25.4786 14.0257L25.4471 14.2519L25.4207 14.4255L25.405 14.5465L25.3944 14.6465ZM24.6684 13.084C24.5737 13.0735 24.5527 13.0682 24.4843 13.0682C23.9635 13.0682 23.7004 13.2681 23.7004 13.5996C23.7004 13.8205 23.8267 13.9573 24.0319 13.9573C24.4738 13.9573 24.6526 13.5996 24.6684 13.084Z" fill="black"/>
<path fill-rule="evenodd" clip-rule="evenodd" d="M12.7894 11.8885C12.9683 11.8885 13.2156 11.9042 13.4838 11.9411L13.6101 11.1309C13.3418 11.0941 12.9998 11.0625 12.7894 11.0625C11.7583 11.0625 11.4163 11.6096 11.4163 12.2567C11.4163 12.6723 11.6215 12.988 12.1055 13.2195C12.479 13.3931 12.5422 13.4246 12.5422 13.5824C12.5422 13.8034 12.3528 13.9244 11.9898 13.9244C11.7162 13.9244 11.4584 13.8823 11.1638 13.7876L11.0586 14.5925L11.0796 14.5978L11.248 14.6346C11.3006 14.6451 11.3848 14.6557 11.49 14.6662C11.7057 14.6872 11.8951 14.6978 12.0108 14.6978C13.0367 14.6978 13.4575 14.3032 13.4575 13.5299C13.4575 13.0511 13.2313 12.767 12.7684 12.5566C12.3791 12.3777 12.337 12.3514 12.337 12.1883C12.3422 12.0252 12.5053 11.8885 12.7894 11.8885Z" fill="black"/>
<path d="M23.467 10.1936L23.3197 11.13C22.9883 10.967 22.7516 10.8986 22.4938 10.8986C21.8046 10.8986 21.3206 11.5614 21.3206 12.5137C21.3206 13.166 21.6468 13.5606 22.1834 13.5606C22.4096 13.5606 22.6621 13.4922 22.9672 13.3396L22.8042 14.3234C22.4622 14.4181 22.2465 14.4496 21.9887 14.4496C20.9944 14.4496 20.3789 13.7342 20.3789 12.5873C20.3789 11.0459 21.2312 9.97266 22.4517 9.97266C22.6095 9.97266 22.7516 9.98845 22.8673 10.0148L23.2461 10.1094C23.3618 10.1515 23.3881 10.1621 23.467 10.1936Z" fill="white"/>
<path d="M20.506 10.8373C20.4797 10.832 20.4481 10.832 20.4165 10.832C20.1114 10.832 19.943 10.9846 19.659 11.4002L19.7379 10.8688H18.9067L18.3438 14.3726H19.2644C19.5958 12.2314 19.6853 11.8579 20.1272 11.8579C20.1535 11.8579 20.1535 11.8579 20.1903 11.8632C20.2745 11.4423 20.3902 11.1319 20.5428 10.8478L20.506 10.8373Z" fill="white"/>
<path d="M15.1936 14.3301C14.941 14.409 14.7464 14.4406 14.536 14.4406C14.0625 14.4406 13.8047 14.1723 13.8047 13.6725C13.8047 13.5726 13.8152 13.4673 13.831 13.3569L13.8889 13.0149L13.931 12.7414L14.3308 10.3477H15.2462L15.1409 10.8685H15.6144L15.4882 11.7207H15.0147L14.7727 13.1833C14.7622 13.2464 14.7569 13.2937 14.7569 13.3253C14.7569 13.5094 14.8516 13.5883 15.0673 13.5883C15.1725 13.5883 15.2567 13.5778 15.3198 13.5515L15.1936 14.3301Z" fill="white"/>
<path d="M11.6519 11.9728C11.6519 12.4147 11.8676 12.7198 12.3516 12.9513C12.7251 13.1249 12.783 13.1775 12.783 13.3353C12.783 13.5563 12.6199 13.6562 12.2569 13.6562C11.9781 13.6562 11.7256 13.6141 11.431 13.5142L11.3047 14.3244L11.3415 14.3349L11.5151 14.3664C11.5677 14.377 11.6466 14.3875 11.7519 14.398C11.9728 14.4191 12.1412 14.4296 12.2622 14.4296C13.2354 14.4296 13.6826 14.0561 13.6826 13.2564C13.6826 12.7777 13.4932 12.4936 13.0355 12.2831C12.6462 12.1043 12.6041 12.0674 12.6041 11.9044C12.6041 11.715 12.7567 11.615 13.0513 11.615C13.2354 11.615 13.4827 11.6361 13.7142 11.6676L13.8457 10.8574C13.6089 10.8206 13.2459 10.7891 13.0355 10.7891C12.0044 10.7891 11.6466 11.3309 11.6519 11.9728Z" fill="white"/>
<path d="M29.1497 13.5452C29.5811 13.5452 29.881 13.0612 29.881 12.3668C29.881 11.9196 29.7126 11.6776 29.3917 11.6776C28.9761 11.6776 28.6762 12.1669 28.6762 12.856C28.6762 13.3137 28.834 13.5452 29.1497 13.5452ZM30.5123 14.3711H29.639L29.6863 14.0292C29.4285 14.2975 29.1707 14.4185 28.8288 14.4185C28.1607 14.4185 27.7188 13.8398 27.7188 12.9612C27.7188 11.7986 28.4027 10.8148 29.2181 10.8148C29.5758 10.8148 29.8494 10.9621 30.1019 11.2936L30.3018 10.0625H31.212L30.5123 14.3711Z" fill="white"/>
<path d="M17.4991 12.2122C17.5044 12.1386 17.5044 12.0807 17.5044 12.0333C17.5044 11.7493 17.3413 11.5862 17.0677 11.5862C16.7731 11.5862 16.5679 11.8071 16.4785 12.2122H17.4991ZM18.0147 14.3008C17.699 14.3955 17.3939 14.4428 17.0677 14.4428C16.0366 14.4428 15.5 13.9009 15.5 12.8698C15.5 11.6703 16.1839 10.7812 17.1151 10.7812C17.8726 10.7812 18.3566 11.2758 18.3566 12.0544C18.3566 12.3122 18.3251 12.5647 18.2462 12.9224H16.4101C16.4049 12.975 16.3996 13.0013 16.3996 13.0329C16.3996 13.438 16.6732 13.6432 17.2098 13.6432C17.5412 13.6432 17.8358 13.5748 18.1672 13.4222L18.0147 14.3008Z" fill="white"/>
<path d="M8.15541 14.3711H7.23476L7.76084 11.0568L6.58242 14.3711H5.95637L5.87746 11.0779L5.31982 14.3711H4.45703L5.17777 10.0625H6.50351L6.54033 12.7298L7.43992 10.0625H8.87089L8.15541 14.3711Z" fill="white"/>
<path d="M11.0997 14.3717H10.3317L10.3527 14.0087C10.116 14.298 9.80557 14.4348 9.38471 14.4348C8.88492 14.4348 8.54297 14.0403 8.54297 13.4774C8.54297 12.6198 9.13744 12.1253 10.1581 12.1253C10.2633 12.1253 10.4001 12.1358 10.5368 12.1516C10.5631 12.0359 10.5737 11.9833 10.5737 11.9254C10.5737 11.6887 10.4106 11.6045 9.97919 11.6045C9.71614 11.6045 9.42154 11.6413 9.21636 11.7044L9.09011 11.7413L9.00593 11.7623L9.13219 10.9732C9.59515 10.8417 9.895 10.7891 10.237 10.7891C11.0261 10.7891 11.447 11.1415 11.447 11.8149C11.447 11.9885 11.4312 12.1201 11.3733 12.5094L11.1787 13.7562L11.1471 13.9771L11.1261 14.156L11.1103 14.277L11.0997 14.3717ZM10.4264 12.8092C10.3316 12.7987 10.2896 12.7987 10.2212 12.7987C9.70036 12.7987 9.43206 12.9776 9.43206 13.33C9.43206 13.5458 9.56358 13.6878 9.76349 13.6878C10.1423 13.6878 10.4106 13.33 10.4264 12.8092Z" fill="white"/>
<path d="M25.631 14.3717H24.8629L24.8839 14.0087C24.6472 14.298 24.3368 14.4348 23.916 14.4348C23.4162 14.4348 23.0742 14.0403 23.0742 13.4774C23.0742 12.6198 23.6687 12.1253 24.6946 12.1253C24.7998 12.1253 24.9313 12.1358 25.0681 12.1516C25.0996 12.0359 25.1049 11.9833 25.1049 11.9254C25.1049 11.6887 24.9418 11.6045 24.5157 11.6045C24.2527 11.6045 23.9528 11.6413 23.7476 11.7044L23.6213 11.7413L23.5372 11.7623L23.6634 10.9732C24.1264 10.8417 24.4263 10.7891 24.7682 10.7891C25.5626 10.7891 25.9782 11.1415 25.9782 11.8149C25.9782 11.9885 25.9677 12.1201 25.9046 12.5094L25.7099 13.7562L25.6783 13.9771L25.6573 14.156L25.6415 14.277L25.631 14.3717ZM24.9576 12.8092C24.8629 12.7987 24.8208 12.7987 24.7524 12.7987C24.2316 12.7987 23.9633 12.9776 23.9633 13.33C23.9633 13.5458 24.0948 13.6878 24.2947 13.6878C24.6735 13.6878 24.9418 13.33 24.9576 12.8092Z" fill="white"/>
<path d="M28.105 10.8373C28.0787 10.832 28.0471 10.832 28.0103 10.832C27.7104 10.832 27.5368 10.9846 27.2527 11.4002L27.3369 10.8688H26.5004L25.9375 14.3726H26.8634C27.1896 12.2314 27.279 11.8579 27.7209 11.8579C27.7472 11.8579 27.7472 11.8579 27.7841 11.8632C27.8682 11.4423 27.9787 11.1319 28.1365 10.8478L28.105 10.8373Z" fill="white"/>
</g>
<defs>
<clipPath id="clip0_2588_21584">
<rect width="35.495" height="24" fill="white"/>
</clipPath>
</defs>
</svg>
