<svg width="38" height="24" viewBox="0 0 38 24" fill="none" xmlns="http://www.w3.org/2000/svg">
<g clip-path="url(#clip0_2588_21700)">
<path d="M1.91999 0H35.5197C36.5802 0 37.4397 0.859632 37.4397 1.92V22.08C37.4397 23.1404 36.5802 24 35.5197 24H1.91999C0.859626 24 0 23.1404 0 22.08V1.92C0 0.859632 0.859626 0 1.91999 0Z" fill="#0E4595"/>
<path d="M14.0742 16.7409L15.6755 7.34444H18.2368L16.6343 16.7409H14.0742ZM25.8874 7.547C25.38 7.35663 24.5848 7.15234 23.592 7.15234C21.0612 7.15234 19.2785 8.42674 19.2634 10.2533C19.249 11.6035 20.536 12.3567 21.5074 12.8062C22.5044 13.2668 22.8395 13.5605 22.8348 13.9718C22.8285 14.6016 22.0387 14.8894 21.3026 14.8894C20.2774 14.8894 19.7328 14.747 18.8917 14.3961L18.5616 14.2468L18.2022 16.3503C18.8004 16.6126 19.9066 16.8398 21.0552 16.8516C23.7475 16.8516 25.4951 15.5918 25.5151 13.6413C25.5247 12.5724 24.8424 11.7589 23.3647 11.0882C22.4695 10.6536 21.9212 10.3635 21.927 9.92338C21.927 9.53281 22.3911 9.11511 23.3938 9.11511C24.2313 9.10215 24.8381 9.28479 25.3108 9.47511L25.5403 9.58359L25.8874 7.547ZM32.4782 7.3443H30.4991C29.886 7.3443 29.4272 7.51167 29.158 8.12353L25.3543 16.7347H28.0437C28.0437 16.7347 28.4834 15.5768 28.5829 15.3227C28.8769 15.3227 31.4895 15.3267 31.8631 15.3267C31.9397 15.6556 32.1746 16.7347 32.1746 16.7347H34.5512L32.4782 7.34401V7.3443ZM29.3382 13.412C29.55 12.8706 30.3587 10.7853 30.3587 10.7853C30.3435 10.8103 30.5689 10.2412 30.6982 9.88844L30.8713 10.6986C30.8713 10.6986 31.3618 12.9416 31.4642 13.412H29.3382ZM11.8999 7.3443L9.39242 13.7523L9.1252 12.4501C8.65841 10.949 7.20402 9.32262 5.57812 8.50839L7.87088 16.726L10.5807 16.7229L14.6129 7.3442H11.8999" fill="white"/>
<path d="M7.05325 7.34394H2.92331L2.89062 7.53945C6.10363 8.31724 8.22963 10.1969 9.11234 12.4551L8.21427 8.13705C8.05923 7.54209 7.60962 7.36453 7.05335 7.34375" fill="#F2AE14"/>
</g>
<defs>
<clipPath id="clip0_2588_21700">
<rect width="37.4397" height="24" fill="white"/>
</clipPath>
</defs>
</svg>
